<?xml version="1.0" standalone="no"?>
<!DOCTYPE svg PUBLIC "-//W3C//DTD SVG 1.1//EN" "http://www.w3.org/Graphics/SVG/1.1/DTD/svg11.dtd" >
<svg xmlns="http://www.w3.org/2000/svg" xmlns:xlink="http://www.w3.org/1999/xlink" version="1.1">
<metadata>
Created by FontForge 20170731 at Mon Apr 22 03:22:29 2019
 By Aleksey,,,
Copyright (c) 2019 by Oleh Lishchuk. All rights reserved. |DCNT
</metadata>
<defs>
<font id="MazzardH-Regular" horiz-adv-x="618" >
  <font-face 
    font-family="Mazzard H"
    font-weight="400"
    font-stretch="semi-condensed"
    units-per-em="1000"
    panose-1="0 0 0 0 0 0 0 0 0 0"
    ascent="755"
    descent="-245"
    x-height="520"
    cap-height="700"
    bbox="-112 -243 1186 982"
    underline-thickness="50"
    underline-position="-275"
    unicode-range="U+000D-FB04"
  />
<missing-glyph horiz-adv-x="333" 
 />
    <glyph glyph-name="f_f" unicode="ff" horiz-adv-x="658" 
d="M104 446h-87v74h87v77q0 65 44 109t109 44h69v-81h-63q-32 0 -53.5 -23.5t-21.5 -58.5v-67h230v77q0 65 44 109t109 44h69v-81h-63q-32 0 -53.5 -23.5t-21.5 -58.5v-67h139v-74h-139v-446h-84v446h-230v-446h-84v446z" />
    <glyph glyph-name="fi" unicode="fi" horiz-adv-x="570" 
d="M188 587v-67h139v-74h-139v-446h-84v446h-87v74h87v77q0 65 44 109t109 44h69v-81h-63q-32 0 -53.5 -23.5t-21.5 -58.5zM499 0h-84v520h84v-520zM415 605q-16 17 -16 42t16 41q17 17 42 17t41 -17q17 -16 17 -41t-17 -42q-16 -16 -41 -16t-42 16z" />
    <glyph glyph-name="fl" unicode="fl" horiz-adv-x="570" 
d="M188 587v-67h139v-74h-139v-446h-84v446h-87v74h87v77q0 65 44 109t109 44h69v-81h-63q-32 0 -53.5 -23.5t-21.5 -58.5zM499 0h-84v750h84v-750z" />
    <glyph glyph-name="f_f_i" unicode="ffi" horiz-adv-x="884" 
d="M104 0v446h-87v74h87v77q0 65 44 109t109 44h69v-81h-63q-32 0 -53.5 -23.5t-21.5 -58.5v-67h230v77q0 65 44 109t109 44h69v-81h-63q-32 0 -53.5 -23.5t-21.5 -58.5v-67h311v-520h-84v446h-227v-446h-84v446h-230v-446h-84zM729 605q-16 17 -16 42t16 41q17 17 42 17
t41 -17q17 -16 17 -41t-17 -42q-16 -16 -41 -16t-42 16z" />
    <glyph glyph-name="f_f_l" unicode="ffl" horiz-adv-x="884" 
d="M104 0v446h-87v74h87v77q0 65 44 109t109 44h69v-81h-63q-32 0 -53.5 -23.5t-21.5 -58.5v-67h230v77q0 65 44 109t109 44h69v-81h-63q-32 0 -53.5 -23.5t-21.5 -58.5v-67h139v-74h-139v-446h-84v446h-230v-446h-84zM729 0v750h84v-750h-84z" />
    <glyph glyph-name="afii10104_afii10104" unicode="&#x457;&#x457;" horiz-adv-x="453" 
d="M155 0h-84v520h84v-520zM-37 653q0 24 16 39.5t40 15.5t40 -15.5t16 -39.5t-16 -40t-40 -16t-40 15.5t-16 40.5zM382 0h-84v520h84v-520zM171 653q0 24 16 39.5t40 15.5t40 -15.5t16 -39.5t-16 -40t-40 -16t-40 15.5t-16 40.5zM378 653q0 24 16 39.5t40 15.5t40 -15.5
t16 -39.5t-16 -40t-40 -16t-40 15.5t-16 40.5z" />
    <glyph glyph-name=".notdef" horiz-adv-x="333" 
 />
    <glyph glyph-name="uni0000" horiz-adv-x="0" 
 />
    <glyph glyph-name="uni0000" horiz-adv-x="0" 
 />
    <glyph glyph-name="uni000D" unicode="&#xd;" horiz-adv-x="250" 
 />
    <glyph glyph-name="space" unicode=" " horiz-adv-x="274" 
 />
    <glyph glyph-name="exclam" unicode="!" horiz-adv-x="246" 
d="M123 109q25 0 42.5 -17.5t17.5 -42.5q4 -39 -36.5 -55t-66.5 12q-28 26 -12 66.5t55 36.5zM160 209h-73l-9 491h90z" />
    <glyph glyph-name="quotedbl" unicode="&#x22;" horiz-adv-x="368" 
d="M138 469h-66l-8 231h81zM297 469h-67l-7 231h81z" />
    <glyph glyph-name="numbersign" unicode="#" horiz-adv-x="706" 
d="M172 191h-148v71h160l31 176h-149l1 71h160l34 191h73l-34 -191h162l34 191h73l-34 -191h148v-71h-160l-32 -176h149l1 -71h-162l-34 -191h-72l34 191h-163l-34 -191h-72zM288 438l-32 -176h163l31 176h-162z" />
    <glyph glyph-name="dollar" unicode="$" 
d="M277 -126v117q-86 8 -147 53t-79 112l90 27q8 -46 56.5 -76.5t115.5 -30.5q70 0 117 32q47 33 47 84q0 52 -50 78q-44 23 -101 37l-42 11l-39 12l-41 14q-3 1 -8.5 3.5t-13.5 6t-14 6.5q-25 12 -59 43q-34 34 -40 108q0 82 57 136q57 56 148 63v116h65v-117
q78 -8 134 -50.5t72 -103.5l-89 -26q-9 40 -51.5 67.5t-99.5 27.5q-63 0 -104 -31q-41 -30 -41 -76q0 -50 56 -78q44 -21 135 -44q74 -19 115 -39q96 -45 101 -157q0 -88 -63 -145t-162 -64v-116h-65z" />
    <glyph glyph-name="percent" unicode="%" horiz-adv-x="816" 
d="M154 0l-44 37l553 663l45 -38zM207 711q73 0 122 -49q49 -48 49 -121t-49 -122q-49 -48 -122 -48q-72 0 -121 48q-49 49 -49 122t49 121q49 49 121 49zM207 446q41 0 68 27t27 68t-27 68t-68 27q-40 0 -67 -27.5t-27 -67.5t27 -67.5t67 -27.5zM439 159q0 71 48 121
q49 49 122 49t121 -49q49 -49 49 -121q0 -73 -49 -122q-48 -48 -121 -48t-122 48q-48 49 -48 122zM609 64q40 0 67.5 27t27.5 67q0 41 -27.5 68.5t-67.5 27.5q-41 0 -68 -27t-27 -68t27 -68t68 -27z" />
    <glyph glyph-name="ampersand" unicode="&#x26;" horiz-adv-x="698" 
d="M287 -11q-102 0 -169 61t-67 150q0 62 33.5 106.5t100.5 85.5q-62 86 -62 159q0 70 48 115t122 45q77 0 126 -45q50 -45 50 -113q0 -57 -36.5 -97t-115.5 -85q8 -10 14 -15l150 -153q33 67 33 149h85q0 -120 -56 -212l138 -140h-122l-70 71q-86 -82 -202 -82zM430 132
l-156 158q-28 28 -35 36q-100 -61 -100 -129q0 -52 42 -88q44 -36 107 -36q80 0 142 59zM262 434q67 35 95 60t28 58q0 32 -25.5 53.5t-63.5 21.5t-61.5 -21t-23.5 -57q0 -51 51 -115z" />
    <glyph glyph-name="quotesingle" unicode="'" horiz-adv-x="210" 
d="M138 469h-66l-8 231h81z" />
    <glyph glyph-name="parenleft" unicode="(" horiz-adv-x="297" 
d="M186 782l15 18h79l-17 -21q-10 -12 -36 -62q-55 -100 -83 -236q-32 -167 -1 -336q18 -87 38 -137q50 -117 83 -162l16 -21h-79l-1 1q-82 98 -122 257q-27 110 -27 230q0 181 53 313q45 112 82 156z" />
    <glyph glyph-name="parenright" unicode=")" horiz-adv-x="297" 
d="M32 780l-15 20h80l16 -20q11 -13 36 -58q29 -51 46 -97q20 -54 36 -137q16 -81 16 -175q0 -168 -48 -300q-18 -52 -43 -97q-22 -43 -36 -62q-16 -22 -22 -28l-1 -1h-80l16 22q13 16 37 62q56 101 82 235q34 165 1 336q-14 78 -38 137q-42 108 -83 163z" />
    <glyph glyph-name="asterisk" unicode="*" horiz-adv-x="480" 
d="M216 479l-111 -83l-41 70l129 55l-129 54l41 70l112 -84l-17 139h81l-17 -139l112 84l40 -70l-128 -55l128 -54l-40 -70l-112 83l17 -138h-81z" />
    <glyph glyph-name="plus" unicode="+" horiz-adv-x="600" 
d="M261 321h-194v78h194v194h78v-194h194v-78h-194v-194h-78v194z" />
    <glyph glyph-name="comma" unicode="," horiz-adv-x="219" 
d="M174 23q0 -27 -10 -52.5t-23 -42t-28.5 -30.5t-23.5 -19t-11 -7l-28 28q7 5 14 15q10 10 23 33q14 24 13 41q-22 3 -37 20.5t-15 40.5q0 25 17 41.5t43 16.5q29 0 47.5 -23.5t18.5 -61.5z" />
    <glyph glyph-name="hyphen" unicode="-" horiz-adv-x="400" 
d="M67 221v78h266v-78h-266z" />
    <glyph glyph-name="period" unicode="." horiz-adv-x="215" 
d="M168 49q0 -26 -17 -43t-43 -17t-43 17t-17 43t17 43t43 17t43 -17.5t17 -42.5z" />
    <glyph glyph-name="slash" unicode="/" horiz-adv-x="533" 
d="M78 -175h-78l455 974h78z" />
    <glyph glyph-name="zero" unicode="0" horiz-adv-x="647" 
d="M59 236v228q0 106 75 176q77 71 189 71t188 -71q76 -70 76 -176v-228q0 -106 -76 -176q-76 -71 -188 -71q-111 0 -188 71q-76 70 -76 176zM146 465v-230q0 -69 51 -116q50 -46 126 -46t126 46q51 47 51 116v230q0 69 -51 115q-52 47 -126 47t-126 -47q-51 -46 -51 -115z
" />
    <glyph glyph-name="one" unicode="1" horiz-adv-x="437" 
d="M229 589l-141 -74l-38 77l206 108h60v-700h-87v589z" />
    <glyph glyph-name="two" unicode="2" horiz-adv-x="583" 
d="M429 499q0 53 -43 90q-44 38 -104 38q-54 0 -96 -31.5t-63 -85.5l-81 39q31 75 95 118.5t145 43.5q100 0 168 -61q69 -61 69 -148q0 -56 -34.5 -110.5t-111.5 -128.5l-187 -179h343v-84h-479v65l265 256q62 61 88 99.5t26 78.5z" />
    <glyph glyph-name="three" unicode="3" horiz-adv-x="589" 
d="M431 514q0 49 -43 80q-44 33 -108 33q-53 0 -92.5 -21.5t-57.5 -58.5l-79 38q29 58 90.5 92t138.5 34q102 0 172 -56q69 -55 69 -138q0 -49 -27 -90t-74 -65q55 -25 86.5 -70t31.5 -100q0 -87 -73 -145t-181 -58q-86 0 -151 37.5t-92 101.5l85 31q16 -39 58.5 -62.5
t99.5 -23.5q70 0 117 35t47 88q0 52 -46 86q-47 35 -114 35h-53v81h38q67 0 112 33q46 33 46 83z" />
    <glyph glyph-name="four" unicode="4" horiz-adv-x="654" 
d="M428 0v144h-386v84l392 472h82v-471h100v-85h-100v-144h-88zM428 566l-280 -337h280v337z" />
    <glyph glyph-name="five" unicode="5" horiz-adv-x="604" 
d="M293 -11q-84 0 -150.5 42t-96.5 113l86 25q22 -45 64.5 -70.5t96.5 -25.5q72 0 121 42t49 104q0 64 -51 106q-50 43 -128 43h-187l34 332h366v-81h-293l-17 -170h100q113 0 190 -66q76 -66 76 -164t-75 -164t-185 -66z" />
    <glyph glyph-name="six" unicode="6" horiz-adv-x="614" 
d="M553 588l-80 -40q-50 79 -151 79q-74 0 -126 -47q-50 -47 -50 -115v-88q64 69 169 69q109 0 182 -66t73 -164q0 -96 -73 -162q-74 -65 -182 -65q-109 0 -183 66q-73 66 -73 163v246q0 106 75 176q77 71 189 71q75 0 136 -33t94 -90zM150 218q0 -62 47 -104
q49 -41 118 -41q70 0 117 41q48 40 48 102t-48 104q-46 42 -117 42q-70 0 -118 -42q-47 -41 -47 -102z" />
    <glyph glyph-name="seven" unicode="7" horiz-adv-x="528" 
d="M142 0l254 619h-372v81h463v-85l-250 -615h-95z" />
    <glyph glyph-name="eight" unicode="8" horiz-adv-x="610" 
d="M51 191q0 56 32 102t89 72q-48 26 -75.5 68t-27.5 90q0 80 68 134t169 54q100 0 167 -54q68 -54 68 -135q0 -48 -27 -89.5t-75 -66.5q57 -27 89 -73t32 -102q0 -86 -73 -144q-71 -58 -181 -58q-109 0 -182 58t-73 144zM141 199q0 -54 47 -90q46 -36 118 -36q69 0 116 35
q47 36 47 90t-47 89q-46 36 -116 36q-72 0 -118 -36q-47 -35 -47 -88zM160 516q0 -48 41.5 -80t104.5 -32q62 0 103 32q42 31 42 80q0 48 -42 79q-41 32 -103 32t-105 -32q-41 -32 -41 -79z" />
    <glyph glyph-name="nine" unicode="9" horiz-adv-x="610" 
d="M55 116l81 40q22 -38 63 -60.5t92 -22.5q78 0 128 46q52 46 52 115v82q-63 -76 -167 -76q-106 0 -180 68q-73 67 -73 168q0 100 73 167q74 68 180 68q110 0 181 -67q73 -66 73 -165v-244q0 -105 -77 -176q-76 -70 -190 -70q-78 0 -140.5 34t-95.5 93zM304 324
q71 0 117 43q47 44 47 108t-47 108t-117 44t-116 -43q-47 -44 -47 -107q0 -65 47 -109t116 -44z" />
    <glyph glyph-name="colon" unicode=":" horiz-adv-x="215" 
d="M168 49q0 -26 -17 -43t-43 -17t-43 17t-17 43t17 43t43 17t43 -17.5t17 -42.5zM168 471q0 -25 -17 -42.5t-43 -17.5t-43 17t-17 43t17 43t43 17t43 -17t17 -43z" />
    <glyph glyph-name="semicolon" unicode=";" horiz-adv-x="215" 
d="M168 471q0 -25 -17 -42.5t-43 -17.5t-43 17t-17 43t17 43t43 17t43 -17t17 -43zM174 23q0 -27 -10 -52.5t-23 -42t-28.5 -30.5t-23.5 -19t-11 -7l-28 28q7 5 14 15q10 10 23 33q14 24 13 41q-22 3 -37 20.5t-15 40.5q0 25 17 41.5t43 16.5q29 0 47.5 -23.5t18.5 -61.5z
" />
    <glyph glyph-name="less" unicode="&#x3c;" horiz-adv-x="600" 
d="M523 99l-466 216v70l466 218v-85l-358 -168l358 -167v-84z" />
    <glyph glyph-name="equal" unicode="=" horiz-adv-x="600" 
d="M67 427v77h466v-77h-466zM67 196v77h466v-77h-466z" />
    <glyph glyph-name="greater" unicode="&#x3e;" horiz-adv-x="600" 
d="M543 385v-70l-466 -216v84l358 167l-358 168v85z" />
    <glyph glyph-name="question" unicode="?" horiz-adv-x="549" 
d="M415 507q0 51 -45 85q-44 35 -109 35q-54 0 -95 -25t-56 -67l-86 25q23 68 86 109q64 42 149 42q102 0 173 -59t71 -145q0 -42 -19 -80.5t-49 -62.5q-58 -49 -103 -65l-20 -7l-4 -83h-73l-9 132q22 6 65 26q34 17 58 34q27 20 46.5 48.5t19.5 57.5zM211 49
q0 25 17.5 42.5t42.5 17.5t42.5 -17.5t17.5 -42.5q0 -26 -17 -43t-43 -17t-43 17t-17 43z" />
    <glyph glyph-name="at" unicode="@" horiz-adv-x="992" 
d="M496 711q190 0 321 -126q131 -125 131 -302q0 -106 -49 -176q-49 -69 -126 -69q-44 0 -78.5 22.5t-50.5 60.5q-62 -83 -166 -83q-89 0 -149 63q-60 65 -60 159q0 95 60 158q60 64 149 64q94 0 155 -69v59h68v-297q0 -31 21.5 -51.5t52.5 -20.5q46 0 75.5 49t29.5 126
q0 152 -111 258q-112 107 -274 107q-163 0 -273 -110t-110 -273q0 -164 109 -273q110 -110 271 -110q98 0 175 44l23 -61q-90 -51 -201 -51q-188 0 -317 129q-128 130 -128 322q0 193 129 322q131 129 323 129zM486 107q63 0 105 44q42 43 42 109t-42 109q-42 44 -105 44
q-62 0 -104 -44q-42 -43 -42 -109t42 -109q42 -44 104 -44z" />
    <glyph glyph-name="A" unicode="A" horiz-adv-x="721" 
d="M112 0h-95l307 700h73l307 -700h-95l-68 157h-361zM504 241l-143 330l-144 -330h287z" />
    <glyph glyph-name="B" unicode="B" horiz-adv-x="691" 
d="M430 0h-352v700h332q84 0 142 -53q58 -52 58 -130q0 -95 -79 -147q52 -24 82.5 -70.5t30.5 -103.5q0 -83 -62 -140q-62 -56 -152 -56zM430 322h-262v-238h262q51 0 85.5 34t34.5 85q0 49 -35 84t-85 35zM410 616h-242v-210h242q46 0 76.5 30t30.5 75t-30.5 75t-76.5 30z
" />
    <glyph glyph-name="C" unicode="C" horiz-adv-x="776" 
d="M412 711q102 0 185.5 -48.5t131.5 -133.5l-88 -33q-36 60 -96 94t-133 34q-115 0 -191 -79q-77 -79 -77 -195t77 -196q77 -78 191 -78q73 0 133 34t96 94l88 -33q-48 -85 -131.5 -133.5t-185.5 -48.5q-155 0 -258 103t-103 258q0 154 103 257q104 104 258 104z" />
    <glyph glyph-name="D" unicode="D" horiz-adv-x="767" 
d="M355 0h-277v700h277q153 0 257 -101t104 -249t-104 -249t-257 -101zM355 616h-187v-532h187q113 0 190 77t77 189q0 113 -77 190q-76 76 -190 76z" />
    <glyph glyph-name="E" unicode="E" horiz-adv-x="626" 
d="M78 700h504v-84h-414v-220h363v-84h-363v-228h419v-84h-509v700z" />
    <glyph glyph-name="F" unicode="F" 
d="M78 700h504v-84h-414v-216h363v-84h-363v-316h-90v700z" />
    <glyph glyph-name="G" unicode="G" horiz-adv-x="819" 
d="M51 350q0 154 105 258q104 103 262 103q104 0 188.5 -48.5t132.5 -133.5l-88 -33q-36 60 -97.5 94t-135.5 34q-116 0 -195 -79q-79 -78 -79 -195t76 -196q76 -78 187 -78q95 0 169 59q74 60 90 153h-278v84h379q2 -24 2 -30q-3 -151 -106 -252q-104 -101 -253 -101
q-153 0 -256 103t-103 258z" />
    <glyph glyph-name="H" unicode="H" horiz-adv-x="752" 
d="M168 0h-90v700h90v-304h415v304h91v-700h-91v312h-415v-312z" />
    <glyph glyph-name="I" unicode="I" horiz-adv-x="246" 
d="M168 0h-90v700h90v-700z" />
    <glyph glyph-name="J" unicode="J" horiz-adv-x="595" 
d="M523 700v-449q0 -112 -77 -187q-76 -75 -192 -75q-72 0 -132 32t-96 87l75 49q23 -39 63.5 -61.5t90.5 -22.5q77 0 129 51t52 127v449h87z" />
    <glyph glyph-name="K" unicode="K" horiz-adv-x="643" 
d="M626 0h-116l-329 357l309 343h116l-309 -343zM78 0v700h90v-700h-90z" />
    <glyph glyph-name="L" unicode="L" horiz-adv-x="577" 
d="M78 700h90v-616h379v-84h-469v700z" />
    <glyph glyph-name="M" unicode="M" horiz-adv-x="899" 
d="M168 0h-90v700h90l282 -492l281 492h90v-700h-90v529l-252 -442h-59l-252 441v-528z" />
    <glyph glyph-name="N" unicode="N" horiz-adv-x="755" 
d="M165 0h-87v700h79l433 -544v544h87v-700h-79l-433 544v-544z" />
    <glyph glyph-name="O" unicode="O" horiz-adv-x="824" 
d="M412 711q154 0 258 -104t104 -257q0 -154 -104 -258q-103 -103 -258 -103t-258 103t-103 258q0 154 103 257q104 104 258 104zM412 76q114 0 191 78q77 80 77 196t-77 195q-76 79 -191 79t-191 -79q-77 -79 -77 -195t77 -196q77 -78 191 -78z" />
    <glyph glyph-name="P" unicode="P" horiz-adv-x="657" 
d="M168 268v-268h-90v700h307q97 0 162 -62t65 -154t-65 -154t-162 -62h-217zM385 616h-217v-264h217q57 0 95 38t38 94q0 57 -38 94.5t-95 37.5z" />
    <glyph glyph-name="Q" unicode="Q" horiz-adv-x="824" 
d="M412 -11q-155 0 -258 103t-103 258q0 154 103 257q104 104 258 104t258 -104t104 -257q0 -144 -91 -244l95 -95l-62 -61l-99 99q-91 -60 -205 -60zM412 624q-115 0 -191 -79q-77 -79 -77 -195t77 -196q77 -78 191 -78q76 0 140 38l-120 120l61 61l125 -124q62 76 62 179
q0 116 -77 195q-76 79 -191 79z" />
    <glyph glyph-name="R" unicode="R" horiz-adv-x="679" 
d="M78 700h317q97 0 162 -62t65 -154q0 -71 -39.5 -125.5t-106.5 -77.5l172 -281h-101l-164 268h-215v-268h-90v700zM395 616h-227v-264h227q57 0 95 38t38 94q0 57 -38 94.5t-95 37.5z" />
    <glyph glyph-name="S" unicode="S" 
d="M545 555l-89 -26q-9 40 -51.5 67.5t-99.5 27.5q-63 0 -104 -31q-41 -30 -41 -76q0 -50 56 -78q44 -21 135 -44q74 -19 115 -39q96 -45 101 -157q0 -94 -72 -152q-70 -58 -182 -58q-101 0 -172 47q-71 46 -90 120l90 27q8 -46 56.5 -76.5t115.5 -30.5q70 0 117 32
q47 33 47 84q0 52 -50 78q-44 23 -101 37l-42 11l-39 12l-41 14q-3 1 -8.5 3.5t-13.5 6t-14 6.5q-25 12 -59 43q-34 34 -40 108q0 89 66 144q67 56 169 56q92 0 157 -44q66 -43 84 -112z" />
    <glyph glyph-name="T" unicode="T" horiz-adv-x="668" 
d="M289 616h-262v84h614v-84h-262v-616h-90v616z" />
    <glyph glyph-name="U" unicode="U" horiz-adv-x="732" 
d="M573 280v420h91v-420q0 -124 -86 -208q-86 -83 -212 -83q-127 0 -213 83q-85 84 -85 208v420h90v-420q0 -89 59 -148q61 -59 149 -59t147 59q60 60 60 148z" />
    <glyph glyph-name="V" unicode="V" horiz-adv-x="711" 
d="M392 0h-73l-302 700h95l244 -570l23 56l220 514h95z" />
    <glyph glyph-name="W" unicode="W" horiz-adv-x="1015" 
d="M330 0h-72l-241 700h93l183 -556l179 556h72l179 -554l183 554h92l-240 -700h-73l-177 544z" />
    <glyph glyph-name="X" unicode="X" horiz-adv-x="677" 
d="M284 357l-257 343h108l204 -271l203 271h108l-257 -343l267 -357h-108l-213 284l-214 -284h-108z" />
    <glyph glyph-name="Y" unicode="Y" horiz-adv-x="671" 
d="M289 285l-272 415h104l213 -329l215 329h104l-273 -411v-289h-91v285z" />
    <glyph glyph-name="Z" unicode="Z" horiz-adv-x="640" 
d="M601 84v-84h-556v69l428 547h-425v84h551v-69l-427 -547h429z" />
    <glyph glyph-name="bracketleft" unicode="[" horiz-adv-x="296" 
d="M142 -104h137v-71h-215v975h215v-71h-137v-833z" />
    <glyph glyph-name="backslash" unicode="\" horiz-adv-x="533" 
d="M78 799l455 -974h-79l-454 974h78z" />
    <glyph glyph-name="bracketright" unicode="]" horiz-adv-x="296" 
d="M232 -175h-215v71h137v833h-137v71h215v-975z" />
    <glyph glyph-name="asciicircum" unicode="^" horiz-adv-x="600" 
d="M67 413l198 287h70l198 -286h-91l-142 196l-142 -197h-91z" />
    <glyph glyph-name="underscore" unicode="_" horiz-adv-x="274" 
d="M0 -128v78h274v-78h-274z" />
    <glyph glyph-name="grave" unicode="`" horiz-adv-x="331" 
d="M247 708l-193 96l40 74l183 -118z" />
    <glyph glyph-name="a" unicode="a" horiz-adv-x="645" 
d="M300 531q117 0 190 -85v74h84v-520h-84v74q-73 -85 -190 -85q-109 0 -183 77q-73 77 -73 194t73 193q73 78 183 78zM309 447q-75 0 -127 -54q-51 -53 -51 -133t51 -134q53 -53 127 -53q76 0 127 53q52 53 52 134t-52 133q-51 54 -127 54z" />
    <glyph glyph-name="b" unicode="b" horiz-adv-x="645" 
d="M71 0v750h84v-304q73 85 189 85q110 0 183 -78q74 -77 74 -193q0 -115 -74 -194q-74 -77 -183 -77q-116 0 -189 85v-74h-84zM335 447q-75 0 -127 -54q-51 -53 -51 -133t51 -134q53 -53 127 -53q76 0 127 53q52 53 52 134t-52 133q-51 54 -127 54z" />
    <glyph glyph-name="c" unicode="c" horiz-adv-x="599" 
d="M563 374l-84 -25q-23 45 -66.5 71.5t-97.5 26.5q-79 0 -131 -54q-53 -53 -53 -133q0 -79 53 -134q53 -53 131 -53q54 0 97.5 26.5t66.5 71.5l84 -25q-32 -73 -98.5 -115t-149.5 -42q-115 0 -194 77q-77 79 -77 194q0 116 77 193q78 78 194 78q83 0 149.5 -42t98.5 -115z
" />
    <glyph glyph-name="d" unicode="d" horiz-adv-x="645" 
d="M300 531q117 0 190 -85v304h84v-750h-84v74q-73 -85 -190 -85q-109 0 -183 77q-73 77 -73 194t73 193q73 78 183 78zM309 447q-75 0 -127 -54q-51 -53 -51 -133t51 -134q53 -53 127 -53q76 0 127 53q52 53 52 134t-52 133q-51 54 -127 54z" />
    <glyph glyph-name="e" unicode="e" horiz-adv-x="616" 
d="M578 231h-447q9 -70 62 -117q52 -46 128 -46q99 0 154 75l82 -26q-36 -60 -98.5 -94t-137.5 -34q-118 0 -198 77q-79 78 -79 194t77 193q77 78 191 78q115 0 191 -78q77 -77 77 -193q0 -3 -2 -29zM132 299h361q-12 67 -63 111q-50 43 -120 43q-68 0 -117 -43t-61 -111z
" />
    <glyph glyph-name="f" unicode="f" horiz-adv-x="344" 
d="M188 587v-67h139v-74h-139v-446h-84v446h-87v74h87v77q0 65 44 109t109 44h69v-81h-63q-32 0 -53.5 -23.5t-21.5 -58.5z" />
    <glyph glyph-name="g" unicode="g" horiz-adv-x="645" 
d="M300 -11q-109 0 -183 77q-73 77 -73 194t73 193q73 78 183 78q117 0 190 -85v74h84v-498q0 -111 -76 -184q-77 -74 -187 -74q-76 0 -143 38q-65 38 -95 96l84 27q21 -34 62.5 -55.5t88.5 -21.5q77 0 130 50t52 124v52q-73 -85 -190 -85zM309 447q-75 0 -127 -54
q-51 -53 -51 -133t51 -134q53 -53 127 -53q76 0 127 53q52 53 52 134t-52 133q-51 54 -127 54z" />
    <glyph glyph-name="h" unicode="h" horiz-adv-x="621" 
d="M71 0v750h84v-317q62 98 186 98q90 0 151 -59q60 -58 60 -148v-324h-84v302q0 63 -43 106t-107 43q-69 0 -116 -44t-47 -107v-300h-84z" />
    <glyph glyph-name="i" unicode="i" horiz-adv-x="226" 
d="M155 0h-84v520h84v-520zM71 605q-16 17 -16 42t16 41q17 17 42 17t42 -17q17 -16 17 -41t-17 -42q-17 -16 -42 -16t-42 16z" />
    <glyph glyph-name="j" unicode="j" horiz-adv-x="234" 
d="M79 520h84v-592q0 -65 -44 -109t-109 -44h-42v81h36q32 0 53.5 23.5t21.5 58.5v582zM79 605q-17 17 -17 42t17 41q17 17 42 17t41 -17q17 -16 17 -41t-17 -42q-16 -16 -41 -16t-42 16z" />
    <glyph glyph-name="k" unicode="k" horiz-adv-x="515" 
d="M71 0v750h84v-750h-84zM498 0h-105l-234 269l214 251h103l-213 -251z" />
    <glyph glyph-name="l" unicode="l" horiz-adv-x="226" 
d="M155 0h-84v750h84v-750z" />
    <glyph glyph-name="m" unicode="m" horiz-adv-x="958" 
d="M71 0v520h84v-76q59 87 171 87q56 0 102.5 -27t71.5 -73q17 30 53 60q48 40 131 40q88 0 146 -55t58 -138v-338h-84v315q0 58 -38 97t-96 39q-63 0 -106 -40q-42 -39 -42 -97v-314h-84v315q0 58 -38.5 97t-96.5 39q-63 0 -106 -40q-42 -39 -42 -97v-314h-84z" />
    <glyph glyph-name="n" unicode="n" 
d="M71 0v520h84v-87q62 98 185 98q90 0 149 -59q60 -58 60 -148v-324h-84v302q0 63 -43 106q-42 43 -105 43q-68 0 -115 -44t-47 -107v-300h-84z" />
    <glyph glyph-name="o" unicode="o" horiz-adv-x="631" 
d="M121 66q-77 79 -77 194q0 116 77 193q78 78 194 78t194 -78q78 -77 78 -193t-78 -194q-79 -77 -194 -77t-194 77zM315 73q79 0 132 53q53 55 53 134q0 80 -53 133q-53 54 -132 54t-131 -54q-53 -53 -53 -133q0 -79 53 -134q53 -53 131 -53z" />
    <glyph glyph-name="p" unicode="p" horiz-adv-x="645" 
d="M155 -225h-84v745h84v-74q73 85 189 85q110 0 183 -78q74 -77 74 -193q0 -115 -74 -194q-74 -77 -183 -77q-116 0 -189 85v-299zM335 447q-75 0 -127 -54q-51 -53 -51 -133t51 -134q53 -53 127 -53q76 0 127 53q52 53 52 134t-52 133q-51 54 -127 54z" />
    <glyph glyph-name="q" unicode="q" horiz-adv-x="645" 
d="M300 531q117 0 190 -85v74h84v-745h-84v299q-73 -85 -190 -85q-109 0 -183 77q-73 77 -73 194t73 193q73 78 183 78zM309 447q-75 0 -127 -54q-51 -53 -51 -133t51 -134q53 -53 127 -53q76 0 127 53q52 53 52 134t-52 133q-51 54 -127 54z" />
    <glyph glyph-name="r" unicode="r" horiz-adv-x="375" 
d="M155 294v-294h-84v520h84v-88q59 99 185 99h14v-93q-16 6 -37 6q-69 0 -115 -43q-47 -44 -47 -107z" />
    <glyph glyph-name="s" unicode="s" horiz-adv-x="477" 
d="M424 407l-79 -14q-8 30 -37.5 47t-74.5 17q-43 0 -71.5 -19t-28.5 -49q0 -42 55 -61l127 -45q119 -44 119 -142q0 -71 -54 -111.5t-141 -40.5q-83 0 -136.5 36.5t-64.5 99.5l79 14q8 -34 41.5 -55t82.5 -21q48 0 80.5 21t32.5 54q0 47 -69 71l-124 43q-109 37 -109 131
q0 70 51.5 109t135.5 39q75 0 124.5 -33.5t60.5 -90.5z" />
    <glyph glyph-name="t" unicode="t" horiz-adv-x="362" 
d="M15 446v74h84v104h84v-104h145v-74h-145v-283q0 -35 21.5 -58.5t53.5 -23.5h70v-81h-76q-65 0 -109 44t-44 109v293h-84z" />
    <glyph glyph-name="u" unicode="u" 
d="M69 196v324h84v-302q0 -62 42 -106q43 -43 107 -43q68 0 114 43q47 44 47 108v300h84v-520h-84v86q-58 -97 -184 -97q-90 0 -151 59q-59 59 -59 148z" />
    <glyph glyph-name="v" unicode="v" horiz-adv-x="552" 
d="M238 0l-224 520h87l175 -412l176 412h87l-224 -520h-77z" />
    <glyph glyph-name="w" unicode="w" horiz-adv-x="780" 
d="M264 0h-73l-177 520h85l127 -390l127 390h74l127 -391l128 391h85l-178 -520h-73l-126 380z" />
    <glyph glyph-name="x" unicode="x" horiz-adv-x="543" 
d="M424 0l-152 199l-153 -199h-100l203 266l-194 254h100l144 -187l143 187h100l-193 -254l202 -266h-100z" />
    <glyph glyph-name="y" unicode="y" horiz-adv-x="532" 
d="M190 -61l31 76l-207 505h87l163 -404l168 404h87l-256 -609q-29 -71 -74.5 -103.5t-115.5 -32.5h-24v81h24q82 0 117 83z" />
    <glyph glyph-name="z" unicode="z" horiz-adv-x="508" 
d="M40 0v65l308 377h-303v78h418v-65l-308 -377h313v-78h-428z" />
    <glyph glyph-name="braceleft" unicode="{" horiz-adv-x="323" 
d="M234 800h72v-71h-66q-26 0 -43.5 -18t-17.5 -45v-240q0 -45 -24 -74.5t-64 -38.5q40 -10 64 -39.5t24 -74.5v-240q0 -27 17.5 -45t43.5 -18h66v-71h-72q-57 0 -95 38.5t-38 95.5v241q0 25 -20.5 45t-44.5 27l-22 5v72q10 1 24 6q17 5 39 23q24 20 24 48v240q0 57 38 95.5
t95 38.5z" />
    <glyph glyph-name="bar" unicode="|" horiz-adv-x="200" 
d="M136 -175h-72v975h72v-975z" />
    <glyph glyph-name="braceright" unicode="}" horiz-adv-x="323" 
d="M17 729v71h73q56 0 94 -39q38 -38 38 -95v-240q0 -26 20.5 -45.5t45.5 -26.5l22 -5v-72q-10 -2 -31 -10q-57 -22 -57 -67v-241q0 -57 -38 -95q-38 -39 -94 -39h-73v71h66q26 0 43.5 18t17.5 45v240q0 44 24 74t64 40q-40 9 -64 39t-24 74v240q0 27 -17.5 45t-43.5 18h-66
z" />
    <glyph glyph-name="asciitilde" unicode="~" horiz-adv-x="600" 
d="M387 275q-32 -1 -66.5 18t-63.5 38t-48 18q-28 0 -46.5 -19.5t-18.5 -48.5h-77q0 62 42 103q43 42 103 42q39 0 98.5 -37t80.5 -37q28 0 46 19.5t18 48.5h78q-2 -63 -44 -104q-43 -41 -102 -41z" />
    <glyph glyph-name="exclamdown" unicode="&#xa1;" horiz-adv-x="246" 
d="M183 471q0 -25 -17.5 -42.5t-42.5 -17.5q-39 -4 -55 36.5t12 66.5q26 28 66.5 12t36.5 -55zM78 -180l9 491h73l8 -491h-90z" />
    <glyph glyph-name="cent" unicode="&#xa2;" horiz-adv-x="599" 
d="M283 -30v111q-104 11 -172 86q-67 76 -67 183q0 108 67 182q67 76 172 87v111h65v-111q74 -8 130 -48.5t85 -106.5l-84 -25q-23 45 -66.5 71.5t-97.5 26.5q-79 0 -131 -54q-53 -53 -53 -133q0 -79 53 -134q53 -53 131 -53q54 0 97.5 26.5t66.5 71.5l84 -25
q-29 -66 -85 -106.5t-130 -48.5v-111h-65z" />
    <glyph glyph-name="sterling" unicode="&#xa3;" horiz-adv-x="584" 
d="M541 0h-507v84h87v216h-70v64h70v139q0 90 61 148q62 60 151 60q74 0 138 -44t86 -111l-87 -25q-15 42 -53 69t-83 27q-52 0 -89 -36t-37 -88v-139h202v-64h-202v-216h333v-84z" />
    <glyph glyph-name="currency" unicode="&#xa4;" horiz-adv-x="596" 
d="M115 119l-51 50l76 76q-31 44 -31 105q0 60 32 107l-76 77l50 50l77 -77q49 32 105 32q59 0 106 -32l78 77l50 -50l-78 -77q33 -45 33 -107q0 -61 -32 -105l76 -77l-50 -49l-75 75q-47 -33 -108 -33t-107 33zM297 468q-50 0 -83.5 -34t-33.5 -84t33.5 -84t83.5 -34t84 34
t34 84t-33.5 84t-84.5 34z" />
    <glyph glyph-name="yen" unicode="&#xa5;" horiz-adv-x="671" 
d="M289 267v19l-272 414h104l213 -329l215 329h104l-273 -412v-21h151v-65h-151v-62h151v-65h-151v-75h-91v75h-151v65h151v62h-151v65h151z" />
    <glyph glyph-name="brokenbar" unicode="&#xa6;" horiz-adv-x="200" 
d="M136 800v-406h-72v406h72zM64 -175v406h72v-406h-72z" />
    <glyph glyph-name="section" unicode="&#xa7;" horiz-adv-x="472" 
d="M238 -186q-76 0 -131 40q-56 41 -69 103l77 29q9 -45 43 -72.5t82 -27.5t80.5 28t32.5 71q0 62 -61 90l-132 60q-104 50 -104 156q0 79 58 125q-58 45 -58 123q0 74 52 123t130 49q69 0 120.5 -36.5t66.5 -96.5l-77 -29q-9 40 -39 65t-72 25q-43 0 -71.5 -28t-28.5 -70
q0 -63 46 -84l140 -60q52 -23 81.5 -65t29.5 -94q0 -76 -60 -127q60 -45 60 -122q0 -75 -56 -125t-140 -50zM286 333l-103 44q-19 -9 -32.5 -33.5t-13.5 -52.5q0 -63 53 -88l112 -51q51 28 51 86q0 67 -67 95z" />
    <glyph glyph-name="dieresis" unicode="&#xa8;" horiz-adv-x="429" 
d="M111 818q23 0 39.5 -16t16.5 -40t-16.5 -40t-39.5 -16q-24 0 -40.5 16t-16.5 40t16.5 40t40.5 16zM278 722q-16 16 -16 40t16 40t40 16t40 -16t16 -40t-16 -40t-40 -16t-40 16z" />
    <glyph glyph-name="copyright" unicode="&#xa9;" horiz-adv-x="816" 
d="M155 97q-104 106 -104 253q0 148 104 252q105 105 253 105t252 -105q105 -104 105 -252t-105 -253q-104 -104 -252 -104q-147 0 -253 104zM90 350q0 -130 93 -225q95 -93 225 -93q131 0 224 93q94 94 94 225q0 132 -94 225q-93 93 -224 93q-130 0 -225 -93
q-93 -93 -93 -225zM413 539q56 0 101 -26t69 -71l-55 -21q-38 63 -115 63q-57 0 -94 -39q-38 -38 -38 -95q0 -56 38 -96q38 -38 94 -38q77 0 115 63l55 -21q-25 -45 -70 -71t-100 -26q-81 0 -137 54q-54 54 -54 135t54 135q56 54 137 54z" />
    <glyph glyph-name="ordfeminine" unicode="&#xaa;" horiz-adv-x="445" 
d="M201 705q81 0 130 -61v56h69v-364h-69v56q-49 -61 -130 -61q-74 0 -124 53q-50 55 -50 134q0 80 50 133q50 54 124 54zM296 603q-33 35 -82 35q-48 0 -83 -35q-33 -35 -33 -85q0 -52 33 -86q34 -34 83 -34t82 34t33 86q0 50 -33 85z" />
    <glyph glyph-name="guillemotleft" unicode="&#xab;" horiz-adv-x="528" 
d="M223 74l-186 186l186 186l50 -50l-136 -136l136 -136zM428 74l-186 186l186 186l50 -50l-137 -136l137 -136z" />
    <glyph glyph-name="logicalnot" unicode="&#xac;" horiz-adv-x="600" 
d="M458 164v147h-391v78h466v-225h-75z" />
    <glyph glyph-name="uni00AD" unicode="&#xad;" horiz-adv-x="400" 
d="M67 221v78h266v-78h-266z" />
    <glyph glyph-name="registered" unicode="&#xae;" horiz-adv-x="816" 
d="M155 97q-104 106 -104 253q0 148 104 252q105 105 253 105t252 -105q105 -104 105 -252t-105 -253q-104 -104 -252 -104q-147 0 -253 104zM726 350q0 132 -94 225q-93 93 -224 93q-130 0 -225 -93q-93 -93 -93 -225q0 -130 93 -225q95 -93 225 -93q131 0 224 93
q94 94 94 225zM328 165h-58v370h169q53 0 89 -34t36 -84q0 -36 -20 -65.5t-53 -43.5l85 -143h-64l-79 133h-105v-133zM439 482h-111v-130h111q28 0 47 18.5t19 46.5t-19 46.5t-47 18.5z" />
    <glyph glyph-name="overscore" unicode="&#xaf;" horiz-adv-x="397" 
d="M343 733h-289v71h289v-71z" />
    <glyph glyph-name="degree" unicode="&#xb0;" horiz-adv-x="393" 
d="M83 488q-46 46 -46 114t46 113q46 46 114 46t113 -46q46 -45 46 -113t-46 -114q-45 -45 -113 -45q-67 0 -114 45zM113 602q0 -35 24 -59.5t59 -24.5q36 0 60 24.5t24 59.5q0 36 -24 60t-60 24q-35 0 -59 -24t-24 -60z" />
    <glyph glyph-name="plusminus" unicode="&#xb1;" horiz-adv-x="600" 
d="M261 384h-194v78h194v194h78v-194h194v-78h-194v-167h-78v167zM67 68v78h466v-78h-466z" />
    <glyph glyph-name="twosuperior" unicode="&#xb2;" horiz-adv-x="320" 
d="M230 636q0 27 -22 46t-53 19q-57 0 -83 -62l-52 25q18 42 54 66t81 24q56 0 93 -34q39 -34 39 -82q0 -56 -81 -130l-93 -90h180v-53h-267v40l144 138q60 57 60 93z" />
    <glyph glyph-name="threesuperior" unicode="&#xb3;" horiz-adv-x="326" 
d="M232 643q0 24 -22 41t-54 17q-59 0 -79 -44l-49 19q16 36 51 57t80 21q56 0 93.5 -31.5t37.5 -78.5q0 -54 -57 -80q66 -26 66 -88q0 -49 -40 -82t-100 -33q-48 0 -84.5 22t-51.5 58l53 19q16 -45 81 -45q37 0 61 18t24 45q0 26 -23.5 44t-58.5 18h-29v43h20q35 0 58 17
t23 43z" />
    <glyph glyph-name="acute" unicode="&#xb4;" horiz-adv-x="331" 
d="M84 708l-30 52l183 118l40 -74z" />
    <glyph glyph-name="mu" unicode="&#xb5;" 
d="M69 -225v745h84v-302q0 -62 42 -106q43 -43 107 -43q68 0 114 43q47 44 47 108v300h84v-520h-84v86q-58 -97 -184 -97q-71 0 -126 38v-252h-84z" />
    <glyph glyph-name="paragraph" unicode="&#xb6;" horiz-adv-x="679" 
d="M247 700h398v-65h-107v-810h-71v810h-149v-810h-71v478q-84 0 -142 56q-57 57 -57 142t57 142t142 57z" />
    <glyph glyph-name="middot" unicode="&#xb7;" horiz-adv-x="215" 
d="M65 307q-17 17 -17 43t17 43t43 17t43 -17t17 -43t-17 -43t-43 -17t-43 17z" />
    <glyph glyph-name="cedilla" unicode="&#xb8;" horiz-adv-x="279" 
d="M102 -86l20 86h65l-12 -53q3 0 8 -1.5t17.5 -7t22 -13t17.5 -21.5t8 -32q0 -38 -32 -63.5t-81 -25.5q-51 0 -85 25l-12 8l14 46q26 -27 69 -27q26 0 44 11t18 26t-19 26t-42 14z" />
    <glyph glyph-name="onesuperior" unicode="&#xb9;" horiz-adv-x="236" 
d="M121 683l-77 -39l-21 47l115 59h39v-385h-56v318z" />
    <glyph glyph-name="ordmasculine" unicode="&#xba;" horiz-adv-x="436" 
d="M81 384q-54 54 -54 134t54 133q56 54 137 54q82 0 136 -54q55 -52 55 -133q0 -80 -55 -134q-55 -53 -136 -53t-137 53zM219 398q49 0 84 35t35 85t-35 85t-85 35q-52 0 -87 -35q-34 -34 -34 -85q0 -50 35 -85t87 -35z" />
    <glyph glyph-name="guillemotright" unicode="&#xbb;" horiz-adv-x="528" 
d="M305 446l186 -186l-186 -186l-50 50l137 136l-137 136zM101 446l186 -186l-186 -186l-50 50l136 136l-136 136z" />
    <glyph glyph-name="onequarter" unicode="&#xbc;" horiz-adv-x="783" 
d="M654 301l-141 -170h141v170zM654 0v77h-207v54l211 254h52v-254h54v-54h-54v-77h-56zM121 315v318l-77 -39l-21 47l115 59h39v-385h-56zM653 700l-492 -700h-76l492 700h76z" />
    <glyph glyph-name="onehalf" unicode="&#xbd;" horiz-adv-x="807" 
d="M121 315v318l-77 -39l-21 47l115 59h39v-385h-56zM653 700l-492 -700h-76l492 700h76zM716 271q0 27 -21.5 46t-52.5 19q-57 0 -84 -62l-51 25q18 42 54 66t81 24q56 0 93 -34q39 -34 39 -82q0 -55 -81 -130l-94 -90h180v-53h-266v40l144 138q59 57 59 93z" />
    <glyph glyph-name="threequarters" unicode="&#xbe;" horiz-adv-x="871" 
d="M535 77v54l212 254h52v-254h53v-54h-53v-77h-56v77h-208zM243 0h-76l493 700h75zM159 311q-48 0 -84.5 22t-51.5 58l53 19q16 -45 81 -45q37 0 61 18t24 45q0 26 -23.5 44t-58.5 18h-29v43h20q35 0 58 17t23 43q0 24 -22 41t-54 17q-59 0 -79 -44l-49 19q16 36 51 57
t80 21q56 0 93.5 -31.5t37.5 -78.5q0 -54 -57 -80q66 -26 66 -88q0 -49 -40 -82t-100 -33zM743 301l-141 -170h141v170z" />
    <glyph glyph-name="questiondown" unicode="&#xbf;" horiz-adv-x="543" 
d="M128 13q0 -50 44 -85q46 -35 110 -35q54 0 95 25t56 67l86 -25q-23 -69 -87 -109q-63 -42 -148 -42q-103 0 -174 59q-70 58 -70 146q0 42 19 80t49 63t55.5 40.5t48.5 23.5l19 7l4 83h73l9 -132q-22 -6 -66 -27q-31 -15 -57 -33q-27 -20 -46.5 -48.5t-19.5 -57.5z
M212 471q0 26 17 43t43 17t43 -17t17 -43t-17 -43t-43 -17t-43 17.5t-17 42.5z" />
    <glyph glyph-name="Agrave" unicode="&#xc0;" horiz-adv-x="721" 
d="M112 0h-95l307 700h73l307 -700h-95l-68 157h-361zM504 241l-143 330l-144 -330h287zM396 766l-192 95l39 75l183 -119z" />
    <glyph glyph-name="Aacute" unicode="&#xc1;" horiz-adv-x="721" 
d="M112 0h-95l307 700h73l307 -700h-95l-68 157h-361zM504 241l-143 330l-144 -330h287zM323 766l-29 51l182 119l40 -75z" />
    <glyph glyph-name="Acircumflex" unicode="&#xc2;" horiz-adv-x="721" 
d="M112 0h-95l307 700h73l307 -700h-95l-68 157h-361zM504 241l-143 330l-144 -330h287zM232 765l-36 48l161 122h6l161 -122l-36 -47l-128 83z" />
    <glyph glyph-name="Atilde" unicode="&#xc3;" horiz-adv-x="721" 
d="M180 157l-68 -157h-95l307 700h73l307 -700h-95l-68 157h-361zM504 241l-143 330l-144 -330h287zM273 777h-67q0 42 29 73q30 31 71 31q30 0 59 -24q31 -23 44 -23q16 0 27 12t11 30h67q0 -44 -28.5 -73.5t-70.5 -29.5q-31 0 -60 23q-29 24 -43 24q-16 0 -27.5 -12.5
t-11.5 -30.5z" />
    <glyph glyph-name="Adieresis" unicode="&#xc4;" horiz-adv-x="721" 
d="M180 157l-68 -157h-95l307 700h73l307 -700h-95l-68 157h-361zM504 241l-143 330l-144 -330h287zM424 859q16 16 40 16t40 -16t16 -40t-16 -40t-40 -16t-40 16t-16 40t16 40zM257 875q23 0 39 -16t16 -40t-16 -40t-39 -16q-25 0 -41 16t-16 40t16 40t41 16z" />
    <glyph glyph-name="Aring" unicode="&#xc5;" horiz-adv-x="721" 
d="M180 157l-68 -157h-95l307 700h73l307 -700h-95l-68 157h-361zM504 241l-143 330l-144 -330h287zM361 967q43 0 75 -32t32 -75q0 -45 -32 -77q-31 -31 -75 -31q-45 0 -76.5 31.5t-31.5 76.5q0 44 31 75q32 32 77 32zM361 906q-20 0 -33.5 -13t-13.5 -33t13.5 -33.5
t33.5 -13.5t33 13.5t13 33.5t-13.5 33t-32.5 13z" />
    <glyph glyph-name="AE" unicode="&#xc6;" horiz-adv-x="1009" 
d="M221 157l-100 -157h-104l452 700h496v-84h-369v-220h318v-84h-318v-228h374v-84h-464v157h-285zM275 241h231v362z" />
    <glyph glyph-name="Ccedilla" unicode="&#xc7;" horiz-adv-x="776" 
d="M51 350q0 154 103 257q104 104 258 104q102 0 185.5 -48.5t131.5 -133.5l-88 -33q-36 60 -96 94t-133 34q-115 0 -191 -79q-77 -79 -77 -195t77 -196q77 -78 191 -78q73 0 133 34t96 94l88 -33q-42 -76 -115 -123.5t-163 -56.5l-10 -44q3 0 8 -1.5t17.5 -7t22 -13
t17.5 -21.5t8 -32q0 -38 -32.5 -63.5t-81.5 -25.5q-50 0 -86 25l-11 8l14 46q27 -27 70 -27q26 0 44 11t18 26t-19 26t-42 14l-20 2l18 76q-146 9 -240 111q-95 103 -95 249z" />
    <glyph glyph-name="Egrave" unicode="&#xc8;" horiz-adv-x="626" 
d="M78 700h504v-84h-414v-220h363v-84h-363v-228h419v-84h-509v700zM391 817l-30 -51l-193 95l40 75z" />
    <glyph glyph-name="Eacute" unicode="&#xc9;" horiz-adv-x="626" 
d="M78 700h504v-84h-414v-220h363v-84h-363v-228h419v-84h-509v700zM288 766l-30 51l183 119l40 -75z" />
    <glyph glyph-name="Ecircumflex" unicode="&#xca;" horiz-adv-x="626" 
d="M78 700h504v-84h-414v-220h363v-84h-363v-228h419v-84h-509v700zM197 765l-36 48l161 122h6l161 -122l-36 -47l-128 83z" />
    <glyph glyph-name="Edieresis" unicode="&#xcb;" horiz-adv-x="626" 
d="M78 700h504v-84h-414v-220h363v-84h-363v-228h419v-84h-509v700zM469 779q-16 -16 -40 -16t-40 16t-16 40t16 40t40 16t40 -16t16 -40t-16 -40zM181 779q-16 16 -16 40t16 40t40 16t40 -16t16 -40t-16 -40t-40 -16t-40 16z" />
    <glyph glyph-name="Igrave" unicode="&#xcc;" horiz-adv-x="246" 
d="M168 0h-90v700h90v-700zM159 766l-193 95l40 75l183 -119z" />
    <glyph glyph-name="Iacute" unicode="&#xcd;" horiz-adv-x="246" 
d="M168 0h-90v700h90v-700zM86 766l-30 51l183 119l40 -75z" />
    <glyph glyph-name="Icircumflex" unicode="&#xce;" horiz-adv-x="246" 
d="M168 0h-90v700h90v-700zM123 849l-128 -84l-36 48l161 122h6l160 -122l-35 -47z" />
    <glyph glyph-name="Idieresis" unicode="&#xcf;" horiz-adv-x="246" 
d="M168 0h-90v700h90v-700zM-21 779q-16 16 -16 40t16 40t40 16t40 -16t16 -40t-16 -40t-40 -16t-40 16zM187 779q-16 16 -16 40t16 40t40 16t40 -16t16 -40t-16 -40t-40 -16t-40 16z" />
    <glyph glyph-name="Eth" unicode="&#xd0;" horiz-adv-x="780" 
d="M10 311v78h81v311h276q154 0 258 -101t104 -249t-104 -249t-258 -101h-276v311h-81zM181 616v-227h210v-78h-210v-227h186q114 0 191 77t77 189t-77 189t-191 77h-186z" />
    <glyph glyph-name="Ntilde" unicode="&#xd1;" horiz-adv-x="755" 
d="M165 0h-87v700h79l433 -544v544h87v-700h-79l-433 544v-544zM290 777h-67q0 42 29 73q30 31 71 31q30 0 60 -24q31 -23 44 -23q15 0 26 12t11 30h68q0 -44 -28.5 -73.5t-70.5 -29.5q-30 0 -61 23q-28 24 -43 24q-16 0 -27.5 -12.5t-11.5 -30.5z" />
    <glyph glyph-name="Ograve" unicode="&#xd2;" horiz-adv-x="824" 
d="M412 711q154 0 258 -104t104 -257q0 -154 -104 -258q-103 -103 -258 -103t-258 103t-103 258q0 154 103 257q104 104 258 104zM412 76q114 0 191 78q77 80 77 196t-77 195q-76 79 -191 79t-191 -79q-77 -79 -77 -195t77 -196q77 -78 191 -78zM448 766l-193 95l40 75
l183 -119z" />
    <glyph glyph-name="Oacute" unicode="&#xd3;" horiz-adv-x="824" 
d="M412 711q154 0 258 -104t104 -257q0 -154 -104 -258q-103 -103 -258 -103t-258 103t-103 258q0 154 103 257q104 104 258 104zM412 76q114 0 191 78q77 80 77 196t-77 195q-76 79 -191 79t-191 -79q-77 -79 -77 -195t77 -196q77 -78 191 -78zM375 766l-30 51l183 119
l40 -75z" />
    <glyph glyph-name="Ocircumflex" unicode="&#xd4;" horiz-adv-x="824" 
d="M412 711q154 0 258 -104t104 -257q0 -154 -104 -258q-103 -103 -258 -103t-258 103t-103 258q0 154 103 257q104 104 258 104zM412 76q114 0 191 78q77 80 77 196t-77 195q-76 79 -191 79t-191 -79q-77 -79 -77 -195t77 -196q77 -78 191 -78zM412 849l-128 -84l-36 48
l161 122h6l160 -122l-35 -47z" />
    <glyph glyph-name="Otilde" unicode="&#xd5;" horiz-adv-x="824" 
d="M412 711q154 0 258 -104t104 -257q0 -154 -104 -258q-103 -103 -258 -103t-258 103t-103 258q0 154 103 257q104 104 258 104zM412 76q114 0 191 78q77 80 77 196t-77 195q-76 79 -191 79t-191 -79q-77 -79 -77 -195t77 -196q77 -78 191 -78zM325 777h-68q0 43 30 73
q30 31 71 31q30 0 59 -24q31 -23 44 -23q16 0 27 12t11 30h67q0 -44 -28.5 -73.5t-70.5 -29.5q-31 0 -60 23q-29 24 -43 24q-16 0 -27.5 -12.5t-11.5 -30.5z" />
    <glyph glyph-name="Odieresis" unicode="&#xd6;" horiz-adv-x="824" 
d="M412 711q154 0 258 -104t104 -257q0 -154 -104 -258q-103 -103 -258 -103t-258 103t-103 258q0 154 103 257q104 104 258 104zM412 76q114 0 191 78q77 80 77 196t-77 195q-76 79 -191 79t-191 -79q-77 -79 -77 -195t77 -196q77 -78 191 -78zM268 779q-16 16 -16 40
t16 40t40 16t40 -16t16 -40t-16 -40t-40 -16t-40 16zM476 779q-16 16 -16 40t16 40t40 16t40 -16t16 -40t-16 -40t-40 -16t-40 16z" />
    <glyph glyph-name="multiply" unicode="&#xd7;" horiz-adv-x="600" 
d="M245 350l-157 156l55 55l157 -156l157 157l55 -55l-157 -157l157 -156l-55 -55l-157 156l-157 -156l-55 55z" />
    <glyph glyph-name="Oslash" unicode="&#xd8;" horiz-adv-x="824" 
d="M146 29l31 44q-126 106 -126 277q0 154 103 257q104 104 258 104q96 0 179 -44l31 44l59 -40l-31 -45q124 -105 124 -276q0 -154 -104 -258q-103 -103 -258 -103q-97 0 -177 44l-32 -44zM597 550l-311 -443q56 -31 126 -31q114 0 191 78q77 80 77 196q0 122 -83 200z
M229 148l310 445q-56 31 -127 31q-115 0 -191 -79q-77 -79 -77 -195q0 -123 85 -202z" />
    <glyph glyph-name="Ugrave" unicode="&#xd9;" horiz-adv-x="732" 
d="M573 280v420h91v-420q0 -124 -86 -208q-86 -83 -212 -83q-127 0 -213 83q-85 84 -85 208v420h90v-420q0 -89 59 -148q61 -59 149 -59t147 59q60 60 60 148zM402 766l-193 95l40 75l182 -119z" />
    <glyph glyph-name="Uacute" unicode="&#xda;" horiz-adv-x="732" 
d="M573 280v420h91v-420q0 -124 -86 -208q-86 -83 -212 -83q-127 0 -213 83q-85 84 -85 208v420h90v-420q0 -89 59 -148q61 -59 149 -59t147 59q60 60 60 148zM329 766l-30 51l183 119l39 -75z" />
    <glyph glyph-name="Ucircumflex" unicode="&#xdb;" horiz-adv-x="732" 
d="M573 280v420h91v-420q0 -124 -86 -208q-86 -83 -212 -83q-127 0 -213 83q-85 84 -85 208v420h90v-420q0 -89 59 -148q61 -59 149 -59t147 59q60 60 60 148zM365 849l-127 -84l-36 48l161 122h5l161 -122l-36 -47z" />
    <glyph glyph-name="Udieresis" unicode="&#xdc;" horiz-adv-x="732" 
d="M573 280v420h91v-420q0 -124 -86 -208q-86 -83 -212 -83q-127 0 -213 83q-85 84 -85 208v420h90v-420q0 -89 59 -148q61 -59 149 -59t147 59q60 60 60 148zM262 875q23 0 39.5 -16t16.5 -40t-16.5 -40t-39.5 -16q-24 0 -40 16t-16 40t16 40t40 16zM469 875q24 0 40.5 -16
t16.5 -40t-16.5 -40t-40.5 -16q-23 0 -39 16t-16 40t16 40t39 16z" />
    <glyph glyph-name="Yacute" unicode="&#xdd;" horiz-adv-x="671" 
d="M289 0v285l-272 415h104l213 -329l215 329h104l-273 -411v-289h-91zM491 861l-192 -95l-30 51l183 119z" />
    <glyph glyph-name="Thorn" unicode="&#xde;" horiz-adv-x="657" 
d="M78 0v700h90v-134h217q97 0 162 -62t65 -154t-65 -154t-162 -62h-217v-134h-90zM385 482h-217v-264h217q57 0 95 38t38 94q0 57 -38 94.5t-95 37.5z" />
    <glyph glyph-name="germandbls" unicode="&#xdf;" horiz-adv-x="588" 
d="M266 677q-48 0 -79.5 -30t-31.5 -76v-571h-84v584q0 77 55 126q55 51 137 51q80 0 133 -47t53 -114q0 -31 -13.5 -56.5t-29 -40.5t-29 -34t-13.5 -38q0 -23 19 -42.5t46 -37.5t54.5 -39.5t46.5 -59t19 -85.5q0 -175 -254 -175v84q87 0 126.5 22.5t39.5 71.5q0 62 -65 105
q-3 2 -26 18t-29 21t-23 20t-23 26.5t-12 29t-6 36.5q0 31 13.5 57t29 41.5t29 35.5t13.5 39q0 32 -28 55t-68 23z" />
    <glyph glyph-name="agrave" unicode="&#xe0;" horiz-adv-x="645" 
d="M300 -11q-109 0 -183 77q-73 77 -73 194t73 193q73 78 183 78q117 0 190 -85v74h84v-520h-84v74q-73 -85 -190 -85zM309 73q76 0 127 53q52 53 52 134t-52 133q-51 54 -127 54q-75 0 -127 -54q-51 -53 -51 -133t51 -134q53 -53 127 -53zM388 651l-29 -52l-193 95l40 75z
" />
    <glyph glyph-name="aacute" unicode="&#xe1;" horiz-adv-x="645" 
d="M300 -11q-109 0 -183 77q-73 77 -73 194t73 193q73 78 183 78q117 0 190 -85v74h84v-520h-84v74q-73 -85 -190 -85zM309 73q76 0 127 53q52 53 52 134t-52 133q-51 54 -127 54q-75 0 -127 -54q-51 -53 -51 -133t51 -134q53 -53 127 -53zM478 694l-193 -95l-29 52l182 118
z" />
    <glyph glyph-name="acircumflex" unicode="&#xe2;" horiz-adv-x="645" 
d="M300 -11q-109 0 -183 77q-73 77 -73 194t73 193q73 78 183 78q117 0 190 -85v74h84v-520h-84v74q-73 -85 -190 -85zM309 73q76 0 127 53q52 53 52 134t-52 133q-51 54 -127 54q-75 0 -127 -54q-51 -53 -51 -133t51 -134q53 -53 127 -53zM194 599l-35 47l160 122h6
l161 -122l-36 -46l-128 82z" />
    <glyph glyph-name="atilde" unicode="&#xe3;" horiz-adv-x="645" 
d="M300 -11q-109 0 -183 77q-73 77 -73 194t73 193q73 78 183 78q117 0 190 -85v74h84v-520h-84v74q-73 -85 -190 -85zM309 447q-75 0 -127 -54q-51 -53 -51 -133t51 -134q53 -53 127 -53q76 0 127 53q52 53 52 134t-52 133q-51 54 -127 54zM235 611h-67q0 43 29.5 73
t70.5 30q30 0 60 -24q31 -23 44 -23q15 0 26 12.5t11 30.5h68q0 -44 -29 -74t-70 -30q-30 0 -61 23q-29 24 -43 24q-16 0 -27.5 -12t-11.5 -30z" />
    <glyph glyph-name="adieresis" unicode="&#xe4;" horiz-adv-x="645" 
d="M300 531q117 0 190 -85v74h84v-520h-84v74q-73 -85 -190 -85q-109 0 -183 77q-73 77 -73 194t73 193q73 78 183 78zM309 73q76 0 127 53q52 53 52 134t-52 133q-51 54 -127 54q-75 0 -127 -54q-51 -53 -51 -133t51 -134q53 -53 127 -53zM371 653q0 24 16 39.5t39 15.5
q37 3 52.5 -34t-12.5 -61q-26 -26 -60.5 -11.5t-34.5 51.5zM163 653q0 24 16 39.5t40 15.5t40 -15.5t16 -39.5t-16 -40t-40 -16t-40 15.5t-16 40.5z" />
    <glyph glyph-name="aring" unicode="&#xe5;" horiz-adv-x="645" 
d="M300 531q117 0 190 -85v74h84v-520h-84v74q-73 -85 -190 -85q-109 0 -183 77q-73 77 -73 194t73 193q73 78 183 78zM309 73q76 0 127 53q52 53 52 134t-52 133q-51 54 -127 54q-75 0 -127 -54q-51 -53 -51 -133t51 -134q53 -53 127 -53zM323 801q43 0 75 -32t32 -76
t-32 -76q-31 -31 -75 -31q-46 0 -77 31t-31 76t31 76q32 32 77 32zM323 647q19 0 32.5 13.5t13.5 32.5q0 31 -28.5 43t-50.5 -10t-10 -50.5t43 -28.5z" />
    <glyph glyph-name="ae" unicode="&#xe6;" horiz-adv-x="1061" 
d="M300 -11q-109 0 -183 77q-73 77 -73 194t73 193q73 78 183 78q117 0 190 -85v74h84v-74q75 85 192 85q110 0 185 -78q75 -77 75 -193q0 -3 -2 -29h-448q9 -70 62 -117q52 -46 129 -46q99 0 154 75l82 -26q-36 -60 -96 -94t-134 -34q-123 0 -199 87v-76h-84v74
q-73 -85 -190 -85zM309 73q76 0 127 53q52 53 52 134t-52 133q-51 54 -127 54q-75 0 -127 -54q-51 -53 -51 -133t51 -134q53 -53 127 -53zM577 299h362q-12 67 -63 111q-50 43 -120 43q-68 0 -117 -43q-50 -44 -62 -111z" />
    <glyph glyph-name="ccedilla" unicode="&#xe7;" horiz-adv-x="599" 
d="M271 -86l18 76q-106 10 -176 85q-69 76 -69 185q0 116 77 193q78 78 194 78q83 0 149.5 -42t98.5 -115l-84 -25q-23 45 -66.5 71.5t-97.5 26.5q-79 0 -131 -54q-53 -53 -53 -133q0 -79 53 -134q53 -53 131 -53q54 0 97.5 26.5t66.5 71.5l84 -25q-28 -64 -83 -104.5
t-126 -49.5l-10 -45q3 0 8 -1.5t17.5 -7t22 -13t17.5 -21.5t8 -32q0 -38 -32 -63.5t-81 -25.5q-50 0 -86 25l-11 8l14 46q25 -27 69 -27q26 0 44 11t18 26t-18.5 26t-41.5 14z" />
    <glyph glyph-name="egrave" unicode="&#xe8;" horiz-adv-x="616" 
d="M578 231h-447q9 -70 62 -117q52 -46 128 -46q99 0 154 75l82 -26q-36 -60 -98.5 -94t-137.5 -34q-118 0 -198 77q-79 78 -79 194t77 193q77 78 191 78q115 0 191 -78q77 -77 77 -193q0 -3 -2 -29zM132 299h361q-12 67 -63 111q-50 43 -120 43q-68 0 -117 -43t-61 -111z
M350 599l-193 95l40 75l183 -118z" />
    <glyph glyph-name="eacute" unicode="&#xe9;" horiz-adv-x="616" 
d="M578 231h-447q9 -70 62 -117q52 -46 128 -46q99 0 154 75l82 -26q-36 -60 -98.5 -94t-137.5 -34q-118 0 -198 77q-79 78 -79 194t77 193q77 78 191 78q115 0 191 -78q77 -77 77 -193q0 -3 -2 -29zM132 299h361q-12 67 -63 111q-50 43 -120 43q-68 0 -117 -43t-61 -111z
M277 599l-30 52l183 118l40 -75z" />
    <glyph glyph-name="ecircumflex" unicode="&#xea;" horiz-adv-x="616" 
d="M578 231h-447q9 -70 62 -117q52 -46 128 -46q99 0 154 75l82 -26q-36 -60 -98.5 -94t-137.5 -34q-118 0 -198 77q-79 78 -79 194t77 193q77 78 191 78q115 0 191 -78q77 -77 77 -193q0 -3 -2 -29zM132 299h361q-12 67 -63 111q-50 43 -120 43q-68 0 -117 -43t-61 -111z
M314 682l-128 -83l-36 47l161 122h6l160 -122l-35 -46z" />
    <glyph glyph-name="edieresis" unicode="&#xeb;" horiz-adv-x="616" 
d="M578 231h-447q9 -70 62 -117q52 -46 128 -46q99 0 154 75l82 -26q-36 -60 -98.5 -94t-137.5 -34q-118 0 -198 77q-79 78 -79 194t77 193q77 78 191 78q115 0 191 -78q77 -77 77 -193q0 -3 -2 -29zM132 299h361q-12 67 -63 111q-50 43 -120 43q-68 0 -117 -43t-61 -111z
M154 653q0 24 16 39.5t40 15.5t40 -15.5t16 -39.5q2 -34 -27 -48.5t-58 0t-27 48.5zM362 653q0 24 16 39.5t40 15.5t40 -15.5t16 -39.5q2 -34 -27 -48.5t-58 0t-27 48.5z" />
    <glyph glyph-name="igrave" unicode="&#xec;" horiz-adv-x="226" 
d="M155 0h-84v520h84v-520zM-34 694l40 75l182 -118l-29 -51z" />
    <glyph glyph-name="iacute" unicode="&#xed;" horiz-adv-x="226" 
d="M155 0h-84v520h84v-520zM37 651l182 118l40 -75l-193 -94z" />
    <glyph glyph-name="icircumflex" unicode="&#xee;" horiz-adv-x="226" 
d="M155 0h-84v520h84v-520zM-15 599l-36 47l161 122h6l161 -122l-36 -46l-128 82z" />
    <glyph glyph-name="idieresis" unicode="&#xef;" horiz-adv-x="226" 
d="M155 0h-84v520h84v-520zM-37 653q0 24 16 39.5t40 15.5t40 -15.5t16 -39.5t-16 -40t-40 -16t-40 15.5t-16 40.5zM151 653q0 24 16 39.5t40 15.5t40 -15.5t16 -39.5q2 -34 -27 -48.5t-58 0t-27 48.5z" />
    <glyph glyph-name="eth" unicode="&#xf0;" horiz-adv-x="631" 
d="M315 531q86 0 156 -46q-46 130 -169 170l-54 -86l-55 35l42 66q-43 7 -107 7v84q87 0 155 -14l50 79l55 -36l-39 -62q120 -45 179 -158.5t59 -309.5q0 -116 -78 -194q-79 -77 -194 -77t-194 77q-77 79 -77 194q0 116 77 193q78 78 194 78zM315 73q79 0 132 53
q53 55 53 134q0 80 -53 133q-53 54 -132 54t-131 -54q-53 -53 -53 -133q0 -79 53 -134q53 -53 131 -53z" />
    <glyph glyph-name="ntilde" unicode="&#xf1;" 
d="M155 0h-84v520h84v-87q62 98 185 98q90 0 149 -59q60 -58 60 -148v-324h-84v302q0 63 -43 106q-42 43 -105 43q-68 0 -115 -44t-47 -107v-300zM226 611h-67q0 43 29.5 73t70.5 30q30 0 60 -24q31 -23 44 -23q15 0 26 12.5t11 30.5h68q0 -44 -29 -74t-70 -30q-30 0 -61 23
q-28 24 -43 24q-16 0 -27.5 -12t-11.5 -30z" />
    <glyph glyph-name="ograve" unicode="&#xf2;" horiz-adv-x="631" 
d="M121 66q-77 79 -77 194q0 116 77 193q78 78 194 78t194 -78q78 -77 78 -193t-78 -194q-79 -77 -194 -77t-194 77zM315 73q79 0 132 53q53 55 53 134q0 80 -53 133q-53 54 -132 54t-131 -54q-53 -53 -53 -133q0 -79 53 -134q53 -53 131 -53zM351 599l-192 95l39 75
l183 -118z" />
    <glyph glyph-name="oacute" unicode="&#xf3;" horiz-adv-x="631" 
d="M121 66q-77 79 -77 194q0 116 77 193q78 78 194 78t194 -78q78 -77 78 -193t-78 -194q-79 -77 -194 -77t-194 77zM315 73q79 0 132 53q53 55 53 134q0 80 -53 133q-53 54 -132 54t-131 -54q-53 -53 -53 -133q0 -79 53 -134q53 -53 131 -53zM278 599l-29 52l182 118
l40 -75z" />
    <glyph glyph-name="ocircumflex" unicode="&#xf4;" horiz-adv-x="631" 
d="M121 66q-77 79 -77 194q0 116 77 193q78 78 194 78t194 -78q78 -77 78 -193t-78 -194q-79 -77 -194 -77t-194 77zM315 73q79 0 132 53q53 55 53 134q0 80 -53 133q-53 54 -132 54t-131 -54q-53 -53 -53 -133q0 -79 53 -134q53 -53 131 -53zM315 682l-128 -83l-36 47
l161 122h6l161 -122l-36 -46z" />
    <glyph glyph-name="otilde" unicode="&#xf5;" horiz-adv-x="631" 
d="M121 66q-77 79 -77 194q0 116 77 193q78 78 194 78t194 -78q78 -77 78 -193t-78 -194q-79 -77 -194 -77t-194 77zM315 73q79 0 132 53q53 55 53 134q0 80 -53 133q-53 54 -132 54t-131 -54q-53 -53 -53 -133q0 -79 53 -134q53 -53 131 -53zM228 611h-67q0 43 29.5 73
t70.5 30q31 0 59 -24q31 -23 44 -23q16 0 27 12t11 31h67q0 -44 -29 -74t-70 -30q-31 0 -60 23q-29 24 -43 24q-16 0 -27.5 -12t-11.5 -30z" />
    <glyph glyph-name="odieresis" unicode="&#xf6;" horiz-adv-x="631" 
d="M121 66q-77 79 -77 194q0 116 77 193q78 78 194 78t194 -78q78 -77 78 -193t-78 -194q-79 -77 -194 -77t-194 77zM315 73q79 0 132 53q53 55 53 134q0 80 -53 133q-53 54 -132 54t-131 -54q-53 -53 -53 -133q0 -79 53 -134q53 -53 131 -53zM155 653q0 24 16 39.5t41 15.5
q23 0 39 -15.5t16 -39.5q0 -25 -15.5 -40.5t-39.5 -15.5q-25 0 -41 15.5t-16 40.5zM363 653q0 24 16 39.5t40 15.5t40 -15.5t16 -39.5q2 -34 -27 -48.5t-58 0t-27 48.5z" />
    <glyph glyph-name="divide" unicode="&#xf7;" horiz-adv-x="600" 
d="M67 311v78h466v-78h-466zM257 116q-17 18 -17 44t17 43t43 17t43 -17t17 -43t-17 -44q-17 -17 -43 -17t-43 17zM240 541q0 25 17 42.5t43 17.5t43 -17.5t17 -42.5q0 -26 -17 -43.5t-43 -17.5t-43 17.5t-17 43.5z" />
    <glyph glyph-name="oslash" unicode="&#xf8;" horiz-adv-x="631" 
d="M315 531q70 0 126 -29l21 29l58 -40l-20 -29q87 -76 87 -202q0 -116 -78 -194q-79 -77 -194 -77q-70 0 -126 29l-20 -29l-58 40l20 30q-87 77 -87 201q0 116 77 193q78 78 194 78zM448 389l-209 -299q37 -17 76 -17q79 0 132 53q53 55 53 134q0 77 -52 129zM182 132
l209 298q-37 17 -76 17q-79 0 -131 -54q-53 -53 -53 -133q0 -77 51 -128z" />
    <glyph glyph-name="ugrave" unicode="&#xf9;" 
d="M279 -11q-90 0 -151 59q-59 59 -59 148v324h84v-302q0 -62 42 -106q43 -43 107 -43q68 0 114 43q47 44 47 108v300h84v-520h-84v86q-58 -97 -184 -97zM374 651l-29 -52l-193 95l40 75z" />
    <glyph glyph-name="uacute" unicode="&#xfa;" 
d="M69 196v324h84v-302q0 -62 42 -106q43 -43 107 -43q68 0 114 43q47 44 47 108v300h84v-520h-84v86q-58 -97 -184 -97q-90 0 -151 59q-59 59 -59 148zM464 694l-192 -95l-30 52l183 118z" />
    <glyph glyph-name="ucircumflex" unicode="&#xfb;" 
d="M69 196v324h84v-302q0 -62 42 -106q43 -43 107 -43q68 0 114 43q47 44 47 108v300h84v-520h-84v86q-58 -97 -184 -97q-90 0 -151 59q-59 59 -59 148zM308 682l-127 -83l-36 47l161 122h5l161 -122l-36 -46z" />
    <glyph glyph-name="udieresis" unicode="&#xfc;" 
d="M69 196v324h84v-302q0 -62 42 -106q43 -43 107 -43q68 0 114 43q47 44 47 108v300h84v-520h-84v86q-58 -97 -184 -97q-90 0 -151 59q-59 59 -59 148zM357 653q0 24 16 39.5t39 15.5q37 3 52.5 -34t-12.5 -61q-26 -26 -60.5 -11.5t-34.5 51.5zM149 653q0 24 16 39.5
t40 15.5t40 -15.5t16 -39.5t-16 -40t-40 -16t-40 15.5t-16 40.5z" />
    <glyph glyph-name="yacute" unicode="&#xfd;" horiz-adv-x="532" 
d="M221 15l-207 505h87l163 -404l168 404h87l-256 -609q-29 -71 -74.5 -103.5t-115.5 -32.5h-24v81h24q82 0 117 83zM422 694l-193 -95l-30 52l183 118z" />
    <glyph glyph-name="thorn" unicode="&#xfe;" horiz-adv-x="645" 
d="M155 -225h-84v975h84v-304q73 85 189 85q110 0 183 -78q74 -77 74 -193q0 -115 -74 -194q-74 -77 -183 -77q-116 0 -189 85v-299zM335 447q-75 0 -127 -54q-51 -53 -51 -133t51 -134q53 -53 127 -53q76 0 127 53q52 53 52 134t-52 133q-51 54 -127 54z" />
    <glyph glyph-name="ydieresis" unicode="&#xff;" horiz-adv-x="532" 
d="M221 15l-207 505h87l163 -404l168 404h87l-256 -609q-29 -71 -74.5 -103.5t-115.5 -32.5h-24v81h24q82 0 117 83zM314 653q0 24 16 39.5t40 15.5t40 -15.5t16 -39.5q2 -34 -27 -48.5t-58 0t-27 48.5zM106 653q0 24 16 39.5t40 15.5t40 -15.5t16 -39.5q2 -34 -27 -48.5
t-58 0t-27 48.5z" />
    <glyph glyph-name="Amacron" unicode="&#x100;" horiz-adv-x="721" 
d="M112 0h-95l307 700h73l307 -700h-95l-68 157h-361zM504 241l-143 330l-144 -330h287zM216 790v72h289v-72h-289z" />
    <glyph glyph-name="amacron" unicode="&#x101;" horiz-adv-x="645" 
d="M300 531q117 0 190 -85v74h84v-520h-84v74q-73 -85 -190 -85q-109 0 -183 77q-73 77 -73 194t73 193q73 78 183 78zM309 447q-75 0 -127 -54q-51 -53 -51 -133t51 -134q53 -53 127 -53q76 0 127 53q52 53 52 134t-52 133q-51 54 -127 54zM467 695v-71h-288v71h288z" />
    <glyph glyph-name="Abreve" unicode="&#x102;" horiz-adv-x="721" 
d="M180 157l-68 -157h-95l307 700h73l307 -700h-95l-68 157h-361zM504 241l-143 330l-144 -330h287zM212 901h68q0 -37 23 -61.5t58 -24.5t57.5 24.5t22.5 61.5h68q0 -63 -42 -105t-106 -42q-63 0 -107 42q-42 42 -42 105z" />
    <glyph glyph-name="abreve" unicode="&#x103;" horiz-adv-x="645" 
d="M300 -11q-109 0 -183 77q-73 77 -73 194t73 193q73 78 183 78q117 0 190 -85v74h84v-520h-84v74q-73 -85 -190 -85zM309 73q76 0 127 53q52 53 52 134t-52 133q-51 54 -127 54q-75 0 -127 -54q-51 -53 -51 -133t51 -134q53 -53 127 -53zM174 735h68q0 -37 23 -61.5
t58 -24.5t57.5 24.5t22.5 61.5h68q0 -64 -42 -106t-106 -42q-63 0 -107 42q-42 42 -42 106z" />
    <glyph glyph-name="Aogonek" unicode="&#x104;" horiz-adv-x="721" 
d="M112 0h-95l307 700h73l307 -700h-11l-18 -15q-11 -11 -27 -36q-17 -28 -17 -50q0 -20 12 -31.5t31 -11.5q26 0 49 20l7 7l30 -37l-14 -13q-7 -8 -36 -22q-28 -14 -54 -14q-39 0 -65 24.5t-26 61.5q0 26 15 55.5t32 46.5l16 15h-19l-68 157h-361zM504 241l-143 330
l-144 -330h287z" />
    <glyph glyph-name="aogonek" unicode="&#x105;" horiz-adv-x="645" 
d="M300 -11q-109 0 -183 77q-73 77 -73 194t73 193q73 78 183 78q117 0 190 -85v74h84v-520h-10l-17 -15q-11 -11 -27 -36q-17 -28 -17 -50q0 -20 12 -31.5t30 -11.5q27 0 49 20l7 7l31 -37l-14 -13q-7 -8 -36 -22q-28 -14 -54 -14q-39 0 -65.5 24.5t-26.5 61.5q0 26 15 55
t33 46l15 16h-9v74q-73 -85 -190 -85zM309 73q76 0 127 53q52 53 52 134t-52 133q-51 54 -127 54q-75 0 -127 -54q-51 -53 -51 -133t51 -134q53 -53 127 -53z" />
    <glyph glyph-name="Cacute" unicode="&#x106;" horiz-adv-x="776" 
d="M412 711q102 0 185.5 -48.5t131.5 -133.5l-88 -33q-36 60 -96 94t-133 34q-115 0 -191 -79q-77 -79 -77 -195t77 -196q77 -78 191 -78q73 0 133 34t96 94l88 -33q-48 -85 -131.5 -133.5t-185.5 -48.5q-155 0 -258 103t-103 258q0 154 103 257q104 104 258 104zM370 766
l-29 51l182 119l40 -75z" />
    <glyph glyph-name="cacute" unicode="&#x107;" horiz-adv-x="599" 
d="M563 374l-84 -25q-23 45 -66.5 71.5t-97.5 26.5q-79 0 -131 -54q-53 -53 -53 -133q0 -79 53 -134q53 -53 131 -53q54 0 97.5 26.5t66.5 71.5l84 -25q-32 -73 -98.5 -115t-149.5 -42q-115 0 -194 77q-77 79 -77 194q0 116 77 193q78 78 194 78q83 0 149.5 -42t98.5 -115z
M280 599l-29 52l182 118l40 -75z" />
    <glyph glyph-name="Ccircumflex" unicode="&#x108;" horiz-adv-x="776" 
d="M412 711q102 0 185.5 -48.5t131.5 -133.5l-88 -33q-36 60 -96 94t-133 34q-115 0 -191 -79q-77 -79 -77 -195t77 -196q77 -78 191 -78q73 0 133 34t96 94l88 -33q-48 -85 -131.5 -133.5t-185.5 -48.5q-155 0 -258 103t-103 258q0 154 103 257q104 104 258 104zM407 849
l-128 -84l-36 48l161 122h6l161 -122l-36 -47z" />
    <glyph glyph-name="ccircumflex" unicode="&#x109;" horiz-adv-x="599" 
d="M563 374l-84 -25q-23 45 -66.5 71.5t-97.5 26.5q-79 0 -131 -54q-53 -53 -53 -133q0 -79 53 -134q53 -53 131 -53q54 0 97.5 26.5t66.5 71.5l84 -25q-32 -73 -98.5 -115t-149.5 -42q-115 0 -194 77q-77 79 -77 194q0 116 77 193q78 78 194 78q83 0 149.5 -42t98.5 -115z
M317 682l-128 -83l-36 47l161 122h6l161 -122l-36 -46z" />
    <glyph glyph-name="Cdotaccent" unicode="&#x10a;" horiz-adv-x="776" 
d="M412 711q102 0 185.5 -48.5t131.5 -133.5l-88 -33q-36 60 -96 94t-133 34q-115 0 -191 -79q-77 -79 -77 -195t77 -196q77 -78 191 -78q73 0 133 34t96 94l88 -33q-48 -85 -131.5 -133.5t-185.5 -48.5q-155 0 -258 103t-103 258q0 154 103 257q104 104 258 104zM466 822
q0 -25 -17 -41.5t-42 -16.5t-41.5 16.5t-16.5 41.5t16.5 42t41.5 17t42 -16.5t17 -42.5z" />
    <glyph glyph-name="cdotaccent" unicode="&#x10b;" horiz-adv-x="599" 
d="M563 374l-84 -25q-23 45 -66.5 71.5t-97.5 26.5q-79 0 -131 -54q-53 -53 -53 -133q0 -79 53 -134q53 -53 131 -53q54 0 97.5 26.5t66.5 71.5l84 -25q-32 -73 -98.5 -115t-149.5 -42q-115 0 -194 77q-77 79 -77 194q0 116 77 193q78 78 194 78q83 0 149.5 -42t98.5 -115z
M317 598q-25 0 -41.5 16.5t-16.5 41.5t16.5 41.5t41.5 16.5t42 -16.5t17 -41.5t-16.5 -41.5t-42.5 -16.5z" />
    <glyph glyph-name="Ccaron" unicode="&#x10c;" horiz-adv-x="776" 
d="M412 711q102 0 185.5 -48.5t131.5 -133.5l-88 -33q-36 60 -96 94t-133 34q-115 0 -191 -79q-77 -79 -77 -195t77 -196q77 -78 191 -78q73 0 133 34t96 94l88 -33q-48 -85 -131.5 -133.5t-185.5 -48.5q-155 0 -258 103t-103 258q0 154 103 257q104 104 258 104zM407 852
l128 82l36 -46l-161 -122h-6l-161 122l36 47z" />
    <glyph glyph-name="ccaron" unicode="&#x10d;" horiz-adv-x="599" 
d="M563 374l-84 -25q-23 45 -66.5 71.5t-97.5 26.5q-79 0 -131 -54q-53 -53 -53 -133q0 -79 53 -134q53 -53 131 -53q54 0 97.5 26.5t66.5 71.5l84 -25q-32 -73 -98.5 -115t-149.5 -42q-115 0 -194 77q-77 79 -77 194q0 116 77 193q78 78 194 78q83 0 149.5 -42t98.5 -115z
M317 685l128 83l36 -47l-161 -122h-6l-161 122l36 48z" />
    <glyph glyph-name="Dcaron" unicode="&#x10e;" horiz-adv-x="767" 
d="M355 0h-277v700h277q153 0 257 -101t104 -249t-104 -249t-257 -101zM355 616h-187v-532h187q113 0 190 77t77 189t-77 189t-190 77zM259 766l-160 122l35 47l128 -83l128 82l36 -46l-161 -122h-6z" />
    <glyph glyph-name="dcaron" unicode="&#x10f;" horiz-adv-x="757" 
d="M300 531q59 0 109 -25.5t81 -70.5v315h84v-750h-84v85q-31 -45 -81 -70.5t-109 -25.5q-109 0 -183 77q-73 77 -73 194t73 193q73 78 183 78zM310 73q77 0 128 53q52 53 52 134t-52 133q-51 54 -128 54q-76 0 -128 -54q-51 -53 -51 -133t51 -134q53 -53 128 -53zM642 713
q0 20 14 34t36 14q24 0 39.5 -18t15.5 -48q0 -69 -76 -115l-5 -3l-22 24l12 10q9 8 19.5 24.5t9.5 27.5q-18 2 -30.5 16.5t-12.5 33.5z" />
    <glyph glyph-name="Dcroat" unicode="&#x110;" horiz-adv-x="780" 
d="M10 311v78h81v311h276q154 0 258 -101t104 -249t-104 -249t-258 -101h-276v311h-81zM181 616v-227h210v-78h-210v-227h186q114 0 191 77t77 189t-77 189t-191 77h-186z" />
    <glyph glyph-name="dslash" unicode="&#x111;" horiz-adv-x="645" 
d="M300 531q117 0 190 -85v148h-196v65h196v91h84v-91h60v-65h-60v-594h-84v74q-73 -85 -190 -85q-109 0 -183 77q-73 77 -73 194t73 193q73 78 183 78zM309 447q-75 0 -127 -54q-51 -53 -51 -133t51 -134q53 -53 127 -53q76 0 127 53q52 53 52 134t-52 133q-51 54 -127 54z
" />
    <glyph glyph-name="Emacron" unicode="&#x112;" horiz-adv-x="626" 
d="M78 700h504v-84h-414v-220h363v-84h-363v-228h419v-84h-509v700zM181 790v72h289v-72h-289z" />
    <glyph glyph-name="emacron" unicode="&#x113;" horiz-adv-x="616" 
d="M578 231h-447q9 -70 62 -117q52 -46 128 -46q99 0 154 75l82 -26q-36 -60 -98.5 -94t-137.5 -34q-118 0 -198 77q-79 78 -79 194t77 193q77 78 191 78q115 0 191 -78q77 -77 77 -193q0 -3 -2 -29zM132 299h361q-12 67 -63 111q-50 43 -120 43q-68 0 -117 -43t-61 -111z
M458 624h-288v71h288v-71z" />
    <glyph glyph-name="Ebreve" unicode="&#x114;" horiz-adv-x="626" 
d="M78 700h504v-84h-414v-220h363v-84h-363v-228h419v-84h-509v700zM177 901h68q0 -37 23 -61.5t58 -24.5t57.5 24.5t22.5 61.5h68q0 -63 -43 -105q-42 -42 -106 -42t-106 42t-42 105z" />
    <glyph glyph-name="ebreve" unicode="&#x115;" horiz-adv-x="616" 
d="M578 231h-447q9 -70 62 -117q52 -46 128 -46q99 0 154 75l82 -26q-36 -60 -98.5 -94t-137.5 -34q-118 0 -198 77q-79 78 -79 194t77 193q77 78 191 78q115 0 191 -78q77 -77 77 -193q0 -3 -2 -29zM132 299h361q-12 67 -63 111q-50 43 -120 43q-68 0 -117 -43t-61 -111z
M165 735h68q0 -37 23.5 -61.5t58.5 -24.5q34 0 57 24.5t23 61.5h68q0 -64 -43 -106q-42 -42 -106 -42t-107 42q-42 42 -42 106z" />
    <glyph glyph-name="Edotaccent" unicode="&#x116;" horiz-adv-x="626" 
d="M78 700h504v-84h-414v-220h363v-84h-363v-228h419v-84h-509v700zM384 822q0 -25 -17 -41.5t-42 -16.5t-41.5 16.5t-16.5 41.5t16.5 42t41.5 17t42 -16.5t17 -42.5z" />
    <glyph glyph-name="edotaccent" unicode="&#x117;" horiz-adv-x="616" 
d="M578 231h-447q9 -70 62 -117q52 -46 128 -46q99 0 154 75l82 -26q-36 -60 -98.5 -94t-137.5 -34q-118 0 -198 77q-79 78 -79 194t77 193q77 78 191 78q115 0 191 -78q77 -77 77 -193q0 -3 -2 -29zM132 299h361q-12 67 -63 111q-50 43 -120 43q-68 0 -117 -43t-61 -111z
M272 614q-16 17 -16 42t16 41q17 17 42 17t41 -17q17 -16 17 -41t-17 -42q-16 -16 -41 -16t-42 16z" />
    <glyph glyph-name="Eogonek" unicode="&#x118;" horiz-adv-x="626" 
d="M491 0h-413v700h504v-84h-414v-220h363v-84h-363v-228h419v-84h-31l-17 -15q-11 -11 -27 -36q-17 -28 -17 -50q0 -20 12 -31.5t30 -11.5q27 0 49 20l7 7l31 -37l-14 -13q-7 -8 -36 -22q-28 -14 -54 -14q-39 0 -65.5 24.5t-26.5 61.5q0 26 15 55t33 46z" />
    <glyph glyph-name="eogonek" unicode="&#x119;" horiz-adv-x="616" 
d="M307 -11q-113 4 -189 82q-74 77 -74 189q0 116 77 193q77 78 191 78q115 0 191 -78q77 -77 77 -193q0 -3 -2 -29h-447q9 -70 62 -117q52 -46 128 -46q99 0 154 75l82 -26q-60 -101 -181 -123q-54 -51 -54 -95q0 -20 12 -31.5t30 -11.5q26 0 49 20l7 7l30 -37l-14 -13
q-7 -8 -36 -22q-28 -14 -54 -14q-39 0 -65 24.5t-26 61.5q0 54 52 106zM132 299h361q-12 67 -63 111q-50 43 -120 43q-68 0 -117 -43t-61 -111z" />
    <glyph glyph-name="Ecaron" unicode="&#x11a;" horiz-adv-x="626" 
d="M78 700h504v-84h-414v-220h363v-84h-363v-228h419v-84h-509v700zM322 766l-161 122l36 47l128 -83l128 82l36 -46l-161 -122h-6z" />
    <glyph glyph-name="ecaron" unicode="&#x11b;" horiz-adv-x="616" 
d="M578 231h-447q9 -70 62 -117q52 -46 128 -46q99 0 154 75l82 -26q-36 -60 -98.5 -94t-137.5 -34q-118 0 -198 77q-79 78 -79 194t77 193q77 78 191 78q115 0 191 -78q77 -77 77 -193q0 -3 -2 -29zM132 299h361q-12 67 -63 111q-50 43 -120 43q-68 0 -117 -43t-61 -111z
M314 685l128 83l35 -47l-160 -122h-6l-161 122l36 48z" />
    <glyph glyph-name="Gcircumflex" unicode="&#x11c;" horiz-adv-x="819" 
d="M51 350q0 154 105 258q104 103 262 103q104 0 188.5 -48.5t132.5 -133.5l-88 -33q-36 60 -97.5 94t-135.5 34q-116 0 -195 -79q-79 -78 -79 -195t76 -196q76 -78 187 -78q95 0 169 59q74 60 90 153h-278v84h379q2 -24 2 -30q-3 -151 -106 -252q-104 -101 -253 -101
q-153 0 -256 103t-103 258zM407 849l-128 -84l-36 48l161 122h6l161 -122l-36 -47z" />
    <glyph glyph-name="gcircumflex" unicode="&#x11d;" horiz-adv-x="645" 
d="M300 531q117 0 190 -85v74h84v-498q0 -111 -76 -184q-77 -74 -187 -74q-76 0 -143 38q-65 38 -95 96l84 27q21 -34 62.5 -55.5t88.5 -21.5q77 0 130 50t52 124v52q-73 -85 -190 -85q-109 0 -183 77q-73 77 -73 194t73 193q73 78 183 78zM309 73q76 0 127 53q52 53 52 134
t-52 133q-51 54 -127 54q-75 0 -127 -54q-51 -53 -51 -133t51 -134q53 -53 127 -53zM186 599l-35 47l160 122h6l161 -122l-36 -46l-128 82z" />
    <glyph glyph-name="Gbreve" unicode="&#x11e;" horiz-adv-x="819" 
d="M51 350q0 154 105 258q104 103 262 103q104 0 188.5 -48.5t132.5 -133.5l-88 -33q-36 60 -97.5 94t-135.5 34q-116 0 -195 -79q-79 -78 -79 -195t76 -196q76 -78 187 -78q95 0 169 59q74 60 90 153h-278v84h379q2 -24 2 -30q-3 -151 -106 -252q-104 -101 -253 -101
q-153 0 -256 103t-103 258zM259 901h68q0 -37 23 -61.5t58 -24.5t57.5 24.5t22.5 61.5h68q0 -63 -43 -105q-42 -42 -106 -42t-106 42t-42 105z" />
    <glyph glyph-name="gbreve" unicode="&#x11f;" horiz-adv-x="645" 
d="M300 -11q-109 0 -183 77q-73 77 -73 194t73 193q73 78 183 78q117 0 190 -85v74h84v-498q0 -111 -76 -184q-77 -74 -187 -74q-76 0 -143 38q-65 38 -95 96l84 27q21 -34 62.5 -55.5t88.5 -21.5q77 0 130 50t52 124v52q-73 -85 -190 -85zM309 447q-75 0 -127 -54
q-51 -53 -51 -133t51 -134q53 -53 127 -53q76 0 127 53q52 53 52 134t-52 133q-51 54 -127 54zM166 735h68q0 -37 23 -61.5t58 -24.5t57.5 24.5t22.5 61.5h68q0 -64 -42 -106t-106 -42q-63 0 -107 42q-42 42 -42 106z" />
    <glyph glyph-name="Gdotaccent" unicode="&#x120;" horiz-adv-x="819" 
d="M51 350q0 154 105 258q104 103 262 103q104 0 188.5 -48.5t132.5 -133.5l-88 -33q-36 60 -97.5 94t-135.5 34q-116 0 -195 -79q-79 -78 -79 -195t76 -196q76 -78 187 -78q95 0 169 59q74 60 90 153h-278v84h379q2 -24 2 -30q-3 -151 -106 -252q-104 -101 -253 -101
q-153 0 -256 103t-103 258zM466 822q0 -25 -17 -41.5t-42 -16.5t-41.5 16.5t-16.5 41.5t16.5 42t41.5 17t42 -16.5t17 -42.5z" />
    <glyph glyph-name="gdotaccent" unicode="&#x121;" horiz-adv-x="645" 
d="M300 -11q-109 0 -183 77q-73 77 -73 194t73 193q73 78 183 78q117 0 190 -85v74h84v-498q0 -111 -76 -184q-77 -74 -187 -74q-76 0 -143 38q-65 38 -95 96l84 27q21 -34 62.5 -55.5t88.5 -21.5q77 0 130 50t52 124v52q-73 -85 -190 -85zM309 73q76 0 127 53q52 53 52 134
t-52 133q-51 54 -127 54q-75 0 -127 -54q-51 -53 -51 -133t51 -134q53 -53 127 -53zM315 598q-26 0 -42.5 16.5t-16.5 41.5t17 41.5t42 16.5t41.5 -16.5t16.5 -41.5t-16.5 -41.5t-41.5 -16.5z" />
    <glyph glyph-name="uni0122" unicode="&#x122;" horiz-adv-x="819" 
d="M51 350q0 154 105 258q104 103 262 103q104 0 188.5 -48.5t132.5 -133.5l-88 -33q-36 60 -97.5 94t-135.5 34q-116 0 -195 -79q-79 -78 -79 -195t76 -196q76 -78 187 -78q95 0 169 59q74 60 90 153h-278v84h379q2 -24 2 -30q-3 -151 -106 -252q-104 -101 -253 -101
q-153 0 -256 103t-103 258zM477 -125q0 -69 -76 -115l-5 -3l-22 24l12 10q9 8 19.5 24.5t9.5 27.5q-18 2 -31 16.5t-13 33.5q0 20 14.5 34t36.5 14q24 0 39.5 -18t15.5 -48z" />
    <glyph glyph-name="uni0123" unicode="&#x123;" horiz-adv-x="645" 
d="M300 -11q-109 0 -183 77q-73 77 -73 194t73 193q73 78 183 78q117 0 190 -85v74h84v-498q0 -111 -76 -184q-77 -74 -187 -74q-76 0 -143 38q-65 38 -95 96l84 27q21 -34 62.5 -55.5t88.5 -21.5q77 0 130 50q52 49 52 124v52q-73 -85 -190 -85zM309 447q-75 0 -127 -54
q-51 -53 -51 -133t51 -134q53 -53 127 -53q76 0 127 53q52 53 52 134t-52 133q-51 54 -127 54zM260 652q0 69 76 115l5 3l22 -24l-12 -10q-9 -8 -19.5 -24.5t-9.5 -27.5q18 -2 30.5 -16.5t12.5 -33.5q0 -20 -14 -34t-36 -14q-24 0 -39.5 18t-15.5 48z" />
    <glyph glyph-name="Hcircumflex" unicode="&#x124;" horiz-adv-x="752" 
d="M168 0h-90v700h90v-304h415v304h91v-700h-91v312h-415v-312zM248 765l-36 48l161 122h5l161 -122l-36 -47l-128 83z" />
    <glyph glyph-name="hcircumflex" unicode="&#x125;" horiz-adv-x="621" 
d="M155 300v-300h-84v750h84v-317q62 98 186 98q90 0 151 -59q60 -58 60 -148v-324h-84v302q0 63 -43 106t-107 43q-69 0 -116 -44t-47 -107zM114 892l-128 -83l-36 47l161 122h6l160 -122l-35 -46z" />
    <glyph glyph-name="Hbar" unicode="&#x126;" horiz-adv-x="764" 
d="M674 700v-113h80v-78h-80v-509h-91v312h-415v-312h-90v509h-68v78h68v113h90v-113h415v113h91zM583 396v113h-415v-113h415z" />
    <glyph glyph-name="hbar" unicode="&#x127;" horiz-adv-x="621" 
d="M155 750v-91h195v-65h-195v-161q62 98 186 98q90 0 151 -59q60 -58 60 -148v-324h-84v302q0 63 -43 106t-107 43q-69 0 -116 -44t-47 -107v-300h-84v594h-61v65h61v91h84z" />
    <glyph glyph-name="Itilde" unicode="&#x128;" horiz-adv-x="246" 
d="M168 0h-90v700h90v-700zM36 777h-68q0 43 30 73q30 31 71 31q31 0 59 -24q31 -23 44 -23q16 0 27 12t11 30h67q0 -44 -28.5 -73.5t-70.5 -29.5q-31 0 -60 23q-29 24 -43 24q-16 0 -27.5 -12.5t-11.5 -30.5z" />
    <glyph glyph-name="itilde" unicode="&#x129;" horiz-adv-x="232" 
d="M158 0h-84v520h84v-520zM29 611h-68q0 43 30 73t71 30q30 0 59 -24q31 -23 44 -23q16 0 27 12t11 31h67q0 -44 -29 -74t-70 -30q-31 0 -60 23q-28 24 -43 24q-16 0 -27.5 -12t-11.5 -30z" />
    <glyph glyph-name="Imacron" unicode="&#x12a;" horiz-adv-x="246" 
d="M168 0h-90v700h90v-700zM267 790h-288v72h288v-72z" />
    <glyph glyph-name="imacron" unicode="&#x12b;" horiz-adv-x="226" 
d="M155 0h-84v520h84v-520zM-31 624v71h288v-71h-288z" />
    <glyph glyph-name="Ibreve" unicode="&#x12c;" horiz-adv-x="246" 
d="M168 0h-90v700h90v-700zM-26 901h69q0 -37 23 -61.5t58 -24.5q34 0 57 24.5t23 61.5h68q0 -63 -43 -105q-42 -42 -106 -42q-63 0 -107 42q-42 42 -42 105z" />
    <glyph glyph-name="ibreve" unicode="&#x12d;" horiz-adv-x="226" 
d="M155 0h-84v520h84v-520zM-36 735h69q0 -37 23 -61.5t58 -24.5q34 0 57 24.5t23 61.5h68q0 -64 -43 -106q-42 -42 -106 -42q-63 0 -107 42q-42 42 -42 106z" />
    <glyph glyph-name="Iogonek" unicode="&#x12e;" horiz-adv-x="246" 
d="M32 -117q0 26 14.5 55t32.5 46l16 16h-17v700h90v-700h-8l-17 -15q-11 -11 -27 -36q-17 -28 -17 -50q0 -18 10.5 -29.5t26.5 -13.5q36 0 61 27l31 -37l-14 -13q-7 -8 -36 -22q-28 -14 -54 -14q-39 0 -65.5 24.5t-26.5 61.5z" />
    <glyph glyph-name="iogonek" unicode="&#x12f;" horiz-adv-x="226" 
d="M115 -203q-40 0 -66 24.5t-26 61.5q0 26 14.5 55t32.5 46l16 16h-15v520h84v-520h-4l-17 -15q-10 -11 -27 -36q-17 -28 -17 -50q0 -20 12 -31.5t30 -11.5q26 0 49 20l7 7l31 -37l-14 -13q-7 -8 -36 -22q-28 -14 -54 -14zM113 589q-25 0 -41.5 16.5t-16.5 41.5t16.5 41.5
t41.5 16.5q23 0 39.5 -14t19.5 -37q0 -28 -16 -46.5t-43 -18.5z" />
    <glyph glyph-name="Idot" unicode="&#x130;" horiz-adv-x="246" 
d="M168 0h-90v700h90v-700zM81 780q-16 17 -16 42t16 42q17 17 42 17t42 -17t17 -42t-17 -42q-17 -16 -42 -16t-42 16z" />
    <glyph glyph-name="dotlessi" unicode="&#x131;" horiz-adv-x="226" 
d="M155 0h-84v520h84v-520z" />
    <glyph glyph-name="IJ" unicode="&#x132;" horiz-adv-x="841" 
d="M168 0h-90v700h90v-700zM769 700v-449q0 -112 -77 -187q-76 -75 -192 -75q-72 0 -132 32t-96 87l75 49q23 -39 64 -61.5t91 -22.5q77 0 128 51q52 51 52 127v449h87z" />
    <glyph glyph-name="ij" unicode="&#x133;" horiz-adv-x="460" 
d="M155 0h-84v520h84v-520zM71 605q-16 17 -16 42t16 41q17 17 42 17t42 -17q17 -16 17 -41t-17 -42q-17 -16 -42 -16t-42 16zM305 520h84v-592q0 -65 -44 -109t-109 -44h-42v81h36q32 0 53.5 23.5t21.5 58.5v582zM305 605q-16 17 -16 42t16 41q17 17 42 17t41 -17
q17 -16 17 -41t-17 -42q-16 -16 -41 -16t-42 16z" />
    <glyph glyph-name="Jcircumflex" unicode="&#x134;" horiz-adv-x="595" 
d="M523 700v-449q0 -112 -77 -187q-76 -75 -192 -75q-72 0 -132 32t-96 87l75 49q23 -39 63.5 -61.5t90.5 -22.5q77 0 129 51t52 127v449h87zM476 849l-128 -84l-35 48l160 122h6l161 -122l-36 -47z" />
    <glyph glyph-name="jcircumflex" unicode="&#x135;" horiz-adv-x="234" 
d="M79 520h84v-592q0 -65 -44 -109t-109 -44h-42v81h36q32 0 53.5 23.5t21.5 58.5v582zM121 682l-128 -83l-36 47l161 122h6l161 -122l-36 -46z" />
    <glyph glyph-name="uni0136" unicode="&#x136;" horiz-adv-x="643" 
d="M510 0l-329 357l309 343h116l-309 -343l329 -357h-116zM78 0v700h90v-700h-90zM284 -107q0 20 14.5 34t36.5 14q24 0 39.5 -18t15.5 -48q0 -69 -76 -115l-5 -3l-23 24l12 10q9 8 20 24.5t10 27.5q-18 2 -31 16.5t-13 33.5z" />
    <glyph glyph-name="uni0137" unicode="&#x137;" horiz-adv-x="515" 
d="M155 0h-84v750h84v-750zM393 0l-234 269l214 251h103l-213 -251l235 -269h-105zM221 -107q0 20 14 34t36 14q24 0 39.5 -18t15.5 -48q0 -69 -76 -115l-5 -3l-22 24l12 10q9 8 19.5 24.5t9.5 27.5q-18 2 -30.5 16.5t-12.5 33.5z" />
    <glyph glyph-name="Lacute" unicode="&#x139;" horiz-adv-x="577" 
d="M547 0h-469v700h90v-616h379v-84zM55 817l183 119l40 -75l-193 -95z" />
    <glyph glyph-name="lacute" unicode="&#x13a;" horiz-adv-x="226" 
d="M155 0h-84v750h84v-750zM76 809l-30 52l183 118l40 -75z" />
    <glyph glyph-name="uni013B" unicode="&#x13b;" horiz-adv-x="577" 
d="M78 0v700h90v-616h379v-84h-469zM267 -107q0 20 14 34t36 14q24 0 39.5 -18t15.5 -48q0 -69 -76 -115l-5 -3l-22 24l12 10q9 8 19.5 24.5t9.5 27.5q-18 2 -30.5 16.5t-12.5 33.5z" />
    <glyph glyph-name="uni013C" unicode="&#x13c;" horiz-adv-x="226" 
d="M155 0h-84v750h84v-750zM167 -125q0 -69 -76 -115l-5 -3l-22 24l12 10q9 8 19.5 24.5t9.5 27.5q-18 2 -31 16.5t-13 33.5q0 20 14.5 34t36.5 14q24 0 39.5 -18t15.5 -48z" />
    <glyph glyph-name="Lcaron" unicode="&#x13d;" horiz-adv-x="577" 
d="M78 0v700h90v-616h379v-84h-469zM321 663q0 20 14 34t36 14q24 0 39.5 -18t15.5 -48q0 -69 -76 -115l-5 -3l-22 24l12 10q9 8 20 24.5t10 27.5q-19 2 -31.5 16.5t-12.5 33.5z" />
    <glyph glyph-name="lcaron" unicode="&#x13e;" horiz-adv-x="339" 
d="M155 0h-84v750h84v-750zM223 713q0 20 14.5 34t36.5 14q24 0 39.5 -18t15.5 -48q0 -69 -76 -115l-5 -3l-23 24l12 10q9 8 20 24.5t10 27.5q-18 2 -31 16.5t-13 33.5z" />
    <glyph glyph-name="Ldot" unicode="&#x13f;" horiz-adv-x="577" 
d="M78 0v700h90v-616h379v-84h-469zM455 307q-17 -17 -43 -17t-43 17t-17 43t17 43t43 17t43 -17t17 -43t-17 -43z" />
    <glyph glyph-name="ldot" unicode="&#x140;" horiz-adv-x="442" 
d="M155 0h-84v750h84v-750zM291 307q-17 17 -17 43t17 43t43 17t43 -17t17 -43t-17 -43t-43 -17t-43 17z" />
    <glyph glyph-name="Lslash" unicode="&#x141;" horiz-adv-x="602" 
d="M102 238l-51 -31l-38 67l89 54v372h91v-318l137 83l39 -67l-176 -106v-208h378v-84h-469v238z" />
    <glyph glyph-name="lslash" unicode="&#x142;" horiz-adv-x="226" 
d="M155 750v-344l71 41v-74l-71 -41v-332h-84v283l-71 -41v75l71 41v392h84z" />
    <glyph glyph-name="Nacute" unicode="&#x143;" horiz-adv-x="755" 
d="M78 0v700h79l433 -544v544h87v-700h-79l-433 544v-544h-87zM533 861l-193 -95l-29 51l182 119z" />
    <glyph glyph-name="nacute" unicode="&#x144;" 
d="M155 300v-300h-84v520h84v-87q62 98 185 98q90 0 149 -59q60 -58 60 -148v-324h-84v302q0 63 -43 106q-42 43 -105 43q-68 0 -115 -44t-47 -107zM469 694l-192 -95l-30 52l183 118z" />
    <glyph glyph-name="uni0145" unicode="&#x145;" horiz-adv-x="755" 
d="M165 0h-87v700h79l433 -544v544h87v-700h-79l-433 544v-544zM375 -157q-19 2 -31.5 16.5t-12.5 33.5q0 20 14.5 34t35.5 14q24 0 39.5 -18t15.5 -48q0 -69 -76 -115l-5 -3l-22 24l12 10q9 8 20 24.5t10 27.5z" />
    <glyph glyph-name="uni0146" unicode="&#x146;" 
d="M155 0h-84v520h84v-87q62 98 185 98q90 0 149 -59q60 -58 60 -148v-324h-84v302q0 63 -43 106q-42 43 -105 43q-68 0 -115 -44t-47 -107v-300zM310 -157q-19 2 -31.5 16.5t-12.5 33.5q0 20 14 34t36 14q24 0 39.5 -18t15.5 -48q0 -69 -76 -115l-5 -3l-22 24l12 10
q9 8 20 24.5t10 27.5z" />
    <glyph glyph-name="Ncaron" unicode="&#x147;" horiz-adv-x="755" 
d="M165 0h-87v700h79l433 -544v544h87v-700h-79l-433 544v-544zM374 766l-160 122l35 47l128 -83l128 82l36 -46l-161 -122h-6z" />
    <glyph glyph-name="ncaron" unicode="&#x148;" 
d="M71 0v520h84v-87q62 98 185 98q90 0 149 -59q60 -58 60 -148v-324h-84v302q0 63 -43 106q-42 43 -105 43q-68 0 -115 -44t-47 -107v-300h-84zM311 599l-161 122l36 48l127 -84l128 83l36 -47l-161 -122h-5z" />
    <glyph glyph-name="Eng" unicode="&#x14a;" horiz-adv-x="755" 
d="M590 700h87v-674q0 -112 -77 -187q-76 -75 -192 -75l1 84q74 0 124 46q52 47 56 117l-424 532v-543h-87v700h79l433 -544v544z" />
    <glyph glyph-name="eng" unicode="&#x14b;" 
d="M71 0v520h84v-87q62 98 185 98q90 0 149 -59q60 -58 60 -148v-396q0 -65 -44 -109t-109 -44h-42v81h36q32 0 53.5 23.5t21.5 58.5v364q0 63 -43 106q-42 43 -105 43q-68 0 -115 -44t-47 -107v-300h-84z" />
    <glyph glyph-name="Omacron" unicode="&#x14c;" horiz-adv-x="824" 
d="M412 711q154 0 258 -104t104 -257q0 -154 -104 -258q-103 -103 -258 -103t-258 103t-103 258q0 154 103 257q104 104 258 104zM412 76q114 0 191 78q77 80 77 196t-77 195q-76 79 -191 79t-191 -79q-77 -79 -77 -195t77 -196q77 -78 191 -78zM556 790h-288v72h288v-72z
" />
    <glyph glyph-name="omacron" unicode="&#x14d;" horiz-adv-x="631" 
d="M121 66q-77 79 -77 194q0 116 77 193q78 78 194 78t194 -78q78 -77 78 -193t-78 -194q-79 -77 -194 -77t-194 77zM315 73q79 0 132 53q53 55 53 134q0 80 -53 133q-53 54 -132 54t-131 -54q-53 -53 -53 -133q0 -79 53 -134q53 -53 131 -53zM460 624h-289v71h289v-71z" />
    <glyph glyph-name="Obreve" unicode="&#x14e;" horiz-adv-x="824" 
d="M412 711q154 0 258 -104t104 -257q0 -154 -104 -258q-103 -103 -258 -103t-258 103t-103 258q0 154 103 257q104 104 258 104zM412 76q114 0 191 78q77 80 77 196t-77 195q-76 79 -191 79t-191 -79q-77 -79 -77 -195t77 -196q77 -78 191 -78zM264 901h68q0 -37 23 -61.5
t58 -24.5q34 0 57 24.5t23 61.5h68q0 -63 -43 -105q-42 -42 -106 -42t-106 42t-42 105z" />
    <glyph glyph-name="obreve" unicode="&#x14f;" horiz-adv-x="631" 
d="M121 66q-77 79 -77 194q0 116 77 193q78 78 194 78t194 -78q78 -77 78 -193t-78 -194q-79 -77 -194 -77t-194 77zM315 73q79 0 132 53q53 55 53 134q0 80 -53 133q-53 54 -132 54t-131 -54q-53 -53 -53 -133q0 -79 53 -134q53 -53 131 -53zM167 735h68q0 -37 23 -61.5
t58 -24.5t57.5 24.5t22.5 61.5h68q0 -64 -43 -106q-42 -42 -106 -42t-106 42t-42 106z" />
    <glyph glyph-name="Ohungarumlaut" unicode="&#x150;" horiz-adv-x="824" 
d="M412 711q154 0 258 -104t104 -257q0 -154 -104 -258q-103 -103 -258 -103t-258 103t-103 258q0 154 103 257q104 104 258 104zM412 76q114 0 191 78q77 80 77 196t-77 195q-76 79 -191 79t-191 -79q-77 -79 -77 -195t77 -196q77 -78 191 -78zM321 751l-43 42l133 157
l59 -61zM505 751l-43 42l133 157l60 -61z" />
    <glyph glyph-name="ohungarumlaut" unicode="&#x151;" horiz-adv-x="631" 
d="M121 66q-77 79 -77 194q0 116 77 193q78 78 194 78t194 -78q78 -77 78 -193t-78 -194q-79 -77 -194 -77t-194 77zM315 73q79 0 132 53q53 55 53 134q0 80 -53 133q-53 54 -132 54t-131 -54q-53 -53 -53 -133q0 -79 53 -134q53 -53 131 -53zM224 585l-43 41l133 158
l60 -61zM408 585l-43 41l133 158l60 -61z" />
    <glyph glyph-name="OE" unicode="&#x152;" horiz-adv-x="1224" 
d="M412 -11q-155 0 -258 103t-103 258q0 154 103 257q104 104 258 104q168 0 275 -121v110h494v-84h-403v-220h351v-84h-351v-228h408v-84h-499v110q-107 -121 -275 -121zM412 76q114 0 191 78q77 80 77 196t-77 195q-76 79 -191 79t-191 -79q-77 -79 -77 -195t77 -196
q77 -78 191 -78z" />
    <glyph glyph-name="oe" unicode="&#x153;" horiz-adv-x="1071" 
d="M315 531q72 0 132.5 -32t96.5 -89q36 57 95.5 89t130.5 32q114 0 190 -78q76 -76 76 -193q0 -3 -2 -29h-448q9 -70 62 -117q52 -46 129 -46q99 0 154 75l82 -26q-36 -60 -97.5 -94t-136.5 -34t-136.5 32.5t-97.5 89.5q-37 -57 -97.5 -89.5t-132.5 -32.5q-115 0 -194 77
q-77 79 -77 194q0 116 77 193q78 78 194 78zM315 73q79 0 132 53q53 55 53 134q0 80 -53 133q-53 54 -132 54t-131 -54q-53 -53 -53 -133q0 -79 53 -134q53 -53 131 -53zM587 299h362q-12 67 -63 111q-50 43 -120 43q-68 0 -117 -43q-50 -44 -62 -111z" />
    <glyph glyph-name="Racute" unicode="&#x154;" horiz-adv-x="679" 
d="M78 700h317q97 0 162 -62t65 -154q0 -71 -39.5 -125.5t-106.5 -77.5l172 -281h-101l-164 268h-215v-268h-90v700zM395 616h-227v-264h227q57 0 95 38t38 94q0 57 -38 94.5t-95 37.5zM455 861l-193 -95l-30 51l183 119z" />
    <glyph glyph-name="racute" unicode="&#x155;" horiz-adv-x="375" 
d="M71 0v520h84v-88q59 99 185 99h14v-93q-16 6 -37 6q-69 0 -115 -43q-47 -44 -47 -107v-294h-84zM354 694l-192 -95l-30 52l183 118z" />
    <glyph glyph-name="uni0156" unicode="&#x156;" horiz-adv-x="679" 
d="M78 700h317q97 0 162 -62t65 -154q0 -71 -39.5 -125.5t-106.5 -77.5l172 -281h-101l-164 268h-215v-268h-90v700zM395 616h-227v-264h227q57 0 95 38t38 94q0 57 -38 94.5t-95 37.5zM352 -157q-18 2 -30.5 16.5t-12.5 33.5q0 20 14 34t36 14q24 0 39.5 -18t15.5 -48
q0 -69 -76 -115l-5 -3l-22 24l12 10q9 8 19.5 24.5t9.5 27.5z" />
    <glyph glyph-name="uni0157" unicode="&#x157;" horiz-adv-x="375" 
d="M155 0h-84v520h84v-88q59 99 185 99h14v-93q-16 6 -37 6q-69 0 -115 -43q-47 -44 -47 -107v-294zM66 -107q0 20 14.5 34t35.5 14q24 0 39.5 -18t15.5 -48q0 -69 -76 -115l-5 -3l-22 24l12 10q9 8 20 24.5t10 27.5q-19 2 -31.5 16.5t-12.5 33.5z" />
    <glyph glyph-name="Rcaron" unicode="&#x158;" horiz-adv-x="679" 
d="M78 700h317q97 0 162 -62t65 -154q0 -71 -39.5 -125.5t-106.5 -77.5l172 -281h-101l-164 268h-215v-268h-90v700zM395 616h-227v-264h227q57 0 95 38t38 94q0 57 -38 94.5t-95 37.5zM296 766l-161 122l36 47l128 -83l128 82l36 -46l-161 -122h-6z" />
    <glyph glyph-name="rcaron" unicode="&#x159;" horiz-adv-x="375" 
d="M155 0h-84v520h84v-88q59 99 185 99h14v-93q-16 6 -37 6q-69 0 -115 -43q-47 -44 -47 -107v-294zM201 599h-5l-161 122l36 48l127 -84l128 83l36 -47z" />
    <glyph glyph-name="Sacute" unicode="&#x15a;" 
d="M545 555l-89 -26q-9 40 -51.5 67.5t-99.5 27.5q-63 0 -104 -31q-41 -30 -41 -76q0 -50 56 -78q44 -21 135 -44q74 -19 115 -39q96 -45 101 -157q0 -94 -72 -152q-70 -58 -182 -58q-101 0 -172 47q-71 46 -90 120l90 27q8 -46 56.5 -76.5t115.5 -30.5q70 0 117 32
q47 33 47 84q0 52 -50 78q-44 23 -101 37l-42 11l-39 12l-41 14q-3 1 -8.5 3.5t-13.5 6t-14 6.5q-25 12 -59 43q-34 34 -40 108q0 89 66 144q67 56 169 56q92 0 157 -44q66 -43 84 -112zM272 766l-29 51l182 119l40 -75z" />
    <glyph glyph-name="sacute" unicode="&#x15b;" horiz-adv-x="477" 
d="M424 407l-79 -14q-8 30 -37.5 47t-74.5 17q-43 0 -71.5 -19t-28.5 -49q0 -42 55 -61l127 -45q119 -44 119 -142q0 -71 -54 -111.5t-141 -40.5q-83 0 -136.5 36.5t-64.5 99.5l79 14q8 -34 41.5 -55t82.5 -21q48 0 80.5 21t32.5 54q0 47 -69 71l-124 43q-109 37 -109 131
q0 70 51.5 109t135.5 39q75 0 124.5 -33.5t60.5 -90.5zM199 599l-29 52l182 118l40 -75z" />
    <glyph glyph-name="Scircumflex" unicode="&#x15c;" 
d="M545 555l-89 -26q-9 40 -51.5 67.5t-99.5 27.5q-63 0 -104 -31q-41 -30 -41 -76q0 -50 56 -78q44 -21 135 -44q74 -19 115 -39q96 -45 101 -157q0 -94 -72 -152q-70 -58 -182 -58q-101 0 -172 47q-71 46 -90 120l90 27q8 -46 56.5 -76.5t115.5 -30.5q70 0 117 32
q47 33 47 84q0 52 -50 78q-44 23 -101 37l-42 11l-39 12l-41 14q-3 1 -8.5 3.5t-13.5 6t-14 6.5q-25 12 -59 43q-34 34 -40 108q0 89 66 144q67 56 169 56q92 0 157 -44q66 -43 84 -112zM309 849l-128 -84l-35 48l160 122h6l161 -122l-36 -47z" />
    <glyph glyph-name="scircumflex" unicode="&#x15d;" horiz-adv-x="477" 
d="M424 407l-79 -14q-8 30 -37.5 47t-74.5 17q-43 0 -71.5 -19t-28.5 -49q0 -42 55 -61l127 -45q119 -44 119 -142q0 -71 -54 -111.5t-141 -40.5q-83 0 -136.5 36.5t-64.5 99.5l79 14q8 -34 41.5 -55t82.5 -21q48 0 80.5 21t32.5 54q0 47 -69 71l-124 43q-109 37 -109 131
q0 70 51.5 109t135.5 39q75 0 124.5 -33.5t60.5 -90.5zM236 682l-128 -83l-36 47l161 122h6l161 -122l-36 -46z" />
    <glyph glyph-name="Scedilla" unicode="&#x15e;" 
d="M51 156l90 27q8 -46 56.5 -76.5t115.5 -30.5q70 0 117 32q47 33 47 84q0 52 -50 78q-44 23 -101 37l-42 11l-39 12l-41 14q-3 1 -8.5 3.5t-13.5 6t-14 6.5q-25 12 -59 43q-34 34 -40 108q0 89 66 144q67 56 169 56q92 0 157 -44q66 -43 84 -112l-89 -26q-9 40 -51.5 67.5
t-99.5 27.5q-63 0 -104 -31q-41 -30 -41 -76q0 -50 56 -78q44 -21 135 -44q74 -19 115 -39q96 -45 101 -157q0 -83 -56 -138.5t-149 -68.5l-11 -45q3 0 8 -1.5t17.5 -7t22 -13t17.5 -21.5t8 -32q0 -38 -32 -63.5t-81 -25.5q-51 0 -85 25l-12 8l14 46q26 -27 69 -27
q26 0 44 11t18 26t-19 26t-42 14l-20 2l18 75q-93 4 -161 51q-66 46 -84 116z" />
    <glyph glyph-name="scedilla" unicode="&#x15f;" horiz-adv-x="477" 
d="M38 125l79 14q8 -34 41.5 -55t82.5 -21q48 0 80.5 21t32.5 54q0 47 -69 71l-124 43q-109 37 -109 131q0 70 51.5 109t135.5 39q75 0 124.5 -33.5t60.5 -90.5l-79 -14q-8 30 -37.5 47t-74.5 17q-43 0 -71.5 -19t-28.5 -49q0 -42 55 -61l127 -45q119 -44 119 -142
q0 -60 -40 -99t-108 -49l-11 -46q3 0 8 -1.5t17.5 -7t22 -13t17.5 -21.5t8 -32q0 -38 -32 -63.5t-81 -25.5q-51 0 -85 25l-12 8l14 46q26 -27 69 -27q26 0 44 11t18 26t-19 26t-42 14l-20 2l18 76q-76 4 -124 40t-58 95z" />
    <glyph glyph-name="Scaron" unicode="&#x160;" 
d="M545 555l-89 -26q-9 40 -51.5 67.5t-99.5 27.5q-63 0 -104 -31q-41 -30 -41 -76q0 -50 56 -78q44 -21 135 -44q74 -19 115 -39q96 -45 101 -157q0 -94 -72 -152q-70 -58 -182 -58q-101 0 -172 47q-71 46 -90 120l90 27q8 -46 56.5 -76.5t115.5 -30.5q70 0 117 32
q47 33 47 84q0 52 -50 78q-44 23 -101 37l-42 11l-39 12l-41 14q-3 1 -8.5 3.5t-13.5 6t-14 6.5q-25 12 -59 43q-34 34 -40 108q0 89 66 144q67 56 169 56q92 0 157 -44q66 -43 84 -112zM309 852l128 82l36 -46l-161 -122h-6l-160 122l35 47z" />
    <glyph glyph-name="scaron" unicode="&#x161;" horiz-adv-x="477" 
d="M424 407l-79 -14q-8 30 -37.5 47t-74.5 17q-43 0 -71.5 -19t-28.5 -49q0 -42 55 -61l127 -45q119 -44 119 -142q0 -71 -54 -111.5t-141 -40.5q-83 0 -136.5 36.5t-64.5 99.5l79 14q8 -34 41.5 -55t82.5 -21q48 0 80.5 21t32.5 54q0 47 -69 71l-124 43q-109 37 -109 131
q0 70 51.5 109t135.5 39q75 0 124.5 -33.5t60.5 -90.5zM236 685l128 83l36 -47l-161 -122h-6l-161 122l36 48z" />
    <glyph glyph-name="uni0162" unicode="&#x162;" horiz-adv-x="668" 
d="M27 700h614v-84h-262v-616h-90v616h-262v84zM287 -107q0 20 14.5 34t36.5 14q24 0 39.5 -18t15.5 -48q0 -69 -76 -115l-5 -3l-23 24l12 10q9 8 20 24.5t10 27.5q-18 2 -31 16.5t-13 33.5z" />
    <glyph glyph-name="uni0163" unicode="&#x163;" horiz-adv-x="362" 
d="M15 446v74h84v104h84v-104h145v-74h-145v-283q0 -35 21.5 -58.5t53.5 -23.5h70v-81h-76q-65 0 -109 44t-44 109v293h-84zM262 -125q0 -69 -76 -115l-4 -3l-23 24l12 10q9 8 20 24.5t10 27.5q-18 2 -31 16.5t-13 33.5q0 20 14.5 34t36.5 14q24 0 39 -18t15 -48z" />
    <glyph glyph-name="Tcaron" unicode="&#x164;" horiz-adv-x="668" 
d="M289 616h-262v84h614v-84h-262v-616h-90v616zM331 766l-161 122l36 47l128 -83l128 82l35 -46l-160 -122h-6z" />
    <glyph glyph-name="tcaron" unicode="&#x165;" horiz-adv-x="377" 
d="M15 446v74h84v104h84v-104h145v-74h-145v-283q0 -35 21.5 -58.5t53.5 -23.5h70v-81h-76q-65 0 -109 44t-44 109v293h-84zM350 673q0 -69 -76 -115l-5 -3l-23 24l12 10q31 28 30 51q-18 3 -31 17.5t-13 33.5q0 20 14.5 34t36.5 14q24 0 39.5 -18t15.5 -48z" />
    <glyph glyph-name="Tbar" unicode="&#x166;" horiz-adv-x="668" 
d="M517 296h-138v-296h-90v296h-138v84h138v236h-262v84h614v-84h-262v-236h138v-84z" />
    <glyph glyph-name="tbar" unicode="&#x167;" horiz-adv-x="362" 
d="M99 446h-84v74h84v104h84v-104h145v-74h-145v-124h101v-65h-101v-94q0 -35 21.5 -58.5t53.5 -23.5h70v-81h-76q-65 0 -109 44t-44 109v104h-67v65h67v124z" />
    <glyph glyph-name="Utilde" unicode="&#x168;" horiz-adv-x="732" 
d="M573 280v420h91v-420q0 -124 -86 -208q-86 -83 -212 -83q-127 0 -213 83q-85 84 -85 208v420h90v-420q0 -89 59 -148q61 -59 149 -59t147 59q60 60 60 148zM278 777h-67q0 42 29 73q30 31 71 31q30 0 60 -24q31 -23 44 -23q15 0 26 12t11 30h68q0 -44 -28.5 -73.5
t-70.5 -29.5q-30 0 -61 23q-28 24 -43 24q-16 0 -27.5 -12.5t-11.5 -30.5z" />
    <glyph glyph-name="utilde" unicode="&#x169;" 
d="M69 196v324h84v-302q0 -62 42 -106q43 -43 107 -43q68 0 114 43q47 44 47 108v300h84v-520h-84v86q-58 -97 -184 -97q-90 0 -151 59q-59 59 -59 148zM221 611h-67q0 43 29.5 73t70.5 30q30 0 60 -24q31 -23 44 -23q15 0 26 12.5t11 30.5h68q0 -44 -29 -74t-70 -30
q-30 0 -61 23q-29 24 -43 24q-16 0 -27.5 -12t-11.5 -30z" />
    <glyph glyph-name="Umacron" unicode="&#x16a;" horiz-adv-x="732" 
d="M573 280v420h91v-420q0 -124 -86 -208q-86 -83 -212 -83q-127 0 -213 83q-85 84 -85 208v420h90v-420q0 -89 59 -148q61 -59 149 -59t147 59q60 60 60 148zM510 790h-288v72h288v-72z" />
    <glyph glyph-name="umacron" unicode="&#x16b;" 
d="M69 196v324h84v-302q0 -62 42 -106q43 -43 107 -43q68 0 114 43q47 44 47 108v300h84v-520h-84v86q-58 -97 -184 -97q-90 0 -151 59q-59 59 -59 148zM453 695v-71h-288v71h288z" />
    <glyph glyph-name="Ubreve" unicode="&#x16c;" horiz-adv-x="732" 
d="M573 280v420h91v-420q0 -124 -86 -208q-86 -83 -212 -83q-127 0 -213 83q-85 84 -85 208v420h90v-420q0 -89 59 -148q61 -59 149 -59t147 59q60 60 60 148zM217 901h68q0 -37 23 -61.5t58 -24.5t58 24.5t23 61.5h68q0 -63 -43 -105q-42 -42 -106 -42t-107 42
q-42 42 -42 105z" />
    <glyph glyph-name="ubreve" unicode="&#x16d;" 
d="M69 196v324h84v-302q0 -62 42 -106q43 -43 107 -43q68 0 114 43q47 44 47 108v300h84v-520h-84v86q-58 -97 -184 -97q-90 0 -151 59q-59 59 -59 148zM160 735h68q0 -37 23 -61.5t58 -24.5t58 24.5t23 61.5h68q0 -64 -43 -106q-42 -42 -106 -42q-63 0 -107 42
q-42 42 -42 106z" />
    <glyph glyph-name="Uring" unicode="&#x16e;" horiz-adv-x="732" 
d="M573 280v420h91v-420q0 -124 -86 -208q-86 -83 -212 -83q-127 0 -213 83q-85 84 -85 208v420h90v-420q0 -89 59 -148q61 -59 149 -59t147 59q60 60 60 148zM259 860q0 44 31 75.5t76 31.5q43 0 75 -32t32 -75q0 -45 -32 -77q-31 -31 -75 -31q-45 0 -76 31.5t-31 76.5z
M333 893q-13 -13 -13 -33t13 -34q13 -13 33 -13t33 13q13 14 13 34t-13 33t-33 13t-33 -13z" />
    <glyph glyph-name="uring" unicode="&#x16f;" 
d="M279 -11q-90 0 -151 59q-59 59 -59 148v324h84v-302q0 -62 42 -106q43 -43 107 -43q68 0 114 43q47 44 47 108v300h84v-520h-84v86q-58 -97 -184 -97zM309 586q-45 0 -76 31.5t-31 75.5q0 45 31 76.5t76 31.5q43 0 75 -32t32 -76t-32 -76q-31 -31 -75 -31zM263 693
q0 -19 13.5 -32.5t32.5 -13.5t32.5 13.5t13.5 32.5q0 20 -13.5 33.5t-32.5 13.5t-32.5 -13.5t-13.5 -33.5z" />
    <glyph glyph-name="Uhungarumlaut" unicode="&#x170;" horiz-adv-x="732" 
d="M573 280v420h91v-420q0 -124 -86 -208q-86 -83 -212 -83q-127 0 -213 83q-85 84 -85 208v420h90v-420q0 -89 59 -148q61 -59 149 -59t147 59q60 60 60 148zM274 751l-43 42l133 157l60 -61zM459 751l-44 42l134 157l60 -61z" />
    <glyph glyph-name="uhungarumlaut" unicode="&#x171;" 
d="M69 196v324h84v-302q0 -62 42 -106q43 -43 107 -43q68 0 114 43q47 44 47 108v300h84v-520h-84v86q-58 -97 -184 -97q-90 0 -151 59q-59 59 -59 148zM552 723l-150 -138l-44 41l134 158zM217 585l-43 41l133 158l60 -61z" />
    <glyph glyph-name="Uogonek" unicode="&#x172;" horiz-adv-x="732" 
d="M68 280v420h90v-420q0 -89 59 -148q61 -59 149 -59t147 59q60 60 60 148v420h91v-420q0 -106 -66 -186q-66 -79 -170 -99q-55 -51 -55 -96q0 -20 12 -31.5t30 -11.5q27 0 49 20l7 7l30 -37l-14 -13q-7 -8 -36 -22q-28 -14 -54 -14q-39 0 -65 24.5t-26 61.5q0 51 52 106
q-124 3 -207 86t-83 205z" />
    <glyph glyph-name="uogonek" unicode="&#x173;" 
d="M69 196v324h84v-302q0 -62 42 -106q43 -43 107 -43q68 0 114 43q47 44 47 108v300h84v-520h-6l-17 -15q-10 -11 -27 -36q-17 -28 -17 -50q0 -20 12 -31.5t31 -11.5q25 0 48 20l7 7l31 -37l-14 -13q-7 -8 -36 -22q-28 -14 -54 -14q-39 0 -65 24.5t-26 61.5q0 26 15 55
t33 46l15 16h-14v86q-58 -97 -184 -97q-90 0 -151 59q-59 59 -59 148z" />
    <glyph glyph-name="Wcircumflex" unicode="&#x174;" horiz-adv-x="1015" 
d="M330 0h-72l-241 700h93l183 -556l179 556h72l179 -554l183 554h92l-240 -700h-73l-177 544zM379 765l-35 48l160 122h6l161 -122l-36 -47l-128 83z" />
    <glyph glyph-name="wcircumflex" unicode="&#x175;" horiz-adv-x="780" 
d="M191 0l-177 520h85l127 -390l127 390h74l127 -391l128 391h85l-178 -520h-73l-126 380l-126 -380h-73zM390 682l-128 -83l-36 47l161 122h6l161 -122l-36 -46z" />
    <glyph glyph-name="Ycircumflex" unicode="&#x176;" horiz-adv-x="671" 
d="M289 0v285l-272 415h104l213 -329l215 329h104l-273 -411v-289h-91zM208 765l-36 48l161 122h5l161 -122l-36 -47l-128 83z" />
    <glyph glyph-name="ycircumflex" unicode="&#x177;" horiz-adv-x="532" 
d="M221 15l-207 505h87l163 -404l168 404h87l-256 -609q-29 -71 -74.5 -103.5t-115.5 -32.5h-24v81h24q82 0 117 83zM138 599l-36 47l161 122h6l161 -122l-36 -46l-128 82z" />
    <glyph glyph-name="Ydieresis" unicode="&#x178;" horiz-adv-x="671" 
d="M289 285l-272 415h104l213 -329l215 329h104l-273 -411v-289h-91v285zM439 875q24 0 40.5 -16t16.5 -40t-16.5 -40t-40.5 -16q-23 0 -39 16t-16 40t16 40t39 16zM232 875q23 0 39.5 -16t16.5 -40t-16.5 -40t-39.5 -16q-24 0 -40 16t-16 40t16 40t40 16z" />
    <glyph glyph-name="Zacute" unicode="&#x179;" horiz-adv-x="640" 
d="M601 84v-84h-556v69l428 547h-425v84h551v-69l-427 -547h429zM479 861l-193 -95l-29 51l182 119z" />
    <glyph glyph-name="zacute" unicode="&#x17a;" horiz-adv-x="508" 
d="M468 78v-78h-428v65l308 377h-303v78h418v-65l-308 -377h313zM410 694l-193 -95l-29 52l182 118z" />
    <glyph glyph-name="Zdotaccent" unicode="&#x17b;" horiz-adv-x="640" 
d="M601 0h-556v69l428 547h-425v84h551v-69l-427 -547h429v-84zM265 822q0 26 16.5 42.5t42.5 16.5q38 3 53.5 -36t-12.5 -65q-24 -27 -63.5 -11.5t-36.5 53.5z" />
    <glyph glyph-name="zdotaccent" unicode="&#x17c;" horiz-adv-x="508" 
d="M40 0v65l308 377h-303v78h418v-65l-308 -377h313v-78h-428zM255 598q-26 0 -42.5 16.5t-16.5 41.5t17 41.5t42 16.5t41.5 -16.5t16.5 -41.5t-16.5 -41.5t-41.5 -16.5z" />
    <glyph glyph-name="Zcaron" unicode="&#x17d;" horiz-adv-x="640" 
d="M601 0h-556v69l428 547h-425v84h551v-69l-427 -547h429v-84zM320 766l-160 122l35 47l128 -83l128 82l36 -46l-161 -122h-6z" />
    <glyph glyph-name="zcaron" unicode="&#x17e;" horiz-adv-x="508" 
d="M468 78v-78h-428v65l308 377h-303v78h418v-65l-308 -377h313zM257 599h-6l-160 122l35 48l128 -84l128 83l36 -47z" />
    <glyph glyph-name="uni018F" unicode="&#x18f;" horiz-adv-x="824" 
d="M412 711q154 0 258 -104t104 -257q0 -154 -104 -258q-103 -103 -258 -103q-154 0 -257 103q-104 104 -104 258q0 22 2 38h624q-13 103 -87 169q-73 67 -178 67q-66 0 -122.5 -28.5t-92.5 -79.5l-90 34q49 76 129 118.5t176 42.5zM412 76q103 0 176 64q74 65 87 164h-525
q14 -100 87 -164t175 -64z" />
    <glyph glyph-name="florin" unicode="&#x192;" horiz-adv-x="357" 
d="M-44 -225h-68l14 81h63q32 0 57.5 23.5t31.5 58.5l74 420h-87l13 75h87l29 164q12 66 63 109q53 44 117 44h69l-14 -81h-63q-32 0 -57.5 -23.5t-31.5 -58.5l-28 -154h139l-13 -75h-139l-75 -430q-12 -66 -64 -109q-52 -44 -117 -44z" />
    <glyph glyph-name="uni01DD" unicode="&#x1dd;" horiz-adv-x="616" 
d="M38 289h447q-9 70 -62 117t-128 47q-99 0 -154 -76l-82 26q36 60 98.5 94t137.5 34q119 0 198 -78q79 -76 79 -193q0 -115 -77 -194q-77 -77 -191 -77t-191 77q-77 79 -77 194q0 15 2 29zM484 221h-361q12 -67 62 -111q51 -42 120 -42q67 0 117 42q50 44 62 111z" />
    <glyph glyph-name="Aringacute" unicode="&#x1fa;" horiz-adv-x="721" 
d="M180 157l-68 -157h-95l303 690q-30 12 -48.5 39t-18.5 61q0 44 31 75q32 32 77 32q35 0 61 -20l163 105l40 -75l-164 -80q7 -15 7 -37q0 -33 -18.5 -60.5t-48.5 -39.5l303 -690h-95l-68 157h-361zM504 241l-143 330l-144 -330h287zM361 836q-20 0 -33.5 -13t-13.5 -33
t13.5 -33.5t33.5 -13.5t33 13.5t13 33.5t-13.5 33t-32.5 13z" />
    <glyph glyph-name="aringacute" unicode="&#x1fb;" horiz-adv-x="645" 
d="M300 531q117 0 190 -85v74h84v-520h-84v74q-73 -85 -190 -85q-109 0 -183 77q-73 77 -73 194t73 193q73 78 183 78zM309 73q76 0 127 53q52 53 52 134t-52 133q-51 54 -127 54q-75 0 -127 -54q-51 -53 -51 -133t51 -134q53 -53 127 -53zM323 801q32 0 58 -17l158 102
l40 -74l-157 -78q8 -22 8 -41q0 -44 -32 -76q-31 -31 -75 -31q-46 0 -77 31t-31 76t31 76q32 32 77 32zM323 647q19 0 32.5 13.5t13.5 32.5q0 31 -28.5 43t-50.5 -10t-10 -50.5t43 -28.5z" />
    <glyph glyph-name="AEacute" unicode="&#x1fc;" horiz-adv-x="1009" 
d="M121 0h-104l452 700h496v-84h-369v-220h318v-84h-318v-228h374v-84h-464v157h-285zM275 241h231v362zM723 861l-193 -95l-30 51l183 119z" />
    <glyph glyph-name="aeacute" unicode="&#x1fd;" horiz-adv-x="1061" 
d="M300 -11q-109 0 -183 77q-73 77 -73 194t73 193q73 78 183 78q117 0 190 -85v74h84v-74q75 85 192 85q110 0 185 -78q75 -77 75 -193q0 -3 -2 -29h-448q9 -70 62 -117q52 -46 129 -46q99 0 154 75l82 -26q-36 -60 -96 -94t-134 -34q-123 0 -199 87v-76h-84v74
q-73 -85 -190 -85zM309 73q76 0 127 53q52 53 52 134t-52 133q-51 54 -127 54q-75 0 -127 -54q-51 -53 -51 -133t51 -134q53 -53 127 -53zM577 299h362q-12 67 -63 111q-50 43 -120 43q-68 0 -117 -43q-50 -44 -62 -111zM684 694l-193 -95l-29 52l182 118z" />
    <glyph glyph-name="Oslashacute" unicode="&#x1fe;" horiz-adv-x="824" 
d="M146 29l31 44q-126 106 -126 277q0 154 103 257q104 104 258 104q96 0 179 -44l31 44l59 -40l-31 -45q124 -105 124 -276q0 -154 -104 -258q-103 -103 -258 -103q-97 0 -177 44l-32 -44zM597 550l-311 -443q56 -31 126 -31q114 0 191 78q77 80 77 196q0 122 -83 200z
M229 148l310 445q-56 31 -127 31q-115 0 -191 -79q-77 -79 -77 -195q0 -123 85 -202zM375 766l-30 51l183 119l40 -75z" />
    <glyph glyph-name="oslashacute" unicode="&#x1ff;" horiz-adv-x="631" 
d="M315 531q70 0 126 -29l21 29l58 -40l-20 -29q87 -76 87 -202q0 -116 -78 -194q-79 -77 -194 -77q-70 0 -126 29l-20 -29l-58 40l20 30q-87 77 -87 201q0 116 77 193q78 78 194 78zM448 389l-209 -299q37 -17 76 -17q79 0 132 53q53 55 53 134q0 77 -52 129zM182 132
l209 298q-37 17 -76 17q-79 0 -131 -54q-53 -53 -53 -133q0 -77 51 -128zM278 599l-29 52l182 118l40 -75z" />
    <glyph glyph-name="uni0218" unicode="&#x218;" 
d="M545 555l-89 -26q-9 40 -51.5 67.5t-99.5 27.5q-63 0 -104 -31q-41 -30 -41 -76q0 -50 56 -78q44 -21 135 -44q74 -19 115 -39q96 -45 101 -157q0 -94 -72 -152q-70 -58 -182 -58q-101 0 -172 47q-71 46 -90 120l90 27q8 -46 56.5 -76.5t115.5 -30.5q70 0 117 32
q47 33 47 84q0 52 -50 78q-44 23 -101 37l-42 11l-39 12l-41 14q-3 1 -8.5 3.5t-13.5 6t-14 6.5q-25 12 -59 43q-34 34 -40 108q0 89 66 144q67 56 169 56q92 0 157 -44q66 -43 84 -112zM389 -125q0 -69 -76 -115l-5 -3l-22 24l12 10q9 8 20 24.5t10 27.5q-19 2 -31.5 16.5
t-12.5 33.5q0 20 14.5 34t35.5 14q24 0 39.5 -18t15.5 -48z" />
    <glyph glyph-name="uni0219" unicode="&#x219;" horiz-adv-x="477" 
d="M424 407l-79 -14q-8 30 -37.5 47t-74.5 17q-43 0 -71.5 -19t-28.5 -49q0 -42 55 -61l127 -45q119 -44 119 -142q0 -71 -54 -111.5t-141 -40.5q-83 0 -136.5 36.5t-64.5 99.5l79 14q8 -34 41.5 -55t82.5 -21q48 0 80.5 21t32.5 54q0 47 -69 71l-124 43q-109 37 -109 131
q0 70 51.5 109t135.5 39q75 0 124.5 -33.5t60.5 -90.5zM313 -125q0 -69 -76 -115l-5 -3l-22 24l12 10q9 8 20 24.5t10 27.5q-19 2 -31.5 16.5t-12.5 33.5q0 20 14.5 34t35.5 14q24 0 39.5 -18t15.5 -48z" />
    <glyph glyph-name="uni021A" unicode="&#x21a;" horiz-adv-x="668" 
d="M27 700h614v-84h-262v-616h-90v616h-262v84zM287 -107q0 20 14.5 34t36.5 14q24 0 39.5 -18t15.5 -48q0 -69 -76 -115l-5 -3l-23 24l12 10q9 8 20 24.5t10 27.5q-18 2 -31 16.5t-13 33.5z" />
    <glyph glyph-name="uni021B" unicode="&#x21b;" horiz-adv-x="362" 
d="M15 446v74h84v104h84v-104h145v-74h-145v-283q0 -35 21.5 -58.5t53.5 -23.5h70v-81h-76q-65 0 -109 44t-44 109v293h-84zM262 -125q0 -69 -76 -115l-4 -3l-23 24l12 10q9 8 20 24.5t10 27.5q-18 2 -31 16.5t-13 33.5q0 20 14.5 34t36.5 14q24 0 39 -18t15 -48z" />
    <glyph glyph-name="uni0237" unicode="&#x237;" horiz-adv-x="234" 
d="M79 520h84v-592q0 -65 -44 -109t-109 -44h-42v81h36q32 0 53.5 23.5t21.5 58.5v582z" />
    <glyph glyph-name="uni0259" unicode="&#x259;" horiz-adv-x="616" 
d="M38 289h447q-9 70 -62 117t-128 47q-99 0 -154 -76l-82 26q36 60 98.5 94t137.5 34q119 0 198 -78q79 -76 79 -193q0 -115 -77 -194q-77 -77 -191 -77t-191 77q-77 79 -77 194q0 15 2 29zM484 221h-361q12 -67 62 -111q51 -42 120 -42q67 0 117 42q50 44 62 111z" />
    <glyph glyph-name="circumflex" unicode="&#x2c6;" horiz-adv-x="436" 
d="M218 791l-128 -83l-36 47l161 122h6l161 -122l-36 -46z" />
    <glyph glyph-name="caron" unicode="&#x2c7;" horiz-adv-x="436" 
d="M218 794l128 83l36 -46l-161 -123h-6l-161 123l36 47z" />
    <glyph glyph-name="breve" unicode="&#x2d8;" horiz-adv-x="406" 
d="M54 844h68q0 -37 23.5 -61.5t58.5 -24.5q34 0 57 24.5t23 61.5h68q0 -63 -43 -106q-42 -42 -106 -42t-107 42q-42 44 -42 106z" />
    <glyph glyph-name="dotaccent" unicode="&#x2d9;" horiz-adv-x="225" 
d="M71 723q-17 17 -17 42t17 41q17 17 42 17t41 -17q17 -16 17 -41t-17 -42q-16 -16 -41 -16t-42 16z" />
    <glyph glyph-name="ring" unicode="&#x2da;" horiz-adv-x="323" 
d="M162 910q43 0 75 -32t32 -76t-32 -76q-31 -31 -75 -31q-46 0 -77 31t-31 76t31 76q32 32 77 32zM115 802q0 -19 13.5 -32.5t33.5 -13.5t33 13t13 33t-13 33.5t-33 13.5t-33.5 -13.5t-13.5 -33.5z" />
    <glyph glyph-name="ogonek" unicode="&#x2db;" horiz-adv-x="304" 
d="M101 -16l16 16h65l-17 -15q-11 -11 -27 -36q-17 -28 -17 -50q0 -20 12 -31.5t30 -11.5q27 0 49 20l7 7l31 -37l-14 -13q-7 -8 -36 -22q-28 -14 -54 -14q-39 0 -65.5 24.5t-26.5 61.5q0 26 14.5 55t32.5 46z" />
    <glyph glyph-name="tilde" unicode="&#x2dc;" horiz-adv-x="418" 
d="M122 720h-68q0 43 30 73t71 30q30 0 59 -24q31 -23 44 -23q16 0 27 12t11 31h67q0 -44 -29 -74t-70 -30q-31 0 -60 23q-28 24 -43 24q-16 0 -27.5 -12t-11.5 -30z" />
    <glyph glyph-name="hungarumlaut" unicode="&#x2dd;" horiz-adv-x="486" 
d="M98 694l-44 41l134 158l59 -61zM282 694l-43 41l133 158l60 -61z" />
    <glyph glyph-name="uni0394" unicode="&#x394;" horiz-adv-x="708" 
d="M691 0h-674l301 700h72zM560 84l-206 487l-206 -487h412z" />
    <glyph glyph-name="uni03A9" unicode="&#x3a9;" horiz-adv-x="824" 
d="M51 358q0 152 103 252q104 101 258 101t258 -102q104 -101 104 -252q0 -169 -126 -273h126v-84h-271v84q77 25 128 97q49 71 49 164q0 119 -77 199t-191 80t-191 -80t-77 -197q0 -94 51 -166q50 -71 134 -97v-84h-270v84h120q-128 104 -128 274z" />
    <glyph glyph-name="uni0400" unicode="&#x400;" horiz-adv-x="626" 
d="M78 700h504v-84h-414v-220h363v-84h-363v-228h419v-84h-509v700zM391 817l-30 -51l-193 95l40 75z" />
    <glyph glyph-name="uni0401" unicode="&#x401;" horiz-adv-x="626" 
d="M78 700h504v-84h-414v-220h363v-84h-363v-228h419v-84h-509v700zM469 779q-16 -16 -40 -16t-40 16t-16 40t16 40t40 16t40 -16t16 -40t-16 -40zM181 779q-16 16 -16 40t16 40t40 16t40 -16t16 -40t-16 -40t-40 -16t-40 16z" />
    <glyph glyph-name="uni0402" unicode="&#x402;" horiz-adv-x="895" 
d="M289 0v616h-262v84h614v-84h-262v-199q82 20 156 20q136 0 211 -59.5t75 -169.5q0 -108 -74 -164q-73 -55 -195 -55l1 84q177 0 177 134q0 146 -197 146q-77 0 -154 -21v-332h-90z" />
    <glyph glyph-name="uni0403" unicode="&#x403;" horiz-adv-x="553" 
d="M168 616v-616h-90v700h448v-84h-358zM447 861l-192 -95l-30 51l183 119z" />
    <glyph glyph-name="uni0404" unicode="&#x404;" horiz-adv-x="776" 
d="M412 711q102 0 185.5 -48.5t131.5 -133.5l-88 -33q-36 60 -96 94t-133 34q-103 0 -176 -64t-89 -164h357v-84h-358q13 -102 87 -170q75 -66 179 -66q73 0 133 34t96 94l88 -33q-48 -85 -131.5 -133.5t-185.5 -48.5q-155 0 -258 103t-103 258q0 154 103 257
q104 104 258 104z" />
    <glyph glyph-name="uni0405" unicode="&#x405;" 
d="M545 555l-89 -26q-9 40 -51.5 67.5t-99.5 27.5q-63 0 -104 -31q-41 -30 -41 -76q0 -50 56 -78q44 -21 135 -44q74 -19 115 -39q96 -45 101 -157q0 -94 -72 -152q-70 -58 -182 -58q-101 0 -172 47q-71 46 -90 120l90 27q8 -46 56.5 -76.5t115.5 -30.5q70 0 117 32
q47 33 47 84q0 52 -50 78q-44 23 -101 37l-42 11l-39 12l-41 14q-3 1 -8.5 3.5t-13.5 6t-14 6.5q-25 12 -59 43q-34 34 -40 108q0 89 66 144q67 56 169 56q92 0 157 -44q66 -43 84 -112z" />
    <glyph glyph-name="uni0406" unicode="&#x406;" horiz-adv-x="246" 
d="M168 0h-90v700h90v-700z" />
    <glyph glyph-name="uni0407" unicode="&#x407;" horiz-adv-x="246" 
d="M168 0h-90v700h90v-700zM-21 779q-16 16 -16 40t16 40t40 16t40 -16t16 -40t-16 -40t-40 -16t-40 16zM187 779q-16 16 -16 40t16 40t40 16t40 -16t16 -40t-16 -40t-40 -16t-40 16z" />
    <glyph glyph-name="uni0408" unicode="&#x408;" horiz-adv-x="595" 
d="M523 700v-449q0 -112 -77 -187q-76 -75 -192 -75q-72 0 -132 32t-96 87l75 49q23 -39 63.5 -61.5t90.5 -22.5q77 0 129 51t52 127v449h87z" />
    <glyph glyph-name="uni0409" unicode="&#x409;" horiz-adv-x="1140" 
d="M43 0h-26v84h26q34 0 58 21q56 51 56 255v340h498v-272h214q97 0 161 -61q65 -62 65 -153t-65 -153q-64 -61 -161 -61h-304v616h-318v-256q0 -360 -204 -360zM655 344v-260h214q56 0 93.5 37t37.5 93t-37.5 93t-93.5 37h-214z" />
    <glyph glyph-name="uni040A" unicode="&#x40a;" horiz-adv-x="1159" 
d="M168 0h-90v700h90v-288h415v288h91v-288h214q96 0 161 -59t65 -147t-65 -147t-161 -59h-305v328h-415v-328zM888 328h-214v-244h214q56 0 94 35t38 87t-38 87t-94 35z" />
    <glyph glyph-name="uni040B" unicode="&#x40b;" horiz-adv-x="895" 
d="M289 0v616h-262v84h614v-84h-262v-196q74 17 148 17q141 0 217.5 -60t76.5 -171v-206h-91v206q0 147 -203 147q-77 0 -148 -18v-335h-90z" />
    <glyph glyph-name="uni040C" unicode="&#x40c;" horiz-adv-x="643" 
d="M626 0h-116l-329 357l309 343h116l-309 -343zM78 0v700h90v-700h-90zM478 861l-193 -95l-30 51l183 119z" />
    <glyph glyph-name="uni040D" unicode="&#x40d;" horiz-adv-x="755" 
d="M78 0v700h90v-547l427 547h82v-700h-91v544l-426 -544h-82zM443 817l-29 -51l-193 95l40 75z" />
    <glyph glyph-name="uni040E" unicode="&#x40e;" horiz-adv-x="684" 
d="M319 175l-302 525h100l247 -432l206 432h97l-256 -538q-77 -162 -214 -162h-72v84h65q77 0 129 91zM343 768q-75 0 -125 44q-49 43 -49 110h75q0 -35 28 -59t70 -24t70 24t28 59h74q0 -67 -49 -110q-50 -44 -122 -44z" />
    <glyph glyph-name="uni040F" unicode="&#x40f;" horiz-adv-x="734" 
d="M78 0v700h90v-616h398v616h90v-700h-244v-170h-90v170h-244z" />
    <glyph glyph-name="uni0410" unicode="&#x410;" horiz-adv-x="721" 
d="M112 0h-95l307 700h73l307 -700h-95l-68 157h-361zM504 241l-143 330l-144 -330h287z" />
    <glyph glyph-name="uni0411" unicode="&#x411;" horiz-adv-x="662" 
d="M78 700h467v-84h-377v-188h215q95 0 160 -62t65 -152q0 -91 -65 -153q-64 -61 -160 -61h-305v700zM168 344v-260h215q57 0 94 37q38 38 38 93t-38 93q-37 37 -94 37h-215z" />
    <glyph glyph-name="uni0412" unicode="&#x412;" horiz-adv-x="691" 
d="M430 0h-352v700h332q84 0 142 -53q58 -52 58 -130q0 -95 -79 -147q52 -24 82.5 -70.5t30.5 -103.5q0 -83 -62 -140q-62 -56 -152 -56zM430 322h-262v-238h262q51 0 85.5 34t34.5 85q0 49 -35 84t-85 35zM410 616h-242v-210h242q46 0 76.5 30t30.5 75t-30.5 75t-76.5 30z
" />
    <glyph glyph-name="uni0413" unicode="&#x413;" horiz-adv-x="553" 
d="M168 616v-616h-90v700h448v-84h-358z" />
    <glyph glyph-name="uni0414" unicode="&#x414;" horiz-adv-x="831" 
d="M114 -170h-90v254h79q87 28 87 273v343h502v-616h115v-254h-90v170h-603v-170zM223 84h378v532h-321v-255q0 -185 -57 -277z" />
    <glyph glyph-name="uni0415" unicode="&#x415;" horiz-adv-x="626" 
d="M78 700h504v-84h-414v-220h363v-84h-363v-228h419v-84h-509v700z" />
    <glyph glyph-name="uni0416" unicode="&#x416;" horiz-adv-x="995" 
d="M130 0h-113l312 357l-292 343h113l293 -343zM978 0h-113l-312 357l292 343h113l-292 -343zM544 700v-700h-91v700h91z" />
    <glyph glyph-name="uni0417" unicode="&#x417;" horiz-adv-x="641" 
d="M320 -11q-200 0 -278 170l87 33q54 -116 190 -116q80 0 130.5 35.5t50.5 92.5q0 47 -36 82q-35 34 -88 34h-135v84h133q45 0 76.5 30.5t31.5 73.5q0 52 -45.5 84t-119.5 32q-132 0 -184 -115l-88 33q78 169 273 169q114 0 185 -55q73 -55 73 -140q0 -47 -24 -87.5
t-65 -64.5q50 -26 78.5 -70.5t28.5 -98.5q0 -89 -78 -148q-76 -58 -196 -58z" />
    <glyph glyph-name="uni0418" unicode="&#x418;" horiz-adv-x="755" 
d="M160 0h-82v700h90v-547l427 547h82v-700h-91v544z" />
    <glyph glyph-name="uni0419" unicode="&#x419;" horiz-adv-x="755" 
d="M586 544l-426 -544h-82v700h90v-547l427 547h82v-700h-91v544zM382 768q-74 0 -124 44q-49 43 -49 110h74q0 -35 28 -59t71 -24q41 0 69 24t28 59h74q0 -67 -49 -110q-50 -44 -122 -44z" />
    <glyph glyph-name="uni041A" unicode="&#x41a;" horiz-adv-x="643" 
d="M626 0h-116l-329 357l309 343h116l-309 -343zM78 0v700h90v-700h-90z" />
    <glyph glyph-name="uni041B" unicode="&#x41b;" horiz-adv-x="733" 
d="M43 0h-26v84h26q34 0 58 21q56 51 56 255v340h499v-700h-91v616h-318v-256q0 -360 -204 -360z" />
    <glyph glyph-name="uni041C" unicode="&#x41c;" horiz-adv-x="899" 
d="M168 0h-90v700h90l282 -492l281 492h90v-700h-90v529l-252 -442h-59l-252 441v-528z" />
    <glyph glyph-name="uni041D" unicode="&#x41d;" horiz-adv-x="752" 
d="M168 0h-90v700h90v-304h415v304h91v-700h-91v312h-415v-312z" />
    <glyph glyph-name="uni041E" unicode="&#x41e;" horiz-adv-x="824" 
d="M412 711q154 0 258 -104t104 -257q0 -154 -104 -258q-103 -103 -258 -103t-258 103t-103 258q0 154 103 257q104 104 258 104zM412 76q114 0 191 78q77 80 77 196t-77 195q-76 79 -191 79t-191 -79q-77 -79 -77 -195t77 -196q77 -78 191 -78z" />
    <glyph glyph-name="uni041F" unicode="&#x41f;" horiz-adv-x="752" 
d="M168 616v-616h-90v700h596v-700h-91v616h-415z" />
    <glyph glyph-name="uni0420" unicode="&#x420;" horiz-adv-x="657" 
d="M168 268v-268h-90v700h307q97 0 162 -62t65 -154t-65 -154t-162 -62h-217zM385 616h-217v-264h217q57 0 95 38t38 94q0 57 -38 94.5t-95 37.5z" />
    <glyph glyph-name="uni0421" unicode="&#x421;" horiz-adv-x="776" 
d="M412 711q102 0 185.5 -48.5t131.5 -133.5l-88 -33q-36 60 -96 94t-133 34q-115 0 -191 -79q-77 -79 -77 -195t77 -196q77 -78 191 -78q73 0 133 34t96 94l88 -33q-48 -85 -131.5 -133.5t-185.5 -48.5q-155 0 -258 103t-103 258q0 154 103 257q104 104 258 104z" />
    <glyph glyph-name="uni0422" unicode="&#x422;" horiz-adv-x="668" 
d="M289 616h-262v84h614v-84h-262v-616h-90v616z" />
    <glyph glyph-name="uni0423" unicode="&#x423;" horiz-adv-x="684" 
d="M319 175l-302 525h100l247 -432l206 432h97l-256 -538q-77 -162 -214 -162h-72v84h65q77 0 129 91z" />
    <glyph glyph-name="uni0424" unicode="&#x424;" horiz-adv-x="858" 
d="M384 638v73h90v-73q146 -2 239 -83q94 -81 94 -205t-94 -206q-94 -81 -239 -82v-73h-90v73q-145 1 -239 82q-94 82 -94 206t94 205q93 81 239 83zM384 149v402q-104 0 -172 -57q-68 -56 -68 -144t68 -145q68 -56 172 -56zM474 551v-402q103 0 171 56q68 57 68 145
t-68 144q-67 57 -171 57z" />
    <glyph glyph-name="uni0425" unicode="&#x425;" horiz-adv-x="677" 
d="M284 357l-257 343h108l204 -271l203 271h108l-257 -343l267 -357h-108l-213 284l-214 -284h-108z" />
    <glyph glyph-name="uni0426" unicode="&#x426;" horiz-adv-x="795" 
d="M78 0v700h90v-616h398v616h90v-616h116v-254h-91v170h-603z" />
    <glyph glyph-name="uni0427" unicode="&#x427;" horiz-adv-x="691" 
d="M354 263q-146 0 -226 60t-80 171v206h90v-206q0 -147 215 -147q88 0 170 21v332h90v-700h-90v284q-79 -21 -169 -21z" />
    <glyph glyph-name="uni0428" unicode="&#x428;" horiz-adv-x="1082" 
d="M78 0v700h90v-616h325v616h90v-616h331v616h90v-700h-926z" />
    <glyph glyph-name="uni0429" unicode="&#x429;" horiz-adv-x="1143" 
d="M78 700h90v-616h325v616h90v-616h331v616h90v-616h116v-254h-91v170h-951v700z" />
    <glyph glyph-name="uni042A" unicode="&#x42a;" horiz-adv-x="851" 
d="M275 0v616h-248v84h339v-272h214q97 0 161 -61q65 -62 65 -153t-65 -153q-64 -61 -161 -61h-305zM366 344v-260h214q57 0 94 37q38 38 38 93t-38 93q-37 37 -94 37h-214z" />
    <glyph glyph-name="uni042B" unicode="&#x42b;" horiz-adv-x="886" 
d="M383 0h-305v700h90v-272h215q95 0 160 -62t65 -152q0 -91 -65 -153q-64 -61 -160 -61zM168 344v-260h215q57 0 94 37q38 38 38 93q0 48 -28 82.5t-74 44.5l-22 3h-8h-215zM808 0h-91v700h91v-700z" />
    <glyph glyph-name="uni042C" unicode="&#x42c;" horiz-adv-x="654" 
d="M78 0v700h90v-272h215q95 0 160 -62t65 -152q0 -91 -65 -153q-64 -61 -160 -61h-305zM168 344v-260h215q48 0 83.5 28t45.5 72l3 22q0 61 -36.5 99.5t-95.5 38.5h-215z" />
    <glyph glyph-name="uni042D" unicode="&#x42d;" horiz-adv-x="776" 
d="M48 171l87 33q36 -60 96 -94t133 -34q106 0 179 66q74 68 87 170h-321v84h320q-17 102 -89 164q-73 64 -176 64q-73 0 -133 -34t-96 -94l-87 33q46 85 130 133.5t186 48.5q153 0 257 -104t104 -257q0 -154 -104 -258q-103 -103 -257 -103q-102 0 -186 48.5t-130 133.5z
" />
    <glyph glyph-name="uni042E" unicode="&#x42e;" horiz-adv-x="1076" 
d="M78 0v700h90v-304h138q16 138 115 226q101 89 243 89q153 0 257 -104t104 -257q0 -154 -104 -258q-103 -103 -257 -103q-146 0 -246 91q-99 90 -113 232h-137v-312h-90zM664 76q114 0 191 78q77 80 77 196t-77 195q-76 79 -191 79q-116 0 -192 -79q-76 -77 -76 -195
q0 -117 76 -196q76 -78 192 -78z" />
    <glyph glyph-name="uni042F" unicode="&#x42f;" horiz-adv-x="679" 
d="M314 270l-165 -270h-102l169 279q-72 20 -115.5 76t-43.5 130q0 91 65 153t162 62h317v-700h-91v270h-196zM284 354h226v262h-226q-56 0 -96 -38q-38 -38 -38 -93q0 -56 38 -94q38 -37 96 -37z" />
    <glyph glyph-name="uni0430" unicode="&#x430;" horiz-adv-x="645" 
d="M300 531q117 0 190 -85v74h84v-520h-84v74q-73 -85 -190 -85q-109 0 -183 77q-73 77 -73 194t73 193q73 78 183 78zM309 447q-75 0 -127 -54q-51 -53 -51 -133t51 -134q53 -53 127 -53q76 0 127 53q52 53 52 134t-52 133q-51 54 -127 54z" />
    <glyph glyph-name="uni0431" unicode="&#x431;" horiz-adv-x="649" 
d="M47 378q0 172 75.5 260.5t232.5 103.5q165 17 190 19v-84q-141 -14 -184 -19q-122 -12 -176.5 -78.5t-51.5 -191.5q22 65 78 104t131 39q111 0 187 -78q76 -77 76 -194q0 -116 -77 -193t-191 -77q-124 0 -207 98t-83 291zM339 73q76 0 127 53q51 54 51 134t-51 133
q-51 54 -127 54q-77 0 -129 -54q-51 -53 -51 -133t51 -134q53 -53 129 -53z" />
    <glyph glyph-name="uni0432" unicode="&#x432;" horiz-adv-x="558" 
d="M71 520h268q57 0 99.5 -29.5t53.5 -77.5q4 -19 4 -21q0 -74 -54 -116q36 -18 57.5 -51.5t21.5 -72.5q0 -66 -46 -109t-115 -43h-289v520zM155 234v-153h205q31 0 52 22t21 54q0 33 -21 55t-52 22h-205zM339 439h-184v-134h184q31 0 50.5 19t19.5 48t-19.5 48t-50.5 19z
" />
    <glyph glyph-name="uni0433" unicode="&#x433;" horiz-adv-x="423" 
d="M155 439v-439h-84v520h335v-81h-251z" />
    <glyph glyph-name="uni0434" unicode="&#x434;" horiz-adv-x="670" 
d="M106 0v-150h-84v231h78q45 41 45 174v265h408v-439h95v-231h-84v150h-458zM193 81h276v358h-240v-186q0 -107 -36 -172z" />
    <glyph glyph-name="uni0435" unicode="&#x435;" horiz-adv-x="616" 
d="M578 231h-447q9 -70 62 -117q52 -46 128 -46q99 0 154 75l82 -26q-36 -60 -98.5 -94t-137.5 -34q-118 0 -198 77q-79 78 -79 194t77 193q77 78 191 78q115 0 191 -78q77 -77 77 -193q0 -3 -2 -29zM132 299h361q-12 67 -63 111q-50 43 -120 43q-68 0 -117 -43t-61 -111z
" />
    <glyph glyph-name="uni0436" unicode="&#x436;" horiz-adv-x="752" 
d="M118 0h-101l213 269l-193 251h100l194 -251zM735 0h-101l-212 269l193 251h100l-193 -251zM418 520v-520h-84v520h84z" />
    <glyph glyph-name="uni0437" unicode="&#x437;" horiz-adv-x="540" 
d="M41 132l85 23q35 -86 141 -86q61 0 101 26.5t40 65.5q0 31 -23.5 51.5t-58.5 20.5h-128v71h122q34 0 56 18.5t22 45.5q0 35 -37 59t-92 24q-105 0 -140 -86l-85 23q24 67 85 105t144 38q90 0 151 -44q61 -43 61 -108q0 -68 -65 -109q75 -40 75 -120q0 -69 -64 -115
t-162 -46q-84 0 -144 37.5t-84 105.5z" />
    <glyph glyph-name="uni0438" unicode="&#x438;" horiz-adv-x="622" 
d="M466 379l-324 -379h-71v520h84v-381l324 381h71v-520h-84v379z" />
    <glyph glyph-name="uni0439" unicode="&#x439;" horiz-adv-x="622" 
d="M466 379l-324 -379h-71v520h84v-381l324 381h71v-520h-84v379zM145 738h72q0 -37 26.5 -61t67.5 -24t67.5 24t26.5 61h71q0 -66 -47 -110q-46 -43 -118 -43t-119 43q-47 44 -47 110z" />
    <glyph glyph-name="uni043A" unicode="&#x43a;" horiz-adv-x="525" 
d="M508 0h-105l-234 269l214 251h103l-213 -251zM155 520v-520h-84v520h84z" />
    <glyph glyph-name="uni043B" unicode="&#x43b;" horiz-adv-x="599" 
d="M56 0h-34v81h28q75 0 75 164v275h403v-520h-84v439h-235v-210q0 -114 -40.5 -171.5t-112.5 -57.5z" />
    <glyph glyph-name="uni043C" unicode="&#x43c;" horiz-adv-x="708" 
d="M155 362v-362h-84v520h84l199 -346l198 346h84v-520h-84v360l-172 -300h-52z" />
    <glyph glyph-name="uni043D" unicode="&#x43d;" horiz-adv-x="620" 
d="M155 224v-224h-84v520h84v-215h310v215h84v-520h-84v224h-310z" />
    <glyph glyph-name="uni043E" unicode="&#x43e;" horiz-adv-x="631" 
d="M121 66q-77 79 -77 194q0 116 77 193q78 78 194 78t194 -78q78 -77 78 -193t-78 -194q-79 -77 -194 -77t-194 77zM315 73q79 0 132 53q53 55 53 134q0 80 -53 133q-53 54 -132 54t-131 -54q-53 -53 -53 -133q0 -79 53 -134q53 -53 131 -53z" />
    <glyph glyph-name="uni043F" unicode="&#x43f;" horiz-adv-x="612" 
d="M155 439v-439h-84v520h469v-520h-84v439h-301z" />
    <glyph glyph-name="uni0440" unicode="&#x440;" horiz-adv-x="645" 
d="M155 -225h-84v745h84v-74q73 85 189 85q110 0 183 -78q74 -77 74 -193q0 -115 -74 -194q-74 -77 -183 -77q-116 0 -189 85v-299zM335 447q-75 0 -127 -54q-51 -53 -51 -133t51 -134q53 -53 127 -53q76 0 127 53q52 53 52 134t-52 133q-51 54 -127 54z" />
    <glyph glyph-name="uni0441" unicode="&#x441;" horiz-adv-x="599" 
d="M563 374l-84 -25q-23 45 -66.5 71.5t-97.5 26.5q-79 0 -131 -54q-53 -53 -53 -133q0 -79 53 -134q53 -53 131 -53q54 0 97.5 26.5t66.5 71.5l84 -25q-32 -73 -98.5 -115t-149.5 -42q-115 0 -194 77q-77 79 -77 194q0 116 77 193q78 78 194 78q83 0 149.5 -42t98.5 -115z
" />
    <glyph glyph-name="uni0442" unicode="&#x442;" horiz-adv-x="508" 
d="M212 0v439h-195v81h474v-81h-195v-439h-84z" />
    <glyph glyph-name="uni0443" unicode="&#x443;" horiz-adv-x="532" 
d="M190 -61l31 76l-207 505h87l163 -404l168 404h87l-256 -609q-29 -71 -74.5 -103.5t-115.5 -32.5h-24v81h24q82 0 117 83z" />
    <glyph glyph-name="uni0444" unicode="&#x444;" horiz-adv-x="786" 
d="M467 -11q-25 0 -32 1v-215h-84v215q-7 -1 -32 -1q-115 0 -194 77q-78 78 -78 194t78 193q78 78 194 78q25 0 32 -1v220h84v-220q7 1 32 1q117 0 193 -78q78 -76 78 -193q0 -116 -78 -194q-77 -77 -193 -77zM319 447q-79 0 -132 -54q-53 -53 -53 -133q0 -79 53 -134
q53 -53 132 -53q2 0 32 2v370q-30 2 -32 2zM467 447q-6 0 -32 -2v-370q26 -2 32 -2q78 0 131 53q53 55 53 134q0 80 -53 133q-52 54 -131 54z" />
    <glyph glyph-name="uni0445" unicode="&#x445;" horiz-adv-x="543" 
d="M424 0l-152 199l-153 -199h-100l203 266l-194 254h100l144 -187l143 187h100l-193 -254l202 -266h-100z" />
    <glyph glyph-name="uni0446" unicode="&#x446;" horiz-adv-x="653" 
d="M71 0v520h84v-439h296v439h84v-439h96v-231h-84v150h-476z" />
    <glyph glyph-name="uni0447" unicode="&#x447;" horiz-adv-x="555" 
d="M46 356v164h87v-164q0 -39 30 -62t87 -23q44 0 150 12v237h84v-520h-84v202q-106 -12 -156 -12q-90 0 -145 47q-53 47 -53 119z" />
    <glyph glyph-name="uni0448" unicode="&#x448;" horiz-adv-x="872" 
d="M71 0v520h84v-439h239v439h84v-439h238v439h84v-520h-729z" />
    <glyph glyph-name="uni0449" unicode="&#x449;" horiz-adv-x="918" 
d="M71 520h84v-439h239v439h84v-439h238v439h84v-439h96v-231h-84v150h-741v520z" />
    <glyph glyph-name="uni044A" unicode="&#x44a;" horiz-adv-x="665" 
d="M205 0v439h-188v81h272v-188h173q72 0 119 -48q48 -47 48 -118t-48 -119q-47 -47 -119 -47h-257zM462 251h-173v-170h173q34 0 57 24.5t23 60.5t-23 60.5t-57 24.5z" />
    <glyph glyph-name="uni044B" unicode="&#x44b;" horiz-adv-x="735" 
d="M328 0h-257v520h84v-188h173q72 0 120 -48q48 -47 48 -118q0 -68 -43 -114t-112 -52h-13zM664 0h-84v520h84v-520zM328 251h-173v-170h173q34 0 57.5 24.5t23.5 60.5t-23.5 60.5t-57.5 24.5z" />
    <glyph glyph-name="uni044C" unicode="&#x44c;" horiz-adv-x="532" 
d="M328 0h-257v520h84v-188h173q69 0 115 -43q47 -44 53 -110q0 -80 -45.5 -129.5t-122.5 -49.5zM155 251v-170h173q34 0 57.5 24.5t23.5 60.5t-23.5 60.5t-57.5 24.5h-173z" />
    <glyph glyph-name="uni044D" unicode="&#x44d;" horiz-adv-x="599" 
d="M36 146l84 25q23 -46 66 -72t97 -26q71 0 120 42q51 45 61 111h-236v77h235q-14 64 -64 104t-116 40q-54 0 -97 -26t-66 -72l-84 25q31 72 97 114.5t150 42.5q116 0 194 -78q78 -77 78 -193t-78 -194q-79 -77 -194 -77q-84 0 -150 42.5t-97 114.5z" />
    <glyph glyph-name="uni044E" unicode="&#x44e;" horiz-adv-x="847" 
d="M71 0v520h84v-215h118q15 99 88 162q73 64 176 64q113 0 190 -78q76 -76 76 -193t-76 -194q-77 -77 -190 -77q-105 0 -179 66q-74 67 -86 169h-117v-224h-84zM665 393q-51 54 -128 54t-128 -54q-51 -53 -51 -133t51 -134q51 -53 128 -53t128 53q51 54 51 134t-51 133z
" />
    <glyph glyph-name="uni044F" unicode="&#x44f;" horiz-adv-x="572" 
d="M280 189l-132 -189h-99l134 192q-58 12 -94.5 57t-36.5 106q0 71 47 118q49 47 119 47h283v-520h-84v189h-137zM218 270h199v169h-199q-34 0 -56.5 -24t-22.5 -60t22.5 -60.5t56.5 -24.5z" />
    <glyph glyph-name="uni0450" unicode="&#x450;" horiz-adv-x="616" 
d="M578 231h-447q9 -70 62 -117q52 -46 128 -46q99 0 154 75l82 -26q-36 -60 -98.5 -94t-137.5 -34q-118 0 -198 77q-79 78 -79 194t77 193q77 78 191 78q115 0 191 -78q77 -77 77 -193q0 -3 -2 -29zM132 299h361q-12 67 -63 111q-50 43 -120 43q-68 0 -117 -43t-61 -111z
M350 599l-193 95l40 75l183 -118z" />
    <glyph glyph-name="uni0451" unicode="&#x451;" horiz-adv-x="616" 
d="M578 231h-447q9 -70 62 -117q52 -46 128 -46q99 0 154 75l82 -26q-36 -60 -98.5 -94t-137.5 -34q-118 0 -198 77q-79 78 -79 194t77 193q77 78 191 78q115 0 191 -78q77 -77 77 -193q0 -3 -2 -29zM132 299h361q-12 67 -63 111q-50 43 -120 43q-68 0 -117 -43t-61 -111z
M154 653q0 24 16 39.5t40 15.5t40 -15.5t16 -39.5q2 -34 -27 -48.5t-58 0t-27 48.5zM362 653q0 24 16 39.5t40 15.5t40 -15.5t16 -39.5q2 -34 -27 -48.5t-58 0t-27 48.5z" />
    <glyph glyph-name="uni0452" unicode="&#x452;" horiz-adv-x="621" 
d="M155 750v-91h195v-65h-195v-161q62 98 186 98q90 0 151 -59q60 -58 60 -148v-396q0 -65 -44 -109t-109 -44h-42v81h36q32 0 53.5 23.5t21.5 58.5v364q0 63 -43 106t-107 43q-69 0 -116 -44t-47 -107v-300h-84v594h-61v65h61v91h84z" />
    <glyph glyph-name="uni0453" unicode="&#x453;" horiz-adv-x="423" 
d="M155 439v-439h-84v520h335v-81h-251zM393 694l-193 -95l-30 52l183 118z" />
    <glyph glyph-name="uni0454" unicode="&#x454;" horiz-adv-x="599" 
d="M315 -11q-115 0 -194 77q-77 79 -77 194q0 116 77 193q78 78 194 78q83 0 149.5 -42t98.5 -115l-84 -25q-23 45 -66.5 71.5t-97.5 26.5q-66 0 -115.5 -40t-63.5 -104h254v-77h-256q10 -66 61 -111q51 -42 120 -42q54 0 97.5 26.5t66.5 71.5l84 -25q-32 -73 -98.5 -115
t-149.5 -42z" />
    <glyph glyph-name="uni0455" unicode="&#x455;" horiz-adv-x="477" 
d="M424 407l-79 -14q-8 30 -37.5 47t-74.5 17q-43 0 -71.5 -19t-28.5 -49q0 -42 55 -61l127 -45q119 -44 119 -142q0 -71 -54 -111.5t-141 -40.5q-83 0 -136.5 36.5t-64.5 99.5l79 14q8 -34 41.5 -55t82.5 -21q48 0 80.5 21t32.5 54q0 47 -69 71l-124 43q-109 37 -109 131
q0 70 51.5 109t135.5 39q75 0 124.5 -33.5t60.5 -90.5z" />
    <glyph glyph-name="uni0456" unicode="&#x456;" horiz-adv-x="226" 
d="M155 0h-84v520h84v-520zM71 605q-16 17 -16 42t16 41q17 17 42 17t42 -17q17 -16 17 -41t-17 -42q-17 -16 -42 -16t-42 16z" />
    <glyph glyph-name="uni0457" unicode="&#x457;" horiz-adv-x="226" 
d="M155 0h-84v520h84v-520zM-37 653q0 24 16 39.5t40 15.5t40 -15.5t16 -39.5t-16 -40t-40 -16t-40 15.5t-16 40.5zM151 653q0 24 16 39.5t40 15.5t40 -15.5t16 -39.5q2 -34 -27 -48.5t-58 0t-27 48.5z" />
    <glyph glyph-name="uni0458" unicode="&#x458;" horiz-adv-x="234" 
d="M79 520h84v-592q0 -65 -44 -109t-109 -44h-42v81h36q32 0 53.5 23.5t21.5 58.5v582zM79 605q-17 17 -17 42t17 41q17 17 42 17t41 -17q17 -16 17 -41t-17 -42q-16 -16 -41 -16t-42 16z" />
    <glyph glyph-name="uni0459" unicode="&#x459;" horiz-adv-x="904" 
d="M56 0h-34v81h28q75 0 75 164v275h403v-188h172q74 0 120 -48q48 -47 48 -118t-48 -119q-47 -47 -120 -47h-256v439h-235v-210q0 -114 -40.5 -171.5t-112.5 -57.5zM700 251h-172v-170h172q34 0 57.5 24.5t23.5 60.5t-23.5 60.5t-57.5 24.5z" />
    <glyph glyph-name="uni045A" unicode="&#x45a;" horiz-adv-x="925" 
d="M155 238v-238h-84v520h84v-202h310v202h84v-202h173q72 0 119 -45q48 -45 48 -113t-48 -115q-47 -45 -119 -45h-257v238h-310zM722 238h-173v-157h173q34 0 57 22.5t23 56.5q0 33 -23 55.5t-57 22.5z" />
    <glyph glyph-name="uni045B" unicode="&#x45b;" horiz-adv-x="621" 
d="M155 750v-91h195v-65h-195v-161q62 98 186 98q90 0 151 -59q60 -58 60 -148v-324h-84v302q0 63 -43 106t-107 43q-69 0 -116 -44t-47 -107v-300h-84v594h-61v65h61v91h84z" />
    <glyph glyph-name="uni045C" unicode="&#x45c;" horiz-adv-x="525" 
d="M403 0l-234 269l214 251h103l-213 -251l235 -269h-105zM155 520v-520h-84v520h84zM419 694l-193 -95l-29 52l182 118z" />
    <glyph glyph-name="uni045D" unicode="&#x45d;" horiz-adv-x="622" 
d="M466 379l-324 -379h-71v520h84v-381l324 381h71v-520h-84v379zM375 651l-30 -52l-193 95l40 75z" />
    <glyph glyph-name="uni045E" unicode="&#x45e;" horiz-adv-x="532" 
d="M221 15l-207 505h87l163 -404l168 404h87l-256 -609q-29 -71 -74.5 -103.5t-115.5 -32.5h-24v81h24q82 0 117 83zM101 738h71q0 -37 27 -61t68 -24q40 0 67 24t27 61h71q0 -66 -47 -110q-46 -43 -118 -43t-119 43q-47 44 -47 110z" />
    <glyph glyph-name="uni045F" unicode="&#x45f;" horiz-adv-x="607" 
d="M71 0v520h84v-439h296v439h84v-520h-191v-150h-84v150h-189z" />
    <glyph glyph-name="uni0490" unicode="&#x490;" horiz-adv-x="533" 
d="M168 616v-616h-90v700h337v152h91v-236h-338z" />
    <glyph glyph-name="uni0491" unicode="&#x491;" horiz-adv-x="420" 
d="M155 439v-439h-84v520h248v131h84v-212h-248z" />
    <glyph glyph-name="uni04D8" unicode="&#x4d8;" horiz-adv-x="824" 
d="M412 711q154 0 258 -104t104 -257q0 -154 -104 -258q-103 -103 -258 -103q-154 0 -257 103q-104 104 -104 258q0 22 2 38h624q-13 103 -87 169q-73 67 -178 67q-66 0 -122.5 -28.5t-92.5 -79.5l-90 34q49 76 129 118.5t176 42.5zM412 76q103 0 176 64q74 65 87 164h-525
q14 -100 87 -164t175 -64z" />
    <glyph glyph-name="uni04D9" unicode="&#x4d9;" horiz-adv-x="616" 
d="M38 289h447q-9 70 -62 117t-128 47q-99 0 -154 -76l-82 26q36 60 98.5 94t137.5 34q119 0 198 -78q79 -76 79 -193q0 -115 -77 -194q-77 -77 -191 -77t-191 77q-77 79 -77 194q0 15 2 29zM484 221h-361q12 -67 62 -111q51 -42 120 -42q67 0 117 42q50 44 62 111z" />
    <glyph glyph-name="Wgrave" unicode="&#x1e80;" horiz-adv-x="1015" 
d="M330 0h-72l-241 700h93l183 -556l179 556h72l179 -554l183 554h92l-240 -700h-73l-177 544zM573 817l-29 -51l-193 95l40 75z" />
    <glyph glyph-name="wgrave" unicode="&#x1e81;" horiz-adv-x="780" 
d="M191 0l-177 520h85l127 -390l127 390h74l127 -391l128 391h85l-178 -520h-73l-126 380l-126 -380h-73zM273 769l183 -118l-30 -52l-192 95z" />
    <glyph glyph-name="Wacute" unicode="&#x1e82;" horiz-adv-x="1015" 
d="M330 0h-72l-241 700h93l183 -556l179 556h72l179 -554l183 554h92l-240 -700h-73l-177 544zM663 861l-193 -95l-29 51l182 119z" />
    <glyph glyph-name="wacute" unicode="&#x1e83;" horiz-adv-x="780" 
d="M191 0l-177 520h85l127 -390l127 390h74l127 -391l128 391h85l-178 -520h-73l-126 380l-126 -380h-73zM546 694l-193 -95l-29 52l182 118z" />
    <glyph glyph-name="Wdieresis" unicode="&#x1e84;" horiz-adv-x="1015" 
d="M330 0h-72l-241 700h93l183 -556l179 556h72l179 -554l183 554h92l-240 -700h-73l-177 544zM611 875q24 0 40.5 -16t16.5 -40t-16.5 -40t-40.5 -16q-23 0 -39.5 16t-16.5 40t16.5 40t39.5 16zM404 875q23 0 39.5 -16t16.5 -40t-16.5 -40t-39.5 -16q-24 0 -40 16t-16 40
t16 40t40 16z" />
    <glyph glyph-name="wdieresis" unicode="&#x1e85;" horiz-adv-x="780" 
d="M264 0h-73l-177 520h85l127 -390l127 390h74l127 -391l128 391h85l-178 -520h-73l-126 380zM438 653q0 24 16 39.5t40 15.5t40 -15.5t16 -39.5q2 -34 -27 -48.5t-58 0t-27 48.5zM230 653q0 24 16 39.5t41 15.5q23 0 39 -15.5t16 -39.5q0 -25 -16 -40.5t-39 -15.5
q-25 0 -41 15.5t-16 40.5z" />
    <glyph glyph-name="Germandbls" unicode="&#x1e9e;" horiz-adv-x="670" 
d="M165 442v-442h-87v443q0 110 76 183q77 74 191 74h263v-60l-137 -195q67 -18 110 -78q45 -58 45 -134q0 -104 -85 -174q-83 -70 -207 -70l1 87q83 0 142 44q59 45 59 114q0 66 -57 112q-55 46 -144 46l157 224h-149q-75 0 -127 -50q-51 -50 -51 -124z" />
    <glyph glyph-name="Ygrave" unicode="&#x1ef2;" horiz-adv-x="671" 
d="M289 0v285l-272 415h104l213 -329l215 329h104l-273 -411v-289h-91zM401 817l-29 -51l-193 95l40 75z" />
    <glyph glyph-name="ygrave" unicode="&#x1ef3;" horiz-adv-x="532" 
d="M221 15l-207 505h87l163 -404l168 404h87l-256 -609q-29 -71 -74.5 -103.5t-115.5 -32.5h-24v81h24q82 0 117 83zM302 599l-193 95l40 75l183 -118z" />
    <glyph glyph-name="figuredash" unicode="&#x2012;" horiz-adv-x="600" 
d="M67 311v78h466v-78h-466z" />
    <glyph glyph-name="endash" unicode="&#x2013;" horiz-adv-x="600" 
d="M67 221v78h466v-78h-466z" />
    <glyph glyph-name="emdash" unicode="&#x2014;" horiz-adv-x="1000" 
d="M67 221v78h866v-78h-866z" />
    <glyph glyph-name="quoteleft" unicode="&#x2018;" horiz-adv-x="219" 
d="M46 620q0 27 10 53t23 42.5t28.5 30t23.5 18.5t11 7l27 -28q-6 -5 -15 -15q-11 -13 -22 -33q-14 -23 -12 -41q22 -3 37 -20t15 -40q0 -25 -17.5 -42t-42.5 -17q-29 0 -47.5 23.5t-18.5 61.5z" />
    <glyph glyph-name="quoteright" unicode="&#x2019;" horiz-adv-x="219" 
d="M174 677q0 -88 -92 -149l-4 -3l-28 29q6 5 14 14q11 12 23 33q14 26 13 42q-22 2 -37 19.5t-15 40.5q0 25 17 41.5t43 16.5q29 0 47.5 -23t18.5 -61z" />
    <glyph glyph-name="quotesinglbase" unicode="&#x201a;" horiz-adv-x="219" 
d="M174 23q0 -27 -10 -52.5t-23 -42t-28.5 -30.5t-23.5 -19t-11 -7l-28 28q7 5 14 15q10 10 23 33q14 24 13 41q-22 3 -37 20.5t-15 40.5q0 25 17 41.5t43 16.5q29 0 47.5 -23.5t18.5 -61.5z" />
    <glyph glyph-name="quotereversed" unicode="&#x201b;" horiz-adv-x="219" 
d="M46 680q0 37 18.5 59t47.5 22q26 0 43 -16.5t17 -41.5q0 -23 -15 -40.5t-37 -19.5q-1 -15 10.5 -34.5t25.5 -32.5l13 -12l-27 -29l-4 3q-92 60 -92 142z" />
    <glyph glyph-name="quotedblleft" unicode="&#x201c;" horiz-adv-x="381" 
d="M207 620q0 27 10 53t23 42.5t28.5 30t23.5 18.5t11 7l27 -28q-6 -5 -15 -15q-11 -13 -22 -33q-14 -23 -12 -41q22 -3 37 -20t15 -40q0 -25 -17.5 -42t-42.5 -17q-29 0 -47.5 23.5t-18.5 61.5zM46 620q0 27 10 53t23 42.5t28.5 30t23.5 18.5t11 7l27 -28q-6 -5 -15 -15
q-11 -13 -22 -33q-14 -23 -12 -41q22 -3 37 -20t15 -40q0 -25 -17.5 -42t-42.5 -17q-29 0 -47.5 23.5t-18.5 61.5z" />
    <glyph glyph-name="quotedblright" unicode="&#x201d;" horiz-adv-x="381" 
d="M174 677q0 -88 -92 -149l-4 -3l-28 29q6 5 14 14q11 12 23 33q14 26 13 42q-22 2 -37 19.5t-15 40.5q0 25 17 41.5t43 16.5q29 0 47.5 -23t18.5 -61zM335 677q0 -56 -33 -95.5t-60 -53.5l-3 -3l-27 29q6 5 14 14q7 9 22 33q14 26 13 42q-22 2 -37 19.5t-15 40.5
q0 25 17 41.5t43 16.5q29 0 47.5 -23t18.5 -61z" />
    <glyph glyph-name="quotedblbase" unicode="&#x201e;" horiz-adv-x="381" 
d="M174 23q0 -27 -10 -52.5t-23 -42t-28.5 -30.5t-23.5 -19t-11 -7l-28 28q7 5 14 15q10 10 23 33q14 24 13 41q-22 3 -37 20.5t-15 40.5q0 25 17 41.5t43 16.5q29 0 47.5 -23.5t18.5 -61.5zM335 23q0 -27 -10 -52.5t-23 -42t-28.5 -30.5t-23.5 -19t-11 -7l-27 28q7 5 14 15
q8 8 22 33q14 24 13 41q-22 3 -37 20.5t-15 40.5q0 25 17 41.5t43 16.5q29 0 47.5 -23.5t18.5 -61.5z" />
    <glyph glyph-name="uni201F" unicode="&#x201f;" horiz-adv-x="381" 
d="M207 680q0 37 18.5 59t47.5 22q26 0 43 -16.5t17 -41.5q0 -23 -15 -40.5t-37 -19.5q-1 -15 10.5 -34.5t25.5 -32.5l13 -12l-27 -29l-3 3q-15 8 -33.5 23t-39 48.5t-20.5 70.5zM46 680q0 37 18.5 59t47.5 22q26 0 43 -16.5t17 -41.5q0 -23 -15 -40.5t-37 -19.5
q-1 -15 10.5 -34.5t25.5 -32.5l13 -12l-27 -29l-4 3q-92 60 -92 142z" />
    <glyph glyph-name="dagger" unicode="&#x2020;" horiz-adv-x="474" 
d="M27 425v68h175v207h71v-207h174v-68h-174v-525h-71v525h-175z" />
    <glyph glyph-name="daggerdbl" unicode="&#x2021;" horiz-adv-x="474" 
d="M202 107h-175v68h175v250h-175v68h175v207h71v-207h174v-68h-174v-250h174v-68h-174v-207h-71v207z" />
    <glyph glyph-name="bullet" unicode="&#x2022;" horiz-adv-x="336" 
d="M168 380q51 0 85.5 -34t34.5 -86t-34.5 -86t-85.5 -34q-52 0 -86 34t-34 86t34 86t86 34z" />
    <glyph glyph-name="ellipsis" unicode="&#x2026;" horiz-adv-x="646" 
d="M168 49q0 -26 -17 -43t-43 -17t-43 17t-17 43t17 43t43 17t43 -17.5t17 -42.5zM263 49q0 25 17.5 42.5t42.5 17.5t42.5 -17.5t17.5 -42.5q0 -26 -17 -43t-43 -17t-43 17t-17 43zM478 49q0 25 17 42.5t43 17.5t43.5 -17t17.5 -43t-17.5 -43t-43.5 -17t-43 17t-17 43z" />
    <glyph glyph-name="perthousand" unicode="&#x2030;" horiz-adv-x="1207" 
d="M154 0l-44 37l553 663l45 -38zM207 711q73 0 122 -49q49 -48 49 -121t-49 -122q-49 -48 -122 -48q-72 0 -121 48q-49 49 -49 122t49 121q49 49 121 49zM207 446q41 0 68 27t27 68t-27 68t-68 27q-40 0 -67 -27.5t-27 -67.5t27 -67.5t67 -27.5zM439 159q0 71 48 121
q49 49 122 49t121 -49q49 -49 49 -121q0 -73 -49 -122q-48 -48 -121 -48t-122 48q-48 49 -48 122zM609 64q40 0 67.5 27t27.5 67q0 41 -27.5 68.5t-67.5 27.5q-41 0 -68 -27t-27 -68t27 -68t68 -27zM830 159q0 72 49 121t121 49q73 0 121 -49q49 -49 49 -121q0 -73 -49 -122
q-48 -48 -121 -48q-72 0 -121 48q-49 49 -49 122zM1095 158q0 41 -27.5 68.5t-67.5 27.5t-67.5 -27t-27.5 -68t27.5 -68t67.5 -27t67.5 27t27.5 67z" />
    <glyph glyph-name="guilsinglleft" unicode="&#x2039;" horiz-adv-x="324" 
d="M223 74l-186 186l186 186l50 -50l-136 -136l136 -136z" />
    <glyph glyph-name="guilsinglright" unicode="&#x203a;" horiz-adv-x="324" 
d="M101 446l186 -186l-186 -186l-50 50l136 136l-136 136z" />
    <glyph glyph-name="fraction" unicode="&#x2044;" horiz-adv-x="565" 
d="M72 0h-72l493 700h72z" />
    <glyph glyph-name="Euro" unicode="&#x20ac;" horiz-adv-x="847" 
d="M125 401h-98v65h113q34 109 127 178q92 67 216 67q102 0 186 -48.5t130 -133.5l-87 -33q-36 60 -96 94t-133 34q-82 0 -147 -42.5t-98 -115.5h269v-65h-288q-9 -51 0 -102h288v-65h-269q33 -73 98 -115.5t147 -42.5q73 0 133 34t96 94l87 -33q-46 -85 -130 -133.5
t-186 -48.5q-124 0 -216 67q-93 69 -127 178h-113v65h98q-6 51 0 102z" />
    <glyph glyph-name="uni20B4" unicode="&#x20b4;" horiz-adv-x="641" 
d="M96 246h-54v65h117q26 18 41 26q14 7 61 30l47 23h-266v64h383q53 35 53 74t-43 67q-43 29 -102 29q-57 0 -99.5 -27.5t-51.5 -67.5l-90 26q18 69 84 112q67 44 158 44q102 0 167 -52q67 -51 67 -122q0 -44 -36 -83h69v-64h-143q-29 -18 -83 -44q-56 -26 -73 -35h299v-65
h-403q-37 -31 -37 -66q0 -42 47 -74q46 -30 116 -30q68 0 116.5 30.5t56.5 76.5l90 -27q-20 -74 -91 -120q-71 -47 -171 -47q-109 0 -182 53q-72 54 -72 132q0 38 25 72z" />
    <glyph glyph-name="uni2113" unicode="&#x2113;" horiz-adv-x="485" 
d="M124 216l-80 -35v88q34 13 80 37v265q0 83 43 136q43 54 109 54t110 -54q45 -53 45 -132q0 -171 -223 -312v-120q0 -31 17.5 -50.5t47.5 -19.5q25 0 49.5 15.5t37.5 33.5l12 17l52 -51q-18 -22 -30 -35q-62 -64 -129 -64q-61 0 -101 45q-40 46 -40 113v69zM208 575v-217
q139 100 139 213q0 45 -20.5 75.5t-50.5 30.5t-49 -29t-19 -73z" />
    <glyph glyph-name="uni2116" unicode="&#x2116;" horiz-adv-x="1126" 
d="M165 544v-544h-87v700h79l433 -544v544h87v-700h-79zM1024 438q-45 -45 -113 -45q-67 0 -114 45q-46 46 -46 114t46 113q46 46 114 46t113 -46q45 -45 45 -113t-45 -114zM911 468q35 0 59 24t24 60t-24 60t-59 24q-36 0 -60.5 -24t-24.5 -60t24.5 -60t60.5 -24zM1063 241
h-305v74h305v-74z" />
    <glyph glyph-name="uni2117" unicode="&#x2117;" horiz-adv-x="816" 
d="M155 97q-104 106 -104 253q0 148 104 252q105 105 253 105t252 -105q105 -104 105 -252t-105 -253q-104 -104 -252 -104q-147 0 -253 104zM726 350q0 132 -94 225q-93 93 -224 93q-130 0 -225 -93q-93 -93 -93 -225q0 -130 93 -225q95 -93 225 -93q131 0 224 93
q94 94 94 225zM352 165h-57v370h163q53 0 89 -34t36 -84q0 -51 -36 -85q-35 -34 -89 -34h-106v-133zM458 482h-106v-130h106q28 0 47 18.5t19 46.5t-19 46.5t-47 18.5z" />
    <glyph glyph-name="trademark" unicode="&#x2122;" horiz-adv-x="778" 
d="M419 350h-51v350h51l137 -239l137 239h50v-350h-50v258l-121 -216h-33l-120 213v-255zM138 350v302h-127v48h305v-48h-127v-302h-51z" />
    <glyph glyph-name="estimated" unicode="&#x212e;" horiz-adv-x="816" 
d="M765 350h-554v-248q87 -69 197 -69q89 0 164 45.5t117 124.5h44q-43 -96 -132 -153t-193 -57q-146 0 -252 104q-105 105 -105 253t104 252q105 105 253 105t252 -105q105 -104 105 -252zM211 598v-208h394v208q-87 69 -197 69t-197 -69z" />
    <glyph glyph-name="uni2150" unicode="&#x2150;" horiz-adv-x="808" 
d="M121 315v318l-77 -39l-21 47l115 59h39v-385h-56zM653 700l-492 -700h-76l492 700h76zM585 0l141 334h-201v51h260v-54l-138 -331h-62z" />
    <glyph glyph-name="uni2151" unicode="&#x2151;" horiz-adv-x="813" 
d="M647 186q36 0 60 21t24 53t-24 54t-60 22q-35 0 -59 -21.5t-24 -53.5t24 -53.5t59 -21.5zM510 65l49 23q26 -38 80 -38q41 0 67.5 23t26.5 57v54q-28 -52 -91 -52q-57 0 -97 37q-39 37 -39 92t40 91q40 37 101 37q59 0 100 -36t41 -89v-133q0 -58 -43 -97
q-43 -38 -105 -38q-91 0 -130 69zM121 315v318l-77 -39l-21 47l115 59h39v-385h-56zM653 700l-492 -700h-76l492 700h76z" />
    <glyph glyph-name="uni2152" unicode="&#x2152;" horiz-adv-x="1089" 
d="M823 253v-121q0 -35 26 -58.5t64 -23.5t64.5 23.5t26.5 58.5v121q0 35 -26.5 59t-64.5 24t-64 -24t-26 -59zM623 0v318l-77 -39l-21 47l114 59h39v-385h-55zM767 133v119q0 58 42 97q41 40 104 40t105 -39t42 -98v-119q0 -59 -42 -98t-105 -39q-62 0 -104 39
q-42 41 -42 98zM121 315v318l-77 -39l-21 47l115 59h39v-385h-56zM653 700l-492 -700h-76l492 700h76z" />
    <glyph glyph-name="onethird" unicode="&#x2153;" horiz-adv-x="811" 
d="M121 315v318l-77 -39l-21 47l115 59h39v-385h-56zM653 700l-492 -700h-76l492 700h76zM717 278q0 24 -21.5 41t-54.5 17q-59 0 -79 -44l-49 19q16 36 51 57t80 21q56 0 94 -31.5t38 -78.5q0 -56 -58 -80q67 -25 67 -88q0 -49 -41 -82q-40 -33 -100 -33q-47 0 -83.5 22
t-51.5 58l52 19q17 -45 82 -45q36 0 60 18t24 45q0 26 -23.5 44t-58.5 18h-29v43h21q34 0 57 17t23 43z" />
    <glyph glyph-name="twothirds" unicode="&#x2154;" horiz-adv-x="896" 
d="M230 586q0 27 -22 46t-53 19q-57 0 -83 -62l-52 25q18 42 54 66t81 24q56 0 93 -34q39 -34 39 -82q0 -56 -81 -130l-93 -90h180v-53h-267v40l144 138q60 57 60 93zM245 0h-75l492 700h76zM802 278q0 24 -22 41t-54 17q-59 0 -79 -44l-49 19q16 36 51 57t80 21
q56 0 93.5 -31.5t37.5 -78.5q0 -55 -57 -80q66 -26 66 -88q0 -49 -40 -82t-100 -33q-48 0 -84.5 22t-51.5 58l52 19q8 -20 30 -32.5t52 -12.5q37 0 61 18t24 45q0 26 -24 44t-59 18h-28v43h20q35 0 58 17t23 43z" />
    <glyph glyph-name="uni2155" unicode="&#x2155;" horiz-adv-x="816" 
d="M121 315v318l-77 -39l-21 47l115 59h39v-385h-56zM653 700l-492 -700h-76l492 700h76zM791 124q0 -54 -42 -92q-41 -36 -102 -36q-48 0 -86 24.5t-54 64.5l56 16q25 -51 84 -51q36 0 61 21t25 52q0 32 -26.5 54t-66.5 22h-104l19 186h204v-51h-158l-9 -84h61q58 0 98 -37
q40 -36 40 -89z" />
    <glyph glyph-name="uni2156" unicode="&#x2156;" horiz-adv-x="901" 
d="M230 586q0 27 -22 46t-53 19q-57 0 -83 -62l-52 25q18 42 54 66t81 24q56 0 93 -34q39 -34 39 -82q0 -56 -81 -130l-93 -90h180v-53h-267v40l144 138q60 57 60 93zM245 0h-75l492 700h76zM875 124q0 -55 -41 -91.5t-102 -36.5q-48 0 -86 24.5t-54 64.5l56 16
q22 -51 83 -51q37 0 62 21t25 52q0 32 -27 54t-66 22h-104l18 186h205v-51h-159l-8 -84h60q60 0 98 -37q40 -36 40 -89z" />
    <glyph glyph-name="uni2157" unicode="&#x2157;" horiz-adv-x="914" 
d="M232 593q0 24 -22 41t-54 17q-59 0 -79 -44l-49 19q16 36 51 57t80 21q56 0 93.5 -31.5t37.5 -78.5q0 -54 -57 -80q66 -26 66 -88q0 -49 -40 -82t-100 -33q-48 0 -84.5 22t-51.5 58l53 19q16 -45 81 -45q37 0 61 18t24 45q0 26 -23.5 44t-58.5 18h-29v43h20q35 0 58 17
t23 43zM258 0h-75l492 700h75zM888 124q0 -54 -41 -92q-41 -36 -103 -36q-48 0 -85.5 24.5t-53.5 64.5l55 16q26 -51 84 -51q37 0 61.5 21t24.5 52q0 32 -26.5 54t-65.5 22h-105l19 186h205v-51h-159l-9 -84h61q58 0 98 -37q40 -36 40 -89z" />
    <glyph glyph-name="uni2158" unicode="&#x2158;" horiz-adv-x="939" 
d="M230 616l-141 -170h141v170zM230 315v77h-207v54l211 254h52v-254h54v-54h-54v-77h-56zM776 700l-492 -700h-76l492 700h76zM914 124q0 -54 -42 -92q-40 -36 -102 -36q-48 0 -86 24.5t-54 64.5l56 16q26 -51 84 -51q36 0 61 21t25 52q0 32 -26.5 54t-66.5 22h-104l19 186
h204v-51h-158l-9 -84h61q58 0 98 -37q40 -36 40 -89z" />
    <glyph glyph-name="uni2159" unicode="&#x2159;" horiz-adv-x="817" 
d="M738 121q0 30 -24 51t-60 21t-60 -21t-24 -51t24 -50.5t60 -20.5t60 20t24 51zM787 319l-50 -25q-25 42 -79 42q-39 0 -65 -23t-26 -58v-54q30 45 92 45q57 0 97 -36t40 -89t-41 -89t-101 -36q-62 0 -102 36t-40 89v134q0 57 42 95q42 39 104 39q42 0 76.5 -18.5
t52.5 -51.5zM121 315v318l-77 -39l-21 47l115 59h39v-385h-56zM653 700l-492 -700h-76l492 700h76z" />
    <glyph glyph-name="uni215A" unicode="&#x215a;" horiz-adv-x="896" 
d="M817 121q0 30 -24 51t-60 21t-60 -21t-24 -51t24 -50.5t60 -20.5t60 20t24 51zM866 319l-50 -25q-26 42 -79 42q-39 0 -64.5 -23t-25.5 -58v-54q29 45 91 45q56 0 97 -36q40 -36 40 -89t-41 -89q-40 -36 -101 -36t-102 36q-40 36 -40 89v134q0 57 42 95q42 39 104 39
q42 0 76.5 -18.5t52.5 -51.5zM305 439q0 -55 -41 -91.5t-102 -36.5q-48 0 -86 24.5t-54 64.5l56 16q22 -51 83 -51q37 0 62 21t25 52q0 32 -27 54t-66 22h-104l19 186h204v-51h-158l-9 -84h60q60 0 98 -37q40 -36 40 -89zM732 700l-492 -700h-76l492 700h76z" />
    <glyph glyph-name="oneeighth" unicode="&#x215b;" horiz-adv-x="817" 
d="M565 112q0 -27 23.5 -44.5t60.5 -17.5q36 0 60 17.5t24 44.5q0 26 -24 44t-60 18t-60 -18t-24 -44zM596 320q-20 -15 -20 -39t20 -40q21 -15 53 -15t52 15q21 16 21 40t-21 39q-20 16 -52 16t-53 -16zM518 286q0 44 37.5 73.5t93.5 29.5t93.5 -30t37.5 -74q0 -53 -52 -84
q63 -33 63 -94q0 -47 -41 -79t-101 -32q-61 0 -101.5 32t-40.5 80q0 62 63 93q-52 31 -52 85zM121 315v318l-77 -39l-21 47l115 59h39v-385h-56zM653 700l-492 -700h-76l492 700h76z" />
    <glyph glyph-name="threeeighths" unicode="&#x215c;" horiz-adv-x="914" 
d="M605 108q0 61 62 93q-52 31 -52 85q0 44 38 73q37 30 93 30t93.5 -30t37.5 -74q0 -53 -52 -84q63 -31 63 -94q0 -47 -41 -79t-101 -32q-61 0 -101 32t-40 80zM750 700l-492 -700h-75l492 700h75zM159 311q-48 0 -84.5 22t-51.5 58l53 19q16 -45 81 -45q37 0 61 18t24 45
q0 26 -23.5 44t-58.5 18h-29v43h20q35 0 58 17t23 43q0 24 -22 41t-54 17q-59 0 -79 -44l-49 19q16 36 51 57t80 21q56 0 93.5 -31.5t37.5 -78.5q0 -54 -57 -80q66 -26 66 -88q0 -49 -40 -82t-100 -33zM662 112q0 -27 24 -44.5t60 -17.5t60.5 17.5t24.5 44.5q0 26 -24.5 44
t-60.5 18t-60 -18t-24 -44zM746 336q-31 0 -52 -15.5t-21 -39.5t21 -39.5t52 -15.5q32 0 53 15.5t21 39.5t-21 39.5t-53 15.5z" />
    <glyph glyph-name="fiveeighths" unicode="&#x215d;" horiz-adv-x="896" 
d="M675 320q-20 -15 -20 -39t20 -40q21 -15 53 -15t52 15q21 16 21 40t-21 39q-20 16 -52 16t-53 -16zM644 112q0 -27 24 -44.5t60 -17.5t60 17.5t24 44.5q0 26 -24 44t-60 18t-60 -18t-24 -44zM597 286q0 44 37.5 73.5t93.5 29.5t93.5 -30t37.5 -74q0 -53 -52 -84
q63 -33 63 -94q0 -47 -41 -79t-101 -32q-61 0 -101.5 32t-40.5 80q0 62 63 93q-52 31 -52 85zM305 439q0 -55 -41 -91.5t-102 -36.5q-48 0 -86 24.5t-54 64.5l56 16q22 -51 83 -51q37 0 62 21t25 52q0 32 -27 54t-66 22h-104l19 186h204v-51h-158l-9 -84h60q60 0 98 -37
q40 -36 40 -89zM732 700l-492 -700h-76l492 700h76z" />
    <glyph glyph-name="seveneighths" unicode="&#x215e;" horiz-adv-x="850" 
d="M598 112q0 -27 23.5 -44.5t60.5 -17.5q36 0 60 17.5t24 44.5q0 26 -24 44t-60 18t-60 -18t-24 -44zM629 320q-20 -15 -20 -39t20 -40q21 -15 53 -15t52 15q21 16 21 40t-21 39q-20 16 -52 16t-53 -16zM551 286q0 44 37.5 73.5t93.5 29.5t93.5 -30t37.5 -74q0 -53 -52 -84
q63 -33 63 -94q0 -47 -41 -79t-101 -32q-61 0 -101.5 32t-40.5 80q0 62 63 93q-52 31 -52 85zM72 315l141 334h-201v51h260v-54l-138 -331h-62zM686 700l-492 -700h-76l492 700h76z" />
    <glyph glyph-name="uni215F" unicode="&#x215f;" horiz-adv-x="653" 
d="M121 315v318l-77 -39l-21 47l115 59h39v-385h-56zM653 700l-492 -700h-76l492 700h76z" />
    <glyph glyph-name="arrowleft" unicode="&#x2190;" horiz-adv-x="685" 
d="M310 107l-243 243l243 243l52 -52l-149 -152h404v-78h-404l149 -152z" />
    <glyph glyph-name="arrowup" unicode="&#x2191;" horiz-adv-x="684" 
d="M99 382l243 243l243 -243l-51 -52l-153 150v-405h-78v405l-152 -150z" />
    <glyph glyph-name="arrowright" unicode="&#x2192;" horiz-adv-x="685" 
d="M374 593l243 -243l-243 -243l-51 52l149 152h-405v78h405l-149 152z" />
    <glyph glyph-name="arrowdown" unicode="&#x2193;" horiz-adv-x="684" 
d="M585 318l-243 -243l-243 243l52 52l152 -150v405h78v-405l153 150z" />
    <glyph glyph-name="uni2196" unicode="&#x2196;" horiz-adv-x="684" 
d="M148 201v344h343v-74l-213 -2l286 -286l-55 -55l-286 286l-2 -213h-73z" />
    <glyph glyph-name="uni2197" unicode="&#x2197;" horiz-adv-x="684" 
d="M221 545h343v-344h-73l-2 213l-286 -286l-55 55l286 286l-213 2v74z" />
    <glyph glyph-name="uni2198" unicode="&#x2198;" horiz-adv-x="684" 
d="M564 472v-344h-343v73l213 3l-286 286l55 55l286 -287l2 214h73z" />
    <glyph glyph-name="uni2199" unicode="&#x2199;" horiz-adv-x="684" 
d="M491 128h-343v344h73l2 -214l286 287l55 -55l-286 -286l213 -3v-73z" />
    <glyph glyph-name="emptyset" unicode="&#x2205;" horiz-adv-x="824" 
d="M412 711q96 0 179 -47l34 47h80l-60 -86q129 -110 129 -275q0 -150 -106 -256q-106 -105 -256 -105q-96 0 -179 47l-33 -47h-81l60 85q-60 51 -94 123t-34 153q0 149 106 255t255 106zM221 133l329 471q-64 36 -138 36q-120 0 -205 -85t-85 -205q0 -128 99 -217zM412 60
q120 0 205 85t85 205q0 130 -98 217l-330 -471q64 -36 138 -36z" />
    <glyph glyph-name="product" unicode="&#x220f;" horiz-adv-x="664" 
d="M165 619v-794h-87v875h508v-875h-87v794h-334z" />
    <glyph glyph-name="summation" unicode="&#x2211;" horiz-adv-x="508" 
d="M478 -94v-81h-448v68l228 369l-228 370v68h448v-81h-346l221 -357l-221 -356h346z" />
    <glyph glyph-name="minus" unicode="&#x2212;" horiz-adv-x="600" 
d="M67 311v78h466v-78h-466z" />
    <glyph glyph-name="integral" unicode="&#x222b;" horiz-adv-x="313" 
d="M10 -175v81h30q32 0 53 23.5t21 58.5v609q0 65 44 109t109 44h36v-81h-30q-32 0 -53.5 -23.5t-21.5 -58.5v-609q0 -65 -44 -109t-109 -44h-35z" />
    <glyph glyph-name="approxequal" unicode="&#x2248;" horiz-adv-x="600" 
d="M387 378q-32 -1 -66.5 18t-63.5 38t-48 18q-28 0 -46.5 -19.5t-18.5 -48.5h-77q0 62 42 104q43 42 103 42q46 0 99 -38q52 -37 79 -37q28 0 46.5 19.5t18.5 48.5h78q-2 -62 -44 -103q-42 -42 -102 -42zM387 171q-32 -1 -66.5 18t-63.5 38t-48 18q-28 0 -46.5 -19.5
t-18.5 -48.5h-77q0 63 42 103q43 42 103 42q47 0 99 -37t79 -37q28 0 46.5 19.5t18.5 48.5h78q-2 -62 -44 -103q-42 -42 -102 -42z" />
    <glyph glyph-name="notequal" unicode="&#x2260;" horiz-adv-x="600" 
d="M377 427l-72 -154h228v-77h-263l-58 -124h-78l58 124h-125v77h160l72 154h-232v77h267l58 124h78l-58 -124h121v-77h-156z" />
    <glyph glyph-name="lessequal" unicode="&#x2264;" horiz-adv-x="600" 
d="M533 196l-466 197v70l466 199v-85l-347 -149l347 -149v-83zM67 55v78h466v-78h-466z" />
    <glyph glyph-name="greaterequal" unicode="&#x2265;" horiz-adv-x="600" 
d="M533 463v-70l-466 -197v83l347 149l-347 149v85zM67 133h466v-78h-466v78z" />
    <glyph glyph-name="uni23F4" unicode="&#x23f4;" horiz-adv-x="386" 
d="M296 133l-246 217l246 217v-434z" />
    <glyph glyph-name="uni23F5" unicode="&#x23f5;" horiz-adv-x="386" 
d="M90 567l246 -217l-246 -217v434z" />
    <glyph glyph-name="uni23F6" unicode="&#x23f6;" horiz-adv-x="454" 
d="M10 227l217 246l217 -246h-434z" />
    <glyph glyph-name="uni23F7" unicode="&#x23f7;" horiz-adv-x="454" 
d="M444 473l-217 -246l-217 246h434z" />
    <glyph glyph-name="filledbox" unicode="&#x25a0;" horiz-adv-x="856" 
d="M778 0h-700v700h700v-700z" />
    <glyph glyph-name="H22073" unicode="&#x25a1;" horiz-adv-x="856" 
d="M778 0h-700v700h700v-700zM707 71v558h-558v-558h558z" />
    <glyph glyph-name="uni25A2" unicode="&#x25a2;" horiz-adv-x="856" 
d="M778 0h-700v700h700v-700zM707 71v558h-558v-558h558z" />
    <glyph glyph-name="triagup" unicode="&#x25b2;" horiz-adv-x="892" 
d="M30 0l416 720l416 -720h-832z" />
    <glyph glyph-name="uni25B3" unicode="&#x25b3;" horiz-adv-x="892" 
d="M446 720l416 -720h-832zM154 71h585l-293 507z" />
    <glyph glyph-name="triagdn" unicode="&#x25bc;" horiz-adv-x="892" 
d="M862 700l-416 -720l-416 720h832z" />
    <glyph glyph-name="uni25BD" unicode="&#x25bd;" horiz-adv-x="892" 
d="M30 700h832l-416 -720zM446 122l293 507h-585z" />
    <glyph glyph-name="uni25C6" unicode="&#x25c6;" horiz-adv-x="800" 
d="M400 -20l-370 370l370 370l370 -370z" />
    <glyph glyph-name="uni25C7" unicode="&#x25c7;" horiz-adv-x="800" 
d="M400 -20l-370 370l370 370l370 -370zM400 80l270 270l-270 270l-270 -270z" />
    <glyph glyph-name="lozenge" unicode="&#x25ca;" horiz-adv-x="516" 
d="M30 350l202 350h52l202 -350l-202 -350h-52zM258 98l145 252l-145 252l-145 -252z" />
    <glyph glyph-name="circle" unicode="&#x25cb;" horiz-adv-x="824" 
d="M51 350q0 149 106 255t255 106t255 -106q107 -107 107 -255q0 -150 -106 -256q-106 -105 -256 -105q-148 0 -255 105q-106 106 -106 256zM207 555q-85 -85 -85 -205t85 -205t205 -85t205 85t85 205t-85 205t-205 85t-205 -85z" />
    <glyph glyph-name="H18533" unicode="&#x25cf;" horiz-adv-x="824" 
d="M51 350q0 149 106 255t255 106t255 -106q107 -107 107 -255q0 -150 -106 -256q-106 -105 -256 -105q-148 0 -255 105q-106 106 -106 256z" />
    <glyph glyph-name="uni25D0" unicode="&#x25d0;" horiz-adv-x="824" 
d="M51 350q0 149 106 255t255 106t255 -106q107 -107 107 -255q0 -150 -106 -256q-106 -105 -256 -105q-148 0 -255 105q-106 106 -106 256zM412 640v-580q120 0 205 85t85 205t-85 205t-205 85z" />
    <glyph glyph-name="uni25D1" unicode="&#x25d1;" horiz-adv-x="824" 
d="M774 350q0 -150 -106 -256q-106 -105 -256 -105q-148 0 -255 105q-106 106 -106 256q0 149 106 255t255 106t255 -106q107 -107 107 -255zM412 60v580q-120 0 -205 -85t-85 -205t85 -205t205 -85z" />
    <glyph glyph-name="uni25D2" unicode="&#x25d2;" horiz-adv-x="824" 
d="M412 -11q-149 0 -255 106t-106 255t106 255t255 106q150 0 256 -106t106 -255t-106 -255t-256 -106zM122 350h580q0 120 -85 205t-205 85t-205 -85t-85 -205z" />
    <glyph glyph-name="uni25D3" unicode="&#x25d3;" horiz-adv-x="824" 
d="M412 711q150 0 256 -106t106 -255t-106 -255t-256 -106q-149 0 -255 106t-106 255t106 255t255 106zM702 350h-580q0 -120 85 -205t205 -85t205 85t85 205z" />
    <glyph glyph-name="uni25D4" unicode="&#x25d4;" horiz-adv-x="824" 
d="M51 350q0 149 106 255t255 106t255 -106q107 -107 107 -255q0 -150 -106 -256q-106 -105 -256 -105q-148 0 -255 105q-106 106 -106 256zM702 350h-290v290q-120 0 -205 -85t-85 -205t85 -205t205 -85t205 85t85 205z" />
    <glyph glyph-name="uni25D5" unicode="&#x25d5;" horiz-adv-x="824" 
d="M51 350q0 149 106 255t255 106t255 -106q107 -107 107 -255q0 -150 -106 -256q-106 -105 -256 -105q-148 0 -255 105q-106 106 -106 256zM122 350h290v290q-120 0 -205 -85t-85 -205z" />
    <glyph glyph-name="uni25D6" unicode="&#x25d6;" horiz-adv-x="490" 
d="M51 350q0 149 106 255t255 106v-722q-148 0 -255 105q-106 106 -106 256z" />
    <glyph glyph-name="uni25D7" unicode="&#x25d7;" horiz-adv-x="490" 
d="M439 350q0 -150 -106 -256q-107 -105 -255 -105v722q149 0 255 -106t106 -255z" />
    <glyph glyph-name="uni25EF" unicode="&#x25ef;" horiz-adv-x="824" 
d="M51 350q0 149 106 255t255 106t255 -106q107 -107 107 -255q0 -150 -106 -256q-106 -105 -256 -105q-148 0 -255 105q-106 106 -106 256zM207 555q-85 -85 -85 -205t85 -205t205 -85t205 85t85 205t-85 205t-205 85t-205 -85z" />
    <glyph glyph-name="uni2639" unicode="&#x2639;" horiz-adv-x="790" 
d="M207 458q0 26 18 44t44 18q27 0 45 -18t18 -44q0 -27 -18 -45t-45 -18q-26 0 -44 18t-18 45zM460 458q0 26 18 44t44 18q27 0 45 -18t18 -44q0 -27 -18 -45t-45 -18q-26 0 -44 18t-18 45zM232 143h-40q0 79 58 131q59 53 145 53q85 0 144 -53t59 -131h-40q0 61 -47 102
t-116 41t-116 -41t-47 -102zM144 99q-104 104 -104 251t104 251t251 104t251 -104t104 -251t-104 -251t-251 -104t-251 104zM171 574q-93 -93 -93 -224t93 -224t224 -93t224 93t93 224t-93 224t-224 93t-224 -93z" />
    <glyph glyph-name="smileface" unicode="&#x263a;" horiz-adv-x="790" 
d="M207 458q0 26 18 44t44 18q27 0 45 -18t18 -44q0 -27 -18 -45t-45 -18q-26 0 -44 18t-18 45zM460 458q0 26 18 44t44 18q27 0 45 -18t18 -44q0 -27 -18 -45t-45 -18q-26 0 -44 18t-18 45zM192 297h40q0 -61 47 -102t116 -41t116 41t47 102h40q0 -79 -59 -132
q-58 -52 -144 -52q-87 0 -145 52t-58 132zM144 99q-104 104 -104 251t104 251t251 104t251 -104t104 -251t-104 -251t-251 -104t-251 104zM171 574q-93 -93 -93 -224t93 -224t224 -93t224 93t93 224t-93 224t-224 93t-224 -93z" />
    <glyph glyph-name="invsmileface" unicode="&#x263b;" horiz-adv-x="790" 
d="M207 458q0 -27 18 -45t44 -18q27 0 45 18t18 45q0 26 -18 44t-45 18q-26 0 -44 -18t-18 -44zM460 458q0 -27 18 -45t44 -18q27 0 45 18t18 45q0 26 -18 44t-45 18q-26 0 -44 -18t-18 -44zM232 297h-40q0 -80 58 -132t145 -52q86 0 144 52q59 53 59 132h-40
q0 -61 -47 -102t-116 -41t-116 41t-47 102zM144 99q-104 104 -104 251t104 251t251 104t251 -104t104 -251t-104 -251t-251 -104t-251 104z" />
    <glyph glyph-name="commaaccent" horiz-adv-x="229" 
d="M168 -125q0 -69 -76 -115l-5 -3l-22 24l12 10q9 8 19.5 24.5t9.5 27.5q-18 2 -30.5 16.5t-12.5 33.5q0 20 14 34t36 14q24 0 39.5 -18t15.5 -48z" />
    <glyph glyph-name="zero.fitted" horiz-adv-x="600" 
d="M43 236v228q0 106 73 176q74 71 184 71q109 0 183 -71t74 -176v-228q0 -105 -74 -176t-183 -71q-110 0 -184 71q-73 70 -73 176zM129 465v-230q0 -70 49 -116t122 -46t122 46t49 116v230q0 69 -49 115q-50 47 -122 47t-122 -47q-49 -46 -49 -115z" />
    <glyph glyph-name="one.fitted" horiz-adv-x="600" 
d="M297 589l-161 -83l-38 77l226 117h60v-616h168v-84h-423v84h168v505z" />
    <glyph glyph-name="two.fitted" horiz-adv-x="600" 
d="M438 499q0 53 -43 90q-44 38 -104 38q-54 0 -96 -31.5t-63 -85.5l-82 39q33 75 97 118.5t144 43.5q98 0 168 -62q69 -61 69 -147q0 -56 -35 -111.5t-112 -127.5l-187 -179h343v-84h-478v65l265 256q62 61 88 99.5t26 78.5z" />
    <glyph glyph-name="three.fitted" horiz-adv-x="600" 
d="M436 514q0 49 -43 80q-43 33 -107 33q-53 0 -92.5 -21.5t-57.5 -58.5l-79 38q30 58 90.5 92t138.5 34q102 0 172 -56q69 -55 69 -138q0 -49 -27 -90t-74 -65q54 -25 86 -70.5t32 -99.5q0 -87 -73 -145t-182 -58q-84 0 -149.5 38t-92.5 101l84 31q17 -39 59.5 -62.5
t98.5 -23.5q70 0 117 35t47 88q0 52 -46 86q-46 35 -113 35h-53v81h38q67 0 112 33t45 83z" />
    <glyph glyph-name="four.fitted" horiz-adv-x="600" 
d="M403 0v144h-366v84l371 472h82v-471h94v-85h-94v-144h-87zM403 564l-263 -335h263v335z" />
    <glyph glyph-name="five.fitted" horiz-adv-x="600" 
d="M291 -11q-84 0 -150.5 42t-96.5 113l86 25q22 -45 64.5 -70.5t96.5 -25.5q71 0 121 42q49 42 49 104q0 64 -51 106q-50 43 -128 43h-187l34 332h366v-81h-293l-17 -170h100q113 0 190 -66q76 -66 76 -164t-75 -164t-185 -66z" />
    <glyph glyph-name="six.fitted" horiz-adv-x="600" 
d="M544 588l-81 -40q-50 79 -151 79q-75 0 -125 -47t-50 -115v-88q61 69 169 69t181 -66q74 -66 74 -164q0 -96 -74 -162q-74 -65 -181 -65q-109 0 -183 65q-73 66 -73 164v246q0 106 75 176q77 71 189 71q75 0 136 -33t94 -90zM141 218q0 -62 47 -104q49 -41 118 -41
q70 0 117 41t47 102q0 62 -47 104t-117 42t-118 -42q-47 -41 -47 -102z" />
    <glyph glyph-name="seven.fitted" horiz-adv-x="600" 
d="M185 0l253 619h-371v81h463v-85l-250 -615h-95z" />
    <glyph glyph-name="eight.fitted" horiz-adv-x="600" 
d="M46 191q0 56 32 102t89 73q-48 25 -75 66t-27 91q0 80 67 134q68 54 169 54q99 0 167 -54t68 -135q0 -48 -27 -89.5t-75 -66.5q57 -27 89 -73t32 -102q0 -86 -73 -144q-71 -58 -181 -58q-109 0 -182 58t-73 144zM136 199q0 -54 47 -90t118 -36q69 0 116 35q47 36 47 90
t-47 89q-47 36 -116 36q-71 0 -118 -36q-47 -35 -47 -88zM155 516q0 -49 42 -80q43 -32 104 -32q62 0 103 32q42 31 42 80q0 48 -42 79q-41 32 -103 32q-61 0 -104 -32q-42 -31 -42 -79z" />
    <glyph glyph-name="nine.fitted" horiz-adv-x="600" 
d="M50 116l81 40q22 -38 63 -60.5t92 -22.5q78 0 128 46q52 46 52 115v82q-61 -76 -167 -76q-107 0 -181 68q-73 67 -73 168q0 100 73 167q74 68 181 68q108 0 181 -67q73 -66 73 -165v-245q0 -104 -77 -175q-76 -70 -190 -70q-78 0 -140 33.5t-96 93.5zM299 324
q70 0 116 43q47 44 47 108t-47 108t-116 44q-70 0 -116 -43q-47 -44 -47 -107q0 -65 47 -109t116 -44z" />
    <glyph glyph-name="zero.sup" horiz-adv-x="352" 
d="M29 498v119q0 58 42 97q43 40 105 40q63 0 105 -39t42 -98v-119q0 -59 -42 -98t-105 -39q-62 0 -105 39q-42 40 -42 98zM86 618v-121q0 -35 26 -58.5t64 -23.5t64.5 23.5t26.5 58.5v121q0 35 -26.5 59t-64.5 24t-64 -24t-26 -59z" />
    <glyph glyph-name="one.sup" horiz-adv-x="236" 
d="M121 683l-77 -39l-21 47l115 59h39v-385h-56v318z" />
    <glyph glyph-name="two.sup" horiz-adv-x="320" 
d="M230 636q0 27 -22 46t-53 19q-57 0 -83 -62l-52 25q18 42 54 66t81 24q56 0 93 -34q39 -34 39 -82q0 -56 -81 -130l-93 -90h180v-53h-267v40l144 138q60 57 60 93z" />
    <glyph glyph-name="three.sup" horiz-adv-x="326" 
d="M232 643q0 24 -22 41t-54 17q-59 0 -79 -44l-49 19q16 36 51 57t80 21q56 0 93.5 -31.5t37.5 -78.5q0 -54 -57 -80q66 -26 66 -88q0 -49 -40 -82t-100 -33q-48 0 -84.5 22t-51.5 58l53 19q16 -45 81 -45q37 0 61 18t24 45q0 26 -23.5 44t-58.5 18h-29v43h20q35 0 58 17
t23 43z" />
    <glyph glyph-name="four.sup" horiz-adv-x="359" 
d="M230 365v77h-207v54l211 254h52v-254h54v-54h-54v-77h-56zM230 665l-141 -169h141v169z" />
    <glyph glyph-name="five.sup" horiz-adv-x="331" 
d="M305 489q0 -55 -41 -91.5t-102 -36.5q-48 0 -86 24.5t-54 64.5l56 16q22 -51 83 -51q37 0 62 21t25 52q0 32 -27 54t-66 22h-104l19 186h204v-51h-158l-9 -84h60q60 0 98 -37q40 -36 40 -89z" />
    <glyph glyph-name="six.sup" horiz-adv-x="336" 
d="M305 684l-50 -25q-24 42 -78 42q-39 0 -65 -23t-26 -58v-54q30 45 92 45q57 0 96 -36q40 -36 40 -89t-41 -89t-100 -36q-61 0 -102 36t-41 89v134q0 58 42 95q44 39 105 39q43 0 77 -19t51 -51zM173 558q-36 0 -60 -21t-24 -51t24 -50.5t60 -20.5q35 0 59 20t24 51
q0 30 -24 51t-59 21z" />
    <glyph glyph-name="seven.sup" horiz-adv-x="295" 
d="M72 365l141 334h-201v51h260v-54l-138 -331h-62z" />
    <glyph glyph-name="eight.sup" horiz-adv-x="335" 
d="M167 361q-60 0 -100.5 32t-40.5 80q0 61 62 93q-51 32 -51 85q0 45 37 73q38 30 93 30q56 0 94 -30t38 -74q0 -52 -53 -84q63 -32 63 -94q0 -47 -41 -79t-101 -32zM84 477q0 -27 23.5 -44.5t59.5 -17.5t60.5 17.5t24.5 44.5q0 26 -24.5 44t-60.5 18t-59.5 -18t-23.5 -44z
M167 591q32 0 53 15.5t21 39.5t-21 39.5t-53 15.5q-31 0 -52 -15.5t-21 -39.5t21 -39.5t52 -15.5z" />
    <glyph glyph-name="nine.sup" horiz-adv-x="332" 
d="M28 430l49 23q27 -38 80 -38q41 0 67.5 22.5t26.5 57.5v54q-12 -24 -36.5 -38t-53.5 -14q-57 0 -97 37q-39 38 -39 92q0 55 40 91q40 37 101 37q60 0 100 -36q41 -36 41 -89v-133q0 -58 -43 -97q-43 -38 -105 -38q-43 0 -78 18.5t-53 50.5zM106 572q24 -21 60 -21t59 21
q24 21 24 53t-24 54q-22 22 -59 22t-60 -22q-24 -21 -24 -53t24 -54z" />
    <glyph glyph-name="zero.sub" horiz-adv-x="352" 
d="M29 33v119q0 58 42 97q43 40 105 40q63 0 105 -39t42 -98v-119q0 -59 -42 -98t-105 -39q-62 0 -105 40q-42 39 -42 97zM86 153v-121q0 -35 26 -59t64 -24t64.5 24t26.5 59v121q0 35 -26.5 59t-64.5 24t-64 -24t-26 -59z" />
    <glyph glyph-name="one.sub" horiz-adv-x="236" 
d="M121 218l-77 -39l-21 47l115 59h39v-385h-56v318z" />
    <glyph glyph-name="two.sub" horiz-adv-x="320" 
d="M230 171q0 27 -22 46t-53 19q-57 0 -83 -62l-52 25q18 42 54 66t81 24q56 0 93 -34q39 -35 39 -82q0 -56 -81 -130l-93 -90h180v-53h-267v40l144 138q60 57 60 93z" />
    <glyph glyph-name="three.sub" horiz-adv-x="326" 
d="M232 178q0 24 -22 41t-54 17q-59 0 -79 -44l-49 19q16 36 51 57t80 21q56 0 93.5 -31.5t37.5 -78.5q0 -55 -57 -80q66 -25 66 -88q0 -49 -40 -82t-100 -33q-48 0 -84.5 22t-51.5 58l53 19q18 -46 81 -46q37 0 61 18.5t24 45.5q0 26 -23.5 44t-58.5 18h-29v43h20
q35 0 58 17t23 43z" />
    <glyph glyph-name="four.sub" horiz-adv-x="359" 
d="M230 -100v77h-207v54l211 254h52v-254h54v-54h-54v-77h-56zM230 200l-141 -169h141v169z" />
    <glyph glyph-name="five.sub" horiz-adv-x="331" 
d="M305 24q0 -55 -41 -91.5t-102 -36.5q-48 0 -86 24.5t-54 64.5l56 16q24 -52 83 -52q37 0 62 21.5t25 52.5q0 32 -27 54t-66 22h-104l19 186h204v-51h-158l-9 -84h60q60 0 98 -37q40 -36 40 -89z" />
    <glyph glyph-name="six.sub" horiz-adv-x="336" 
d="M305 219l-50 -25q-24 42 -78 42q-39 0 -65 -23t-26 -58v-54q30 45 92 45q57 0 96 -36q40 -36 40 -89t-41 -89t-100 -36q-61 0 -102 36t-41 89v134q0 57 42 95q44 39 105 39q43 0 77 -19t51 -51zM173 93q-36 0 -60 -21t-24 -51t24 -51t60 -21q35 0 59 20.5t24 51.5
q0 30 -24 51t-59 21z" />
    <glyph glyph-name="seven.sub" horiz-adv-x="295" 
d="M72 -100l141 334h-201v51h260v-54l-138 -331h-62z" />
    <glyph glyph-name="eight.sub" horiz-adv-x="335" 
d="M167 -104q-60 0 -100.5 32t-40.5 80q0 61 62 93q-51 31 -51 85q0 45 37 73q38 30 93 30q56 0 94 -30t38 -74q0 -52 -53 -84q63 -31 63 -94q0 -48 -40.5 -79.5t-101.5 -31.5zM84 12q0 -27 23.5 -45t59.5 -18t60.5 18t24.5 45q0 26 -24.5 44t-60.5 18t-59.5 -18t-23.5 -44z
M167 126q32 0 53 15.5t21 39.5t-21 39.5t-53 15.5q-31 0 -52 -15.5t-21 -39.5t21 -39.5t52 -15.5z" />
    <glyph glyph-name="nine.sub" horiz-adv-x="332" 
d="M28 -36l49 24q28 -39 80 -39q41 0 67.5 23t26.5 58v54q-12 -24 -36.5 -38t-53.5 -14q-57 0 -97 37q-39 37 -39 92t40 91q40 37 101 37q60 0 100 -36q41 -36 41 -89v-133q0 -59 -43 -96q-42 -39 -105 -39q-42 0 -77.5 18.5t-53.5 49.5zM106 107q24 -21 60 -21t59 21
q24 21 24 53t-24 54q-22 22 -59 22t-60 -22q-24 -21 -24 -53t24 -54z" />
    <glyph glyph-name="exclamdown.case" horiz-adv-x="246" 
d="M183 651q0 -25 -17.5 -42.5t-42.5 -17.5q-39 -4 -55 36.5t12 66.5q26 28 66.5 12t36.5 -55zM78 0l9 491h73l8 -491h-90z" />
    <glyph glyph-name="questiondown.case" horiz-adv-x="543" 
d="M128 193q0 -50 44 -85q46 -35 110 -35q54 0 95 25t56 67l86 -25q-22 -67 -86.5 -109t-148.5 -42q-103 0 -174 59q-70 58 -70 146q0 42 19 80t49 63t55.5 40.5t48.5 23.5l19 7l4 83h73l9 -132q-22 -6 -66 -27q-31 -15 -57 -33q-27 -20 -46.5 -48.5t-19.5 -57.5zM212 651
q0 26 17 43t43 17t43 -17t17 -43t-17 -43t-43 -17t-43 17.5t-17 42.5z" />
    <glyph glyph-name="dagger.case" horiz-adv-x="474" 
d="M27 425v68h175v207h71v-207h174v-68h-174v-425h-71v425h-175z" />
    <glyph glyph-name="daggerdbl.case" horiz-adv-x="474" 
d="M202 194h-175v68h175v176h-175v68h175v194h71v-194h174v-68h-174v-176h174v-68h-174v-194h-71v194z" />
    <glyph glyph-name="slash.case" horiz-adv-x="498" 
d="M78 -100h-78l419 899h79z" />
    <glyph glyph-name="backslash.case" horiz-adv-x="498" 
d="M78 799l420 -899h-79l-419 899h78z" />
    <glyph glyph-name="parenleft.case" horiz-adv-x="297" 
d="M186 783l15 17h79l-17 -20q-11 -14 -36 -57q-55 -93 -83 -218q-32 -154 -1 -310q14 -66 41 -129t40.5 -85t39.5 -62l16 -19h-79l-1 1q-83 92 -123 241q-26 101 -26 209q0 166 53 288q43 102 82 144z" />
    <glyph glyph-name="parenright.case" horiz-adv-x="297" 
d="M32 781l-15 19h80q19 -19 52 -72q29 -47 46 -90q19 -46 36 -125q16 -76 16 -162q0 -156 -48 -277q-19 -50 -43 -89q-23 -42 -36 -58q-16 -20 -22 -26l-1 -1h-80l16 20q15 19 37 57q56 95 82 218q34 151 1 309q-29 146 -121 277z" />
    <glyph glyph-name="bracketleft.case" horiz-adv-x="296" 
d="M111 -101v1h-47v900h215v-71h-137v-758h137v-72h-168z" />
    <glyph glyph-name="bracketright.case" horiz-adv-x="296" 
d="M232 -100h-215v71h137v758h-137v71h215v-900z" />
    <glyph glyph-name="braceleft.case" horiz-adv-x="323" 
d="M234 800h72v-71h-66q-26 0 -43.5 -18.5t-17.5 -44.5v-203q0 -44 -24 -73.5t-64 -39.5q40 -10 64 -39.5t24 -73.5v-203q0 -26 18 -44.5t44 -18.5h65v-71h-72q-57 0 -95 38.5t-38 95.5v203q0 32 -26 51t-52 25l-9 2v72q15 3 30 9q57 22 57 67v203q0 57 38 95.5t95 38.5z
" />
    <glyph glyph-name="braceright.case" horiz-adv-x="323" 
d="M17 729v71h73q56 0 94 -39q38 -38 38 -95v-203q0 -25 20.5 -44.5t45.5 -26.5l22 -5v-72q-10 -2 -31 -10q-57 -22 -57 -68v-203q0 -57 -38 -95.5t-95 -38.5h-72v71h66q26 0 43.5 18.5t17.5 44.5v203q0 45 24.5 74.5t64.5 38.5q-40 10 -64.5 39.5t-24.5 73.5v203
q0 27 -17.5 45t-43.5 18h-66z" />
    <glyph glyph-name="guillemotleft.case" horiz-adv-x="528" 
d="M223 164l-186 186l186 186l50 -50l-136 -136l136 -136zM428 164l-186 186l186 186l50 -50l-137 -136l137 -136z" />
    <glyph glyph-name="guillemotright.case" horiz-adv-x="528" 
d="M305 536l186 -186l-186 -186l-50 50l137 136l-137 136zM101 536l186 -186l-186 -186l-50 50l136 136l-136 136z" />
    <glyph glyph-name="guilsinglleft.case" horiz-adv-x="324" 
d="M223 164l-186 186l186 186l50 -50l-136 -136l136 -136z" />
    <glyph glyph-name="guilsinglright.case" horiz-adv-x="324" 
d="M101 536l186 -186l-186 -186l-50 50l136 136l-136 136z" />
    <glyph glyph-name="hyphen.case" horiz-adv-x="400" 
d="M67 311v78h266v-78h-266z" />
    <glyph glyph-name="endash.case" horiz-adv-x="600" 
d="M67 311v78h466v-78h-466z" />
    <glyph glyph-name="emdash.case" horiz-adv-x="1000" 
d="M67 311v78h866v-78h-866z" />
    <glyph glyph-name="bar.case" horiz-adv-x="200" 
d="M136 -100h-72v900h72v-900z" />
    <glyph glyph-name="brokenbar.case" horiz-adv-x="200" 
d="M136 800v-368h-72v368h72zM64 -100v369h72v-369h-72z" />
    <glyph glyph-name="zero.dnom" horiz-adv-x="352" 
d="M29 133v119q0 58 42 97q43 40 105 40q63 0 105 -39t42 -98v-119q0 -59 -42 -98t-105 -39q-62 0 -105 39q-42 41 -42 98zM86 253v-121q0 -35 26 -58.5t64 -23.5t64.5 23.5t26.5 58.5v121q0 35 -26.5 59t-64.5 24t-64 -24t-26 -59z" />
    <glyph glyph-name="one.dnom" horiz-adv-x="236" 
d="M121 318l-77 -39l-21 47l115 59h39v-385h-56v318z" />
    <glyph glyph-name="two.dnom" horiz-adv-x="320" 
d="M230 271q0 27 -22 46t-53 19q-57 0 -83 -62l-52 25q18 42 54 66t81 24q56 0 93 -34q39 -34 39 -82q0 -57 -81 -130l-93 -90h180v-53h-267v40l144 138q60 57 60 93z" />
    <glyph glyph-name="three.dnom" horiz-adv-x="326" 
d="M232 278q0 24 -22 41t-54 17q-59 0 -79 -44l-49 19q16 36 51 57t80 21q56 0 93.5 -31.5t37.5 -78.5q0 -55 -57 -80q66 -25 66 -88q0 -49 -40 -82t-100 -33q-48 0 -84.5 22t-51.5 58l53 19q16 -45 81 -45q37 0 61 18t24 45q0 26 -23.5 44t-58.5 18h-29v43h20q35 0 58 17
t23 43z" />
    <glyph glyph-name="four.dnom" horiz-adv-x="359" 
d="M230 0v77h-207v54l211 254h52v-254h54v-54h-54v-77h-56zM230 300l-141 -169h141v169z" />
    <glyph glyph-name="five.dnom" horiz-adv-x="331" 
d="M305 124q0 -55 -41 -91.5t-102 -36.5q-48 0 -86 24.5t-54 64.5l56 16q22 -51 83 -51q37 0 62 21t25 52q0 32 -27 54t-66 22h-104l19 186h204v-51h-158l-9 -84h60q60 0 98 -37q40 -36 40 -89z" />
    <glyph glyph-name="six.dnom" horiz-adv-x="336" 
d="M305 319l-50 -25q-24 42 -78 42q-39 0 -65 -23t-26 -58v-54q30 45 92 45q57 0 96 -36q40 -36 40 -89t-41 -89t-100 -36q-61 0 -102 36t-41 89v134q0 57 42 95q44 39 105 39q43 0 77 -19t51 -51zM173 193q-36 0 -60 -21t-24 -51t24 -50.5t60 -20.5q35 0 59 20t24 51
q0 30 -24 51t-59 21z" />
    <glyph glyph-name="seven.dnom" horiz-adv-x="295" 
d="M72 0l141 334h-201v51h260v-54l-138 -331h-62z" />
    <glyph glyph-name="eight.dnom" horiz-adv-x="335" 
d="M167 -4q-60 0 -100.5 32t-40.5 80q0 61 62 93q-51 31 -51 85q0 45 37 73q38 30 93 30q56 0 94 -30t38 -74q0 -52 -53 -84q63 -31 63 -94q0 -47 -41 -79t-101 -32zM84 112q0 -27 23.5 -44.5t59.5 -17.5t60.5 17.5t24.5 44.5q0 26 -24.5 44t-60.5 18t-59.5 -18t-23.5 -44z
M167 226q32 0 53 15.5t21 39.5t-21 39.5t-53 15.5q-31 0 -52 -15.5t-21 -39.5t21 -39.5t52 -15.5z" />
    <glyph glyph-name="nine.dnom" horiz-adv-x="332" 
d="M28 65l49 23q27 -38 80 -38q41 0 67.5 22.5t26.5 57.5v54q-12 -24 -36.5 -38t-53.5 -14q-57 0 -97 37q-39 37 -39 92t40 91q40 37 101 37q60 0 100 -36q41 -36 41 -89v-133q0 -58 -43 -97q-43 -38 -105 -38q-43 0 -78 18.5t-53 50.5zM106 207q24 -21 60 -21t59 21
q24 21 24 53t-24 54q-22 22 -59 22t-60 -22q-24 -21 -24 -53t24 -54z" />
    <glyph glyph-name="logo" horiz-adv-x="430" 
d="M20 518v102h23q71 0 121 -50t50 -121t-50 -121t-121 -50h-23v103q91 0 91 68q0 69 -91 69zM216 518v102h23q71 0 121 -50t50 -121t-50 -121t-121 -50h-23v103q92 0 92 68q0 69 -92 69zM53 216h-27v20h74v-20h-27v-116h-20v116zM139 160l-36 76h23l23 -50l24 50h23
l-36 -76v-60h-21v60zM228 100h-20v136h38q18 0 31 -12.5t13 -30.5t-13 -30.5t-31 -12.5h-18v-50zM246 216h-18v-46h18q10 0 16.5 6.5t6.5 16.5q0 9 -6.5 16t-16.5 7zM363 100h-60v136h60v-20h-39v-48h31v-20h-31v-28h39v-20z" />
    <glyph glyph-name="bullet.case" horiz-adv-x="336" 
d="M168 470q51 0 85.5 -34t34.5 -86t-34.5 -86t-85.5 -34q-52 0 -86 34t-34 86t34 86t86 34z" />
    <glyph glyph-name="zero.num" horiz-adv-x="352" 
d="M29 448v119q0 58 42 97q43 40 105 40q63 0 105 -39t42 -98v-119q0 -59 -42 -98t-105 -39q-62 0 -105 39q-42 40 -42 98zM86 568v-121q0 -35 26 -58.5t64 -23.5t64.5 23.5t26.5 58.5v121q0 35 -26.5 59t-64.5 24t-64 -24t-26 -59z" />
    <glyph glyph-name="one.num" horiz-adv-x="236" 
d="M121 633l-77 -39l-21 47l115 59h39v-385h-56v318z" />
    <glyph glyph-name="two.num" horiz-adv-x="320" 
d="M230 586q0 27 -22 46t-53 19q-57 0 -83 -62l-52 25q18 42 54 66t81 24q56 0 93 -34q39 -34 39 -82q0 -56 -81 -130l-93 -90h180v-53h-267v40l144 138q60 57 60 93z" />
    <glyph glyph-name="three.num" horiz-adv-x="326" 
d="M232 593q0 24 -22 41t-54 17q-59 0 -79 -44l-49 19q16 36 51 57t80 21q56 0 93.5 -31.5t37.5 -78.5q0 -54 -57 -80q66 -26 66 -88q0 -49 -40 -82t-100 -33q-48 0 -84.5 22t-51.5 58l53 19q16 -45 81 -45q37 0 61 18t24 45q0 26 -23.5 44t-58.5 18h-29v43h20q35 0 58 17
t23 43z" />
    <glyph glyph-name="four.num" horiz-adv-x="359" 
d="M230 315v77h-207v54l211 254h52v-254h54v-54h-54v-77h-56zM230 615l-141 -169h141v169z" />
    <glyph glyph-name="five.num" horiz-adv-x="331" 
d="M305 439q0 -55 -41 -91.5t-102 -36.5q-48 0 -86 24.5t-54 64.5l56 16q22 -51 83 -51q37 0 62 21t25 52q0 32 -27 54t-66 22h-104l19 186h204v-51h-158l-9 -84h60q60 0 98 -37q40 -36 40 -89z" />
    <glyph glyph-name="six.num" horiz-adv-x="336" 
d="M305 634l-50 -25q-24 42 -78 42q-39 0 -65 -23t-26 -58v-54q30 45 92 45q57 0 96 -36q40 -36 40 -89t-41 -89t-100 -36q-61 0 -102 36t-41 89v134q0 58 42 95q44 39 105 39q43 0 77 -19t51 -51zM173 508q-36 0 -60 -21t-24 -51t24 -50.5t60 -20.5q35 0 59 20t24 51
q0 30 -24 51t-59 21z" />
    <glyph glyph-name="seven.num" horiz-adv-x="295" 
d="M72 315l141 334h-201v51h260v-54l-138 -331h-62z" />
    <glyph glyph-name="eight.num" horiz-adv-x="335" 
d="M167 311q-60 0 -100.5 32t-40.5 80q0 61 62 93q-51 32 -51 85q0 45 37 73q38 30 93 30q56 0 94 -30t38 -74q0 -52 -53 -84q63 -32 63 -94q0 -47 -41 -79t-101 -32zM84 427q0 -27 23.5 -44.5t59.5 -17.5t60.5 17.5t24.5 44.5q0 26 -24.5 44t-60.5 18t-59.5 -18t-23.5 -44z
M167 541q32 0 53 15.5t21 39.5t-21 39.5t-53 15.5q-31 0 -52 -15.5t-21 -39.5t21 -39.5t52 -15.5z" />
    <glyph glyph-name="nine.num" horiz-adv-x="332" 
d="M28 380l49 23q27 -38 80 -38q41 0 67.5 22.5t26.5 57.5v54q-12 -24 -36.5 -38t-53.5 -14q-57 0 -97 37q-39 38 -39 92q0 55 40 91q40 37 101 37q60 0 100 -36q41 -36 41 -89v-133q0 -58 -43 -97q-43 -38 -105 -38q-43 0 -78 18.5t-53 50.5zM106 522q24 -21 60 -21t59 21
q24 21 24 53t-24 54q-22 22 -59 22t-60 -22q-24 -21 -24 -53t24 -54z" />
    <glyph glyph-name="afii10021.1" horiz-adv-x="831" 
d="M807 0h-783v84h79q87 28 87 273v343h502v-616h115v-84zM223 84h378v532h-321v-255q0 -185 -57 -277z" />
    <glyph glyph-name="afii10040.1" horiz-adv-x="795" 
d="M78 700h90v-616h398v616h90v-616h116v-84h-694v700z" />
    <glyph glyph-name="afii10043.1" horiz-adv-x="1143" 
d="M78 0v700h90v-616h325v616h90v-616h331v616h90v-616h116v-84h-1042z" />
    <glyph glyph-name="germandbls.1" horiz-adv-x="586" 
d="M155 442v-442h-84v586q0 73 56 123q56 49 142 49h23v-84h-23q-49 0 -81.5 -26t-32.5 -64v-64h335v-65l-115 -159q77 -27 124 -98q48 -70 48 -161q0 -117 -79 -195q-80 -78 -196 -78v84q80 0 136 54q55 54 55 135t-55 135q-56 54 -136 54v65l111 151h-228z" />
    <glyph glyph-name="R.1" horiz-adv-x="670" 
d="M168 0h-90v700h317q97 0 162 -59t65 -146q0 -57 -29.5 -104.5t-81.5 -74.5q67 -47 83 -123l45 -193h-89l-40 171q-11 46 -49.5 76.5t-85.5 30.5h-207v-278zM395 616h-227v-254h227q57 0 95 36.5t38 90.5q0 55 -38 91t-95 36z" />
    <glyph glyph-name="Racute.1" horiz-adv-x="679" 
d="M168 0h-90v700h317q97 0 162 -59t65 -146q0 -57 -29.5 -104.5t-81.5 -74.5q67 -47 83 -123l45 -193h-89l-40 171q-11 46 -49.5 76.5t-85.5 30.5h-207v-278zM395 616h-227v-254h227q57 0 95 36.5t38 90.5q0 55 -38 91t-95 36zM455 861l-193 -95l-30 51l183 119z" />
    <glyph glyph-name="Rcaron.1" horiz-adv-x="679" 
d="M78 700h317q97 0 162 -59t65 -146q0 -57 -29.5 -104.5t-81.5 -74.5q67 -47 83 -123l45 -193h-89l-40 171q-11 46 -49.5 76.5t-85.5 30.5h-207v-278h-90v700zM395 616h-227v-254h227q57 0 95 36.5t38 90.5q0 55 -38 91t-95 36zM290 766l-161 122l36 47l128 -83l127 82
l36 -46l-160 -122h-6z" />
    <glyph glyph-name="Rcommaaccent.1" horiz-adv-x="679" 
d="M78 700h317q97 0 162 -59t65 -146q0 -57 -29.5 -104.5t-81.5 -74.5q67 -47 83 -123l45 -193h-89l-40 171q-11 46 -49.5 76.5t-85.5 30.5h-207v-278h-90v700zM395 616h-227v-254h227q57 0 95 36.5t38 90.5q0 55 -38 91t-95 36zM309 -107q0 20 14 34t36 14q24 0 39.5 -18
t15.5 -48q0 -69 -76 -115l-5 -3l-22 24l12 10q9 8 19.5 24.5t9.5 27.5q-18 2 -30.5 16.5t-12.5 33.5z" />
    <glyph glyph-name="u.1" 
d="M69 230v290h84v-283q0 -71 45 -118q45 -46 112 -46t110 46q45 47 45 118v283h84v-290q0 -104 -69 -173q-68 -68 -171 -68q-102 0 -172 68q-68 70 -68 173z" />
    <glyph glyph-name="uacute.1" 
d="M69 230v290h84v-283q0 -71 45 -118q45 -46 112 -46t110 46q45 47 45 118v283h84v-290q0 -104 -69 -173q-68 -68 -171 -68q-102 0 -172 68q-68 70 -68 173zM277 599l-29 52l182 118l40 -75z" />
    <glyph glyph-name="ubreve.1" 
d="M69 230v290h84v-283q0 -71 45 -118q45 -46 112 -46t110 46q45 47 45 118v283h84v-290q0 -104 -69 -173q-68 -68 -171 -68q-102 0 -172 68q-68 70 -68 173zM166 735h68q0 -37 23 -61.5t58 -24.5t57.5 24.5t22.5 61.5h68q0 -64 -43 -106q-42 -42 -106 -42t-106 42t-42 106z
" />
    <glyph glyph-name="ucircumflex.1" 
d="M69 230v290h84v-283q0 -71 45 -118q45 -46 112 -46t110 46q45 47 45 118v283h84v-290q0 -104 -69 -173q-68 -68 -171 -68q-102 0 -172 68q-68 70 -68 173zM314 682l-128 -83l-36 47l161 122h6l161 -122l-36 -46z" />
    <glyph glyph-name="udieresis.1" 
d="M69 230v290h84v-283q0 -71 45 -118q45 -46 112 -46t110 46q45 47 45 118v283h84v-290q0 -104 -69 -173q-68 -68 -171 -68q-102 0 -172 68q-68 70 -68 173zM154 653q0 24 16 39.5t41 15.5q23 0 39 -15.5t16 -39.5q0 -25 -16 -40.5t-39 -15.5q-25 0 -41 15.5t-16 40.5z
M362 653q0 24 16 39.5t40 15.5t40 -15.5t16 -39.5q2 -34 -27 -48.5t-58 0t-27 48.5z" />
    <glyph glyph-name="ugrave.1" 
d="M69 230v290h84v-283q0 -71 45 -118q45 -46 112 -46t110 46q45 47 45 118v283h84v-290q0 -104 -69 -173q-68 -68 -171 -68q-102 0 -172 68q-68 70 -68 173zM350 599l-192 95l39 75l183 -118z" />
    <glyph glyph-name="uhungarumlaut.1" 
d="M69 230v290h84v-283q0 -71 45 -118q45 -46 112 -46t110 46q45 47 45 118v283h84v-290q0 -104 -69 -173q-68 -68 -171 -68q-102 0 -172 68q-68 70 -68 173zM223 585l-43 41l133 158l60 -61zM407 585l-43 41l133 158l60 -61z" />
    <glyph glyph-name="umacron.1" 
d="M69 230v290h84v-283q0 -71 45 -118q45 -46 112 -46t110 46q45 47 45 118v283h84v-290q0 -104 -69 -173q-68 -68 -171 -68q-102 0 -172 68q-68 70 -68 173zM459 624h-289v71h289v-71z" />
    <glyph glyph-name="uogonek.1" 
d="M69 230v290h84v-283q0 -71 45 -118q45 -46 112 -46t110 46q45 47 45 118v283h84v-290q0 -94 -55 -159q-57 -66 -142 -79q-53 -47 -53 -93q0 -20 12 -31.5t30 -11.5q27 0 49 20l7 7l31 -37l-14 -13q-7 -8 -36 -22q-28 -14 -54 -14q-39 0 -65.5 24.5t-26.5 61.5
q0 54 53 107q-93 7 -155 75q-61 67 -61 165z" />
    <glyph glyph-name="uring.1" 
d="M69 230v290h84v-283q0 -71 45 -118q45 -46 112 -46t110 46q45 47 45 118v283h84v-290q0 -104 -69 -173q-68 -68 -171 -68q-102 0 -172 68q-68 70 -68 173zM238 617q-31 32 -31 76t31 76q32 32 76 32t76 -32t32 -76t-32 -76q-32 -31 -76 -31t-76 31zM268 693
q0 -30 28.5 -42t50.5 9q23 21 10.5 50.5t-43.5 29.5q-19 0 -32.5 -13.5t-13.5 -33.5z" />
    <glyph glyph-name="utilde.1" 
d="M69 230v290h84v-283q0 -71 45 -118q45 -46 112 -46t110 46q45 47 45 118v283h84v-290q0 -104 -69 -173q-68 -68 -171 -68q-102 0 -172 68q-68 70 -68 173zM227 611h-67q0 43 29.5 73t70.5 30q30 0 59 -24q31 -23 44 -23q16 0 27 12t11 31h67q0 -44 -29 -74t-70 -30
q-31 0 -60 23q-29 24 -43 24q-16 0 -27.5 -12t-11.5 -30z" />
    <glyph glyph-name="y.1" horiz-adv-x="532" 
d="M222 14l-208 506h87l163 -404l168 404h87l-313 -745h-84z" />
    <glyph glyph-name="yacute.1" horiz-adv-x="532" 
d="M222 14l-208 506h87l163 -404l168 404h87l-313 -745h-84zM422 694l-193 -95l-30 52l183 118z" />
    <glyph glyph-name="ycircumflex.1" horiz-adv-x="532" 
d="M222 14l-208 506h87l163 -404l168 404h87l-313 -745h-84zM138 599l-36 47l161 122h6l161 -122l-36 -46l-128 82z" />
    <glyph glyph-name="ydieresis.1" horiz-adv-x="532" 
d="M222 14l-208 506h87l163 -404l168 404h87l-313 -745h-84zM314 653q0 24 16 39.5t40 15.5t40 -15.5t16 -39.5q2 -34 -27 -48.5t-58 0t-27 48.5zM106 653q0 24 16 39.5t40 15.5t40 -15.5t16 -39.5q2 -34 -27 -48.5t-58 0t-27 48.5z" />
    <glyph glyph-name="ygrave.1" horiz-adv-x="532" 
d="M222 14l-208 506h87l163 -404l168 404h87l-313 -745h-84zM332 651l-30 -52l-193 95l40 75z" />
    <glyph glyph-name="afii10085.1" horiz-adv-x="532" 
d="M222 14l-208 506h87l163 -404l168 404h87l-313 -745h-84z" />
    <glyph glyph-name="afii10110.1" horiz-adv-x="532" 
d="M122 -225l100 239l-208 506h87l163 -404l168 404h87l-313 -745h-84zM101 738h71q0 -37 27 -61t68 -24q40 0 67 24t27 61h71q0 -66 -47 -110q-46 -43 -118 -43t-119 43q-47 44 -47 110z" />
    <glyph glyph-name="g.1" horiz-adv-x="645" 
d="M300 -11q-109 0 -183 77q-73 77 -73 194t73 193q73 78 183 78q117 0 190 -85v74h84v-498q0 -111 -76 -184q-77 -74 -187 -74q-50 0 -101 18l32 77q35 -11 66 -11q77 0 130 50q52 49 52 124v52q-73 -85 -190 -85zM309 73q76 0 127 53q52 53 52 134t-52 133q-51 54 -127 54
q-75 0 -127 -54q-51 -53 -51 -133t51 -134q53 -53 127 -53z" />
    <glyph glyph-name="gbreve.1" horiz-adv-x="645" 
d="M300 -11q-109 0 -183 77q-73 77 -73 194t73 193q73 78 183 78q117 0 190 -85v74h84v-498q0 -111 -76 -184q-77 -74 -187 -74q-50 0 -101 18l32 77q35 -11 66 -11q77 0 130 50q52 49 52 124v52q-73 -85 -190 -85zM309 447q-75 0 -127 -54q-51 -53 -51 -133t51 -134
q53 -53 127 -53q76 0 127 53q52 53 52 134t-52 133q-51 54 -127 54zM166 735h68q0 -37 23 -61.5t58 -24.5t57.5 24.5t22.5 61.5h68q0 -64 -42 -106t-106 -42q-63 0 -107 42q-42 42 -42 106z" />
    <glyph glyph-name="gcircumflex.1" horiz-adv-x="645" 
d="M300 -11q-109 0 -183 77q-73 77 -73 194t73 193q73 78 183 78q117 0 190 -85v74h84v-498q0 -111 -76 -184q-77 -74 -187 -74q-50 0 -101 18l32 77q35 -11 66 -11q77 0 130 50q52 49 52 124v52q-73 -85 -190 -85zM309 447q-75 0 -127 -54q-51 -53 -51 -133t51 -134
q53 -53 127 -53q76 0 127 53q52 53 52 134t-52 133q-51 54 -127 54zM186 599l-35 47l160 122h6l161 -122l-36 -46l-128 82z" />
    <glyph glyph-name="gcommaaccent.1" horiz-adv-x="645" 
d="M300 -11q-109 0 -183 77q-73 77 -73 194t73 193q73 78 183 78q117 0 190 -85v74h84v-498q0 -111 -76 -184q-77 -74 -187 -74q-50 0 -101 18l32 77q35 -11 66 -11q77 0 130 50q52 49 52 124v52q-73 -85 -190 -85zM309 447q-75 0 -127 -54q-51 -53 -51 -133t51 -134
q53 -53 127 -53q76 0 127 53q52 53 52 134t-52 133q-51 54 -127 54zM260 652q0 69 76 115l5 3l22 -24l-12 -10q-9 -8 -19.5 -24.5t-9.5 -27.5q18 -2 30.5 -16.5t12.5 -33.5q0 -20 -14 -34t-36 -14q-24 0 -39.5 18t-15.5 48z" />
    <glyph glyph-name="gdotaccent.1" horiz-adv-x="645" 
d="M300 -11q-109 0 -183 77q-73 77 -73 194t73 193q73 78 183 78q117 0 190 -85v74h84v-498q0 -111 -76 -184q-77 -74 -187 -74q-50 0 -101 18l32 77q35 -11 66 -11q77 0 130 50q52 49 52 124v52q-73 -85 -190 -85zM309 447q-75 0 -127 -54q-51 -53 -51 -133t51 -134
q53 -53 127 -53q76 0 127 53q52 53 52 134t-52 133q-51 54 -127 54zM315 598q-26 0 -42.5 16.5t-16.5 41.5t17 41.5t42 16.5t41.5 -16.5t16.5 -41.5t-16.5 -41.5t-41.5 -16.5z" />
    <glyph glyph-name="t.1" horiz-adv-x="362" 
d="M15 446v45l120 122h48v-93h145v-74h-145v-283q0 -35 21.5 -58.5t53.5 -23.5h70v-81h-76q-65 0 -109 44t-44 109v293h-84z" />
    <glyph glyph-name="tbar.1" horiz-adv-x="362" 
d="M99 446h-84v45l120 122h48v-93h145v-74h-145v-124h101v-64h-101v-95q0 -35 21.5 -58.5t53.5 -23.5h70v-81h-76q-65 0 -109 44t-44 109v105h-67v64h67v124z" />
    <glyph glyph-name="tcaron.1" horiz-adv-x="377" 
d="M15 446v45l120 122h48v-93h145v-74h-145v-283q0 -35 21.5 -58.5t53.5 -23.5h70v-81h-76q-65 0 -109 44t-44 109v293h-84zM350 673q0 -69 -76 -115l-5 -3l-23 24l12 10q31 28 30 51q-18 3 -31 17.5t-13 33.5q0 20 14.5 34t36.5 14q24 0 39.5 -18t15.5 -48z" />
    <glyph glyph-name="tcommaaccent.1" horiz-adv-x="362" 
d="M15 446v45l120 122h48v-93h145v-74h-145v-283q0 -35 21.5 -58.5t53.5 -23.5h70v-81h-76q-65 0 -109 44t-44 109v293h-84zM262 -125q0 -69 -76 -115l-4 -3l-23 24l12 10q9 8 20 24.5t10 27.5q-18 2 -31 16.5t-13 33.5q0 20 14.5 34t36.5 14q24 0 39 -18t15 -48z" />
    <glyph glyph-name="uni021B.1" horiz-adv-x="362" 
d="M15 446v45l120 122h48v-93h145v-74h-145v-283q0 -35 21.5 -58.5t53.5 -23.5h70v-81h-76q-65 0 -109 44t-44 109v293h-84zM262 -125q0 -69 -76 -115l-4 -3l-23 24l12 10q9 8 20 24.5t10 27.5q-18 2 -31 16.5t-13 33.5q0 20 14.5 34t36.5 14q24 0 39 -18t15 -48z" />
    </font>
</defs>
</svg>
