<?xml version="1.0" standalone="no"?>
<!DOCTYPE svg PUBLIC "-//W3C//DTD SVG 1.1//EN" "http://www.w3.org/Graphics/SVG/1.1/DTD/svg11.dtd" >
<svg xmlns="http://www.w3.org/2000/svg" xmlns:xlink="http://www.w3.org/1999/xlink" version="1.1">
<metadata>
Created by FontForge 20170731 at Mon Apr 22 03:49:00 2019
 By Aleksey,,,
Copyright (c) 2019 by Oleh Lishchuk. All rights reserved. |DCNT
</metadata>
<defs>
<font id="MazzardH-Medium" horiz-adv-x="600" >
  <font-face 
    font-family="Mazzard H Medium"
    font-weight="500"
    font-stretch="semi-condensed"
    units-per-em="1000"
    panose-1="0 0 0 0 0 0 0 0 0 0"
    ascent="755"
    descent="-245"
    x-height="520"
    cap-height="700"
    bbox="-112 -254 1177 998"
    underline-thickness="50"
    underline-position="-275"
    unicode-range="U+000D-FB04"
  />
<missing-glyph horiz-adv-x="333" 
 />
    <glyph glyph-name="f_f" unicode="ff" horiz-adv-x="660" 
d="M96 429h-83v91h83v71q0 68 48 113q47 46 118 46h70v-100h-62q-30 0 -50 -21t-20 -52v-57h211v71q0 68 48 113q47 46 118 46h70v-100h-62q-30 0 -50 -21t-20 -52v-57h132v-91h-132v-429h-104v429h-211v-429h-104v429z" />
    <glyph glyph-name="fi" unicode="fi" horiz-adv-x="573" 
d="M200 577v-57h132v-91h-132v-429h-104v429h-83v91h83v71q0 68 48 113q47 46 118 46h70v-100h-62q-30 0 -50 -21t-20 -52zM511 0h-104v520h104v-520zM410 597q-19 20 -19 49t19 49q20 20 49 20t49 -20t20 -49t-20 -49t-49 -20t-49 20z" />
    <glyph glyph-name="fl" unicode="fl" horiz-adv-x="573" 
d="M200 577v-57h132v-91h-132v-429h-104v429h-83v91h83v71q0 68 48 113q47 46 118 46h70v-100h-62q-30 0 -50 -21t-20 -52zM511 0h-104v750h104v-750z" />
    <glyph glyph-name="f_f_i" unicode="ffi" horiz-adv-x="888" 
d="M96 0v429h-83v91h83v71q0 68 48 113q47 46 118 46h70v-100h-62q-30 0 -50 -21t-20 -52v-57h211v71q0 68 48 113q47 46 118 46h70v-100h-62q-30 0 -50 -21t-20 -52v-57h311v-520h-104v429h-207v-429h-104v429h-211v-429h-104zM774 715q30 0 49.5 -20t19.5 -49t-19.5 -49
t-49.5 -20q-29 0 -48.5 20t-19.5 49t19.5 49t48.5 20z" />
    <glyph glyph-name="f_f_l" unicode="ffl" horiz-adv-x="888" 
d="M96 0v429h-83v91h83v71q0 68 48 113q47 46 118 46h70v-100h-62q-30 0 -50 -21t-20 -52v-57h211v71q0 68 48 113q47 46 118 46h70v-100h-62q-30 0 -50 -21t-20 -52v-57h132v-91h-132v-429h-104v429h-211v-429h-104zM826 750v-750h-104v750h104z" />
    <glyph glyph-name="afii10104_afii10104" unicode="&#x457;&#x457;" horiz-adv-x="457" 
d="M166 0h-104v520h104v-520zM22 720q27 0 46 -18.5t19 -46.5t-19 -46.5t-46 -18.5q-29 0 -47.5 18.5t-18.5 46.5t18.5 46.5t47.5 18.5zM395 0h-104v520h104v-520zM182 608q-19 19 -19 47t19 46q19 19 47 19t47 -19q19 -18 19 -46t-19 -47q-19 -18 -47 -18t-47 18zM388 608
q-18 19 -18 47t18 46q19 19 47 19t47 -19q19 -18 19 -46t-19 -47q-19 -18 -47 -18t-47 18z" />
    <glyph glyph-name=".notdef" horiz-adv-x="333" 
 />
    <glyph glyph-name="uni0000" horiz-adv-x="0" 
 />
    <glyph glyph-name="uni0000" horiz-adv-x="0" 
 />
    <glyph glyph-name="uni000D" unicode="&#xd;" horiz-adv-x="250" 
 />
    <glyph glyph-name="space" unicode=" " horiz-adv-x="266" 
 />
    <glyph glyph-name="exclam" unicode="!" horiz-adv-x="248" 
d="M123 126q30 0 50 -20t20 -50t-20 -49.5t-50 -19.5q-29 0 -49 19.5t-20 49.5t20 50t49 20zM169 215h-90l-11 485h112z" />
    <glyph glyph-name="quotedbl" unicode="&#x22;" horiz-adv-x="380" 
d="M148 461h-83l-9 239h100zM315 461h-82l-9 239h100z" />
    <glyph glyph-name="numbersign" unicode="#" horiz-adv-x="703" 
d="M159 182h-137v87h153l28 162h-139l1 87h154l32 182h88l-32 -182h148l32 182h89l-32 -182h138v-87h-153l-29 -162h139v-87h-154l-32 -182h-89l32 182h-148l-32 -182h-89zM292 431l-29 -162h148l29 162h-148z" />
    <glyph glyph-name="dollar" unicode="$" horiz-adv-x="615" 
d="M268 -128v118q-85 10 -145 54.5t-78 109.5l111 35q9 -40 52.5 -67t104.5 -27q62 0 103 27.5t41 71.5q0 29 -23 50q-20 20 -41 29.5t-63 20.5q-127 37 -168 58q-98 53 -98 155q0 83 55 138t146 66v117h79v-118q76 -10 129.5 -51.5t71.5 -101.5l-111 -33q-9 34 -46 57.5
t-86 23.5q-54 0 -90 -25.5t-36 -64.5q-6 -34 51 -68q10 -6 39 -16q37 -12 43 -14l53 -15q79 -21 134 -54q74 -45 74 -145q0 -88 -62 -147q-61 -58 -161 -67v-117h-79z" />
    <glyph glyph-name="percent" unicode="%" horiz-adv-x="819" 
d="M163 0l-53 44l547 656l54 -46zM83 416q-50 50 -50 124q0 73 50 123t124 50q73 0 123 -50t50 -123q0 -74 -50 -124q-49 -49 -123 -49q-75 0 -124 49zM207 621q-35 0 -58 -23.5t-23 -57.5t23.5 -57t57.5 -23t57 23t23 57t-23 57.5t-57 23.5zM613 333q73 0 123 -50t50 -123
q0 -74 -50 -124q-49 -49 -123 -49q-75 0 -124 49t-49 124q0 73 50 123t123 50zM613 79q34 0 57 23.5t23 57.5t-23 57.5t-57 23.5t-57.5 -23.5t-23.5 -57.5t23 -57.5t58 -23.5z" />
    <glyph glyph-name="ampersand" unicode="&#x26;" horiz-adv-x="703" 
d="M285 -13q-102 0 -172 62q-68 63 -68 154q0 109 124 187q-56 80 -56 153q0 74 50 122q51 48 128 48t130 -48q53 -47 53 -117q0 -56 -34 -97t-107 -87l138 -140q28 60 28 138h105q0 -120 -56 -217l142 -145h-152l-59 61q-83 -74 -194 -74zM405 135l-143 147q-21 21 -26 27
q-82 -52 -82 -110q0 -45 38 -76.5t95 -31.5q65 0 118 44zM263 443q58 31 82.5 53.5t24.5 50.5q0 26 -22 44t-54 18q-33 0 -53 -18.5t-20 -48.5q0 -40 42 -99z" />
    <glyph glyph-name="quotesingle" unicode="'" horiz-adv-x="213" 
d="M148 461h-83l-9 239h100z" />
    <glyph glyph-name="parenleft" unicode="(" horiz-adv-x="304" 
d="M180 782l15 18h96l-17 -21q-10 -12 -36 -62q-53 -97 -82 -236q-32 -167 -1 -336q18 -87 38 -137q45 -113 83 -162l15 -21h-96l-1 1q-80 92 -120 249q-29 113 -29 238q0 184 53 316q44 110 82 153z" />
    <glyph glyph-name="parenright" unicode=")" horiz-adv-x="304" 
d="M28 780l-15 20h97l16 -19q10 -12 36 -57q29 -51 46 -97q20 -52 36 -136q16 -83 16 -178q0 -171 -48 -303q-19 -53 -43 -96q-26 -46 -37 -61q-10 -17 -21 -27l-1 -1h-97l16 22q13 16 37 62q24 44 45 100q19 53 36 135q34 165 1 336q-15 83 -37 137q-42 108 -83 163z" />
    <glyph glyph-name="asterisk" unicode="*" horiz-adv-x="485" 
d="M214 464l-108 -86l-50 86l129 50l-129 50l50 86l108 -87l-21 137h99l-21 -137l108 87l50 -86l-129 -50l129 -50l-50 -86l-108 86l21 -136h-99z" />
    <glyph glyph-name="plus" unicode="+" 
d="M252 307h-189v95h189v189h96v-189h189v-95h-189v-189h-96v189z" />
    <glyph glyph-name="comma" unicode="," horiz-adv-x="226" 
d="M187 29q0 -88 -98 -160l-3 -1.5t-2 -1.5l-4 -2l-34 35l15 16q11 13 23 34q15 23 15 38q-25 4 -41.5 24t-16.5 47q0 29 19.5 48t49.5 19q34 0 55.5 -26.5t21.5 -69.5z" />
    <glyph glyph-name="hyphen" unicode="-" horiz-adv-x="400" 
d="M63 212v96h274v-96h-274z" />
    <glyph glyph-name="period" unicode="." horiz-adv-x="220" 
d="M60 6q-19 20 -19 50t19 50q20 20 50 20t50 -20t20 -50t-20 -50q-20 -19 -50 -19t-50 19z" />
    <glyph glyph-name="slash" unicode="/" horiz-adv-x="550" 
d="M96 -175h-96l454 974h96z" />
    <glyph glyph-name="zero" unicode="0" horiz-adv-x="637" 
d="M51 236v228q0 108 76 178q77 71 192 71q113 0 190 -72q77 -71 77 -177v-228q0 -106 -77 -178q-77 -71 -190 -71q-115 0 -192 71q-76 70 -76 178zM159 466v-231q0 -61 46 -103q47 -41 114 -41t113 41q46 42 46 103v231q0 62 -46 102q-46 41 -113 41t-114 -41
q-46 -40 -46 -102z" />
    <glyph glyph-name="one" unicode="1" horiz-adv-x="448" 
d="M225 565l-131 -67l-47 96l209 106h77v-700h-108v565z" />
    <glyph glyph-name="two" unicode="2" horiz-adv-x="581" 
d="M412 498q0 46 -38 78q-38 33 -91 33q-50 0 -88 -29t-59 -80l-101 48q33 76 99 120.5t149 44.5q101 0 171 -63q71 -62 71 -149q0 -55 -35.5 -111.5t-113.5 -130.5l-162 -155h318v-104h-485v81l260 251q105 102 105 166z" />
    <glyph glyph-name="three" unicode="3" horiz-adv-x="587" 
d="M413 510q0 42 -38.5 70.5t-97.5 28.5q-48 0 -84.5 -19t-52.5 -52l-98 48q30 59 92 93t143 34q107 0 177 -58q71 -57 71 -141q0 -95 -87 -152q49 -27 77 -71.5t28 -95.5q0 -88 -75 -148t-186 -60q-88 0 -155.5 40.5t-94.5 107.5l105 37q14 -37 53 -59t92 -22q64 0 106 31
t42 79q0 46 -41.5 76.5t-102.5 30.5h-53v100h37q61 0 102 29t41 73z" />
    <glyph glyph-name="four" unicode="4" horiz-adv-x="649" 
d="M413 0v139h-375v104l380 457h103v-457h95v-104h-95v-139h-108zM413 538l-245 -295h245v295z" />
    <glyph glyph-name="five" unicode="5" horiz-adv-x="603" 
d="M295 -13q-89 0 -157.5 45.5t-97.5 121.5l108 30q19 -43 58 -68t89 -25q64 0 107 37q44 38 44 93q0 58 -47 96t-116 38h-191l35 345h373v-100h-283l-14 -145h84q117 0 194 -67q78 -68 78 -167q0 -100 -76 -167q-74 -67 -188 -67z" />
    <glyph glyph-name="six" unicode="6" horiz-adv-x="609" 
d="M555 584l-101 -49q-19 34 -55.5 54t-81.5 20q-66 0 -113 -41q-45 -40 -45 -102v-66q64 48 152 48q111 0 184 -67q75 -66 75 -165q0 -97 -75 -163q-73 -66 -184 -66t-186 66q-74 68 -74 165v246q0 108 76 178q77 71 192 71q77 0 139.5 -34.5t96.5 -94.5zM311 344
q-63 0 -105 -36t-42 -89q0 -55 42 -92q42 -36 105 -36q61 0 104 35q43 36 43 89q0 55 -43 92q-41 37 -104 37z" />
    <glyph glyph-name="seven" unicode="7" horiz-adv-x="530" 
d="M129 0l254 600h-361v100h476v-105l-251 -595h-118z" />
    <glyph glyph-name="eight" unicode="8" horiz-adv-x="607" 
d="M45 193q0 54 29 99t81 73q-94 57 -94 155q0 82 69 137q71 56 174 56q102 0 172 -56q70 -55 70 -138q0 -98 -94 -154q52 -28 81.5 -73t29.5 -99q0 -88 -74 -147t-185 -59t-185 59t-74 147zM157 203q0 -48 41.5 -80t105.5 -32q63 0 104.5 31.5t41.5 79.5q0 47 -42 79
q-41 32 -104 32q-62 0 -105 -32q-42 -31 -42 -78zM174 512q0 -43 37 -71t93 -28t93 28t37 71q0 40 -38 69q-37 28 -92 28q-56 0 -93 -28t-37 -69z" />
    <glyph glyph-name="nine" unicode="9" horiz-adv-x="610" 
d="M47 121l100 49q21 -37 59 -58t85 -21q70 0 116 40q47 41 47 102v58q-61 -52 -149 -52q-109 0 -183 68q-74 69 -74 170q0 100 74 168t183 68t183 -68t74 -167v-244q0 -106 -78 -177q-76 -70 -193 -70q-81 0 -145.5 35.5t-98.5 98.5zM305 343q60 0 103 38q42 39 42 95
q0 58 -42 95q-41 38 -103 38q-61 0 -104 -38q-41 -38 -41 -93q0 -58 41 -97q43 -38 104 -38z" />
    <glyph glyph-name="colon" unicode=":" horiz-adv-x="220" 
d="M60 6q-19 20 -19 50t19 50q20 20 50 20t50 -20t20 -50t-20 -50q-20 -19 -50 -19t-50 19zM60 414q-19 20 -19 50t19 49q20 20 50 20t50 -20q20 -19 20 -49t-20 -50t-50 -20t-50 20z" />
    <glyph glyph-name="semicolon" unicode=";" horiz-adv-x="220" 
d="M60 414q-19 20 -19 50t19 49q20 20 50 20t50 -20q20 -19 20 -49t-20 -50t-50 -20t-50 20zM187 29q0 -88 -98 -160l-3 -1.5t-2 -1.5l-4 -2l-34 35l15 16q11 13 23 34q15 23 15 38q-25 4 -41.5 24t-16.5 47q0 29 19.5 48t49.5 19q34 0 55.5 -26.5t21.5 -69.5z" />
    <glyph glyph-name="less" unicode="&#x3c;" 
d="M527 87l-474 220v86l474 222v-105l-341 -160l341 -159v-104z" />
    <glyph glyph-name="equal" unicode="=" 
d="M63 418v96h474v-96h-474zM63 186v96h474v-96h-474z" />
    <glyph glyph-name="greater" unicode="&#x3e;" 
d="M547 393v-86l-474 -220v104l342 159l-342 160v105z" />
    <glyph glyph-name="question" unicode="?" horiz-adv-x="564" 
d="M409 501q0 45 -40.5 76.5t-100.5 31.5q-50 0 -87.5 -23t-50.5 -61l-108 30q22 70 89 114t155 44q108 0 179 -61q73 -61 73 -152q0 -44 -19 -82t-49.5 -62.5t-54 -38t-47.5 -23.5l-20 -7l-5 -72h-90l-12 132q28 8 65 24q35 16 57 31q27 17 46.5 44.5t19.5 54.5zM227 6
q-20 20 -20 50t20 50t50 20t49 -20q20 -20 20 -50t-20 -50q-19 -19 -49 -19t-50 19z" />
    <glyph glyph-name="at" unicode="@" horiz-adv-x="986" 
d="M493 713q191 0 322 -125q132 -124 132 -300q0 -109 -52 -179t-133 -70q-42 0 -77 20.5t-54 54.5q-61 -75 -158 -75q-89 0 -147 63q-59 65 -59 158t59 157q58 64 147 64q82 0 140 -55v44h84v-286q0 -28 19.5 -47t47.5 -19q44 0 72 46t28 118q0 143 -108 245
q-106 103 -264 103t-264 -106t-106 -264t106 -264t262 -106q96 0 163 40l27 -75q-87 -48 -194 -48q-190 0 -319 130q-128 130 -128 323q0 194 130 323q130 130 324 130zM483 123q55 0 93 39q37 40 37 98q0 59 -37 97q-37 40 -93 40q-55 0 -92 -40q-37 -38 -37 -97
q0 -58 37 -98q37 -39 92 -39z" />
    <glyph glyph-name="A" unicode="A" horiz-adv-x="724" 
d="M131 0h-118l303 700h91l304 -700h-118l-62 144h-338zM487 248l-125 293l-125 -293h250z" />
    <glyph glyph-name="B" unicode="B" horiz-adv-x="687" 
d="M423 0h-355v700h335q89 0 149 -54q60 -52 60 -133q0 -88 -74 -144q49 -26 77 -71.5t28 -99.5q0 -85 -63 -142q-64 -56 -157 -56zM423 310h-243v-206h243q44 0 74 29.5t30 73.5t-30 73.5t-74 29.5zM403 596h-223v-182h223q40 0 66 26t26 65t-26 65t-66 26z" />
    <glyph glyph-name="C" unicode="C" horiz-adv-x="770" 
d="M408 713q105 0 190.5 -51t131.5 -139l-109 -40q-33 57 -89 89.5t-124 32.5q-106 0 -176 -73q-71 -74 -71 -182t71 -182q70 -73 176 -73q68 0 124 32.5t89 89.5l109 -40q-46 -88 -131.5 -139t-190.5 -51q-155 0 -259 104t-104 259t104 259t259 104z" />
    <glyph glyph-name="D" unicode="D" horiz-adv-x="756" 
d="M348 0h-280v700h280q155 0 259 -101q105 -101 105 -249t-105 -249q-104 -101 -259 -101zM348 596h-168v-492h168q105 0 176 71t71 175t-71 175t-176 71z" />
    <glyph glyph-name="E" unicode="E" horiz-adv-x="620" 
d="M68 700h510v-104h-398v-190h345v-104h-345v-198h403v-104h-515v700z" />
    <glyph glyph-name="F" unicode="F" horiz-adv-x="611" 
d="M68 700h510v-104h-398v-188h345v-104h-345v-304h-112v700z" />
    <glyph glyph-name="G" unicode="G" horiz-adv-x="811" 
d="M414 713q107 0 193.5 -51t132.5 -139l-109 -40q-32 57 -90 89.5t-127 32.5q-108 0 -181 -73q-72 -74 -72 -182q0 -109 70 -182t172 -73q83 0 150 50q65 49 85 130h-248v104h375q2 -26 2 -32q-2 -154 -105 -257t-256 -103q-154 0 -258 104q-103 103 -103 259t105 259
q107 104 264 104z" />
    <glyph glyph-name="H" unicode="H" horiz-adv-x="740" 
d="M180 0h-112v700h112v-294h379v294h113v-700h-113v302h-379v-302z" />
    <glyph glyph-name="I" unicode="I" horiz-adv-x="248" 
d="M180 0h-112v700h112v-700z" />
    <glyph glyph-name="J" unicode="J" horiz-adv-x="588" 
d="M528 700v-447q0 -114 -79 -190q-77 -76 -196 -76q-74 0 -135.5 32t-97.5 89l93 60q21 -36 58.5 -56.5t83.5 -20.5q71 0 117 46q48 47 48 116v447h108z" />
    <glyph glyph-name="K" unicode="K" horiz-adv-x="649" 
d="M68 0v700h112v-335l293 335h143l-299 -342l319 -358h-143l-313 351v-351h-112z" />
    <glyph glyph-name="L" unicode="L" horiz-adv-x="573" 
d="M68 700h112v-596h366v-104h-478v700z" />
    <glyph glyph-name="M" unicode="M" horiz-adv-x="892" 
d="M180 0h-112v700h112l266 -467l265 467h113v-700h-113v487l-228 -404h-74l-229 404v-487z" />
    <glyph glyph-name="N" unicode="N" horiz-adv-x="744" 
d="M176 0h-108v700h99l401 -507v507h108v-700h-99l-401 507v-507z" />
    <glyph glyph-name="O" unicode="O" horiz-adv-x="816" 
d="M149 91q-104 104 -104 259t104 259t259 104t259 -104q105 -103 105 -259t-105 -259q-104 -104 -259 -104t-259 104zM408 95q106 0 176 73q71 74 71 182t-71 182q-70 73 -176 73t-176 -73q-71 -74 -71 -182t71 -182q70 -73 176 -73z" />
    <glyph glyph-name="P" unicode="P" horiz-adv-x="655" 
d="M180 258v-258h-112v700h310q100 0 167 -63q68 -63 68 -158t-68 -158q-67 -63 -167 -63h-198zM378 596h-198v-234h198q50 0 84 33.5t34 83.5t-34 83.5t-84 33.5z" />
    <glyph glyph-name="Q" unicode="Q" horiz-adv-x="816" 
d="M408 -13q-155 0 -259 104t-104 259t104 259t259 104t259 -104q105 -103 105 -259q0 -139 -84 -236l88 -88l-76 -76l-93 93q-88 -56 -199 -56zM408 605q-106 0 -176 -73q-71 -74 -71 -182t71 -182q70 -73 176 -73q65 0 118 29l-113 113l76 76l118 -118q48 67 48 155
q0 108 -71 182q-70 73 -176 73z" />
    <glyph glyph-name="R" unicode="R" horiz-adv-x="677" 
d="M68 700h320q100 0 167 -63q68 -63 68 -158q0 -69 -38 -123.5t-101 -79.5l166 -276h-126l-156 258h-188v-258h-112v700zM388 596h-208v-234h208q50 0 84 33.5t34 83.5t-34 83.5t-84 33.5z" />
    <glyph glyph-name="S" unicode="S" horiz-adv-x="615" 
d="M545 557l-111 -33q-9 34 -46 57.5t-86 23.5q-54 0 -90 -25.5t-36 -64.5q-6 -34 51 -68q10 -6 39 -16q37 -12 43 -14l53 -15q79 -21 134 -54q74 -45 74 -145q0 -97 -72 -157q-73 -59 -185 -59q-102 0 -175 47q-72 48 -93 120l111 35q9 -40 52.5 -67t104.5 -27
q62 0 103 27.5t41 71.5q0 29 -23 50q-20 20 -41 29.5t-63 20.5q-127 37 -168 58q-98 53 -98 155q0 92 66 149t170 57q92 0 159 -45q66 -43 86 -111z" />
    <glyph glyph-name="T" unicode="T" horiz-adv-x="658" 
d="M273 596h-247v104h606v-104h-247v-596h-112v596z" />
    <glyph glyph-name="U" unicode="U" horiz-adv-x="720" 
d="M549 280v420h113v-420q0 -125 -87 -209q-86 -84 -215 -84t-216 84q-86 84 -86 209v420h112v-420q0 -81 54 -135q56 -54 136 -54q81 0 135 54t54 135z" />
    <glyph glyph-name="V" unicode="V" horiz-adv-x="714" 
d="M402 0h-91l-298 700h118l226 -539l226 539h118z" />
    <glyph glyph-name="W" unicode="W" horiz-adv-x="1010" 
d="M343 0h-91l-239 700h115l168 -521l164 521h91l164 -521l167 521h115l-239 -700h-91l-162 506z" />
    <glyph glyph-name="X" unicode="X" horiz-adv-x="687" 
d="M276 357l-253 343h134l187 -252l186 252h134l-253 -343l263 -357h-134l-196 266l-197 -266h-134z" />
    <glyph glyph-name="Y" unicode="Y" horiz-adv-x="679" 
d="M282 284l-269 416h129l195 -309l199 309h129l-271 -411v-289h-112v284z" />
    <glyph glyph-name="Z" unicode="Z" horiz-adv-x="637" 
d="M601 104v-104h-559v86l399 510h-396v104h553v-86l-399 -510h402z" />
    <glyph glyph-name="bracketleft" unicode="[" horiz-adv-x="298" 
d="M152 -88h133v-87h-229v975h229v-87h-133v-801z" />
    <glyph glyph-name="backslash" unicode="\" horiz-adv-x="550" 
d="M96 799l454 -974h-96l-454 974h96z" />
    <glyph glyph-name="bracketright" unicode="]" horiz-adv-x="298" 
d="M242 -175h-229v87h133v801h-133v87h229v-975z" />
    <glyph glyph-name="asciicircum" unicode="^" 
d="M63 402l194 298h86l194 -296h-112l-125 184l-125 -186h-112z" />
    <glyph glyph-name="underscore" unicode="_" horiz-adv-x="266" 
d="M0 -146v96h266v-96h-266z" />
    <glyph glyph-name="grave" unicode="`" horiz-adv-x="334" 
d="M253 710l-207 93l48 94l194 -123z" />
    <glyph glyph-name="a" unicode="a" horiz-adv-x="634" 
d="M295 533q101 0 173 -69v56h104v-520h-104v56q-72 -69 -173 -69q-109 0 -183 78q-73 77 -73 195t73 195q74 78 183 78zM306 429q-67 0 -113 -49q-46 -47 -46 -120q0 -72 46 -121q47 -48 113 -48q68 0 114 48q46 49 46 121q0 73 -46 120q-46 49 -114 49z" />
    <glyph glyph-name="b" unicode="b" horiz-adv-x="634" 
d="M62 0v750h104v-286q72 69 173 69q109 0 183 -78q73 -77 73 -195t-73 -195q-74 -78 -183 -78q-101 0 -173 69v-56h-104zM327 429q-67 0 -113 -49q-46 -47 -46 -120q0 -72 46 -121q46 -48 113 -48t114 48q46 49 46 121q0 73 -46 120q-46 49 -114 49z" />
    <glyph glyph-name="c" unicode="c" horiz-adv-x="594" 
d="M565 369l-105 -31q-20 42 -59 66.5t-89 24.5q-70 0 -118 -49q-47 -49 -47 -120t47 -121q48 -48 118 -48q50 0 89 24.5t59 66.5l105 -31q-31 -75 -98.5 -119.5t-154.5 -44.5q-117 0 -195 78t-78 195t78 195t195 78q87 0 154.5 -44.5t98.5 -119.5z" />
    <glyph glyph-name="d" unicode="d" horiz-adv-x="634" 
d="M295 533q101 0 173 -69v286h104v-750h-104v56q-72 -69 -173 -69q-109 0 -183 78q-73 77 -73 195t73 195q74 78 183 78zM306 429q-67 0 -113 -49q-46 -47 -46 -120q0 -72 46 -121q47 -48 113 -48q68 0 114 48q46 49 46 121q0 73 -46 120q-46 49 -114 49z" />
    <glyph glyph-name="e" unicode="e" horiz-adv-x="610" 
d="M578 222h-432q12 -61 59.5 -99.5t112.5 -38.5q88 0 138 65l102 -31q-36 -61 -99.5 -96t-140.5 -35q-120 0 -199 78q-80 78 -80 195q0 116 77 195q78 78 194 78t192 -78q78 -78 78 -195q0 -4 -2 -38zM147 305h326q-14 58 -60 94.5t-106 36.5q-57 0 -101.5 -36.5
t-58.5 -94.5z" />
    <glyph glyph-name="f" unicode="f" horiz-adv-x="345" 
d="M200 577v-57h132v-91h-132v-429h-104v429h-83v91h83v71q0 68 48 113q47 46 118 46h70v-100h-62q-30 0 -50 -21t-20 -52z" />
    <glyph glyph-name="g" unicode="g" horiz-adv-x="634" 
d="M295 533q101 0 173 -69v56h104v-502q0 -109 -76 -182q-76 -74 -184 -74q-80 0 -150 41q-68 40 -97 105l105 31q17 -32 55 -52.5t83 -20.5q67 0 114 44q46 43 46 108v38q-72 -69 -173 -69q-109 0 -183 78q-73 77 -73 195t73 195q74 78 183 78zM306 429q-67 0 -113 -49
q-46 -47 -46 -120q0 -72 46 -121q47 -48 113 -48q68 0 114 48q46 49 46 121q0 73 -46 120q-46 49 -114 49z" />
    <glyph glyph-name="h" unicode="h" horiz-adv-x="612" 
d="M62 0v750h104v-306q59 89 174 89q92 0 151 -58q60 -59 60 -146v-329h-104v299q0 59 -39 96q-39 39 -98 39q-61 0 -103 -39q-41 -39 -41 -97v-298h-104z" />
    <glyph glyph-name="i" unicode="i" horiz-adv-x="228" 
d="M166 0h-104v520h104v-520zM65 597q-19 20 -19 49t19 49q20 20 49 20t49 -20t20 -49t-20 -49t-49 -20t-49 20z" />
    <glyph glyph-name="j" unicode="j" horiz-adv-x="235" 
d="M69 520h104v-586q0 -68 -48 -113q-47 -46 -118 -46h-44v100h36q30 0 50 21t20 52v572zM72 597q-20 20 -20 49t20 49t49 20t49 -20t20 -49t-20 -49t-49 -20t-49 20z" />
    <glyph glyph-name="k" unicode="k" horiz-adv-x="525" 
d="M62 0v750h104v-470l196 240h127l-204 -251l226 -269h-128l-217 258v-258h-104z" />
    <glyph glyph-name="l" unicode="l" horiz-adv-x="228" 
d="M166 0h-104v750h104v-750z" />
    <glyph glyph-name="m" unicode="m" horiz-adv-x="937" 
d="M166 0h-104v520h104v-66q54 79 159 79q54 0 98 -24.5t71 -67.5q12 19 29 38q21 21 61 37.5t85 16.5q89 0 147 -55q59 -56 59 -138v-340h-104v311q0 52 -35 87.5t-87 35.5q-55 0 -92 -36q-36 -34 -36 -88v-310h-104v311q0 52 -35 87.5t-87 35.5q-55 0 -92 -36
q-37 -34 -37 -88v-310z" />
    <glyph glyph-name="n" unicode="n" horiz-adv-x="605" 
d="M62 0v520h104v-76q57 89 171 89q90 0 148 -58q59 -59 59 -146v-329h-104v299q0 58 -38 96.5t-96 38.5q-60 0 -100 -39t-40 -97v-298h-104z" />
    <glyph glyph-name="o" unicode="o" horiz-adv-x="625" 
d="M117 65q-78 78 -78 195t78 195t195 78t195 -78q79 -78 79 -195t-79 -195q-78 -78 -195 -78t-195 78zM312 91q72 0 118 48q48 49 48 121t-48 120q-46 49 -118 49q-70 0 -118 -49q-47 -49 -47 -120t47 -121q48 -48 118 -48z" />
    <glyph glyph-name="p" unicode="p" horiz-adv-x="634" 
d="M166 -225h-104v745h104v-56q72 69 173 69q109 0 183 -78q73 -77 73 -195t-73 -195q-74 -78 -183 -78q-101 0 -173 69v-281zM327 429q-67 0 -113 -49q-46 -47 -46 -120q0 -72 46 -121q46 -48 113 -48t114 48q46 49 46 121q0 73 -46 120q-46 49 -114 49z" />
    <glyph glyph-name="q" unicode="q" horiz-adv-x="634" 
d="M295 533q101 0 173 -69v56h104v-745h-104v281q-72 -69 -173 -69q-109 0 -183 78q-73 77 -73 195t73 195q74 78 183 78zM306 429q-67 0 -113 -49q-46 -47 -46 -120q0 -72 46 -121q47 -48 113 -48q68 0 114 48q46 49 46 121q0 73 -46 120q-46 49 -114 49z" />
    <glyph glyph-name="r" unicode="r" horiz-adv-x="369" 
d="M166 520v-76q59 89 185 89v-116q-18 8 -45 8q-60 0 -100 -39q-40 -37 -40 -96v-290h-104v520h104z" />
    <glyph glyph-name="s" unicode="s" horiz-adv-x="475" 
d="M431 401l-98 -17q-18 58 -102 58q-38 0 -62 -15t-24 -41q0 -34 50 -52l117 -40q67 -25 97.5 -61t30.5 -89q0 -75 -55 -116t-145 -41q-88 0 -143 38.5t-66 106.5l98 15q7 -31 37 -50t76 -19q43 0 70.5 17t27.5 46q0 37 -63 60l-116 39q-61 21 -88.5 54t-27.5 84
q0 75 53 115t141 40q79 0 130 -35.5t62 -96.5z" />
    <glyph glyph-name="t" unicode="t" horiz-adv-x="362" 
d="M12 429v91h79v103h104v-103h138v-91h-138v-256q0 -31 20 -52t50 -21h68v-100h-76q-70 0 -118 45q-48 47 -48 114v270h-79z" />
    <glyph glyph-name="u" unicode="u" horiz-adv-x="605" 
d="M61 192v328h104v-299q0 -57 38 -97q40 -38 96 -38q59 0 100 39q40 39 40 97v298h104v-520h-104v74q-60 -87 -170 -87q-91 0 -149 58q-59 59 -59 147z" />
    <glyph glyph-name="v" unicode="v" horiz-adv-x="559" 
d="M231 0l-219 520h107l161 -387l160 387h107l-219 -520h-97z" />
    <glyph glyph-name="w" unicode="w" horiz-adv-x="779" 
d="M277 0h-92l-173 520h105l113 -359l113 359h94l112 -359l114 359h105l-173 -520h-93l-112 347z" />
    <glyph glyph-name="x" unicode="x" horiz-adv-x="549" 
d="M412 0l-137 183l-138 -183h-123l199 267l-189 253h122l129 -170l128 170h123l-190 -253l199 -267h-123z" />
    <glyph glyph-name="y" unicode="y" horiz-adv-x="539" 
d="M192 -44l23 57l-203 507h107l148 -378l153 378h107l-245 -599q-31 -76 -81 -111t-128 -35h-22v100h22q46 0 74 19t45 62z" />
    <glyph glyph-name="z" unicode="z" horiz-adv-x="503" 
d="M37 0v79l281 345h-276v96h419v-79l-282 -345h287v-96h-429z" />
    <glyph glyph-name="braceleft" unicode="{" horiz-adv-x="332" 
d="M247 800h71v-87h-62q-26 0 -43.5 -18t-17.5 -44v-216q0 -49 -25 -80.5t-68 -41.5q42 -10 67.5 -42.5t25.5 -80.5v-216q0 -26 17.5 -44t43.5 -18h62v-87h-71q-63 0 -105 43q-42 42 -42 106v216q0 25 -20.5 45t-45.5 27l-22 7v88q10 2 30 10q58 26 58 68v216q0 64 42 106
q42 43 105 43z" />
    <glyph glyph-name="bar" unicode="|" horiz-adv-x="200" 
d="M144 -175h-88v975h88v-975z" />
    <glyph glyph-name="braceright" unicode="}" horiz-adv-x="331" 
d="M13 713v87h71q64 0 106 -43q42 -42 42 -106v-216q0 -25 20.5 -45t45.5 -27l22 -6v-88q-10 -2 -31 -11q-57 -22 -57 -68v-216q0 -64 -42 -106q-42 -43 -106 -43h-71v87h63q25 0 42.5 18t17.5 44v216q0 49 25.5 81t68.5 42q-43 9 -68.5 41t-25.5 81v216q0 26 -17.5 44
t-42.5 18h-63z" />
    <glyph glyph-name="asciitilde" unicode="~" 
d="M382 270q-30 0 -64 16.5t-62 33t-43 16.5q-24 0 -39.5 -17t-15.5 -43h-95q2 67 46 110q47 45 108 45q45 0 97 -33q53 -33 73 -33q23 0 39 17t16 42h95q-2 -66 -47 -110q-46 -44 -108 -44z" />
    <glyph glyph-name="exclamdown" unicode="&#xa1;" horiz-adv-x="248" 
d="M123 533q30 0 50 -19.5t20 -49.5t-20 -50t-50 -20q-29 0 -49 20t-20 50t20 49.5t49 19.5zM68 -180l11 485h90l11 -485h-112z" />
    <glyph glyph-name="cent" unicode="&#xa2;" horiz-adv-x="594" 
d="M273 -30v110q-103 13 -169 88q-65 76 -65 182t65 182q66 75 169 88v110h79v-110q73 -10 129.5 -52.5t83.5 -108.5l-105 -31q-20 42 -59 66.5t-89 24.5q-70 0 -118 -49q-47 -49 -47 -120t47 -121q48 -48 118 -48q50 0 89 24.5t59 66.5l105 -31q-27 -66 -83.5 -108.5
t-129.5 -52.5v-110h-79z" />
    <glyph glyph-name="sterling" unicode="&#xa3;" horiz-adv-x="587" 
d="M546 0h-514v104h83v193h-70v79h70v123q0 91 63 152q65 62 156 62q78 0 142 -45q66 -46 88 -114l-108 -31q-13 37 -47 61.5t-74 24.5q-46 0 -80 -32q-32 -32 -32 -78v-123h187v-79h-187v-193h323v-104z" />
    <glyph glyph-name="currency" unicode="&#xa4;" horiz-adv-x="586" 
d="M118 117l-62 61l75 75q-26 46 -26 97q0 57 28 100l-76 76l61 61l77 -76q44 26 97 26q56 0 98 -27l78 77l61 -61l-78 -77q28 -40 28 -99q0 -53 -26 -97l75 -75l-61 -61l-74 74q-43 -28 -101 -28q-57 0 -100 28zM292 250q43 0 71.5 28.5t28.5 71.5q0 42 -28.5 71t-71.5 29
q-42 0 -71 -28.5t-29 -71.5t29 -71.5t71 -28.5z" />
    <glyph glyph-name="yen" unicode="&#xa5;" horiz-adv-x="679" 
d="M282 286l-269 414h129l195 -308l199 308h129l-271 -411v-12h140v-78h-140v-50h140v-79h-140v-70h-112v70h-140v79h140v50h-140v78h140v9z" />
    <glyph glyph-name="brokenbar" unicode="&#xa6;" horiz-adv-x="200" 
d="M144 800v-406h-88v406h88zM56 -175v406h88v-406h-88z" />
    <glyph glyph-name="section" unicode="&#xa7;" horiz-adv-x="470" 
d="M239 -188q-79 0 -136 42.5t-72 111.5l95 36q9 -46 40 -74t74 -28q42 0 70.5 26t28.5 64q0 58 -53 82l-127 58q-52 23 -80.5 65t-28.5 95q0 72 51 122q-51 46 -51 122q0 77 53 128q54 51 135 51q72 0 125 -40t69 -104l-94 -35q-9 40 -37 65.5t-64 25.5q-37 0 -62 -26
t-25 -64q0 -57 39 -75l133 -57q56 -25 87 -68.5t31 -96.5q0 -70 -54 -122q54 -48 54 -121q0 -80 -57 -131q-56 -52 -144 -52zM278 324l-95 40q-12 -5 -22.5 -27t-10.5 -46q0 -57 48 -79l102 -47q39 27 39 73q0 59 -61 86z" />
    <glyph glyph-name="dieresis" unicode="&#xa8;" horiz-adv-x="435" 
d="M113 836q27 0 46 -19t19 -47t-19 -46.5t-46 -18.5q-29 0 -48 18.5t-19 46.5t19 47t48 19zM276 723q-19 19 -19 47t19 47t47 19t47 -19t19 -47t-19 -47q-19 -18 -47 -18t-47 18z" />
    <glyph glyph-name="copyright" unicode="&#xa9;" horiz-adv-x="806" 
d="M150 97q-105 105 -105 253t105 253t253 105q149 0 252 -105q105 -105 105 -253t-105 -253q-103 -105 -252 -105q-148 0 -253 105zM90 350q0 -130 91 -221q92 -92 222 -92q129 0 221 92t92 221t-92 221t-221 92q-130 0 -222 -92q-91 -91 -91 -221zM408 542
q57 0 104.5 -27.5t71.5 -73.5l-67 -25q-36 60 -109 60q-53 0 -88.5 -36t-35.5 -89q0 -55 35.5 -91t88.5 -36q72 0 109 60l67 -25q-24 -47 -71 -74.5t-105 -27.5q-84 0 -139 55q-56 56 -56 138q0 81 56 137q55 55 139 55z" />
    <glyph glyph-name="ordfeminine" unicode="&#xaa;" horiz-adv-x="436" 
d="M194 705q71 0 120 -52v47h84v-364h-84v47q-49 -52 -120 -52q-72 0 -122 53q-49 53 -49 134t49 133q49 54 122 54zM109 519q0 -45 29.5 -76t72.5 -31t72 31t29 76q0 44 -29 74.5t-72 30.5t-72.5 -30.5t-29.5 -74.5z" />
    <glyph glyph-name="guillemotleft" unicode="&#xab;" horiz-adv-x="543" 
d="M224 70l-191 190l191 191l61 -62l-130 -129l130 -129zM437 70l-191 190l191 191l61 -62l-130 -129l130 -129z" />
    <glyph glyph-name="logicalnot" unicode="&#xac;" 
d="M445 159v143h-382v96h474v-239h-92z" />
    <glyph glyph-name="uni00AD" unicode="&#xad;" horiz-adv-x="400" 
d="M63 212v96h274v-96h-274z" />
    <glyph glyph-name="registered" unicode="&#xae;" horiz-adv-x="806" 
d="M150 97q-105 105 -105 253t105 253t253 105q149 0 252 -105q105 -105 105 -253t-105 -253q-103 -105 -252 -105q-148 0 -253 105zM403 37q129 0 221 92t92 221t-92 221t-221 92q-130 0 -222 -92q-91 -91 -91 -221t91 -221q92 -92 222 -92zM328 162h-69v376h173
q56 0 94 -36q38 -35 38 -87q0 -37 -20 -67t-53 -44l85 -142h-78l-76 129h-94v-129zM432 474h-104v-119h104q26 0 43 17t17 43q0 25 -17 42t-43 17z" />
    <glyph glyph-name="overscore" unicode="&#xaf;" horiz-adv-x="393" 
d="M347 734h-301v87h301v-87z" />
    <glyph glyph-name="degree" unicode="&#xb0;" horiz-adv-x="403" 
d="M33 595q0 71 48 119q49 49 121 49t120 -49q48 -48 48 -119q0 -72 -48 -120t-120 -48t-121 48q-48 48 -48 120zM148 649q-22 -22 -22 -54t22 -54t54 -22t53 22q22 22 22 54t-22 54q-21 22 -53 22t-54 -22z" />
    <glyph glyph-name="plusminus" unicode="&#xb1;" 
d="M252 374h-189v95h189v189h96v-189h189v-95h-189v-161h-96v161zM63 58v96h474v-96h-474z" />
    <glyph glyph-name="twosuperior" unicode="&#xb2;" horiz-adv-x="320" 
d="M221 635q0 22 -19.5 38.5t-45.5 16.5q-55 0 -77 -58l-62 31q19 42 56 67t83 25q55 0 95 -35q39 -34 39 -83q0 -59 -82 -132l-80 -76h167v-64h-270v49l141 134q55 52 55 87z" />
    <glyph glyph-name="threesuperior" unicode="&#xb3;" horiz-adv-x="326" 
d="M155 690q-53 0 -72 -39l-59 21q16 37 52.5 60t82.5 23q57 0 95.5 -33t38.5 -82q0 -51 -52 -75q61 -27 61 -86q0 -51 -40.5 -84.5t-101.5 -33.5q-50 0 -87.5 23t-52.5 62l62 23q15 -44 75 -44q33 0 54.5 16t21.5 40t-21 39.5t-53 15.5h-29v51h20q31 0 52 15t21 37
t-19.5 36.5t-48.5 14.5z" />
    <glyph glyph-name="acute" unicode="&#xb4;" horiz-adv-x="334" 
d="M82 710l-36 64l194 123l48 -94z" />
    <glyph glyph-name="mu" unicode="&#xb5;" horiz-adv-x="605" 
d="M61 -225v745h104v-299q0 -57 38 -97q40 -38 96 -38q59 0 100 39q40 39 40 97v298h104v-520h-104v74q-60 -87 -170 -87q-58 0 -104 25v-237h-104z" />
    <glyph glyph-name="paragraph" unicode="&#xb6;" horiz-adv-x="680" 
d="M240 700h411v-79h-104v-796h-87v796h-133v-796h-87v477q-85 0 -142 57t-57 142t57 142t142 57z" />
    <glyph glyph-name="middot" unicode="&#xb7;" horiz-adv-x="220" 
d="M60 300q-19 20 -19 50t19 50q20 20 50 20t50 -20t20 -50t-20 -50q-20 -19 -50 -19t-50 19z" />
    <glyph glyph-name="cedilla" unicode="&#xb8;" horiz-adv-x="296" 
d="M100 -87l20 87h80l-11 -49q3 0 7.5 -1.5t17 -7t22 -13t17 -22t7.5 -32.5q0 -41 -34.5 -68t-87.5 -27q-50 0 -87 21l-12 7l14 56q25 -22 68 -22q26 0 43 9.5t17 23.5t-19 23.5t-42 12.5z" />
    <glyph glyph-name="onesuperior" unicode="&#xb9;" horiz-adv-x="239" 
d="M118 672l-73 -37l-24 57l116 58h47v-385h-66v307z" />
    <glyph glyph-name="ordmasculine" unicode="&#xba;" horiz-adv-x="431" 
d="M23 518q0 81 55 133q56 54 138 54t137 -54q55 -52 55 -133q0 -79 -55 -133t-137 -54t-138 54q-55 54 -55 133zM216 412q44 0 74.5 31t30.5 75t-30.5 75t-74.5 31q-46 0 -76.5 -31t-30.5 -75t30.5 -75t76.5 -31z" />
    <glyph glyph-name="guillemotright" unicode="&#xbb;" horiz-adv-x="543" 
d="M319 451l190 -191l-190 -190l-61 61l129 129l-129 129zM106 451l190 -191l-190 -190l-61 61l129 129l-129 129z" />
    <glyph glyph-name="onequarter" unicode="&#xbc;" horiz-adv-x="794" 
d="M660 285l-122 -146h122v146zM660 0v75h-201v64l205 246h63v-246h50v-64h-50v-75h-67zM118 315v306l-73 -36l-24 57l116 58h47v-385h-66zM666 700l-492 -700h-91l492 700h91z" />
    <glyph glyph-name="onehalf" unicode="&#xbd;" horiz-adv-x="819" 
d="M118 315v306l-73 -36l-24 57l116 58h47v-385h-66zM666 700l-492 -700h-91l492 700h91zM720 270q0 22 -19.5 38.5t-46.5 16.5q-54 0 -76 -58l-62 31q19 43 55.5 67.5t82.5 24.5q56 0 96 -35q39 -34 39 -83q0 -59 -82 -132l-80 -76h167v-64h-270v49l141 134q55 52 55 87z
" />
    <glyph glyph-name="threequarters" unicode="&#xbe;" horiz-adv-x="876" 
d="M541 75v64l205 246h63v-246h50v-64h-50v-75h-67v75h-201zM251 0h-92l492 700h92zM160 311q-50 0 -87.5 23t-52.5 62l62 23q15 -44 75 -44q33 0 54.5 16t21.5 40t-21 39.5t-53 15.5h-29v51h20q31 0 52 15t21 37t-19.5 36.5t-48.5 14.5q-53 0 -72 -39l-59 21q16 37 52.5 60
t82.5 23q57 0 95.5 -33t38.5 -82q0 -51 -52 -75q24 -11 37 -26q24 -24 24 -60q0 -51 -40.5 -84.5t-101.5 -33.5zM742 286l-122 -147h122v147z" />
    <glyph glyph-name="questiondown" unicode="&#xbf;" horiz-adv-x="555" 
d="M146 19q0 -45 40.5 -76.5t100.5 -31.5q50 0 87.5 23t50.5 61l108 -30q-22 -70 -89 -114t-155 -44q-107 0 -180 61q-72 62 -72 152q0 44 18.5 82t49 62.5t54.5 38.5t49 23l19 7l5 72h91l11 -132q-28 -8 -66 -25q-32 -14 -57 -30q-26 -17 -45.5 -44.5t-19.5 -54.5zM278 394
q-29 0 -49 20t-20 50t20 49.5t49 19.5q30 0 50 -19.5t20 -49.5t-20 -50t-50 -20z" />
    <glyph glyph-name="Agrave" unicode="&#xc0;" horiz-adv-x="724" 
d="M131 0h-118l303 700h91l304 -700h-118l-62 144h-338zM487 248l-125 293l-125 -293h250zM403 763l-206 93l48 94l193 -123z" />
    <glyph glyph-name="Aacute" unicode="&#xc1;" horiz-adv-x="724" 
d="M131 0h-118l303 700h91l304 -700h-118l-62 144h-338zM487 248l-125 293l-125 -293h250zM523 856l-206 -93l-35 64l193 123z" />
    <glyph glyph-name="Acircumflex" unicode="&#xc2;" horiz-adv-x="724" 
d="M131 0h-118l303 700h91l304 -700h-118l-62 144h-338zM487 248l-125 293l-125 -293h250zM234 762l-43 59l167 125h7l167 -125l-43 -58l-127 78z" />
    <glyph glyph-name="Atilde" unicode="&#xc3;" horiz-adv-x="724" 
d="M193 144l-62 -144h-118l303 700h91l304 -700h-118l-62 144h-338zM487 248l-125 293l-125 -293h250zM284 778h-83q0 47 31 78q32 33 76 33q31 0 59 -21q30 -21 40 -21q13 0 22.5 10.5t9.5 26.5h82q0 -47 -30.5 -79t-74.5 -32q-32 0 -60 21t-39 21q-14 0 -23.5 -10.5
t-9.5 -26.5z" />
    <glyph glyph-name="Adieresis" unicode="&#xc4;" horiz-adv-x="724" 
d="M193 144l-62 -144h-118l303 700h91l304 -700h-118l-62 144h-338zM487 248l-125 293l-125 -293h250zM420 777q-19 19 -19 47t19 46q19 19 47 19t47 -19q19 -18 19 -46t-19 -47t-47 -19t-47 19zM257 758q-29 0 -47.5 19t-18.5 47t19 46.5t47 18.5t46.5 -18.5t18.5 -46.5
t-18.5 -47t-46.5 -19z" />
    <glyph glyph-name="Aring" unicode="&#xc5;" horiz-adv-x="724" 
d="M193 144l-62 -144h-118l303 700h91l304 -700h-118l-62 144h-338zM362 975q46 0 79 -33q34 -33 34 -79q0 -47 -33 -80t-80 -33t-80 33t-33 80q0 46 33 79t80 33zM487 248l-125 293l-125 -293h250zM334 835q11 -11 28 -11t28 11t11 28t-12 28q-11 11 -27 11t-28 -11
q-11 -11 -11 -28t11 -28z" />
    <glyph glyph-name="AE" unicode="&#xc6;" horiz-adv-x="1018" 
d="M232 144l-91 -144h-128l446 700h518v-104h-362v-190h308v-104h-308v-198h367v-104h-479v144h-271zM297 248h206v327z" />
    <glyph glyph-name="Ccedilla" unicode="&#xc7;" horiz-adv-x="770" 
d="M45 350q0 155 104 259t259 104q105 0 190.5 -51t131.5 -139l-109 -40q-33 57 -89 89.5t-124 32.5q-106 0 -176 -73q-71 -74 -71 -182t71 -182q70 -73 176 -73q68 0 124 32.5t89 89.5l109 -40q-40 -78 -113 -127.5t-163 -59.5l-8 -39q3 0 7.5 -1.5t17 -7t22 -13t17 -22
t7.5 -32.5q0 -41 -34.5 -68t-87.5 -27q-51 0 -88 21l-12 7l14 56q25 -22 68 -22q26 0 43.5 9.5t17.5 23.5t-18.5 23.5t-41.5 12.5l-21 2l17 75q-143 12 -236 114t-93 248z" />
    <glyph glyph-name="Egrave" unicode="&#xc8;" horiz-adv-x="620" 
d="M68 700h510v-104h-398v-190h345v-104h-345v-198h403v-104h-515v700zM397 827l-35 -64l-207 93l48 94z" />
    <glyph glyph-name="Eacute" unicode="&#xc9;" horiz-adv-x="620" 
d="M68 700h510v-104h-398v-190h345v-104h-345v-198h403v-104h-515v700zM276 763l-36 64l194 123l48 -94z" />
    <glyph glyph-name="Ecircumflex" unicode="&#xca;" horiz-adv-x="620" 
d="M68 700h510v-104h-398v-190h345v-104h-345v-198h403v-104h-515v700zM193 762l-44 59l168 125h7l167 -125l-44 -58l-127 78z" />
    <glyph glyph-name="Edieresis" unicode="&#xcb;" horiz-adv-x="620" 
d="M68 700h510v-104h-398v-190h345v-104h-345v-198h403v-104h-515v700zM473 777q-19 -19 -47 -19t-47 19t-19 47t19 46q19 19 47 19t47 -19q19 -18 19 -46t-19 -47zM216 889q27 0 46 -18.5t19 -46.5t-19 -47t-46 -19q-28 0 -47 19t-19 47t19 46.5t47 18.5z" />
    <glyph glyph-name="Igrave" unicode="&#xcc;" horiz-adv-x="248" 
d="M180 0h-112v700h112v-700zM165 763l-206 93l48 94l194 -123z" />
    <glyph glyph-name="Iacute" unicode="&#xcd;" horiz-adv-x="248" 
d="M180 0h-112v700h112v-700zM80 763l-36 64l194 123l48 -94z" />
    <glyph glyph-name="Icircumflex" unicode="&#xce;" horiz-adv-x="248" 
d="M180 0h-112v700h112v-700zM124 841l-127 -79l-44 59l168 125h6l168 -125l-44 -58z" />
    <glyph glyph-name="Idieresis" unicode="&#xcf;" horiz-adv-x="248" 
d="M180 0h-112v700h112v-700zM19 758q-29 0 -47.5 19t-18.5 47t19 46.5t47 18.5t47 -18.5t19 -46.5t-19 -47t-47 -19zM229 758q-28 0 -46.5 19t-18.5 47t18.5 46.5t46.5 18.5t47 -18.5t19 -46.5t-18.5 -47t-47.5 -19z" />
    <glyph glyph-name="Eth" unicode="&#xd0;" horiz-adv-x="773" 
d="M10 302v96h75v302h280q155 0 259 -101t104 -249t-104 -249t-259 -101h-280v302h-75zM197 596v-198h201v-96h-201v-198h168q105 0 176 71t71 175t-71 175t-176 71h-168z" />
    <glyph glyph-name="Ntilde" unicode="&#xd1;" horiz-adv-x="744" 
d="M176 0h-108v700h99l401 -507v507h108v-700h-99l-401 507v-507zM294 778h-82q0 47 31 78q31 33 76 33q30 0 59 -21t40 -21q13 0 22.5 10.5t9.5 26.5h82q0 -47 -31 -79q-32 -32 -75 -32q-30 0 -59 21q-28 21 -40 21q-14 0 -23.5 -10.5t-9.5 -26.5z" />
    <glyph glyph-name="Ograve" unicode="&#xd2;" horiz-adv-x="816" 
d="M149 91q-104 104 -104 259t104 259t259 104t259 -104q105 -103 105 -259t-105 -259q-104 -104 -259 -104t-259 104zM408 95q106 0 176 73q71 74 71 182t-71 182q-70 73 -176 73t-176 -73q-71 -74 -71 -182t71 -182q70 -73 176 -73zM449 763l-206 93l48 94l194 -123z" />
    <glyph glyph-name="Oacute" unicode="&#xd3;" horiz-adv-x="816" 
d="M149 91q-104 104 -104 259t104 259t259 104t259 -104q105 -103 105 -259t-105 -259q-104 -104 -259 -104t-259 104zM408 95q106 0 176 73q71 74 71 182t-71 182q-70 73 -176 73t-176 -73q-71 -74 -71 -182t71 -182q70 -73 176 -73zM364 763l-36 64l194 123l48 -94z" />
    <glyph glyph-name="Ocircumflex" unicode="&#xd4;" horiz-adv-x="816" 
d="M149 91q-104 104 -104 259t104 259t259 104t259 -104q105 -103 105 -259t-105 -259q-104 -104 -259 -104t-259 104zM408 95q106 0 176 73q71 74 71 182t-71 182q-70 73 -176 73t-176 -73q-71 -74 -71 -182t71 -182q70 -73 176 -73zM408 841l-127 -79l-44 59l168 125h6
l168 -125l-44 -58z" />
    <glyph glyph-name="Otilde" unicode="&#xd5;" horiz-adv-x="816" 
d="M149 91q-104 104 -104 259t104 259t259 104t259 -104q105 -103 105 -259t-105 -259q-104 -104 -259 -104t-259 104zM408 95q106 0 176 73q71 74 71 182t-71 182q-70 73 -176 73t-176 -73q-71 -74 -71 -182t71 -182q70 -73 176 -73zM330 778h-82q0 47 31 78q31 33 76 33
q31 0 59 -21t40 -21q13 0 22.5 10.5t9.5 26.5h82q0 -47 -31 -79q-32 -32 -75 -32q-30 0 -59 21t-40 21q-14 0 -23.5 -10.5t-9.5 -26.5z" />
    <glyph glyph-name="Odieresis" unicode="&#xd6;" horiz-adv-x="816" 
d="M149 91q-104 104 -104 259t104 259t259 104t259 -104q105 -103 105 -259t-105 -259q-104 -104 -259 -104t-259 104zM408 95q106 0 176 73q71 74 71 182t-71 182q-70 73 -176 73t-176 -73q-71 -74 -71 -182t71 -182q70 -73 176 -73zM256 777q-19 19 -19 47t19 46
q19 19 47 19t47 -19q19 -18 19 -46t-19 -47t-47 -19t-47 19zM513 758q-28 0 -46.5 19t-18.5 47t18.5 46.5t46.5 18.5t47 -18.5t19 -46.5t-18.5 -47t-47.5 -19z" />
    <glyph glyph-name="multiply" unicode="&#xd7;" 
d="M232 350l-154 153l68 68l154 -153l154 154l68 -68l-154 -154l154 -153l-68 -68l-154 154l-154 -154l-68 68z" />
    <glyph glyph-name="Oslash" unicode="&#xd8;" horiz-adv-x="816" 
d="M137 36l28 40q-120 106 -120 274q0 155 104 259t259 104q92 0 173 -40l29 40l72 -49l-29 -41q119 -107 119 -273q0 -156 -105 -259q-104 -104 -259 -104q-91 0 -171 41l-29 -41zM587 528l-286 -409q51 -24 107 -24q106 0 176 73q71 74 71 182q0 107 -68 178zM231 170
l286 411q-51 24 -109 24q-106 0 -176 -73q-71 -74 -71 -182q0 -109 70 -180z" />
    <glyph glyph-name="Ugrave" unicode="&#xd9;" horiz-adv-x="720" 
d="M549 280v420h113v-420q0 -125 -87 -209q-86 -84 -215 -84t-216 84q-86 84 -86 209v420h112v-420q0 -81 54 -135q56 -54 136 -54q81 0 135 54t54 135zM401 763l-206 93l47 94l194 -123z" />
    <glyph glyph-name="Uacute" unicode="&#xda;" horiz-adv-x="720" 
d="M549 280v420h113v-420q0 -125 -87 -209q-86 -84 -215 -84t-216 84q-86 84 -86 209v420h112v-420q0 -81 54 -135q56 -54 136 -54q81 0 135 54t54 135zM315 763l-35 64l193 123l48 -94z" />
    <glyph glyph-name="Ucircumflex" unicode="&#xdb;" horiz-adv-x="720" 
d="M549 280v420h113v-420q0 -125 -87 -209q-86 -84 -215 -84t-216 84q-86 84 -86 209v420h112v-420q0 -81 54 -135q56 -54 136 -54q81 0 135 54t54 135zM359 841l-127 -79l-43 59l167 125h7l167 -125l-43 -58z" />
    <glyph glyph-name="Udieresis" unicode="&#xdc;" horiz-adv-x="720" 
d="M549 280v420h113v-420q0 -125 -87 -209q-86 -84 -215 -84t-216 84q-86 84 -86 209v420h112v-420q0 -81 54 -135q56 -54 136 -54q81 0 135 54t54 135zM255 889q27 0 46 -18.5t19 -46.5t-19 -47t-46 -19q-29 0 -47.5 19t-18.5 47t19 46.5t47 18.5zM418 777q-19 19 -19 47
t19 46q19 19 47 19t47 -19q19 -18 19 -46t-19 -47t-47 -19t-47 19z" />
    <glyph glyph-name="Yacute" unicode="&#xdd;" horiz-adv-x="679" 
d="M282 0v284l-269 416h129l195 -309l199 309h129l-271 -411v-289h-112zM501 856l-206 -93l-35 64l193 123z" />
    <glyph glyph-name="Thorn" unicode="&#xde;" horiz-adv-x="655" 
d="M68 0v700h112v-129h198q100 0 167 -63q68 -63 68 -158t-68 -158q-67 -63 -167 -63h-198v-129h-112zM378 467h-198v-234h198q50 0 84 33.5t34 83.5t-34 83.5t-84 33.5z" />
    <glyph glyph-name="germandbls" unicode="&#xdf;" horiz-adv-x="596" 
d="M270 659q-45 0 -74.5 -27.5t-29.5 -68.5v-563h-104v580q0 79 58 131t146 52q84 0 141 -48t57 -117q0 -57 -41 -98q-41 -39 -41 -70q0 -36 63 -79q24 -15 41 -29t36.5 -36t29.5 -52t10 -67q0 -90 -65 -133t-202 -43v104q87 0 122.5 17.5t35.5 58.5q0 55 -63 96
q-2 2 -16.5 11.5t-18.5 13t-17 13t-17.5 15t-14 15.5t-13.5 18.5t-9.5 20t-7.5 23.5t-2 26q0 61 40 103q41 41 41 70q0 27 -24.5 45t-60.5 18z" />
    <glyph glyph-name="agrave" unicode="&#xe0;" horiz-adv-x="634" 
d="M295 -13q-109 0 -183 78q-73 77 -73 195t73 195q74 78 183 78q101 0 173 -69v56h104v-520h-104v56q-72 -69 -173 -69zM306 91q68 0 114 48q46 49 46 121q0 73 -46 120q-46 49 -114 49q-67 0 -113 -49q-46 -47 -46 -120q0 -72 46 -121q47 -48 113 -48zM394 659l-36 -65
l-206 94l48 93z" />
    <glyph glyph-name="aacute" unicode="&#xe1;" horiz-adv-x="634" 
d="M295 -13q-109 0 -183 78q-73 77 -73 195t73 195q74 78 183 78q101 0 173 -69v56h104v-520h-104v56q-72 -69 -173 -69zM306 91q68 0 114 48q46 49 46 121q0 73 -46 120q-46 49 -114 49q-67 0 -113 -49q-46 -47 -46 -120q0 -72 46 -121q47 -48 113 -48zM479 688l-206 -94
l-36 65l194 122z" />
    <glyph glyph-name="acircumflex" unicode="&#xe2;" horiz-adv-x="634" 
d="M295 -13q-109 0 -183 78q-73 77 -73 195t73 195q74 78 183 78q101 0 173 -69v56h104v-520h-104v56q-72 -69 -173 -69zM306 91q68 0 114 48q46 49 46 121q0 73 -46 120q-46 49 -114 49q-67 0 -113 -49q-46 -47 -46 -120q0 -72 46 -121q47 -48 113 -48zM190 594l-44 59
l168 124h6l168 -124l-44 -58l-127 77z" />
    <glyph glyph-name="atilde" unicode="&#xe3;" horiz-adv-x="634" 
d="M295 -13q-109 0 -183 78q-73 77 -73 195t73 195q74 78 183 78q101 0 173 -69v56h104v-520h-104v56q-72 -69 -173 -69zM306 429q-67 0 -113 -49q-46 -47 -46 -120q0 -72 46 -121q47 -48 113 -48q68 0 114 48q46 49 46 121q0 73 -46 120q-46 49 -114 49zM239 609h-82
q0 47 31 78q32 33 76 33q30 0 59 -21t40 -21q13 0 22.5 10.5t9.5 27.5h82q0 -47 -31 -79.5t-75 -32.5q-31 0 -59 21q-29 21 -40 21q-14 0 -23.5 -10.5t-9.5 -26.5z" />
    <glyph glyph-name="adieresis" unicode="&#xe4;" horiz-adv-x="634" 
d="M295 533q101 0 173 -69v56h104v-520h-104v56q-72 -69 -173 -69q-109 0 -183 78q-73 77 -73 195t73 195q74 78 183 78zM306 429q-67 0 -113 -49q-46 -47 -46 -120q0 -72 46 -121q47 -48 113 -48q68 0 114 48q46 49 46 121q0 73 -46 120q-46 49 -114 49zM259 608
q-19 -18 -47 -18t-47 18q-19 19 -19 47t19 46q19 19 47 19t47 -19q19 -18 19 -46t-19 -47zM422 720q29 0 47.5 -18.5t18.5 -46.5t-18.5 -46.5t-47.5 -18.5q-28 0 -46.5 18.5t-18.5 46.5t18.5 46.5t46.5 18.5z" />
    <glyph glyph-name="aring" unicode="&#xe5;" horiz-adv-x="634" 
d="M295 533q101 0 173 -69v56h104v-520h-104v56q-72 -69 -173 -69q-109 0 -183 78q-73 77 -73 195t73 195q74 78 183 78zM306 91q68 0 114 48q46 49 46 121q0 73 -46 120q-46 49 -114 49q-67 0 -113 -49q-46 -47 -46 -120q0 -72 46 -121q47 -48 113 -48zM205 694q0 47 33 80
t79 33q47 0 80 -34q33 -33 33 -79t-33 -79t-80 -33t-80 33q-32 34 -32 79zM289 721q-11 -11 -11 -27t11 -28q11 -11 28 -11t28 11t11 28t-11 28t-28 11t-28 -12z" />
    <glyph glyph-name="ae" unicode="&#xe6;" horiz-adv-x="1038" 
d="M295 -13q-109 0 -183 78q-73 77 -73 195t73 195q74 78 183 78q101 0 173 -69v56h104v-57q73 70 177 70q110 0 185 -78t75 -195q0 -19 -3 -38h-431q12 -61 59.5 -99.5t112.5 -38.5q88 0 138 65l101 -31q-34 -61 -95 -96t-136 -35q-108 0 -183 72v-59h-104v56
q-72 -69 -173 -69zM306 91q68 0 114 48q46 49 46 121q0 73 -46 120q-46 49 -114 49q-67 0 -113 -49q-46 -47 -46 -120q0 -72 46 -121q47 -48 113 -48zM576 305h325q-14 58 -59.5 94.5t-105.5 36.5q-57 0 -101.5 -36.5t-58.5 -94.5z" />
    <glyph glyph-name="ccedilla" unicode="&#xe7;" horiz-adv-x="594" 
d="M261 -87l17 76q-105 11 -172 87t-67 184q0 117 78 195t195 78q87 0 154.5 -44.5t98.5 -119.5l-105 -31q-20 42 -59 66.5t-89 24.5q-70 0 -118 -49q-47 -49 -47 -120t47 -121q48 -48 118 -48q50 0 89 24.5t59 66.5l105 -31q-26 -64 -80.5 -106.5t-125.5 -53.5l-9 -40
q3 0 7.5 -1.5t17 -7t22 -13t17 -22t7.5 -32.5q0 -41 -34.5 -68t-87.5 -27q-50 0 -87 21l-12 7l14 56q25 -22 67 -22q26 0 43.5 9.5t17.5 23.5t-18.5 23.5t-41.5 12.5z" />
    <glyph glyph-name="egrave" unicode="&#xe8;" horiz-adv-x="610" 
d="M578 222h-432q12 -61 59.5 -99.5t112.5 -38.5q88 0 138 65l102 -31q-36 -61 -99.5 -96t-140.5 -35q-120 0 -199 78q-80 78 -80 195q0 116 77 195q78 78 194 78t192 -78q78 -78 78 -195q0 -4 -2 -38zM147 305h326q-14 58 -60 94.5t-106 36.5q-57 0 -101.5 -36.5
t-58.5 -94.5zM352 594l-207 94l48 93l194 -122z" />
    <glyph glyph-name="eacute" unicode="&#xe9;" horiz-adv-x="610" 
d="M578 222h-432q12 -61 59.5 -99.5t112.5 -38.5q88 0 138 65l102 -31q-36 -61 -99.5 -96t-140.5 -35q-120 0 -199 78q-80 78 -80 195q0 116 77 195q78 78 194 78t192 -78q78 -78 78 -195q0 -4 -2 -38zM147 305h326q-14 58 -60 94.5t-106 36.5q-57 0 -101.5 -36.5
t-58.5 -94.5zM266 594l-36 65l194 122l48 -93z" />
    <glyph glyph-name="ecircumflex" unicode="&#xea;" horiz-adv-x="610" 
d="M578 222h-432q12 -61 59.5 -99.5t112.5 -38.5q88 0 138 65l102 -31q-36 -61 -99.5 -96t-140.5 -35q-120 0 -199 78q-80 78 -80 195q0 116 77 195q78 78 194 78t192 -78q78 -78 78 -195q0 -4 -2 -38zM147 305h326q-14 58 -60 94.5t-106 36.5q-57 0 -101.5 -36.5
t-58.5 -94.5zM310 672l-127 -78l-43 59l167 124h7l167 -124l-44 -58z" />
    <glyph glyph-name="edieresis" unicode="&#xeb;" horiz-adv-x="610" 
d="M578 222h-432q12 -61 59.5 -99.5t112.5 -38.5q88 0 138 65l102 -31q-36 -61 -99.5 -96t-140.5 -35q-120 0 -199 78q-80 78 -80 195q0 116 77 195q78 78 194 78t192 -78q78 -78 78 -195q0 -4 -2 -38zM147 305h326q-14 58 -60 94.5t-106 36.5q-57 0 -101.5 -36.5
t-58.5 -94.5zM206 720q27 0 46 -18.5t19 -46.5t-19 -46.5t-46 -18.5q-29 0 -47.5 18.5t-18.5 46.5t18.5 46.5t47.5 18.5zM369 608q-19 19 -19 47t19 46q19 19 47 19t47 -19q19 -18 19 -46t-19 -47q-19 -18 -47 -18t-47 18z" />
    <glyph glyph-name="igrave" unicode="&#xec;" horiz-adv-x="228" 
d="M166 0h-104v520h104v-520zM-39 687l48 94l194 -122l-35 -64z" />
    <glyph glyph-name="iacute" unicode="&#xed;" horiz-adv-x="228" 
d="M166 0h-104v520h104v-520zM21 659l194 122l48 -94l-206 -92z" />
    <glyph glyph-name="icircumflex" unicode="&#xee;" horiz-adv-x="228" 
d="M166 0h-104v520h104v-520zM-13 594l-44 59l168 124h6l168 -124l-44 -58l-127 77z" />
    <glyph glyph-name="idieresis" unicode="&#xef;" horiz-adv-x="228" 
d="M166 0h-104v520h104v-520zM22 720q27 0 46 -18.5t19 -46.5t-19 -46.5t-46 -18.5q-29 0 -47.5 18.5t-18.5 46.5t18.5 46.5t47.5 18.5zM160 608q-19 19 -19 47t19 46q19 19 47 19t47 -19q19 -18 19 -46t-19 -47q-19 -18 -47 -18t-47 18z" />
    <glyph glyph-name="eth" unicode="&#xf0;" horiz-adv-x="625" 
d="M312 533q72 0 131 -31q-42 99 -141 134l-52 -80l-67 43l36 55q-38 5 -91 5v104q88 0 152 -13l49 76l67 -43l-37 -57q115 -46 171 -158.5t56 -307.5q0 -117 -79 -195q-78 -78 -195 -78t-195 78t-78 195t78 195t195 78zM312 91q72 0 118 48q48 49 48 121t-48 120
q-46 49 -118 49q-70 0 -118 -49q-47 -49 -47 -120t47 -121q48 -48 118 -48z" />
    <glyph glyph-name="ntilde" unicode="&#xf1;" horiz-adv-x="605" 
d="M62 0v520h104v-76q57 89 171 89q90 0 148 -58q59 -59 59 -146v-329h-104v299q0 58 -38 96.5t-96 38.5q-60 0 -100 -39t-40 -97v-298h-104zM229 609h-82q0 47 31 78q32 33 76 33q30 0 59 -21q30 -21 40 -21q13 0 22.5 10.5t9.5 27.5h82q0 -47 -30.5 -79.5t-74.5 -32.5
q-32 0 -60 21q-29 21 -40 21q-13 0 -23 -11t-10 -26z" />
    <glyph glyph-name="ograve" unicode="&#xf2;" horiz-adv-x="625" 
d="M117 65q-78 78 -78 195t78 195t195 78t195 -78q79 -78 79 -195t-79 -195q-78 -78 -195 -78t-195 78zM312 91q72 0 118 48q48 49 48 121t-48 120q-46 49 -118 49q-70 0 -118 -49q-47 -49 -47 -120t47 -121q48 -48 118 -48zM353 594l-206 94l48 93l194 -122z" />
    <glyph glyph-name="oacute" unicode="&#xf3;" horiz-adv-x="625" 
d="M117 65q-78 78 -78 195t78 195t195 78t195 -78q79 -78 79 -195t-79 -195q-78 -78 -195 -78t-195 78zM312 91q72 0 118 48q48 49 48 121t-48 120q-46 49 -118 49q-70 0 -118 -49q-47 -49 -47 -120t47 -121q48 -48 118 -48zM268 594l-36 65l194 122l48 -93z" />
    <glyph glyph-name="ocircumflex" unicode="&#xf4;" horiz-adv-x="625" 
d="M117 65q-78 78 -78 195t78 195t195 78t195 -78q79 -78 79 -195t-79 -195q-78 -78 -195 -78t-195 78zM312 91q72 0 118 48q48 49 48 121t-48 120q-46 49 -118 49q-70 0 -118 -49q-47 -49 -47 -120t47 -121q48 -48 118 -48zM312 672l-127 -78l-44 59l168 124h6l168 -124
l-44 -58z" />
    <glyph glyph-name="otilde" unicode="&#xf5;" horiz-adv-x="625" 
d="M117 65q-78 78 -78 195t78 195t195 78t195 -78q79 -78 79 -195t-79 -195q-78 -78 -195 -78t-195 78zM312 91q72 0 118 48q48 49 48 121t-48 120q-46 49 -118 49q-70 0 -118 -49q-47 -49 -47 -120t47 -121q48 -48 118 -48zM234 609h-82q0 47 31 78q31 33 76 33
q31 0 59 -21t40 -21q13 0 22.5 10.5t9.5 27.5h82q0 -47 -31 -79.5t-75 -32.5q-30 0 -59 21t-40 21q-14 0 -23.5 -10.5t-9.5 -26.5z" />
    <glyph glyph-name="odieresis" unicode="&#xf6;" horiz-adv-x="625" 
d="M117 65q-78 78 -78 195t78 195t195 78t195 -78q79 -78 79 -195t-79 -195q-78 -78 -195 -78t-195 78zM312 91q72 0 118 48q48 49 48 121t-48 120q-46 49 -118 49q-70 0 -118 -49q-47 -49 -47 -120t47 -121q48 -48 118 -48zM160 608q-19 19 -19 47t19 46q19 19 47 19
t47 -19q19 -18 19 -46t-19 -47q-19 -18 -47 -18t-47 18zM417 720q29 0 47.5 -18.5t18.5 -46.5t-18.5 -46.5t-47.5 -18.5q-28 0 -46.5 18.5t-18.5 46.5t18.5 46.5t46.5 18.5z" />
    <glyph glyph-name="divide" unicode="&#xf7;" 
d="M63 302v96h474v-96h-474zM250 103q-19 20 -19 50t19 50q20 20 50 20t50 -20t20 -50t-20 -50q-20 -19 -50 -19t-50 19zM250 497q-19 20 -19 50t19 49q20 20 50 20t50 -20q20 -19 20 -49t-20 -50t-50 -20t-50 20z" />
    <glyph glyph-name="oslash" unicode="&#xf8;" horiz-adv-x="625" 
d="M312 533q66 0 120 -25l18 25l71 -49l-17 -25q82 -79 82 -199q0 -117 -79 -195q-78 -78 -195 -78q-63 0 -120 26l-18 -26l-71 49l18 26q-82 79 -82 198q0 117 78 195t195 78zM440 368l-186 -266q27 -11 58 -11q72 0 118 48q48 49 48 121q0 59 -38 108zM184 153l186 265
q-27 11 -58 11q-70 0 -118 -49q-47 -49 -47 -120q0 -63 37 -107z" />
    <glyph glyph-name="ugrave" unicode="&#xf9;" horiz-adv-x="605" 
d="M269 -13q-91 0 -149 58q-59 59 -59 147v328h104v-299q0 -57 38 -97q40 -38 96 -38q59 0 100 39q40 39 40 97v298h104v-520h-104v74q-60 -87 -170 -87zM379 659l-35 -65l-206 94l47 93z" />
    <glyph glyph-name="uacute" unicode="&#xfa;" horiz-adv-x="605" 
d="M61 192v328h104v-299q0 -57 38 -97q40 -38 96 -38q59 0 100 39q40 39 40 97v298h104v-520h-104v74q-60 -87 -170 -87q-91 0 -149 58q-59 59 -59 147zM464 688l-206 -94l-35 65l193 122z" />
    <glyph glyph-name="ucircumflex" unicode="&#xfb;" horiz-adv-x="605" 
d="M61 192v328h104v-299q0 -57 38 -97q40 -38 96 -38q59 0 100 39q40 39 40 97v298h104v-520h-104v74q-60 -87 -170 -87q-91 0 -149 58q-59 59 -59 147zM302 672l-127 -78l-43 59l167 124h7l167 -124l-43 -58z" />
    <glyph glyph-name="udieresis" unicode="&#xfc;" horiz-adv-x="605" 
d="M61 192v328h104v-299q0 -57 38 -97q40 -38 96 -38q59 0 100 39q40 39 40 97v298h104v-520h-104v74q-60 -87 -170 -87q-91 0 -149 58q-59 59 -59 147zM361 608q-19 19 -19 47t19 46q19 19 47 19t47 -19q19 -18 19 -46t-19 -47q-19 -18 -47 -18t-47 18zM198 590
q-29 0 -47.5 18.5t-18.5 46.5t18.5 46.5t47.5 18.5q27 0 46 -18.5t19 -46.5t-19 -46.5t-46 -18.5z" />
    <glyph glyph-name="yacute" unicode="&#xfd;" horiz-adv-x="539" 
d="M215 13l-203 507h107l148 -378l153 378h107l-245 -599q-31 -76 -81 -111t-128 -35h-22v100h22q46 0 74 19t45 62zM225 594l-36 65l194 122l48 -93z" />
    <glyph glyph-name="thorn" unicode="&#xfe;" horiz-adv-x="634" 
d="M166 -225h-104v975h104v-286q72 69 173 69q109 0 183 -78q73 -77 73 -195t-73 -195q-74 -78 -183 -78q-101 0 -173 69v-281zM327 429q-67 0 -113 -49q-46 -47 -46 -120q0 -72 46 -121q46 -48 113 -48t114 48q46 49 46 121q0 73 -46 120q-46 49 -114 49z" />
    <glyph glyph-name="ydieresis" unicode="&#xff;" horiz-adv-x="539" 
d="M215 13l-203 507h107l148 -378l153 378h107l-245 -599q-31 -76 -81 -111t-128 -35h-22v100h22q46 0 74 19t45 62zM374 720q29 0 48 -18.5t19 -46.5t-19 -46.5t-48 -18.5q-27 0 -46 18.5t-19 46.5t19 46.5t46 18.5zM211 608q-19 -18 -47 -18t-47 18q-19 19 -19 47t19 46
q19 19 47 19t47 -19q19 -18 19 -46t-19 -47z" />
    <glyph glyph-name="Amacron" unicode="&#x100;" horiz-adv-x="724" 
d="M131 0h-118l303 700h91l304 -700h-118l-62 144h-338zM487 248l-125 293l-125 -293h250zM212 787v88h300v-88h-300z" />
    <glyph glyph-name="amacron" unicode="&#x101;" horiz-adv-x="634" 
d="M295 533q101 0 173 -69v56h104v-520h-104v56q-72 -69 -173 -69q-109 0 -183 78q-73 77 -73 195t73 195q74 78 183 78zM306 429q-67 0 -113 -49q-46 -47 -46 -120q0 -72 46 -121q47 -48 113 -48q68 0 114 48q46 49 46 121q0 73 -46 120q-46 49 -114 49zM468 706v-87h-301
v87h301z" />
    <glyph glyph-name="Abreve" unicode="&#x102;" horiz-adv-x="724" 
d="M193 144l-62 -144h-118l303 700h91l304 -700h-118l-62 144h-338zM487 248l-125 293l-125 -293h250zM206 906h83q0 -35 21 -57.5t53 -22.5q31 0 51.5 22.5t20.5 57.5h83q0 -66 -45 -110q-44 -44 -111 -44q-66 0 -112 44q-44 44 -44 110z" />
    <glyph glyph-name="abreve" unicode="&#x103;" horiz-adv-x="634" 
d="M295 -13q-109 0 -183 78q-73 77 -73 195t73 195q74 78 183 78q101 0 173 -69v56h104v-520h-104v56q-72 -69 -173 -69zM306 91q68 0 114 48q46 49 46 121q0 73 -46 120q-46 49 -114 49q-67 0 -113 -49q-46 -47 -46 -120q0 -72 46 -121q47 -48 113 -48zM161 738h83
q0 -34 21 -57t53 -23t52 22.5t20 57.5h83q0 -66 -45 -111q-44 -44 -111 -44q-66 0 -112 44q-44 46 -44 111z" />
    <glyph glyph-name="Aogonek" unicode="&#x104;" horiz-adv-x="724" 
d="M131 0h-118l303 700h91l304 -700h-15l-17 -15q-11 -11 -27 -36t-16 -47q0 -17 11 -27.5t27 -10.5q26 0 46 18l6 7l37 -44q-5 -7 -15 -14q-10 -10 -38 -23q-28 -15 -58 -15q-42 0 -70 25.5t-28 63.5q0 26 15 55.5t33 46.5l15 16h-24l-62 144h-338zM487 248l-125 293
l-125 -293h250z" />
    <glyph glyph-name="aogonek" unicode="&#x105;" horiz-adv-x="634" 
d="M295 -13q-109 0 -183 78q-73 77 -73 195t73 195q74 78 183 78q101 0 173 -69v56h104v-520h-13q-53 -44 -59 -89q-1 -2 -1 -9q0 -17 11 -27.5t27 -10.5q27 0 45 18l7 7l37 -44q-5 -7 -15 -14q-10 -10 -38 -23q-29 -15 -58 -15q-42 0 -70 25.5t-28 63.5q0 26 15 55.5
t32 46.5l16 16h-12v56q-72 -69 -173 -69zM306 91q68 0 114 48q46 49 46 121q0 73 -46 120q-46 49 -114 49q-67 0 -113 -49q-46 -47 -46 -120q0 -72 46 -121q47 -48 113 -48z" />
    <glyph glyph-name="Cacute" unicode="&#x106;" horiz-adv-x="770" 
d="M408 713q105 0 190.5 -51t131.5 -139l-109 -40q-33 57 -89 89.5t-124 32.5q-106 0 -176 -73q-71 -74 -71 -182t71 -182q70 -73 176 -73q68 0 124 32.5t89 89.5l109 -40q-46 -88 -131.5 -139t-190.5 -51q-155 0 -259 104t-104 259t104 259t259 104zM360 763l-36 64
l194 123l48 -94z" />
    <glyph glyph-name="cacute" unicode="&#x107;" horiz-adv-x="594" 
d="M565 369l-105 -31q-20 42 -59 66.5t-89 24.5q-70 0 -118 -49q-47 -49 -47 -120t47 -121q48 -48 118 -48q50 0 89 24.5t59 66.5l105 -31q-31 -75 -98.5 -119.5t-154.5 -44.5q-117 0 -195 78t-78 195t78 195t195 78q87 0 154.5 -44.5t98.5 -119.5zM267 594l-35 65l194 122
l48 -93z" />
    <glyph glyph-name="Ccircumflex" unicode="&#x108;" horiz-adv-x="770" 
d="M408 713q105 0 190.5 -51t131.5 -139l-109 -40q-33 57 -89 89.5t-124 32.5q-106 0 -176 -73q-71 -74 -71 -182t71 -182q70 -73 176 -73q68 0 124 32.5t89 89.5l109 -40q-46 -88 -131.5 -139t-190.5 -51q-155 0 -259 104t-104 259t104 259t259 104zM404 841l-127 -79
l-44 59l168 125h6l168 -125l-44 -58z" />
    <glyph glyph-name="ccircumflex" unicode="&#x109;" horiz-adv-x="594" 
d="M565 369l-105 -31q-20 42 -59 66.5t-89 24.5q-70 0 -118 -49q-47 -49 -47 -120t47 -121q48 -48 118 -48q50 0 89 24.5t59 66.5l105 -31q-31 -75 -98.5 -119.5t-154.5 -44.5q-117 0 -195 78t-78 195t78 195t195 78q87 0 154.5 -44.5t98.5 -119.5zM312 672l-127 -78l-44 59
l168 124h6l168 -124l-44 -58z" />
    <glyph glyph-name="Cdotaccent" unicode="&#x10a;" horiz-adv-x="770" 
d="M408 713q105 0 190.5 -51t131.5 -139l-109 -40q-33 57 -89 89.5t-124 32.5q-106 0 -176 -73q-71 -74 -71 -182t71 -182q70 -73 176 -73q68 0 124 32.5t89 89.5l109 -40q-46 -88 -131.5 -139t-190.5 -51q-155 0 -259 104t-104 259t104 259t259 104zM336 828
q0 29 19.5 48.5t48.5 19.5q30 0 49.5 -19.5t19.5 -48.5q0 -30 -19.5 -49.5t-49.5 -19.5q-29 0 -48.5 19.5t-19.5 49.5z" />
    <glyph glyph-name="cdotaccent" unicode="&#x10b;" horiz-adv-x="594" 
d="M565 369l-105 -31q-20 42 -59 66.5t-89 24.5q-70 0 -118 -49q-47 -49 -47 -120t47 -121q48 -48 118 -48q50 0 89 24.5t59 66.5l105 -31q-31 -75 -98.5 -119.5t-154.5 -44.5q-117 0 -195 78t-78 195t78 195t195 78q87 0 154.5 -44.5t98.5 -119.5zM244 659q0 30 19.5 49.5
t48.5 19.5t49 -19.5t20 -49.5q0 -29 -20 -48.5t-49 -19.5t-48.5 19.5t-19.5 48.5z" />
    <glyph glyph-name="Ccaron" unicode="&#x10c;" horiz-adv-x="770" 
d="M408 713q105 0 190.5 -51t131.5 -139l-109 -40q-33 57 -89 89.5t-124 32.5q-106 0 -176 -73q-71 -74 -71 -182t71 -182q70 -73 176 -73q68 0 124 32.5t89 89.5l109 -40q-46 -88 -131.5 -139t-190.5 -51q-155 0 -259 104t-104 259t104 259t259 104zM404 868l127 77l44 -58
l-168 -124h-6l-168 124l44 59z" />
    <glyph glyph-name="ccaron" unicode="&#x10d;" horiz-adv-x="594" 
d="M565 369l-105 -31q-20 42 -59 66.5t-89 24.5q-70 0 -118 -49q-47 -49 -47 -120t47 -121q48 -48 118 -48q50 0 89 24.5t59 66.5l105 -31q-31 -75 -98.5 -119.5t-154.5 -44.5q-117 0 -195 78t-78 195t78 195t195 78q87 0 154.5 -44.5t98.5 -119.5zM312 699l127 78l44 -58
l-168 -125h-6l-168 125l44 59z" />
    <glyph glyph-name="Dcaron" unicode="&#x10e;" horiz-adv-x="756" 
d="M348 0h-280v700h280q155 0 259 -101q105 -101 105 -249t-105 -249q-104 -101 -259 -101zM348 596h-168v-492h168q105 0 176 71t71 175t-71 175t-176 71zM260 763l-168 124l44 59l127 -78l127 77l44 -58l-168 -124h-6z" />
    <glyph glyph-name="dcaron" unicode="&#x10f;" horiz-adv-x="760" 
d="M295 533q105 0 173 -75v292h104v-750h-104v62q-68 -75 -173 -75q-109 0 -183 78q-73 77 -73 195t73 195q74 78 183 78zM630 708q0 23 16 39t41 16q27 0 45 -20.5t18 -53.5q0 -75 -88 -124l-1 -1l-27 29l12 10q10 7 21 22.5t11 25.5q-20 3 -34 19t-14 38zM421 380
q-46 49 -114 49t-114 -49q-46 -47 -46 -120q0 -72 46 -121q47 -48 114 -48t114 48q47 50 47 121t-47 120z" />
    <glyph glyph-name="Dcroat" unicode="&#x110;" horiz-adv-x="773" 
d="M10 302v96h75v302h280q155 0 259 -101t104 -249t-104 -249t-259 -101h-280v302h-75zM197 596v-198h201v-96h-201v-198h168q105 0 176 71t71 175t-71 175t-176 71h-168z" />
    <glyph glyph-name="dslash" unicode="&#x111;" horiz-adv-x="634" 
d="M295 533q101 0 173 -69v122h-182v79h182v85h104v-85h54v-79h-54v-586h-104v56q-72 -69 -173 -69q-109 0 -183 78q-73 77 -73 195t73 195q74 78 183 78zM306 429q-67 0 -113 -49q-46 -47 -46 -120q0 -72 46 -121q47 -48 113 -48q68 0 114 48q46 49 46 121q0 73 -46 120
q-46 49 -114 49z" />
    <glyph glyph-name="Emacron" unicode="&#x112;" horiz-adv-x="620" 
d="M68 700h510v-104h-398v-190h345v-104h-345v-198h403v-104h-515v700zM171 787v88h300v-88h-300z" />
    <glyph glyph-name="emacron" unicode="&#x113;" horiz-adv-x="610" 
d="M578 222h-432q12 -61 59.5 -99.5t112.5 -38.5q88 0 138 65l102 -31q-36 -61 -99.5 -96t-140.5 -35q-120 0 -199 78q-80 78 -80 195q0 116 77 195q78 78 194 78t192 -78q78 -78 78 -195q0 -4 -2 -38zM147 305h326q-14 58 -60 94.5t-106 36.5q-57 0 -101.5 -36.5
t-58.5 -94.5zM461 619h-300v87h300v-87z" />
    <glyph glyph-name="Ebreve" unicode="&#x114;" horiz-adv-x="620" 
d="M583 0h-515v700h510v-104h-398v-190h345v-104h-345v-198h403v-104zM165 906h83q0 -35 21 -57.5t53 -22.5q31 0 51.5 22.5t20.5 57.5h83q0 -66 -45 -110q-44 -44 -111 -44q-66 0 -112 44q-44 44 -44 110z" />
    <glyph glyph-name="ebreve" unicode="&#x115;" horiz-adv-x="610" 
d="M578 222h-432q12 -61 59.5 -99.5t112.5 -38.5q88 0 138 65l102 -31q-36 -61 -99.5 -96t-140.5 -35q-120 0 -199 78q-80 78 -80 195q0 116 77 195q78 78 194 78t192 -78q78 -78 78 -195q0 -4 -2 -38zM147 305h326q-14 58 -60 94.5t-106 36.5q-57 0 -101.5 -36.5
t-58.5 -94.5zM155 738h83q0 -35 21 -57.5t53 -22.5q31 0 51.5 22.5t20.5 57.5h83q0 -66 -45 -111q-44 -44 -111 -44q-66 0 -112 44q-44 46 -44 111z" />
    <glyph glyph-name="Edotaccent" unicode="&#x116;" horiz-adv-x="620" 
d="M68 700h510v-104h-398v-190h345v-104h-345v-198h403v-104h-515v700zM252 828q0 29 19.5 48.5t49.5 19.5q29 0 48.5 -19.5t19.5 -48.5q0 -30 -19.5 -49.5t-48.5 -19.5q-30 0 -49.5 19.5t-19.5 49.5z" />
    <glyph glyph-name="edotaccent" unicode="&#x117;" horiz-adv-x="610" 
d="M578 222h-432q12 -61 59.5 -99.5t112.5 -38.5q88 0 138 65l102 -31q-36 -61 -99.5 -96t-140.5 -35q-120 0 -199 78q-80 78 -80 195q0 116 77 195q78 78 194 78t192 -78q78 -78 78 -195q0 -4 -2 -38zM147 305h326q-14 58 -60 94.5t-106 36.5q-57 0 -101.5 -36.5
t-58.5 -94.5zM242 659q0 30 19.5 49.5t49.5 19.5q29 0 48.5 -19.5t19.5 -49.5q0 -29 -19.5 -48.5t-48.5 -19.5q-30 0 -49.5 19.5t-19.5 48.5z" />
    <glyph glyph-name="Eogonek" unicode="&#x118;" horiz-adv-x="620" 
d="M476 0h-408v700h510v-104h-398v-190h345v-104h-345v-198h403v-104h-28l-17 -15q-10 -11 -27 -36q-16 -25 -16 -47q0 -17 11 -27.5t27 -10.5q27 0 45 18l7 7l37 -44q-5 -7 -15 -14q-9 -10 -38 -23q-29 -15 -58 -15q-42 0 -70 25.5t-28 63.5q0 26 15 55.5t32 46.5z" />
    <glyph glyph-name="eogonek" unicode="&#x119;" horiz-adv-x="610" 
d="M39 260q0 116 77 195q78 78 194 78t192 -78q78 -78 78 -195q0 -4 -2 -38h-432q12 -61 59.5 -99.5t112.5 -38.5q88 0 138 65l102 -31q-62 -103 -180 -125q-53 -50 -53 -91q0 -17 11 -27.5t27 -10.5q27 0 45 18l7 7l37 -44q-5 -7 -15 -14q-10 -10 -38 -23q-29 -15 -58 -15
q-41 0 -69 25.5t-28 63.5q0 52 51 106q-110 7 -184 84q-72 76 -72 188zM307 436q-57 0 -101.5 -36.5t-58.5 -94.5h326q-14 58 -60 94.5t-106 36.5z" />
    <glyph glyph-name="Ecaron" unicode="&#x11a;" horiz-adv-x="620" 
d="M68 700h510v-104h-398v-190h345v-104h-345v-198h403v-104h-515v700zM317 763l-168 124l44 59l127 -78l127 77l44 -58l-167 -124h-7z" />
    <glyph glyph-name="ecaron" unicode="&#x11b;" horiz-adv-x="610" 
d="M578 222h-432q12 -61 59.5 -99.5t112.5 -38.5q88 0 138 65l102 -31q-36 -61 -99.5 -96t-140.5 -35q-120 0 -199 78q-80 78 -80 195q0 116 77 195q78 78 194 78t192 -78q78 -78 78 -195q0 -4 -2 -38zM147 305h326q-14 58 -60 94.5t-106 36.5q-57 0 -101.5 -36.5
t-58.5 -94.5zM310 699l127 78l44 -58l-167 -125h-7l-167 125l43 59z" />
    <glyph glyph-name="Gcircumflex" unicode="&#x11c;" horiz-adv-x="811" 
d="M414 713q107 0 193.5 -51t132.5 -139l-109 -40q-32 57 -90 89.5t-127 32.5q-108 0 -181 -73q-72 -74 -72 -182q0 -109 70 -182t172 -73q83 0 150 50q65 49 85 130h-248v104h375q2 -26 2 -32q-2 -154 -105 -257t-256 -103q-154 0 -258 104q-103 103 -103 259t105 259
q107 104 264 104zM404 841l-127 -79l-44 59l168 125h6l168 -125l-44 -58z" />
    <glyph glyph-name="gcircumflex" unicode="&#x11d;" horiz-adv-x="634" 
d="M295 533q101 0 173 -69v56h104v-502q0 -109 -76 -182q-76 -74 -184 -74q-80 0 -150 41q-68 40 -97 105l105 31q17 -32 55 -52.5t83 -20.5q67 0 114 44q46 43 46 108v38q-72 -69 -173 -69q-109 0 -183 78q-73 77 -73 195t73 195q74 78 183 78zM306 429q-67 0 -113 -49
q-46 -47 -46 -120q0 -72 46 -121q47 -48 113 -48q68 0 114 48q46 49 46 121q0 73 -46 120q-46 49 -114 49zM308 672l-127 -78l-44 59l168 124h6l167 -124l-43 -58z" />
    <glyph glyph-name="Gbreve" unicode="&#x11e;" horiz-adv-x="811" 
d="M414 713q107 0 193.5 -51t132.5 -139l-109 -40q-32 57 -90 89.5t-127 32.5q-108 0 -181 -73q-72 -74 -72 -182q0 -109 70 -182t172 -73q83 0 150 50q65 49 85 130h-248v104h375q2 -26 2 -32q-2 -154 -105 -257t-256 -103q-154 0 -258 104q-103 103 -103 259t105 259
q107 104 264 104zM248 906h83q0 -34 21 -57t53 -23t52.5 22.5t20.5 57.5h83q0 -66 -45 -110q-46 -44 -112 -44t-112 44q-44 44 -44 110z" />
    <glyph glyph-name="gbreve" unicode="&#x11f;" horiz-adv-x="634" 
d="M295 -13q-109 0 -183 78q-73 77 -73 195t73 195q74 78 183 78q101 0 173 -69v56h104v-502q0 -109 -76 -182q-76 -74 -184 -74q-80 0 -150 41q-68 40 -97 105l105 31q17 -32 55 -52.5t83 -20.5q67 0 114 44q46 43 46 108v38q-72 -69 -173 -69zM306 429q-67 0 -113 -49
q-46 -47 -46 -120q0 -72 46 -121q47 -48 113 -48q68 0 114 48q46 49 46 121q0 73 -46 120q-46 49 -114 49zM152 738h83q0 -34 21 -57t53 -23q31 0 51.5 22.5t20.5 57.5h83q0 -66 -45 -111q-44 -44 -111 -44q-66 0 -112 44q-44 46 -44 111z" />
    <glyph glyph-name="Gdotaccent" unicode="&#x120;" horiz-adv-x="811" 
d="M414 713q107 0 193.5 -51t132.5 -139l-109 -40q-32 57 -90 89.5t-127 32.5q-108 0 -181 -73q-72 -74 -72 -182q0 -109 70 -182t172 -73q83 0 150 50q65 49 85 130h-248v104h375q2 -26 2 -32q-2 -154 -105 -257t-256 -103q-154 0 -258 104q-103 103 -103 259t105 259
q107 104 264 104zM336 828q0 29 19.5 48.5t48.5 19.5q30 0 49.5 -19.5t19.5 -48.5q0 -30 -19.5 -49.5t-49.5 -19.5q-29 0 -48.5 19.5t-19.5 49.5z" />
    <glyph glyph-name="gdotaccent" unicode="&#x121;" horiz-adv-x="634" 
d="M295 533q101 0 173 -69v56h104v-502q0 -109 -76 -182q-76 -74 -184 -74q-80 0 -150 41q-68 40 -97 105l105 31q17 -32 55 -52.5t83 -20.5q67 0 114 44q46 43 46 108v38q-72 -69 -173 -69q-109 0 -183 78q-73 77 -73 195t73 195q74 78 183 78zM306 429q-67 0 -113 -49
q-46 -47 -46 -120q0 -72 46 -121q47 -48 113 -48q68 0 114 48q46 49 46 121q0 73 -46 120q-46 49 -114 49zM239 659q0 30 20 49.5t49 19.5t49 -19.5t20 -49.5q0 -29 -20 -48.5t-49 -19.5t-49 19.5t-20 48.5z" />
    <glyph glyph-name="uni0122" unicode="&#x122;" horiz-adv-x="811" 
d="M414 713q107 0 193.5 -51t132.5 -139l-109 -40q-32 57 -90 89.5t-127 32.5q-108 0 -181 -73q-72 -74 -72 -182q0 -109 70 -182t172 -73q83 0 150 50q65 49 85 130h-248v104h375q2 -26 2 -32q-2 -154 -105 -257t-256 -103q-154 0 -258 104q-103 103 -103 259t105 259
q107 104 264 104zM481 -129q0 -72 -89 -125l-27 28l12 11q9 7 20.5 22.5t11.5 24.5q-20 3 -34 19t-14 38q0 24 16 40t41 16q27 0 45 -20.5t18 -53.5z" />
    <glyph glyph-name="uni0123" unicode="&#x123;" horiz-adv-x="634" 
d="M295 -13q-109 0 -183 78q-73 77 -73 195t73 195q74 78 183 78q101 0 173 -69v56h104v-502q0 -109 -76 -182q-76 -74 -184 -74q-80 0 -150 41q-68 40 -97 105l105 31q17 -32 55 -52.5t83 -20.5q67 0 114 44q46 43 46 108v38q-72 -69 -173 -69zM306 429q-67 0 -113 -49
q-46 -47 -46 -120q0 -72 46 -121q47 -48 113 -48q68 0 114 48q46 49 46 121q0 73 -46 120q-46 49 -114 49zM246 655q0 22 9 43t21.5 35t26 25t22 16t10.5 6l27 -28q-2 -2 -6.5 -5.5t-6.5 -4.5q-31 -28 -31 -48q20 -3 34 -19t14 -38q0 -23 -16 -39.5t-41 -16.5
q-27 0 -45 20.5t-18 53.5z" />
    <glyph glyph-name="Hcircumflex" unicode="&#x124;" horiz-adv-x="740" 
d="M180 0h-112v700h112v-294h379v294h113v-700h-113v302h-379v-302zM242 762l-43 59l167 125h7l167 -125l-43 -58l-128 78z" />
    <glyph glyph-name="hcircumflex" unicode="&#x125;" horiz-adv-x="612" 
d="M166 298v-298h-104v750h104v-306q59 89 174 89q92 0 151 -58q60 -59 60 -146v-329h-104v299q0 59 -39 96q-39 39 -98 39q-61 0 -103 -39q-41 -39 -41 -97zM116 882l-127 -78l-44 59l168 124h7l167 -124l-44 -58z" />
    <glyph glyph-name="Hbar" unicode="&#x126;" horiz-adv-x="756" 
d="M672 700v-105h74v-95h-74v-500h-113v302h-379v-302h-112v500h-58v95h58v105h112v-105h379v105h113zM559 406v94h-379v-94h379z" />
    <glyph glyph-name="hbar" unicode="&#x127;" horiz-adv-x="612" 
d="M166 750v-85h181v-79h-181v-142q59 89 174 89q92 0 151 -58q60 -59 60 -146v-329h-104v299q0 59 -39 96q-39 39 -98 39q-61 0 -103 -39q-41 -39 -41 -97v-298h-104v586h-55v79h55v85h104z" />
    <glyph glyph-name="Itilde" unicode="&#x128;" horiz-adv-x="248" 
d="M180 0h-112v700h112v-700zM46 778h-82q0 46 32 78q32 33 75 33q31 0 59 -21t40 -21q13 0 22.5 10.5t9.5 26.5h82q0 -47 -31 -79q-32 -32 -75 -32q-30 0 -59 21q-28 21 -40 21q-14 0 -23.5 -10.5t-9.5 -26.5z" />
    <glyph glyph-name="itilde" unicode="&#x129;" horiz-adv-x="236" 
d="M170 0h-104v520h104v-520zM40 609h-82q0 46 32 78q32 33 75 33q31 0 59 -21t40 -21q13 0 22.5 10.5t9.5 27.5h82q0 -47 -31 -79.5t-75 -32.5q-30 0 -59 21q-28 21 -40 21q-14 0 -23.5 -10.5t-9.5 -26.5z" />
    <glyph glyph-name="Imacron" unicode="&#x12a;" horiz-adv-x="248" 
d="M180 0h-112v700h112v-700zM274 787h-300v88h300v-88z" />
    <glyph glyph-name="imacron" unicode="&#x12b;" horiz-adv-x="228" 
d="M166 0h-104v520h104v-520zM-36 619v87h300v-87h-300z" />
    <glyph glyph-name="Ibreve" unicode="&#x12c;" horiz-adv-x="248" 
d="M180 0h-112v700h112v-700zM-32 906h83q0 -34 21 -57t53 -23q31 0 51.5 22.5t20.5 57.5h83q0 -66 -45 -110q-44 -44 -111 -44q-66 0 -112 44q-44 44 -44 110z" />
    <glyph glyph-name="ibreve" unicode="&#x12d;" horiz-adv-x="228" 
d="M166 0h-104v520h104v-520zM-42 738h83q0 -34 21 -57t53 -23q31 0 51.5 22.5t20.5 57.5h83q0 -66 -45 -111q-44 -44 -111 -44q-66 0 -112 44q-44 46 -44 111z" />
    <glyph glyph-name="Iogonek" unicode="&#x12e;" horiz-adv-x="248" 
d="M28 -118q0 26 15 55.5t32 46.5l16 16h-23v700h112v-700h-10l-17 -15q-11 -11 -27 -36q-17 -26 -17 -47q0 -35 33 -38q35 0 57 25l37 -44q-5 -7 -15 -14q-10 -10 -38 -23q-28 -15 -58 -15q-41 0 -69 25.5t-28 63.5z" />
    <glyph glyph-name="iogonek" unicode="&#x12f;" horiz-adv-x="228" 
d="M116 -207q-42 0 -69.5 25.5t-27.5 63.5q0 26 15 55.5t32 46.5l16 16h-20v520h104v-520h-6l-17 -15q-11 -11 -27 -36t-16 -47q0 -17 11 -27.5t27 -10.5q26 0 46 18l6 7l37 -44q-5 -7 -15 -14q-10 -10 -38 -23q-29 -15 -58 -15zM114 715q27 0 46 -17t22 -43q1 -2 1 -9
q2 -29 -20 -49.5t-49 -20t-49 20.5q-31 29 -13 75t62 43z" />
    <glyph glyph-name="Idot" unicode="&#x130;" horiz-adv-x="248" 
d="M180 0h-112v700h112v-700zM56 828q0 29 19.5 48.5t48.5 19.5t49 -19.5t20 -48.5q0 -30 -20 -49.5t-49 -19.5t-48.5 19.5t-19.5 49.5z" />
    <glyph glyph-name="dotlessi" unicode="&#x131;" horiz-adv-x="228" 
d="M166 0h-104v520h104v-520z" />
    <glyph glyph-name="IJ" unicode="&#x132;" horiz-adv-x="836" 
d="M180 0h-112v700h112v-700zM776 700v-447q0 -114 -79 -190q-77 -76 -196 -76q-74 0 -135.5 32t-97.5 89l94 60q20 -36 58 -56.5t83 -20.5q71 0 117 46q48 46 48 116v447h108z" />
    <glyph glyph-name="ij" unicode="&#x133;" horiz-adv-x="463" 
d="M166 0h-104v520h104v-520zM65 597q-19 20 -19 49t19 49q20 20 49 20t49 -20t20 -49t-20 -49t-49 -20t-49 20zM297 520h104v-586q0 -68 -48 -113q-46 -46 -117 -46h-44v100h36q29 0 49 21t20 52v572zM300 597q-19 20 -19 49t19 49q20 20 49 20t49 -20t20 -49t-20 -49
t-49 -20t-49 20z" />
    <glyph glyph-name="Jcircumflex" unicode="&#x134;" horiz-adv-x="588" 
d="M528 700v-447q0 -114 -79 -190q-77 -76 -196 -76q-74 0 -135.5 32t-97.5 89l93 60q21 -36 58.5 -56.5t83.5 -20.5q71 0 117 46q48 47 48 116v447h108zM470 841l-127 -79l-44 59l168 125h6l167 -125l-43 -58z" />
    <glyph glyph-name="jcircumflex" unicode="&#x135;" horiz-adv-x="235" 
d="M69 520h104v-586q0 -68 -48 -113q-47 -46 -118 -46h-44v100h36q30 0 50 21t20 52v572zM121 672l-127 -78l-44 59l168 124h6l168 -124l-44 -58z" />
    <glyph glyph-name="uni0136" unicode="&#x136;" horiz-adv-x="649" 
d="M68 0v700h112v-335l293 335h143l-299 -342l319 -358h-143l-313 351v-351h-112zM323 -168q-21 3 -35 19.5t-14 37.5q0 24 16.5 40t41.5 16q27 0 44.5 -20.5t17.5 -53.5q0 -31 -18 -59.5t-33.5 -40.5t-30.5 -21l-6 -4l-28 28q45 34 45 58z" />
    <glyph glyph-name="uni0137" unicode="&#x137;" horiz-adv-x="525" 
d="M166 0h-104v750h104v-470l196 240h127l-204 -251l226 -269h-128l-217 258v-258zM214 -111q0 24 16 40t41 16q27 0 45 -20.5t18 -53.5q0 -72 -89 -125l-27 28l12 11q9 7 20.5 22.5t11.5 24.5q-20 3 -34 19t-14 38z" />
    <glyph glyph-name="Lacute" unicode="&#x139;" horiz-adv-x="573" 
d="M546 0h-478v700h112v-596h366v-104zM42 827l194 123l48 -94l-206 -93z" />
    <glyph glyph-name="lacute" unicode="&#x13a;" horiz-adv-x="228" 
d="M166 0h-104v750h104v-750zM70 804l-36 65l194 122l48 -93z" />
    <glyph glyph-name="uni013B" unicode="&#x13b;" horiz-adv-x="573" 
d="M68 0v700h112v-596h366v-104h-478zM255 -111q0 24 16 40t41 16q27 0 45 -20.5t18 -53.5q0 -72 -89 -125l-27 28l12 11q9 7 20.5 22.5t11.5 24.5q-20 3 -34 19t-14 38z" />
    <glyph glyph-name="uni013C" unicode="&#x13c;" horiz-adv-x="228" 
d="M166 0h-104v750h104v-750zM175 -129q0 -70 -83 -121l-6 -4l-27 28l12 11q9 7 20.5 22.5t11.5 24.5q-20 3 -34 19t-14 38q0 24 16 40t41 16q27 0 45 -20.5t18 -53.5z" />
    <glyph glyph-name="Lcaron" unicode="&#x13d;" horiz-adv-x="573" 
d="M68 0v700h112v-596h366v-104h-478zM312 658q0 23 16.5 39t40.5 16q28 0 45.5 -20.5t17.5 -53.5q0 -75 -88 -124l-1 -1l-27 29l12 10q10 7 21 22.5t11 25.5q-20 3 -34 19t-14 38z" />
    <glyph glyph-name="lcaron" unicode="&#x13e;" horiz-adv-x="354" 
d="M166 0h-104v750h104v-750zM224 708q0 23 16.5 39t41.5 16q27 0 44.5 -20.5t17.5 -53.5q0 -31 -18 -59.5t-33.5 -40.5t-30.5 -21l-6 -4l-28 29l12 10q10 7 21.5 22.5t11.5 25.5q-21 3 -35 19.5t-14 37.5z" />
    <glyph glyph-name="Ldot" unicode="&#x13f;" horiz-adv-x="573" 
d="M68 0v700h112v-596h366v-104h-478zM460 300q-19 -19 -49 -19t-50 19q-20 20 -20 50t20 50t50 20t49 -20q20 -20 20 -50t-20 -50z" />
    <glyph glyph-name="ldot" unicode="&#x140;" horiz-adv-x="449" 
d="M166 0h-104v750h104v-750zM339 420q29 0 49 -20t20 -50t-20 -49.5t-49 -19.5q-30 0 -50 19.5t-20 49.5t20 50t50 20z" />
    <glyph glyph-name="Lslash" unicode="&#x141;" horiz-adv-x="605" 
d="M100 225l-41 -25l-48 82l89 54v364h112v-295l125 76l48 -82l-173 -106v-189h366v-104h-478v225z" />
    <glyph glyph-name="lslash" unicode="&#x142;" horiz-adv-x="228" 
d="M166 750v-327l62 36v-91l-62 -36v-332h-104v273l-62 -36v91l62 36v386h104z" />
    <glyph glyph-name="Nacute" unicode="&#x143;" horiz-adv-x="744" 
d="M68 0v700h99l401 -507v507h108v-700h-99l-401 507v-507h-108zM534 856l-206 -93l-36 64l194 123z" />
    <glyph glyph-name="nacute" unicode="&#x144;" horiz-adv-x="605" 
d="M166 298v-298h-104v520h104v-76q57 89 171 89q90 0 148 -58q59 -59 59 -146v-329h-104v299q0 58 -38 96.5t-96 38.5q-60 0 -100 -39t-40 -97zM469 688l-206 -94l-35 65l193 122z" />
    <glyph glyph-name="uni0145" unicode="&#x145;" horiz-adv-x="744" 
d="M176 0h-108v700h99l401 -507v507h108v-700h-99l-401 507v-507zM367 -168q-20 3 -34 19t-14 38q0 24 16 40t41 16q27 0 45 -20.5t18 -53.5q0 -72 -89 -125l-27 28l12 11q9 7 20.5 22.5t11.5 24.5z" />
    <glyph glyph-name="uni0146" unicode="&#x146;" horiz-adv-x="605" 
d="M166 0h-104v520h104v-76q57 89 171 89q90 0 148 -58q59 -59 59 -146v-329h-104v299q0 58 -38 96.5t-96 38.5q-60 0 -100 -39t-40 -97v-298zM301 -168q-20 3 -34 19t-14 38q0 24 16 40t41 16q27 0 45 -20.5t18 -53.5q0 -72 -89 -125l-27 28l12 11q9 7 20.5 22.5t11.5 24.5
z" />
    <glyph glyph-name="Ncaron" unicode="&#x147;" horiz-adv-x="744" 
d="M176 0h-108v700h99l401 -507v507h108v-700h-99l-401 507v-507zM369 763l-168 124l44 59l127 -78l127 77l44 -58l-168 -124h-6z" />
    <glyph glyph-name="ncaron" unicode="&#x148;" horiz-adv-x="605" 
d="M62 0v520h104v-76q57 89 171 89q90 0 148 -58q59 -59 59 -146v-329h-104v299q0 58 -38 96.5t-96 38.5q-60 0 -100 -39t-40 -97v-298h-104zM311 594h-7l-167 125l43 59l127 -79l128 78l43 -58z" />
    <glyph glyph-name="Eng" unicode="&#x14a;" horiz-adv-x="744" 
d="M568 700h108v-672q0 -114 -79 -190q-77 -76 -196 -76l1 104q66 0 112 42q47 41 53 105l-391 493v-506h-108v700h99l401 -507v507z" />
    <glyph glyph-name="eng" unicode="&#x14b;" horiz-adv-x="605" 
d="M62 0v520h104v-76q57 89 171 89q90 0 148 -58q59 -59 59 -146v-395q0 -68 -48 -113q-46 -46 -118 -46h-43v100h36q29 0 49 21t20 52v351q0 58 -38 96.5t-96 38.5q-60 0 -100 -39t-40 -97v-298h-104z" />
    <glyph glyph-name="Omacron" unicode="&#x14c;" horiz-adv-x="816" 
d="M149 91q-104 104 -104 259t104 259t259 104t259 -104q105 -103 105 -259t-105 -259q-104 -104 -259 -104t-259 104zM408 95q106 0 176 73q71 74 71 182t-71 182q-70 73 -176 73t-176 -73q-71 -74 -71 -182t71 -182q70 -73 176 -73zM558 787h-300v88h300v-88z" />
    <glyph glyph-name="omacron" unicode="&#x14d;" horiz-adv-x="625" 
d="M117 65q-78 78 -78 195t78 195t195 78t195 -78q79 -78 79 -195t-79 -195q-78 -78 -195 -78t-195 78zM312 91q72 0 118 48q48 49 48 121t-48 120q-46 49 -118 49q-70 0 -118 -49q-47 -49 -47 -120t47 -121q48 -48 118 -48zM463 619h-301v87h301v-87z" />
    <glyph glyph-name="Obreve" unicode="&#x14e;" horiz-adv-x="816" 
d="M149 91q-104 104 -104 259t104 259t259 104t259 -104q105 -103 105 -259t-105 -259q-104 -104 -259 -104t-259 104zM408 95q106 0 176 73q71 74 71 182t-71 182q-70 73 -176 73t-176 -73q-71 -74 -71 -182t71 -182q70 -73 176 -73zM252 906h83q0 -34 21 -57t53 -23
q31 0 51.5 22.5t20.5 57.5h83q0 -66 -45 -110q-44 -44 -111 -44q-66 0 -112 44q-44 44 -44 110z" />
    <glyph glyph-name="obreve" unicode="&#x14f;" horiz-adv-x="625" 
d="M117 65q-78 78 -78 195t78 195t195 78t195 -78q79 -78 79 -195t-79 -195q-78 -78 -195 -78t-195 78zM312 91q72 0 118 48q48 49 48 121t-48 120q-46 49 -118 49q-70 0 -118 -49q-47 -49 -47 -120t47 -121q48 -48 118 -48zM156 738h83q0 -34 21 -57t53 -23t52.5 22.5
t20.5 57.5h83q0 -66 -45 -111q-46 -44 -112 -44t-112 44q-44 46 -44 111z" />
    <glyph glyph-name="Ohungarumlaut" unicode="&#x150;" horiz-adv-x="816" 
d="M149 91q-104 104 -104 259t104 259t259 104t259 -104q105 -103 105 -259t-105 -259q-104 -104 -259 -104t-259 104zM408 95q106 0 176 73q71 74 71 182t-71 182q-70 73 -176 73t-176 -73q-71 -74 -71 -182t71 -182q70 -73 176 -73zM312 750l-53 51l139 163l73 -75z
M508 750l-53 51l139 163l73 -75z" />
    <glyph glyph-name="ohungarumlaut" unicode="&#x151;" horiz-adv-x="625" 
d="M117 65q-78 78 -78 195t78 195t195 78t195 -78q79 -78 79 -195t-79 -195q-78 -78 -195 -78t-195 78zM312 91q72 0 118 48q48 49 48 121t-48 120q-46 49 -118 49q-70 0 -118 -49q-47 -49 -47 -120t47 -121q48 -48 118 -48zM216 581l-53 51l139 164l74 -75zM412 581l-53 51
l139 164l74 -75z" />
    <glyph glyph-name="OE" unicode="&#x152;" horiz-adv-x="1211" 
d="M408 -13q-155 0 -259 104t-104 259t104 259t259 104q152 0 256 -100v87h506v-104h-393v-190h339v-104h-339v-198h398v-104h-511v87q-104 -100 -256 -100zM408 95q106 0 176 73q71 74 71 182t-71 182q-70 73 -176 73t-176 -73q-71 -74 -71 -182t71 -182q70 -73 176 -73z
" />
    <glyph glyph-name="oe" unicode="&#x153;" horiz-adv-x="1048" 
d="M312 533q69 0 126.5 -28t94.5 -79q36 50 93.5 78.5t124.5 28.5q115 0 191 -78q77 -79 77 -195q0 -19 -3 -38h-431q12 -61 59.5 -99.5t112.5 -38.5q88 0 138 65l101 -31q-36 -61 -98 -96t-139 -35q-69 0 -128 28.5t-98 79.5q-37 -51 -95 -79.5t-126 -28.5q-117 0 -195 78
t-78 195t78 195t195 78zM312 91q72 0 118 48q48 49 48 121t-48 120q-46 49 -118 49q-70 0 -118 -49q-47 -49 -47 -120t47 -121q48 -48 118 -48zM586 305h325q-14 58 -59.5 94.5t-105.5 36.5q-57 0 -101.5 -36.5t-58.5 -94.5z" />
    <glyph glyph-name="Racute" unicode="&#x154;" horiz-adv-x="677" 
d="M68 700h320q100 0 167 -63q68 -63 68 -158q0 -69 -38 -123.5t-101 -79.5l166 -276h-126l-156 258h-188v-258h-112v700zM388 596h-208v-234h208q50 0 84 33.5t34 83.5t-34 83.5t-84 33.5zM458 856l-206 -93l-35 64l193 123z" />
    <glyph glyph-name="racute" unicode="&#x155;" horiz-adv-x="369" 
d="M166 520v-76q59 89 185 89v-116q-18 8 -45 8q-60 0 -100 -39q-40 -37 -40 -96v-290h-104v520h104zM153 594l-35 65l193 122l48 -93z" />
    <glyph glyph-name="uni0156" unicode="&#x156;" horiz-adv-x="677" 
d="M68 700h320q100 0 167 -63q68 -63 68 -158q0 -69 -38 -123.5t-101 -79.5l166 -276h-126l-156 258h-188v-258h-112v700zM388 596h-208v-234h208q50 0 84 33.5t34 83.5t-34 83.5t-84 33.5zM347 -168q-21 3 -35 19.5t-14 37.5q0 24 16.5 40t41.5 16q27 0 45 -20.5t18 -53.5
q0 -70 -83 -121l-6 -4l-27 28l12 11q9 7 20.5 22.5t11.5 24.5z" />
    <glyph glyph-name="uni0157" unicode="&#x157;" horiz-adv-x="369" 
d="M166 520v-76q59 89 185 89v-116q-18 8 -45 8q-60 0 -100 -39q-40 -37 -40 -96v-290h-104v520h104zM179 -129q0 -43 -28.5 -75.5t-54.5 -45.5l-5 -4l-27 28l12 11q9 7 20.5 22.5t11.5 24.5q-21 3 -35 19.5t-14 37.5q0 24 16.5 40t41.5 16q27 0 44.5 -20.5t17.5 -53.5z" />
    <glyph glyph-name="Rcaron" unicode="&#x158;" horiz-adv-x="677" 
d="M180 0h-112v700h320q100 0 167 -63q68 -63 68 -158q0 -69 -38 -123.5t-101 -79.5l166 -276h-126l-156 258h-188v-258zM388 596h-208v-234h208q50 0 84 33.5t34 83.5t-34 83.5t-84 33.5zM293 763l-167 124l43 59l128 -78l127 77l43 -58l-167 -124h-7z" />
    <glyph glyph-name="rcaron" unicode="&#x159;" horiz-adv-x="369" 
d="M166 520v-76q59 89 185 89v-116q-18 8 -45 8q-60 0 -100 -39q-40 -37 -40 -96v-290h-104v520h104zM197 699l128 78l43 -58l-167 -125h-7l-167 125l43 59z" />
    <glyph glyph-name="Sacute" unicode="&#x15a;" horiz-adv-x="615" 
d="M545 557l-111 -33q-9 34 -46 57.5t-86 23.5q-54 0 -90 -25.5t-36 -64.5q-6 -34 51 -68q10 -6 39 -16q37 -12 43 -14l53 -15q79 -21 134 -54q74 -45 74 -145q0 -97 -72 -157q-73 -59 -185 -59q-102 0 -175 47q-72 48 -93 120l111 35q9 -40 52.5 -67t104.5 -27
q62 0 103 27.5t41 71.5q0 29 -23 50q-20 20 -41 29.5t-63 20.5q-127 37 -168 58q-98 53 -98 155q0 92 66 149t170 57q92 0 159 -45q66 -43 86 -111zM263 763l-36 64l194 123l48 -94z" />
    <glyph glyph-name="sacute" unicode="&#x15b;" horiz-adv-x="475" 
d="M431 401l-98 -17q-18 58 -102 58q-38 0 -62 -15t-24 -41q0 -34 50 -52l117 -40q67 -25 97.5 -61t30.5 -89q0 -75 -55 -116t-145 -41q-88 0 -143 38.5t-66 106.5l98 15q7 -31 37 -50t76 -19q43 0 70.5 17t27.5 46q0 37 -63 60l-116 39q-61 21 -88.5 54t-27.5 84
q0 75 53 115t141 40q79 0 130 -35.5t62 -96.5zM191 594l-36 65l194 122l48 -93z" />
    <glyph glyph-name="Scircumflex" unicode="&#x15c;" horiz-adv-x="615" 
d="M545 557l-111 -33q-9 34 -46 57.5t-86 23.5q-54 0 -90 -25.5t-36 -64.5q-6 -34 51 -68q10 -6 39 -16q37 -12 43 -14l53 -15q79 -21 134 -54q74 -45 74 -145q0 -97 -72 -157q-73 -59 -185 -59q-102 0 -175 47q-72 48 -93 120l111 35q9 -40 52.5 -67t104.5 -27
q62 0 103 27.5t41 71.5q0 29 -23 50q-20 20 -41 29.5t-63 20.5q-127 37 -168 58q-98 53 -98 155q0 92 66 149t170 57q92 0 159 -45q66 -43 86 -111zM307 841l-127 -79l-44 59l168 125h6l168 -125l-44 -58z" />
    <glyph glyph-name="scircumflex" unicode="&#x15d;" horiz-adv-x="475" 
d="M431 401l-98 -17q-18 58 -102 58q-38 0 -62 -15t-24 -41q0 -34 50 -52l117 -40q67 -25 97.5 -61t30.5 -89q0 -75 -55 -116t-145 -41q-88 0 -143 38.5t-66 106.5l98 15q7 -31 37 -50t76 -19q43 0 70.5 17t27.5 46q0 37 -63 60l-116 39q-61 21 -88.5 54t-27.5 84
q0 75 53 115t141 40q79 0 130 -35.5t62 -96.5zM235 672l-127 -78l-44 59l168 124h6l168 -124l-44 -58z" />
    <glyph glyph-name="Scedilla" unicode="&#x15e;" horiz-adv-x="615" 
d="M45 154l111 35q9 -40 52.5 -67t104.5 -27q62 0 103 27.5t41 71.5q0 29 -23 50q-20 20 -41 29.5t-63 20.5q-127 37 -168 58q-98 53 -98 155q0 92 66 149t170 57q92 0 159 -45q66 -43 86 -111l-111 -33q-9 34 -46 57.5t-86 23.5q-54 0 -90 -25.5t-36 -64.5q-6 -34 51 -68
q10 -6 39 -16q37 -12 43 -14l53 -15q79 -21 134 -54q74 -45 74 -145q0 -84 -56 -142q-57 -57 -147 -70l-9 -40q3 0 8 -1.5t17 -7t21.5 -13t17.5 -22t8 -32.5q0 -41 -34.5 -68t-87.5 -27q-51 0 -88 21l-12 7l14 56q25 -22 68 -22q26 0 43.5 9.5t17.5 23.5t-19 23.5t-42 12.5
l-20 2l17 75q-94 6 -158 52q-65 46 -84 114z" />
    <glyph glyph-name="scedilla" unicode="&#x15f;" horiz-adv-x="475" 
d="M197 -87l17 75q-78 6 -125.5 44t-57.5 100l98 15q7 -31 37 -50t76 -19q43 0 70.5 17t27.5 46q0 37 -63 60l-116 39q-61 21 -88.5 54t-27.5 84q0 75 53 115t141 40q79 0 130 -35.5t62 -96.5l-98 -17q-18 58 -102 58q-38 0 -62 -15t-24 -41q0 -34 50 -52l117 -40
q67 -25 97.5 -61t30.5 -89q0 -62 -39 -101.5t-107 -51.5l-9 -40q3 0 7.5 -1.5t17 -7t22 -13t17 -22t7.5 -32.5q0 -41 -34.5 -68t-87.5 -27q-50 0 -87 21l-12 7l14 56q25 -22 68 -22q26 0 43.5 9.5t17.5 23.5t-18.5 23.5t-41.5 12.5z" />
    <glyph glyph-name="Scaron" unicode="&#x160;" horiz-adv-x="615" 
d="M545 557l-111 -33q-9 34 -46 57.5t-86 23.5q-54 0 -90 -25.5t-36 -64.5q-6 -34 51 -68q10 -6 39 -16q37 -12 43 -14l53 -15q79 -21 134 -54q74 -45 74 -145q0 -97 -72 -157q-73 -59 -185 -59q-102 0 -175 47q-72 48 -93 120l111 35q9 -40 52.5 -67t104.5 -27
q62 0 103 27.5t41 71.5q0 29 -23 50q-20 20 -41 29.5t-63 20.5q-127 37 -168 58q-98 53 -98 155q0 92 66 149t170 57q92 0 159 -45q66 -43 86 -111zM307 868l127 77l44 -58l-168 -124h-6l-168 124l44 59z" />
    <glyph glyph-name="scaron" unicode="&#x161;" horiz-adv-x="475" 
d="M431 401l-98 -17q-18 58 -102 58q-38 0 -62 -15t-24 -41q0 -34 50 -52l117 -40q67 -25 97.5 -61t30.5 -89q0 -75 -55 -116t-145 -41q-88 0 -143 38.5t-66 106.5l98 15q7 -31 37 -50t76 -19q43 0 70.5 17t27.5 46q0 37 -63 60l-116 39q-61 21 -88.5 54t-27.5 84
q0 75 53 115t141 40q79 0 130 -35.5t62 -96.5zM235 699l127 78l44 -58l-168 -125h-6l-168 125l44 59z" />
    <glyph glyph-name="uni0162" unicode="&#x162;" horiz-adv-x="658" 
d="M273 0v596h-247v104h606v-104h-247v-596h-112zM324 -168q-21 3 -35 19.5t-14 37.5q0 24 16.5 40t41.5 16q27 0 45 -20.5t18 -53.5q0 -43 -29 -75.5t-55 -45.5l-5 -4l-27 28l12 11q9 7 20.5 22.5t11.5 24.5z" />
    <glyph glyph-name="uni0163" unicode="&#x163;" horiz-adv-x="362" 
d="M12 429v91h79v103h104v-103h138v-91h-138v-256q0 -31 20 -52t50 -21h68v-100h-76q-70 0 -118 45q-48 47 -48 114v270h-79zM272 -129q0 -43 -29 -75.5t-55 -45.5l-5 -4l-27 28l12 11q9 7 20.5 22.5t11.5 24.5q-20 3 -34 19t-14 38q0 24 16 40t41 16q27 0 45 -20.5
t18 -53.5z" />
    <glyph glyph-name="Tcaron" unicode="&#x164;" horiz-adv-x="658" 
d="M26 700h606v-104h-247v-596h-112v596h-247v104zM332 763h-7l-167 124l43 59l128 -78l127 77l43 -58z" />
    <glyph glyph-name="tcaron" unicode="&#x165;" horiz-adv-x="381" 
d="M12 429v91h79v103h104v-103h138v-91h-138v-256q0 -31 20 -52t50 -21h68v-100h-76q-70 0 -118 45q-48 47 -48 114v270h-79zM363 671q0 -75 -88 -124l-1 -1l-27 28l12 10q10 8 21 23.5t11 24.5q-21 4 -34.5 20t-13.5 38q0 23 16.5 39t40.5 16q28 0 45.5 -20.5t17.5 -53.5z
" />
    <glyph glyph-name="Tbar" unicode="&#x166;" horiz-adv-x="658" 
d="M513 279h-128v-279h-112v279h-128v104h128v213h-247v104h606v-104h-247v-213h128v-104z" />
    <glyph glyph-name="tbar" unicode="&#x167;" horiz-adv-x="362" 
d="M91 429h-79v91h79v103h104v-103h138v-91h-138v-106h95v-79h-95v-71q0 -31 20 -52t50 -21h68v-100h-76q-70 0 -118 45q-48 47 -48 114v85h-63v79h63v106z" />
    <glyph glyph-name="Utilde" unicode="&#x168;" horiz-adv-x="720" 
d="M549 280v420h113v-420q0 -125 -87 -209q-86 -84 -215 -84t-216 84q-86 84 -86 209v420h112v-420q0 -81 54 -135q56 -54 136 -54q81 0 135 54t54 135zM281 778h-82q0 47 31 78q32 33 76 33q30 0 59 -21q30 -21 40 -21q13 0 22.5 10.5t9.5 26.5h82q0 -47 -30.5 -79
t-74.5 -32q-32 0 -60 21t-40 21q-13 0 -23 -11t-10 -26z" />
    <glyph glyph-name="utilde" unicode="&#x169;" horiz-adv-x="605" 
d="M61 192v328h104v-299q0 -57 38 -97q40 -38 96 -38q59 0 100 39q40 39 40 97v298h104v-520h-104v74q-60 -87 -170 -87q-91 0 -149 58q-59 59 -59 147zM224 609h-82q0 47 31 78q31 33 76 33q31 0 59 -21q30 -21 40 -21q13 0 22.5 10.5t9.5 27.5h82q0 -47 -30.5 -79.5
t-74.5 -32.5q-31 0 -60 21q-28 21 -40 21q-13 0 -23 -11t-10 -26z" />
    <glyph glyph-name="Umacron" unicode="&#x16a;" horiz-adv-x="720" 
d="M549 280v420h113v-420q0 -125 -87 -209q-86 -84 -215 -84t-216 84q-86 84 -86 209v420h112v-420q0 -81 54 -135q56 -54 136 -54q81 0 135 54t54 135zM510 787h-300v88h300v-88z" />
    <glyph glyph-name="umacron" unicode="&#x16b;" horiz-adv-x="605" 
d="M269 -13q-91 0 -149 58q-59 59 -59 147v328h104v-299q0 -57 38 -97q40 -38 96 -38q59 0 100 39q40 39 40 97v298h104v-520h-104v74q-60 -87 -170 -87zM453 706v-87h-300v87h300z" />
    <glyph glyph-name="Ubreve" unicode="&#x16c;" horiz-adv-x="720" 
d="M549 280v420h113v-420q0 -125 -87 -209q-86 -84 -215 -84t-216 84q-86 84 -86 209v420h112v-420q0 -81 54 -135q56 -54 136 -54q81 0 135 54t54 135zM204 906h83q0 -35 21 -57.5t53 -22.5q31 0 51.5 22.5t20.5 57.5h83q0 -66 -45 -110q-44 -44 -111 -44q-66 0 -112 44
q-44 44 -44 110z" />
    <glyph glyph-name="ubreve" unicode="&#x16d;" horiz-adv-x="605" 
d="M61 192v328h104v-299q0 -57 38 -97q40 -38 96 -38q59 0 100 39q40 39 40 97v298h104v-520h-104v74q-60 -87 -170 -87q-91 0 -149 58q-59 59 -59 147zM147 738h83q0 -35 21 -57.5t53 -22.5q31 0 51.5 22.5t20.5 57.5h83q0 -66 -45 -111q-44 -44 -111 -44q-66 0 -112 44
q-44 46 -44 111z" />
    <glyph glyph-name="Uring" unicode="&#x16e;" horiz-adv-x="720" 
d="M549 280v420h113v-420q0 -125 -87 -209q-86 -84 -215 -84t-216 84q-86 84 -86 209v420h112v-420q0 -81 54 -135q56 -54 136 -54q81 0 135 54t54 135zM247 863q0 46 33 79t80 33q46 0 79 -33q34 -33 34 -79q0 -47 -33 -80t-80 -33t-80 33t-33 80zM332 891q-11 -11 -11 -28
t11 -28t28 -11t28 11t11 28t-12 28q-11 11 -27 11t-28 -11z" />
    <glyph glyph-name="uring" unicode="&#x16f;" horiz-adv-x="605" 
d="M269 -13q-91 0 -149 58q-59 59 -59 147v328h104v-299q0 -57 38 -97q40 -38 96 -38q59 0 100 39q40 39 40 97v298h104v-520h-104v74q-60 -87 -170 -87zM383 615q-33 -33 -80 -33q-46 0 -80 32q-33 33 -33 80t33 80t80 33t80 -34q33 -33 33 -79t-33 -79zM331 721
q-11 12 -28 12t-28 -12q-11 -11 -11 -27t11 -28q11 -11 28 -11t28 11q11 12 11 28t-11 27z" />
    <glyph glyph-name="Uhungarumlaut" unicode="&#x170;" horiz-adv-x="720" 
d="M549 280v420h113v-420q0 -125 -87 -209q-86 -84 -215 -84t-216 84q-86 84 -86 209v420h112v-420q0 -81 54 -135q56 -54 136 -54q81 0 135 54t54 135zM264 750l-53 51l138 163l74 -75zM460 750l-54 51l139 163l74 -75z" />
    <glyph glyph-name="uhungarumlaut" unicode="&#x171;" horiz-adv-x="605" 
d="M61 192v328h104v-299q0 -57 38 -97q40 -38 96 -38q59 0 100 39q40 39 40 97v298h104v-520h-104v74q-60 -87 -170 -87q-91 0 -149 58q-59 59 -59 147zM562 721l-159 -140l-54 51l139 164zM207 581l-53 51l138 164l74 -75z" />
    <glyph glyph-name="Uogonek" unicode="&#x172;" horiz-adv-x="720" 
d="M58 280v420h112v-420q0 -81 54 -135q56 -54 136 -54q81 0 135 54t54 135v420h113v-420q0 -105 -64 -184q-63 -79 -165 -101q-54 -54 -54 -93q0 -17 11 -27.5t27 -10.5q27 0 45 18l7 7l37 -44q-5 -7 -15 -14q-10 -10 -38 -23q-28 -15 -58 -15q-41 0 -69 25.5t-28 63.5
q0 49 50 105q-124 5 -208 88q-82 83 -82 205z" />
    <glyph glyph-name="uogonek" unicode="&#x173;" horiz-adv-x="605" 
d="M61 192v328h104v-299q0 -57 38 -97q40 -38 96 -38q59 0 100 39q40 39 40 97v298h104v-520h-7l-17 -15q-11 -11 -27 -36q-17 -26 -17 -47q0 -17 11 -27.5t27 -10.5q27 0 45 18l7 7l37 -44q-5 -7 -15 -14q-9 -10 -38 -23q-29 -15 -58 -15q-41 0 -69 25.5t-28 63.5
q0 26 15 55.5t33 46.5l15 16h-18v74q-60 -87 -170 -87q-91 0 -149 58q-59 59 -59 147z" />
    <glyph glyph-name="Wcircumflex" unicode="&#x174;" horiz-adv-x="1010" 
d="M343 0h-91l-239 700h115l168 -521l164 521h91l164 -521l167 521h115l-239 -700h-91l-162 506zM505 841l-127 -79l-44 59l168 125h6l167 -125l-43 -58z" />
    <glyph glyph-name="wcircumflex" unicode="&#x175;" horiz-adv-x="779" 
d="M185 0l-173 520h105l113 -359l113 359h94l112 -359l114 359h105l-173 -520h-93l-112 347l-113 -347h-92zM390 672l-127 -78l-44 59l168 124h6l168 -124l-44 -58z" />
    <glyph glyph-name="Ycircumflex" unicode="&#x176;" horiz-adv-x="679" 
d="M282 0v284l-269 416h129l195 -309l199 309h129l-271 -411v-289h-112zM212 762l-43 59l167 125h7l167 -125l-43 -58l-128 78z" />
    <glyph glyph-name="ycircumflex" unicode="&#x177;" horiz-adv-x="539" 
d="M215 13l-203 507h107l148 -378l153 378h107l-245 -599q-31 -76 -81 -111t-128 -35h-22v100h22q46 0 74 19t45 62zM142 594l-44 59l168 124h6l168 -124l-44 -58l-127 77z" />
    <glyph glyph-name="Ydieresis" unicode="&#x178;" horiz-adv-x="679" 
d="M282 284l-269 416h129l195 -309l199 309h129l-271 -411v-289h-112v284zM398 870q19 19 47 19t47 -19q19 -18 19 -46t-19 -47t-47 -19t-47 19t-19 47t19 46zM235 889q27 0 46 -18.5t19 -46.5t-19 -47t-46 -19q-29 0 -47.5 19t-18.5 47t19 46.5t47 18.5z" />
    <glyph glyph-name="Zacute" unicode="&#x179;" horiz-adv-x="637" 
d="M601 104v-104h-559v86l399 510h-396v104h553v-86l-399 -510h402zM483 856l-206 -93l-36 64l194 123z" />
    <glyph glyph-name="zacute" unicode="&#x17a;" horiz-adv-x="503" 
d="M466 96v-96h-429v79l281 345h-276v96h419v-79l-282 -345h287zM207 594l-35 65l194 122l48 -93z" />
    <glyph glyph-name="Zdotaccent" unicode="&#x17b;" horiz-adv-x="637" 
d="M601 0h-559v86l399 510h-396v104h553v-86l-399 -510h402v-104zM253 828q0 29 19.5 48.5t49.5 19.5q29 0 48.5 -19.5t19.5 -48.5q0 -30 -19.5 -49.5t-48.5 -19.5q-30 0 -49.5 19.5t-19.5 49.5z" />
    <glyph glyph-name="zdotaccent" unicode="&#x17c;" horiz-adv-x="503" 
d="M37 0v79l281 345h-276v96h419v-79l-282 -345h287v-96h-429zM183 659q0 30 20 49.5t49 19.5t49 -19.5t20 -49.5q0 -29 -20 -48.5t-49 -19.5t-49 19.5t-20 48.5z" />
    <glyph glyph-name="Zcaron" unicode="&#x17d;" horiz-adv-x="637" 
d="M601 0h-559v86l399 510h-396v104h553v-86l-399 -510h402v-104zM318 763l-168 124l44 59l127 -78l127 77l44 -58l-168 -124h-6z" />
    <glyph glyph-name="zcaron" unicode="&#x17e;" horiz-adv-x="503" 
d="M466 96v-96h-429v79l281 345h-276v96h419v-79l-282 -345h287zM249 594l-168 125l44 59l127 -79l127 78l43 -58l-167 -125h-6z" />
    <glyph glyph-name="uni018F" unicode="&#x18f;" horiz-adv-x="816" 
d="M408 713q155 0 259 -104q105 -103 105 -259t-105 -259q-104 -104 -259 -104t-259 104t-104 259q0 23 3 47h603q-15 90 -83 149t-160 59q-123 0 -195 -96l-111 42q48 76 129 119t177 43zM408 95q92 0 157 55q67 56 83 143h-480q16 -87 83 -143q67 -55 157 -55z" />
    <glyph glyph-name="florin" unicode="&#x192;" horiz-adv-x="363" 
d="M-42 -225h-70l18 100h62q29 0 53 21t29 52l70 397h-83l16 92h83l28 154q10 66 66 113q55 46 127 46h70l-18 -100h-62q-29 0 -53 -21t-29 -52l-25 -140h132l-16 -92h-132l-72 -411q-12 -68 -68 -113q-55 -46 -126 -46z" />
    <glyph glyph-name="uni01DD" unicode="&#x1dd;" horiz-adv-x="610" 
d="M32 298h431q-11 60 -58.5 99t-112.5 39q-88 0 -138 -65l-102 31q36 61 99.5 96t140.5 35q120 0 199 -78q80 -78 80 -195t-78 -195q-77 -78 -193 -78q-115 0 -193 78q-77 79 -77 195q0 4 2 38zM462 215h-325q14 -58 59.5 -94.5t105.5 -36.5q57 0 101.5 36.5t58.5 94.5z
" />
    <glyph glyph-name="Aringacute" unicode="&#x1fa;" horiz-adv-x="724" 
d="M193 144l-62 -144h-118l299 691q-28 15 -45.5 42.5t-17.5 59.5q0 46 33 79t80 33q31 0 57 -16l173 109l48 -93l-171 -77q6 -16 6 -35q0 -33 -17.5 -60.5t-46.5 -41.5l300 -691h-118l-62 144h-338zM487 248l-125 293l-125 -293h250zM334 821q-11 -11 -11 -28t11 -28
t28 -11t28 11t11 28t-12 28q-11 11 -27 11t-28 -11z" />
    <glyph glyph-name="aringacute" unicode="&#x1fb;" horiz-adv-x="634" 
d="M295 533q101 0 173 -69v56h104v-520h-104v56q-72 -69 -173 -69q-109 0 -183 78q-73 77 -73 195t73 195q74 78 183 78zM306 91q68 0 114 48q46 49 46 121q0 73 -46 120q-46 49 -114 49q-67 0 -113 -49q-46 -47 -46 -120q0 -72 46 -121q47 -48 113 -48zM205 694q0 47 33 80
t79 33q35 0 60 -18l167 106l47 -94l-166 -75q5 -18 5 -32q0 -46 -33 -79t-80 -33t-80 33q-32 34 -32 79zM289 721q-11 -11 -11 -27t11 -28q11 -11 28 -11t28 11t11 28t-11 28t-28 11t-28 -12z" />
    <glyph glyph-name="AEacute" unicode="&#x1fc;" horiz-adv-x="1018" 
d="M141 0h-128l446 700h518v-104h-362v-190h308v-104h-308v-198h367v-104h-479v144h-271zM297 248h206v327zM730 856l-206 -93l-36 64l194 123z" />
    <glyph glyph-name="aeacute" unicode="&#x1fd;" horiz-adv-x="1038" 
d="M295 -13q-109 0 -183 78q-73 77 -73 195t73 195q74 78 183 78q101 0 173 -69v56h104v-57q73 70 177 70q110 0 185 -78t75 -195q0 -19 -3 -38h-431q12 -61 59.5 -99.5t112.5 -38.5q88 0 138 65l101 -31q-34 -61 -95 -96t-136 -35q-108 0 -183 72v-59h-104v56
q-72 -69 -173 -69zM306 91q68 0 114 48q46 49 46 121q0 73 -46 120q-46 49 -114 49q-67 0 -113 -49q-46 -47 -46 -120q0 -72 46 -121q47 -48 113 -48zM576 305h325q-14 58 -59.5 94.5t-105.5 36.5q-57 0 -101.5 -36.5t-58.5 -94.5zM677 688l-206 -94l-36 65l194 122z" />
    <glyph glyph-name="Oslashacute" unicode="&#x1fe;" horiz-adv-x="816" 
d="M137 36l28 40q-120 106 -120 274q0 155 104 259t259 104q92 0 173 -40l29 40l72 -49l-29 -41q119 -107 119 -273q0 -156 -105 -259q-104 -104 -259 -104q-91 0 -171 41l-29 -41zM587 528l-286 -409q51 -24 107 -24q106 0 176 73q71 74 71 182q0 107 -68 178zM231 170
l286 411q-51 24 -109 24q-106 0 -176 -73q-71 -74 -71 -182q0 -109 70 -180zM364 763l-36 64l194 123l48 -94z" />
    <glyph glyph-name="oslashacute" unicode="&#x1ff;" horiz-adv-x="625" 
d="M312 533q66 0 120 -25l18 25l71 -49l-17 -25q82 -79 82 -199q0 -117 -79 -195q-78 -78 -195 -78q-63 0 -120 26l-18 -26l-71 49l18 26q-82 79 -82 198q0 117 78 195t195 78zM440 368l-186 -266q27 -11 58 -11q72 0 118 48q48 49 48 121q0 59 -38 108zM184 153l186 265
q-27 11 -58 11q-70 0 -118 -49q-47 -49 -47 -120q0 -63 37 -107zM268 594l-36 65l194 122l48 -93z" />
    <glyph glyph-name="uni0218" unicode="&#x218;" horiz-adv-x="615" 
d="M545 557l-111 -33q-9 34 -46 57.5t-86 23.5q-54 0 -90 -25.5t-36 -64.5q-6 -34 51 -68q10 -6 39 -16q37 -12 43 -14l53 -15q79 -21 134 -54q74 -45 74 -145q0 -97 -72 -157q-73 -59 -185 -59q-102 0 -175 47q-72 48 -93 120l111 35q9 -40 52.5 -67t104.5 -27
q62 0 103 27.5t41 71.5q0 29 -23 50q-20 20 -41 29.5t-63 20.5q-127 37 -168 58q-98 53 -98 155q0 92 66 149t170 57q92 0 159 -45q66 -43 86 -111zM396 -129q0 -31 -18 -59.5t-33.5 -40.5t-30.5 -21l-6 -4l-27 28l12 11q9 7 20.5 22.5t11.5 24.5q-21 3 -35 19.5t-14 37.5
q0 24 16.5 40t41.5 16q27 0 44.5 -20.5t17.5 -53.5z" />
    <glyph glyph-name="uni0219" unicode="&#x219;" horiz-adv-x="475" 
d="M431 401l-98 -17q-18 58 -102 58q-38 0 -62 -15t-24 -41q0 -34 50 -52l117 -40q67 -25 97.5 -61t30.5 -89q0 -75 -55 -116t-145 -41q-88 0 -143 38.5t-66 106.5l98 15q7 -31 37 -50t76 -19q43 0 70.5 17t27.5 46q0 37 -63 60l-116 39q-61 21 -88.5 54t-27.5 84
q0 75 53 115t141 40q79 0 130 -35.5t62 -96.5zM323 -129q0 -72 -89 -125l-27 28l12 11q9 7 20.5 22.5t11.5 24.5q-20 3 -34 19t-14 38q0 24 16.5 40t40.5 16q28 0 45.5 -20.5t17.5 -53.5z" />
    <glyph glyph-name="uni021A" unicode="&#x21a;" horiz-adv-x="658" 
d="M273 0v596h-247v104h606v-104h-247v-596h-112zM324 -168q-21 3 -35 19.5t-14 37.5q0 24 16.5 40t41.5 16q27 0 45 -20.5t18 -53.5q0 -43 -29 -75.5t-55 -45.5l-5 -4l-27 28l12 11q9 7 20.5 22.5t11.5 24.5z" />
    <glyph glyph-name="uni021B" unicode="&#x21b;" horiz-adv-x="362" 
d="M12 429v91h79v103h104v-103h138v-91h-138v-256q0 -31 20 -52t50 -21h68v-100h-76q-70 0 -118 45q-48 47 -48 114v270h-79zM272 -129q0 -43 -29 -75.5t-55 -45.5l-5 -4l-27 28l12 11q9 7 20.5 22.5t11.5 24.5q-20 3 -34 19t-14 38q0 24 16 40t41 16q27 0 45 -20.5
t18 -53.5z" />
    <glyph glyph-name="uni0237" unicode="&#x237;" horiz-adv-x="235" 
d="M69 520h104v-586q0 -68 -48 -113q-47 -46 -118 -46h-44v100h36q30 0 50 21t20 52v572z" />
    <glyph glyph-name="uni0259" unicode="&#x259;" horiz-adv-x="610" 
d="M32 298h431q-11 60 -58.5 99t-112.5 39q-88 0 -138 -65l-102 31q36 61 99.5 96t140.5 35q120 0 199 -78q80 -78 80 -195t-78 -195q-77 -78 -193 -78q-115 0 -193 78q-77 79 -77 195q0 4 2 38zM462 215h-325q14 -58 59.5 -94.5t105.5 -36.5q57 0 101.5 36.5t58.5 94.5z
" />
    <glyph glyph-name="circumflex" unicode="&#x2c6;" horiz-adv-x="434" 
d="M217 787l-127 -78l-44 59l168 124h6l168 -124l-44 -58z" />
    <glyph glyph-name="caron" unicode="&#x2c7;" horiz-adv-x="434" 
d="M217 815l127 77l44 -58l-168 -124h-6l-168 124l44 59z" />
    <glyph glyph-name="breve" unicode="&#x2d8;" horiz-adv-x="405" 
d="M46 853h83q0 -34 21 -57t53 -23t52.5 22.5t20.5 57.5h83q0 -66 -45 -111q-44 -44 -111 -44q-66 0 -112 44q-45 45 -45 111z" />
    <glyph glyph-name="dotaccent" unicode="&#x2d9;" horiz-adv-x="230" 
d="M46 775q0 29 20 48.5t49 19.5t49 -19.5t20 -48.5q0 -30 -20 -49.5t-49 -19.5t-49 19.5t-20 49.5z" />
    <glyph glyph-name="ring" unicode="&#x2da;" horiz-adv-x="318" 
d="M46 809q0 47 33 80t80 33t80 -33t33 -80q0 -46 -33 -79t-80 -33t-80 33t-33 79zM120 809q-2 -23 18.5 -32.5t41 0t18.5 32.5q2 24 -18.5 34t-41 0t-18.5 -34z" />
    <glyph glyph-name="ogonek" unicode="&#x2db;" horiz-adv-x="301" 
d="M93 -16l16 16h79l-17 -15q-11 -11 -27 -36t-16 -47q0 -17 11 -27.5t27 -10.5q26 0 46 18l6 7l37 -44q-5 -7 -15 -14q-10 -10 -38 -23q-28 -15 -58 -15q-42 0 -70 25.5t-28 63.5q0 26 15 55.5t32 46.5z" />
    <glyph glyph-name="tilde" unicode="&#x2dc;" horiz-adv-x="413" 
d="M129 724h-83q0 47 31 78q31 33 76 33q30 0 59 -21q30 -21 41 -21q12 0 21.5 11t9.5 27h82q0 -47 -30.5 -79t-74.5 -32q-31 0 -60 21t-39 21q-14 0 -23.5 -11t-9.5 -27z" />
    <glyph glyph-name="hungarumlaut" unicode="&#x2dd;" horiz-adv-x="501" 
d="M100 697l-54 51l139 163l74 -75zM296 697l-54 51l139 163l74 -75z" />
    <glyph glyph-name="uni0394" unicode="&#x394;" horiz-adv-x="707" 
d="M694 0h-681l295 700h91zM533 104l-179 434l-180 -434h359z" />
    <glyph glyph-name="uni03A9" unicode="&#x3a9;" horiz-adv-x="816" 
d="M45 361q0 150 104 251t259 101t259 -101q105 -100 105 -252q0 -156 -109 -256h109v-104h-272v104q70 26 112.5 91.5t42.5 149.5q0 112 -71 186t-176 74t-176 -74t-71 -184q0 -87 46 -152t120 -91v-104h-272v104h100q-110 101 -110 257z" />
    <glyph glyph-name="uni0400" unicode="&#x400;" horiz-adv-x="620" 
d="M68 700h510v-104h-398v-190h345v-104h-345v-198h403v-104h-515v700zM397 827l-35 -64l-207 93l48 94z" />
    <glyph glyph-name="uni0401" unicode="&#x401;" horiz-adv-x="620" 
d="M68 700h510v-104h-398v-190h345v-104h-345v-198h403v-104h-515v700zM473 777q-19 -19 -47 -19t-47 19t-19 47t19 46q19 19 47 19t47 -19q19 -18 19 -46t-19 -47zM216 889q27 0 46 -18.5t19 -46.5t-19 -47t-46 -19q-28 0 -47 19t-19 47t19 46.5t47 18.5z" />
    <glyph glyph-name="uni0402" unicode="&#x402;" horiz-adv-x="881" 
d="M273 0v596h-247v104h606v-104h-247v-171q72 18 145 18q135 0 210 -60.5t75 -170.5q0 -112 -76 -169q-76 -56 -199 -56l1 104q161 0 161 119q0 129 -175 129q-73 0 -142 -19v-320h-112z" />
    <glyph glyph-name="uni0403" unicode="&#x403;" horiz-adv-x="548" 
d="M180 596v-596h-112v700h455v-104h-343zM447 856l-206 -93l-36 64l194 123z" />
    <glyph glyph-name="uni0404" unicode="&#x404;" horiz-adv-x="770" 
d="M408 713q105 0 190.5 -51t131.5 -139l-109 -40q-33 57 -89 89.5t-124 32.5q-89 0 -157 -56q-67 -55 -85 -143h328v-104h-329q16 -91 83 -149t160 -58q68 0 124 32.5t89 89.5l109 -40q-46 -88 -131.5 -139t-190.5 -51q-155 0 -259 104t-104 259t104 259t259 104z" />
    <glyph glyph-name="uni0405" unicode="&#x405;" horiz-adv-x="615" 
d="M545 557l-111 -33q-9 34 -46 57.5t-86 23.5q-54 0 -90 -25.5t-36 -64.5q-6 -34 51 -68q10 -6 39 -16q37 -12 43 -14l53 -15q79 -21 134 -54q74 -45 74 -145q0 -97 -72 -157q-73 -59 -185 -59q-102 0 -175 47q-72 48 -93 120l111 35q9 -40 52.5 -67t104.5 -27
q62 0 103 27.5t41 71.5q0 29 -23 50q-20 20 -41 29.5t-63 20.5q-127 37 -168 58q-98 53 -98 155q0 92 66 149t170 57q92 0 159 -45q66 -43 86 -111z" />
    <glyph glyph-name="uni0406" unicode="&#x406;" horiz-adv-x="248" 
d="M180 0h-112v700h112v-700z" />
    <glyph glyph-name="uni0407" unicode="&#x407;" horiz-adv-x="248" 
d="M180 0h-112v700h112v-700zM19 758q-29 0 -47.5 19t-18.5 47t19 46.5t47 18.5t47 -18.5t19 -46.5t-19 -47t-47 -19zM229 758q-28 0 -46.5 19t-18.5 47t18.5 46.5t46.5 18.5t47 -18.5t19 -46.5t-18.5 -47t-47.5 -19z" />
    <glyph glyph-name="uni0408" unicode="&#x408;" horiz-adv-x="588" 
d="M528 700v-447q0 -114 -79 -190q-77 -76 -196 -76q-74 0 -135.5 32t-97.5 89l93 60q21 -36 58.5 -56.5t83.5 -20.5q71 0 117 46q48 47 48 116v447h108z" />
    <glyph glyph-name="uni0409" unicode="&#x409;" horiz-adv-x="1127" 
d="M41 0h-28v104h28q24 0 42 11.5t33 38.5t23 79t8 127v340h508v-260h196q99 0 167 -63q67 -63 67 -157t-67 -157q-68 -63 -167 -63h-309v596h-283v-236q0 -189 -59 -275q-58 -85 -159 -85zM655 336v-232h196q49 0 82.5 33t33.5 83t-33 83t-83 33h-196z" />
    <glyph glyph-name="uni040A" unicode="&#x40a;" horiz-adv-x="1145" 
d="M180 0h-112v700h112v-278h379v278h113v-278h197q101 0 166 -61q67 -60 67 -150t-67 -151q-66 -60 -166 -60h-310v318h-379v-318zM869 318h-197v-214h197q50 0 83.5 30.5t33.5 76.5t-33.5 76.5t-83.5 30.5z" />
    <glyph glyph-name="uni040B" unicode="&#x40b;" horiz-adv-x="881" 
d="M273 0v596h-247v104h606v-104h-247v-168q65 15 135 15q140 0 217.5 -61t77.5 -173v-209h-113v209q0 130 -182 130q-60 0 -135 -15v-324h-112z" />
    <glyph glyph-name="uni040C" unicode="&#x40c;" horiz-adv-x="649" 
d="M180 0h-112v700h112v-335l293 335h143l-299 -342l319 -358h-143l-313 351v-351zM483 856l-206 -93l-35 64l194 123z" />
    <glyph glyph-name="uni040D" unicode="&#x40d;" horiz-adv-x="744" 
d="M563 508l-392 -508h-103v700h112v-511l393 511h103v-700h-113v508zM449 827l-36 -64l-206 93l48 94z" />
    <glyph glyph-name="uni040E" unicode="&#x40e;" horiz-adv-x="691" 
d="M307 182l-294 518h124l228 -405l192 405h120l-245 -518q-89 -182 -240 -182h-69v104h61q72 0 123 78zM346 758q-78 0 -128 46q-51 46 -51 117h91q0 -32 25 -54t62 -22t61.5 22t24.5 54h91q0 -71 -51 -117q-49 -46 -125 -46z" />
    <glyph glyph-name="uni040F" unicode="&#x40f;" horiz-adv-x="726" 
d="M68 0v700h112v-596h366v596h112v-700h-239v-170h-112v170h-239z" />
    <glyph glyph-name="uni0410" unicode="&#x410;" horiz-adv-x="724" 
d="M131 0h-118l303 700h91l304 -700h-118l-62 144h-338zM487 248l-125 293l-125 -293h250z" />
    <glyph glyph-name="uni0411" unicode="&#x411;" horiz-adv-x="660" 
d="M68 700h480v-104h-368v-156h197q101 0 167 -63q67 -63 67 -157t-67 -157q-68 -63 -167 -63h-309v700zM180 336v-232h197q50 0 83.5 33t33.5 83t-33.5 83t-83.5 33h-197z" />
    <glyph glyph-name="uni0412" unicode="&#x412;" horiz-adv-x="687" 
d="M423 0h-355v700h335q89 0 149 -54q60 -52 60 -133q0 -88 -74 -144q49 -26 77 -71.5t28 -99.5q0 -85 -63 -142q-64 -56 -157 -56zM423 310h-243v-206h243q44 0 74 29.5t30 73.5t-30 73.5t-74 29.5zM403 596h-223v-182h223q40 0 66 26t26 65t-26 65t-66 26z" />
    <glyph glyph-name="uni0413" unicode="&#x413;" horiz-adv-x="548" 
d="M180 596v-596h-112v700h455v-104h-343z" />
    <glyph glyph-name="uni0414" unicode="&#x414;" horiz-adv-x="826" 
d="M134 0v-170h-112v274h79q79 25 79 253v343h512v-596h112v-274h-112v170h-558zM242 104h337v492h-287v-234q0 -169 -50 -258z" />
    <glyph glyph-name="uni0415" unicode="&#x415;" horiz-adv-x="620" 
d="M68 700h510v-104h-398v-190h345v-104h-345v-198h403v-104h-515v700z" />
    <glyph glyph-name="uni0416" unicode="&#x416;" horiz-adv-x="1005" 
d="M153 0h-140l301 358l-281 342h140l274 -335v335h112v-332l273 332h139l-280 -342l300 -358h-139l-293 348v-348h-112v351z" />
    <glyph glyph-name="uni0417" unicode="&#x417;" horiz-adv-x="644" 
d="M323 -13q-103 0 -175.5 45.5t-109.5 127.5l109 41q46 -106 174 -106q72 0 117.5 31.5t45.5 80.5q0 42 -32 72t-78 30h-134v104h132q41 0 68.5 26.5t27.5 64.5q0 45 -41 73t-107 28q-123 0 -169 -106l-109 41q37 82 108 127.5t171 45.5q115 0 189 -56t74 -142
q0 -97 -85 -152q47 -27 74 -71t27 -96q0 -92 -78 -150q-79 -59 -199 -59z" />
    <glyph glyph-name="uni0418" unicode="&#x418;" horiz-adv-x="744" 
d="M563 508l-392 -508h-103v700h112v-511l393 511h103v-700h-113v508z" />
    <glyph glyph-name="uni0419" unicode="&#x419;" horiz-adv-x="744" 
d="M563 508l-392 -508h-103v700h112v-511l393 511h103v-700h-113v508zM198 921h92q0 -32 25 -54t62 -22q36 0 60.5 22t24.5 54h92q0 -71 -51 -117q-49 -46 -125 -46q-73 0 -127 45q-53 47 -53 118z" />
    <glyph glyph-name="uni041A" unicode="&#x41a;" horiz-adv-x="649" 
d="M68 0v700h112v-335l293 335h143l-299 -342l319 -358h-143l-313 351v-351h-112z" />
    <glyph glyph-name="uni041B" unicode="&#x41b;" horiz-adv-x="723" 
d="M41 0h-28v104h28q51 0 78 55q28 55 28 201v340h508v-700h-112v596h-283v-236q0 -360 -219 -360z" />
    <glyph glyph-name="uni041C" unicode="&#x41c;" horiz-adv-x="892" 
d="M180 0h-112v700h112l266 -467l265 467h113v-700h-113v487l-228 -404h-74l-229 404v-487z" />
    <glyph glyph-name="uni041D" unicode="&#x41d;" horiz-adv-x="740" 
d="M180 0h-112v700h112v-294h379v294h113v-700h-113v302h-379v-302z" />
    <glyph glyph-name="uni041E" unicode="&#x41e;" horiz-adv-x="816" 
d="M149 91q-104 104 -104 259t104 259t259 104t259 -104q105 -103 105 -259t-105 -259q-104 -104 -259 -104t-259 104zM408 95q106 0 176 73q71 74 71 182t-71 182q-70 73 -176 73t-176 -73q-71 -74 -71 -182t71 -182q70 -73 176 -73z" />
    <glyph glyph-name="uni041F" unicode="&#x41f;" horiz-adv-x="740" 
d="M180 596v-596h-112v700h604v-700h-113v596h-379z" />
    <glyph glyph-name="uni0420" unicode="&#x420;" horiz-adv-x="655" 
d="M180 258v-258h-112v700h310q100 0 167 -63q68 -63 68 -158t-68 -158q-67 -63 -167 -63h-198zM378 596h-198v-234h198q50 0 84 33.5t34 83.5t-34 83.5t-84 33.5z" />
    <glyph glyph-name="uni0421" unicode="&#x421;" horiz-adv-x="770" 
d="M408 713q105 0 190.5 -51t131.5 -139l-109 -40q-33 57 -89 89.5t-124 32.5q-106 0 -176 -73q-71 -74 -71 -182t71 -182q70 -73 176 -73q68 0 124 32.5t89 89.5l109 -40q-46 -88 -131.5 -139t-190.5 -51q-155 0 -259 104t-104 259t104 259t259 104z" />
    <glyph glyph-name="uni0422" unicode="&#x422;" horiz-adv-x="658" 
d="M273 596h-247v104h606v-104h-247v-596h-112v596z" />
    <glyph glyph-name="uni0423" unicode="&#x423;" horiz-adv-x="691" 
d="M307 182l-294 518h124l228 -405l192 405h120l-245 -518q-89 -182 -240 -182h-69v104h61q72 0 123 78z" />
    <glyph glyph-name="uni0424" unicode="&#x424;" horiz-adv-x="861" 
d="M374 642v71h113v-71q142 -1 235 -84q94 -82 94 -208t-94 -208q-93 -83 -235 -84v-71h-113v71q-141 1 -236 84q-93 82 -93 208t93 208q95 83 236 84zM487 534v-368q93 0 152 52q61 52 61 132q0 79 -61 131q-61 53 -152 53zM374 166v368q-93 -2 -153 -53q-60 -53 -60 -131
t60 -131q60 -51 153 -53z" />
    <glyph glyph-name="uni0425" unicode="&#x425;" horiz-adv-x="687" 
d="M276 357l-253 343h134l187 -252l186 252h134l-253 -343l263 -357h-134l-196 266l-197 -266h-134z" />
    <glyph glyph-name="uni0426" unicode="&#x426;" horiz-adv-x="792" 
d="M68 0v700h112v-596h366v596h112v-596h113v-274h-113v170h-590z" />
    <glyph glyph-name="uni0427" unicode="&#x427;" horiz-adv-x="682" 
d="M345 257q-144 0 -224 61t-80 173v209h112v-209q0 -130 190 -130q76 0 159 19v320h112v-700h-112v276q-70 -19 -157 -19z" />
    <glyph glyph-name="uni0428" unicode="&#x428;" horiz-adv-x="1064" 
d="M68 0v700h112v-596h292v596h112v-596h300v596h112v-700h-928z" />
    <glyph glyph-name="uni0429" unicode="&#x429;" horiz-adv-x="1130" 
d="M68 700h112v-596h292v596h112v-596h300v596h112v-596h113v-274h-113v170h-928v700z" />
    <glyph glyph-name="uni042A" unicode="&#x42a;" horiz-adv-x="847" 
d="M261 0v596h-235v104h348v-260h197q100 0 166 -63q67 -63 67 -157t-67 -157q-66 -63 -166 -63h-310zM374 336v-232h197q50 0 83.5 33.5t33.5 82.5q0 50 -33.5 83t-83.5 33h-197z" />
    <glyph glyph-name="uni042B" unicode="&#x42b;" horiz-adv-x="884" 
d="M377 0h-309v700h112v-260h197q101 0 167 -63q67 -63 67 -157t-67 -157q-68 -63 -167 -63zM816 0h-112v700h112v-700zM180 336v-232h197q50 0 83.5 33t33.5 83q0 47 -30 79t-78 37h-9h-197z" />
    <glyph glyph-name="uni042C" unicode="&#x42c;" horiz-adv-x="653" 
d="M68 0v700h112v-260h197q101 0 167 -63q67 -63 67 -157t-67 -157q-68 -63 -167 -63h-309zM180 336v-232h197q48 0 80 29.5t37 77.5q0 56 -31.5 90.5t-85.5 34.5h-197z" />
    <glyph glyph-name="uni042D" unicode="&#x42d;" horiz-adv-x="770" 
d="M41 177l108 40q33 -58 89 -90t124 -32q93 0 160 58q68 59 83 149h-295v104h294q-18 88 -85 143q-67 56 -157 56q-68 0 -124 -32t-89 -90l-108 40q45 88 130.5 139t190.5 51q156 0 260 -104t104 -259t-104 -259t-260 -104q-105 0 -190.5 51t-130.5 139z" />
    <glyph glyph-name="uni042E" unicode="&#x42e;" horiz-adv-x="1069" 
d="M68 0v700h112v-294h122q20 137 119 221q101 86 240 86q155 0 259 -104q105 -103 105 -259t-105 -259q-104 -104 -259 -104q-143 0 -243 88t-117 227h-121v-302h-112zM661 95q106 0 176 73q71 74 71 182t-71 182q-70 73 -176 73t-176 -73q-71 -74 -71 -182t71 -182
q70 -73 176 -73z" />
    <glyph glyph-name="uni042F" unicode="&#x42f;" horiz-adv-x="677" 
d="M325 259l-156 -259h-126l164 272q-69 23 -110.5 79.5t-41.5 128.5q0 94 67 157q68 63 167 63h320v-700h-112v259h-172zM171 480q0 -50 34 -83.5t84 -33.5h208v233h-208q-50 0 -84 -34q-34 -33 -34 -82z" />
    <glyph glyph-name="uni0430" unicode="&#x430;" horiz-adv-x="634" 
d="M295 533q101 0 173 -69v56h104v-520h-104v56q-72 -69 -173 -69q-109 0 -183 78q-73 77 -73 195t73 195q74 78 183 78zM306 429q-67 0 -113 -49q-46 -47 -46 -120q0 -72 46 -121q47 -48 113 -48q68 0 114 48q46 49 46 121q0 73 -46 120q-46 49 -114 49z" />
    <glyph glyph-name="uni0431" unicode="&#x431;" horiz-adv-x="644" 
d="M43 376q0 173 77.5 263t240.5 106q76 9 181 18v-104q-78 -7 -178 -19q-109 -12 -161.5 -67t-55.5 -155q28 53 78.5 84t115.5 31q111 0 187 -79q77 -80 77 -196q0 -115 -77 -194q-77 -77 -193 -77q-125 0 -209 98q-83 98 -83 291zM222 380q-46 -47 -46 -120q0 -72 46 -121
q46 -48 115 -48q67 0 114 48q46 49 46 121q0 73 -46 120q-46 49 -114 49q-69 0 -115 -49z" />
    <glyph glyph-name="uni0432" unicode="&#x432;" horiz-adv-x="554" 
d="M62 520h274q61 0 110 -35q48 -35 53 -94q0 -74 -49 -114q74 -44 74 -121q0 -68 -48 -112q-47 -44 -119 -44h-295v520zM166 226v-126h191q25 0 41.5 18t16.5 45t-16.5 45t-41.5 18h-191zM336 420h-170v-107h170q24 0 39.5 15.5t15.5 38.5t-15.5 38t-39.5 15z" />
    <glyph glyph-name="uni0433" unicode="&#x433;" horiz-adv-x="412" 
d="M166 420v-420h-104v520h337v-100h-233z" />
    <glyph glyph-name="uni0434" unicode="&#x434;" horiz-adv-x="670" 
d="M122 0v-150h-104v250h81q38 41 38 173v247h421v-420h94v-250h-104v150h-426zM210 100h244v320h-213v-153q0 -104 -31 -167z" />
    <glyph glyph-name="uni0435" unicode="&#x435;" horiz-adv-x="610" 
d="M578 222h-432q12 -61 59.5 -99.5t112.5 -38.5q88 0 138 65l102 -31q-36 -61 -99.5 -96t-140.5 -35q-120 0 -199 78q-80 78 -80 195q0 116 77 195q78 78 194 78t192 -78q78 -78 78 -195q0 -4 -2 -38zM147 305h326q-14 58 -60 94.5t-106 36.5q-57 0 -101.5 -36.5
t-58.5 -94.5z" />
    <glyph glyph-name="uni0436" unicode="&#x436;" horiz-adv-x="769" 
d="M138 0h-125l205 269l-184 251h123l175 -237v237h104v-239l176 239h123l-185 -251l206 -269h-125l-195 257v-257h-104v256z" />
    <glyph glyph-name="uni0437" unicode="&#x437;" horiz-adv-x="535" 
d="M32 137l105 27q29 -78 127 -78q54 0 90.5 23t36.5 57q0 25 -18.5 41.5t-46.5 16.5h-130v87h124q26 0 43.5 15t17.5 37q0 30 -33 50.5t-82 20.5q-98 0 -126 -78l-105 27q23 70 86.5 110t149.5 40q95 0 156 -45q62 -44 62 -112q0 -65 -59 -106q69 -42 69 -118
q0 -72 -66 -118q-67 -47 -166 -47q-88 0 -150.5 40t-84.5 110z" />
    <glyph glyph-name="uni0438" unicode="&#x438;" horiz-adv-x="610" 
d="M443 345l-294 -345h-87v520h104v-347l294 347h87v-520h-104v345z" />
    <glyph glyph-name="uni0439" unicode="&#x439;" horiz-adv-x="610" 
d="M62 0v520h104v-347l294 347h87v-520h-104v345l-294 -345h-87zM133 738h87q0 -34 24.5 -57t61.5 -23q35 0 59.5 23t24.5 57h87q0 -71 -49 -117t-122 -46q-75 0 -124 46t-49 117z" />
    <glyph glyph-name="uni043A" unicode="&#x43a;" horiz-adv-x="535" 
d="M521 0h-128l-226 269l205 251h127l-204 -251zM166 520v-520h-104v520h104z" />
    <glyph glyph-name="uni043B" unicode="&#x43b;" horiz-adv-x="596" 
d="M55 0h-37v100h30q35 0 52 37.5t17 127.5v255h416v-520h-104v420h-208v-177q0 -122 -44 -182.5t-122 -60.5z" />
    <glyph glyph-name="uni043C" unicode="&#x43c;" horiz-adv-x="701" 
d="M166 325v-325h-104v520h104l185 -320l184 320h104v-520h-104v324l-152 -264h-64z" />
    <glyph glyph-name="uni043D" unicode="&#x43d;" horiz-adv-x="609" 
d="M166 215v-215h-104v520h104v-205h277v205h104v-520h-104v215h-277z" />
    <glyph glyph-name="uni043E" unicode="&#x43e;" horiz-adv-x="625" 
d="M117 65q-78 78 -78 195t78 195t195 78t195 -78q79 -78 79 -195t-79 -195q-78 -78 -195 -78t-195 78zM312 91q72 0 118 48q48 49 48 121t-48 120q-46 49 -118 49q-70 0 -118 -49q-47 -49 -47 -120t47 -121q48 -48 118 -48z" />
    <glyph glyph-name="uni043F" unicode="&#x43f;" 
d="M166 420v-420h-104v520h475v-520h-104v420h-267z" />
    <glyph glyph-name="uni0440" unicode="&#x440;" horiz-adv-x="634" 
d="M166 -225h-104v745h104v-56q72 69 173 69q109 0 183 -78q73 -77 73 -195t-73 -195q-74 -78 -183 -78q-101 0 -173 69v-281zM327 429q-67 0 -113 -49q-46 -47 -46 -120q0 -72 46 -121q46 -48 113 -48t114 48q46 49 46 121q0 73 -46 120q-46 49 -114 49z" />
    <glyph glyph-name="uni0441" unicode="&#x441;" horiz-adv-x="594" 
d="M565 369l-105 -31q-20 42 -59 66.5t-89 24.5q-70 0 -118 -49q-47 -49 -47 -120t47 -121q48 -48 118 -48q50 0 89 24.5t59 66.5l105 -31q-31 -75 -98.5 -119.5t-154.5 -44.5q-117 0 -195 78t-78 195t78 195t195 78q87 0 154.5 -44.5t98.5 -119.5z" />
    <glyph glyph-name="uni0442" unicode="&#x442;" horiz-adv-x="498" 
d="M197 0v420h-184v100h472v-100h-184v-420h-104z" />
    <glyph glyph-name="uni0443" unicode="&#x443;" horiz-adv-x="539" 
d="M192 -44l23 57l-203 507h107l148 -378l153 378h107l-245 -599q-31 -76 -81 -111t-128 -35h-22v100h22q46 0 74 19t45 62z" />
    <glyph glyph-name="uni0444" unicode="&#x444;" horiz-adv-x="794" 
d="M477 -13q-22 0 -28 1v-213h-104v213q-6 -1 -28 -1q-116 0 -196 78q-78 78 -78 195t78 195q80 78 196 78q22 0 28 -1v218h104v-218q6 1 28 1q117 0 195 -78t78 -195t-78 -195t-195 -78zM317 429q-71 0 -119 -49q-47 -49 -47 -120t47 -121q48 -48 119 -48q4 0 28 2v334
q-24 2 -28 2zM477 429q-4 0 -28 -2v-334q24 -2 28 -2q71 0 118 48q47 50 47 121t-47 120q-46 49 -118 49z" />
    <glyph glyph-name="uni0445" unicode="&#x445;" horiz-adv-x="549" 
d="M412 0l-137 183l-138 -183h-123l199 267l-189 253h122l129 -170l128 170h123l-190 -253l199 -267h-123z" />
    <glyph glyph-name="uni0446" unicode="&#x446;" horiz-adv-x="645" 
d="M62 0v520h104v-420h262v420h104v-420h94v-250h-104v150h-460z" />
    <glyph glyph-name="uni0447" unicode="&#x447;" horiz-adv-x="552" 
d="M40 355v165h108v-165q0 -33 26 -52t76 -19q34 0 136 11v225h104v-520h-104v195q-104 -11 -142 -11q-92 0 -148 47.5t-56 123.5z" />
    <glyph glyph-name="uni0448" unicode="&#x448;" horiz-adv-x="860" 
d="M62 0v520h104v-420h212v420h104v-420h211v420h104v-520h-735z" />
    <glyph glyph-name="uni0449" unicode="&#x449;" horiz-adv-x="910" 
d="M62 520h104v-420h212v420h104v-420h211v420h104v-420h94v-250h-104v150h-725v520z" />
    <glyph glyph-name="uni044A" unicode="&#x44a;" horiz-adv-x="662" 
d="M194 0v420h-181v100h285v-178h160q75 0 124 -49q50 -50 50 -122t-50 -122q-49 -49 -124 -49h-264zM458 242h-160v-142h160q28 0 47 20.5t19 50.5t-19 50.5t-47 20.5z" />
    <glyph glyph-name="uni044B" unicode="&#x44b;" horiz-adv-x="737" 
d="M326 0h-264v520h104v-178h160q75 0 124 -49q50 -48 50 -122q0 -69 -45 -117q-45 -49 -114 -53q-3 -1 -15 -1zM675 0h-104v520h104v-520zM326 242h-160v-142h160q28 0 47 20.5t19 50.5t-19 50.5t-47 20.5z" />
    <glyph glyph-name="uni044C" unicode="&#x44c;" horiz-adv-x="530" 
d="M326 0h-264v520h104v-178h160q70 0 119 -44q49 -43 54 -112q1 -3 1 -15q0 -73 -50 -123q-50 -48 -124 -48zM166 242v-142h160q28 0 47 20.5t19 50.5t-19 50.5t-47 20.5h-160z" />
    <glyph glyph-name="uni044D" unicode="&#x44d;" horiz-adv-x="594" 
d="M30 151l105 31q19 -42 58.5 -66.5t88.5 -24.5q58 0 102 34.5t58 90.5h-214v96h212q-16 52 -59 84.5t-99 32.5q-49 0 -88.5 -24.5t-58.5 -66.5l-105 31q30 75 98 119.5t154 44.5q117 0 195 -78t78 -195t-78 -195t-195 -78q-86 0 -154 44.5t-98 119.5z" />
    <glyph glyph-name="uni044E" unicode="&#x44e;" horiz-adv-x="843" 
d="M62 0v520h104v-205h106q18 97 91 157q73 61 173 61q114 0 191 -78q77 -79 77 -195t-77 -195q-77 -78 -191 -78q-104 0 -177 64q-74 65 -89 164h-104v-215h-104zM650 380q-46 49 -114 49t-114 -49q-46 -47 -46 -120q0 -72 46 -121q46 -48 114 -48t114 48q46 49 46 121
q0 73 -46 120z" />
    <glyph glyph-name="uni044F" unicode="&#x44f;" horiz-adv-x="568" 
d="M161 0h-122l130 186q-55 15 -89.5 59.5t-34.5 103.5q0 72 50 122q49 49 124 49h286v-520h-104v179h-115zM153 349q0 -30 19 -50.5t47 -20.5h182v142h-182q-28 0 -47 -20t-19 -51z" />
    <glyph glyph-name="uni0450" unicode="&#x450;" horiz-adv-x="610" 
d="M578 222h-432q12 -61 59.5 -99.5t112.5 -38.5q88 0 138 65l102 -31q-36 -61 -99.5 -96t-140.5 -35q-120 0 -199 78q-80 78 -80 195q0 116 77 195q78 78 194 78t192 -78q78 -78 78 -195q0 -4 -2 -38zM147 305h326q-14 58 -60 94.5t-106 36.5q-57 0 -101.5 -36.5
t-58.5 -94.5zM352 594l-207 94l48 93l194 -122z" />
    <glyph glyph-name="uni0451" unicode="&#x451;" horiz-adv-x="610" 
d="M578 222h-432q12 -61 59.5 -99.5t112.5 -38.5q88 0 138 65l102 -31q-36 -61 -99.5 -96t-140.5 -35q-120 0 -199 78q-80 78 -80 195q0 116 77 195q78 78 194 78t192 -78q78 -78 78 -195q0 -4 -2 -38zM147 305h326q-14 58 -60 94.5t-106 36.5q-57 0 -101.5 -36.5
t-58.5 -94.5zM206 720q27 0 46 -18.5t19 -46.5t-19 -46.5t-46 -18.5q-29 0 -47.5 18.5t-18.5 46.5t18.5 46.5t47.5 18.5zM369 608q-19 19 -19 47t19 46q19 19 47 19t47 -19q19 -18 19 -46t-19 -47q-19 -18 -47 -18t-47 18z" />
    <glyph glyph-name="uni0452" unicode="&#x452;" horiz-adv-x="612" 
d="M166 750v-85h181v-79h-181v-142q59 89 174 89q92 0 151 -58q60 -59 60 -146v-395q0 -68 -48 -113q-47 -46 -118 -46h-44v100h37q29 0 49 21t20 52v351q0 59 -39 96q-39 39 -98 39q-61 0 -103 -39q-41 -39 -41 -97v-298h-104v586h-55v79h55v85h104z" />
    <glyph glyph-name="uni0453" unicode="&#x453;" horiz-adv-x="412" 
d="M166 420v-420h-104v520h337v-100h-233zM392 688l-206 -94l-36 65l194 122z" />
    <glyph glyph-name="uni0454" unicode="&#x454;" horiz-adv-x="594" 
d="M312 -13q-117 0 -195 78t-78 195t78 195t195 78q87 0 154.5 -44.5t98.5 -119.5l-105 -31q-20 42 -59 66.5t-89 24.5q-56 0 -99 -32.5t-59 -84.5h233v-96h-235q14 -55 58.5 -90t101.5 -35q50 0 89 24.5t59 66.5l105 -31q-31 -75 -98.5 -119.5t-154.5 -44.5z" />
    <glyph glyph-name="uni0455" unicode="&#x455;" horiz-adv-x="475" 
d="M431 401l-98 -17q-18 58 -102 58q-38 0 -62 -15t-24 -41q0 -34 50 -52l117 -40q67 -25 97.5 -61t30.5 -89q0 -75 -55 -116t-145 -41q-88 0 -143 38.5t-66 106.5l98 15q7 -31 37 -50t76 -19q43 0 70.5 17t27.5 46q0 37 -63 60l-116 39q-61 21 -88.5 54t-27.5 84
q0 75 53 115t141 40q79 0 130 -35.5t62 -96.5z" />
    <glyph glyph-name="uni0456" unicode="&#x456;" horiz-adv-x="228" 
d="M166 0h-104v520h104v-520zM65 597q-19 20 -19 49t19 49q20 20 49 20t49 -20t20 -49t-20 -49t-49 -20t-49 20z" />
    <glyph glyph-name="uni0457" unicode="&#x457;" horiz-adv-x="228" 
d="M166 0h-104v520h104v-520zM22 720q27 0 46 -18.5t19 -46.5t-19 -46.5t-46 -18.5q-29 0 -47.5 18.5t-18.5 46.5t18.5 46.5t47.5 18.5zM160 608q-19 19 -19 47t19 46q19 19 47 19t47 -19q19 -18 19 -46t-19 -47q-19 -18 -47 -18t-47 18z" />
    <glyph glyph-name="uni0458" unicode="&#x458;" horiz-adv-x="235" 
d="M69 520h104v-586q0 -68 -48 -113q-47 -46 -118 -46h-44v100h36q30 0 50 21t20 52v572zM72 597q-20 20 -20 49t20 49t49 20t49 -20t20 -49t-20 -49t-49 -20t-49 20z" />
    <glyph glyph-name="uni0459" unicode="&#x459;" horiz-adv-x="897" 
d="M55 0h-37v100h30q35 0 52 37.5t17 127.5v255h416v-178h160q75 0 124 -49q50 -48 50 -122q0 -73 -50 -123q-49 -48 -124 -48h-264v420h-208v-177q0 -122 -44 -182.5t-122 -60.5zM693 242h-160v-142h160q28 0 47 20.5t19 50.5t-19 50.5t-47 20.5z" />
    <glyph glyph-name="uni045A" unicode="&#x45a;" horiz-adv-x="911" 
d="M166 229v-229h-104v520h104v-191h277v191h104v-191h159q75 0 125 -47t50 -117q0 -71 -50 -118t-125 -47h-263v229h-277zM706 229h-159v-129h159q29 0 48 18.5t19 46.5q0 27 -19.5 45.5t-47.5 18.5z" />
    <glyph glyph-name="uni045B" unicode="&#x45b;" horiz-adv-x="612" 
d="M166 750v-85h181v-79h-181v-142q59 89 174 89q92 0 151 -58q60 -59 60 -146v-329h-104v299q0 59 -39 96q-39 39 -98 39q-61 0 -103 -39q-41 -39 -41 -97v-298h-104v586h-55v79h55v85h104z" />
    <glyph glyph-name="uni045C" unicode="&#x45c;" horiz-adv-x="535" 
d="M393 0l-226 269l205 251h127l-204 -251l226 -269h-128zM166 520v-520h-104v520h104zM425 688l-206 -94l-35 65l193 122z" />
    <glyph glyph-name="uni045D" unicode="&#x45d;" horiz-adv-x="610" 
d="M443 345l-294 -345h-87v520h104v-347l294 347h87v-520h-104v345zM380 659l-35 -65l-206 94l48 93z" />
    <glyph glyph-name="uni045E" unicode="&#x45e;" horiz-adv-x="539" 
d="M215 13l-203 507h107l148 -378l153 378h107l-245 -599q-31 -76 -81 -111t-128 -35h-22v100h22q46 0 74 19t45 62zM98 738h87q0 -34 24.5 -57t60.5 -23t60 23t24 57h87q0 -71 -49 -117t-122 -46q-74 0 -123 46t-49 117z" />
    <glyph glyph-name="uni045F" unicode="&#x45f;" horiz-adv-x="595" 
d="M62 0v520h104v-420h262v420h104v-520h-185v-150h-104v150h-181z" />
    <glyph glyph-name="uni0490" unicode="&#x490;" horiz-adv-x="528" 
d="M180 596v-596h-112v700h322v150h113v-254h-323z" />
    <glyph glyph-name="uni0491" unicode="&#x491;" horiz-adv-x="414" 
d="M166 420v-420h-104v520h235v125h104v-225h-235z" />
    <glyph glyph-name="uni04D8" unicode="&#x4d8;" horiz-adv-x="816" 
d="M408 713q155 0 259 -104q105 -103 105 -259t-105 -259q-104 -104 -259 -104t-259 104t-104 259q0 23 3 47h603q-15 90 -83 149t-160 59q-123 0 -195 -96l-111 42q48 76 129 119t177 43zM408 95q92 0 157 55q67 56 83 143h-480q16 -87 83 -143q67 -55 157 -55z" />
    <glyph glyph-name="uni04D9" unicode="&#x4d9;" horiz-adv-x="610" 
d="M32 298h431q-11 60 -58.5 99t-112.5 39q-88 0 -138 -65l-102 31q36 61 99.5 96t140.5 35q120 0 199 -78q80 -78 80 -195t-78 -195q-77 -78 -193 -78q-115 0 -193 78q-77 79 -77 195q0 4 2 38zM462 215h-325q14 -58 59.5 -94.5t105.5 -36.5q57 0 101.5 36.5t58.5 94.5z
" />
    <glyph glyph-name="Wgrave" unicode="&#x1e80;" horiz-adv-x="1010" 
d="M343 0h-91l-239 700h115l168 -521l164 521h91l164 -521l167 521h115l-239 -700h-91l-162 506zM388 950l194 -123l-36 -64l-206 93z" />
    <glyph glyph-name="wgrave" unicode="&#x1e81;" horiz-adv-x="779" 
d="M185 0l-173 520h105l113 -359l113 359h94l112 -359l114 359h105l-173 -520h-93l-112 347l-113 -347h-92zM273 781l194 -122l-36 -65l-206 94z" />
    <glyph glyph-name="Wacute" unicode="&#x1e82;" horiz-adv-x="1010" 
d="M343 0h-91l-239 700h115l168 -521l164 521h91l164 -521l167 521h115l-239 -700h-91l-162 506zM667 856l-207 -93l-35 64l194 123z" />
    <glyph glyph-name="wacute" unicode="&#x1e83;" horiz-adv-x="779" 
d="M185 0l-173 520h105l113 -359l113 359h94l112 -359l114 359h105l-173 -520h-93l-112 347l-113 -347h-92zM552 688l-207 -94l-35 65l194 122z" />
    <glyph glyph-name="Wdieresis" unicode="&#x1e84;" horiz-adv-x="1010" 
d="M343 0h-91l-239 700h115l168 -521l164 521h91l164 -521l167 521h115l-239 -700h-91l-162 506zM563 777q-18 19 -18 47t18 46q19 19 47 19t47 -19q19 -18 19 -46t-19 -47t-47 -19t-47 19zM353 870q19 19 47 19t46 -19q19 -18 19 -46t-19 -47q-18 -19 -46 -19t-47 19
t-19 47t19 46z" />
    <glyph glyph-name="wdieresis" unicode="&#x1e85;" horiz-adv-x="779" 
d="M277 0h-92l-173 520h105l113 -359l113 359h94l112 -359l114 359h105l-173 -520h-93l-14 42l-6 21l-92 284zM495 720q29 0 47.5 -18.5t18.5 -46.5t-18.5 -46.5t-47.5 -18.5q-28 0 -46.5 18.5t-18.5 46.5t18.5 46.5t46.5 18.5zM285 720q28 0 46.5 -18.5t18.5 -46.5
t-18.5 -46.5t-46.5 -18.5q-29 0 -47.5 18.5t-18.5 46.5t18.5 46.5t47.5 18.5z" />
    <glyph glyph-name="Germandbls" unicode="&#x1e9e;" horiz-adv-x="666" 
d="M176 437v-437h-108v439q0 112 77 186q78 75 195 75h269v-74l-119 -184q59 -21 98 -80t39 -128q0 -106 -87 -176q-86 -71 -214 -71l1 108q81 0 134 40q54 41 54 101t-55 100q-55 41 -137 41l142 219h-127q-70 0 -116 -46q-46 -45 -46 -113z" />
    <glyph glyph-name="Ygrave" unicode="&#x1ef2;" horiz-adv-x="679" 
d="M282 0v284l-269 416h129l195 -309l199 309h129l-271 -411v-289h-112zM416 827l-35 -64l-206 93l47 94z" />
    <glyph glyph-name="ygrave" unicode="&#x1ef3;" horiz-adv-x="539" 
d="M215 13l-203 507h107l148 -378l153 378h107l-245 -599q-31 -76 -81 -111t-128 -35h-22v100h22q46 0 74 19t45 62zM310 594l-206 94l48 93l194 -122z" />
    <glyph glyph-name="figuredash" unicode="&#x2012;" 
d="M63 302v96h474v-96h-474z" />
    <glyph glyph-name="endash" unicode="&#x2013;" 
d="M63 212v96h474v-96h-474z" />
    <glyph glyph-name="emdash" unicode="&#x2014;" horiz-adv-x="1000" 
d="M63 212v96h874v-96h-874z" />
    <glyph glyph-name="quoteleft" unicode="&#x2018;" horiz-adv-x="226" 
d="M40 608q0 29 11 57t25.5 46t32 33.5t26.5 21t12 7.5l34 -34l-15 -16q-10 -12 -24 -34q-15 -24 -15 -39q25 -4 42 -24t17 -46q0 -29 -20 -48.5t-50 -19.5q-33 0 -54.5 27t-21.5 69z" />
    <glyph glyph-name="quoteright" unicode="&#x2019;" horiz-adv-x="226" 
d="M187 667q0 -88 -98 -160l-3 -1.5t-2 -1.5l-4 -2l-34 35l15 16q11 13 23 34q15 24 15 39q-25 4 -41.5 23.5t-16.5 46.5q0 29 19.5 48t49.5 19q34 0 55.5 -26.5t21.5 -69.5z" />
    <glyph glyph-name="quotesinglbase" unicode="&#x201a;" horiz-adv-x="226" 
d="M187 29q0 -88 -98 -160l-3 -1.5t-2 -1.5l-4 -2l-34 35l15 16q11 13 23 34q15 23 15 38q-25 4 -41.5 24t-16.5 47q0 29 19.5 48t49.5 19q34 0 55.5 -26.5t21.5 -69.5z" />
    <glyph glyph-name="quotereversed" unicode="&#x201b;" horiz-adv-x="226" 
d="M40 671q0 41 21.5 66.5t54.5 25.5q30 0 50 -19t20 -48q0 -27 -17 -46.5t-42 -23.5q0 -29 41 -66l13 -13l-34 -35q-36 24 -59 47q-48 53 -48 112z" />
    <glyph glyph-name="quotedblleft" unicode="&#x201c;" horiz-adv-x="404" 
d="M217 608q0 17 3.5 33.5t9.5 29.5t14 25.5t17 22.5t17.5 18.5t17 15t14.5 11t10 6.5l4 3l34 -34l-15 -16q-10 -12 -24 -34q-15 -24 -15 -39q25 -4 42 -24t17 -46q0 -29 -20 -48.5t-49 -19.5q-34 0 -55.5 26.5t-21.5 69.5zM40 608q0 29 11 57t25.5 46t32 33.5t26.5 21
t12 7.5l34 -34l-15 -16q-10 -12 -24 -34q-15 -24 -15 -39q25 -4 42 -24t17 -46q0 -29 -20 -48.5t-50 -19.5q-33 0 -54.5 27t-21.5 69z" />
    <glyph glyph-name="quotedblright" unicode="&#x201d;" horiz-adv-x="404" 
d="M187 667q0 -88 -98 -160l-3 -1.5t-2 -1.5l-4 -2l-34 35l15 16q11 13 23 34q15 24 15 39q-25 4 -41.5 23.5t-16.5 46.5q0 29 19.5 48t49.5 19q34 0 55.5 -26.5t21.5 -69.5zM364 667q0 -88 -98 -160l-3 -1.5t-2 -1.5l-4 -2l-34 35l15 16q10 12 24 34q15 24 15 39
q-25 4 -42 23.5t-17 46.5q0 28 20 47.5t49 19.5q34 0 55.5 -26.5t21.5 -69.5z" />
    <glyph glyph-name="quotedblbase" unicode="&#x201e;" horiz-adv-x="404" 
d="M187 29q0 -88 -98 -160l-3 -1.5t-2 -1.5l-4 -2l-34 35l15 16q11 13 23 34q15 23 15 38q-25 4 -41.5 24t-16.5 47q0 29 19.5 48t49.5 19q34 0 55.5 -26.5t21.5 -69.5zM364 29q0 -88 -98 -160l-3 -1.5t-2 -1.5l-4 -2l-34 35l15 16q10 12 24 34q15 23 15 38q-25 4 -42 24
t-17 47q0 28 20 47.5t49 19.5q34 0 55.5 -26.5t21.5 -69.5z" />
    <glyph glyph-name="uni201F" unicode="&#x201f;" horiz-adv-x="404" 
d="M217 671q0 41 21.5 66.5t55.5 25.5q29 0 49 -19.5t20 -47.5q0 -27 -17 -46.5t-42 -23.5q0 -26 40 -66l14 -13l-34 -35l-4 2q-1 1 -10 7.5t-14.5 10.5t-16.5 13.5t-18 18t-16 21t-14.5 25t-9.5 28.5t-4 33zM40 671q0 41 21.5 66.5t54.5 25.5q30 0 50 -19t20 -48
q0 -27 -17 -46.5t-42 -23.5q0 -29 41 -66l13 -13l-34 -35q-36 24 -59 47q-48 53 -48 112z" />
    <glyph glyph-name="dagger" unicode="&#x2020;" horiz-adv-x="466" 
d="M23 411v83h167v206h87v-206h166v-83h-166v-511h-87v511h-167z" />
    <glyph glyph-name="daggerdbl" unicode="&#x2021;" horiz-adv-x="466" 
d="M190 106h-167v83h167v222h-167v83h167v206h87v-206h166v-83h-166v-222h166v-83h-166v-206h-87v206z" />
    <glyph glyph-name="bullet" unicode="&#x2022;" horiz-adv-x="359" 
d="M41 260q0 60 39.5 99.5t99.5 39.5q59 0 99 -40q40 -39 40 -99q0 -59 -40 -99t-99 -40q-60 0 -100 40q-39 41 -39 99z" />
    <glyph glyph-name="ellipsis" unicode="&#x2026;" horiz-adv-x="660" 
d="M60 6q-19 20 -19 50t19 50q20 20 50 20t50 -20t20 -50t-20 -50q-20 -19 -50 -19t-50 19zM330 126q30 0 50 -20t20 -50t-20 -49.5t-50 -19.5q-29 0 -49 19.5t-20 49.5t20 50t49 20zM550 126q30 0 50 -20t20 -50t-20 -49.5t-50 -19.5q-29 0 -49 19.5t-20 49.5t20 50t49 20z
" />
    <glyph glyph-name="perthousand" unicode="&#x2030;" horiz-adv-x="1210" 
d="M163 0l-53 44l547 656l54 -46zM83 416q-50 50 -50 124q0 73 50 123t124 50q73 0 123 -50t50 -123q0 -74 -50 -124q-49 -49 -123 -49q-75 0 -124 49zM207 621q-35 0 -58 -23.5t-23 -57.5t23.5 -57t57.5 -23t57 23t23 57t-23 57.5t-57 23.5zM613 333q73 0 123 -50t50 -123
q0 -74 -50 -124q-49 -49 -123 -49q-75 0 -124 49t-49 124q0 73 50 123t123 50zM613 79q34 0 57 23.5t23 57.5t-23 57.5t-57 23.5t-57.5 -23.5t-23.5 -57.5t23 -57.5t58 -23.5zM880 36q-49 49 -49 124q0 74 49 123q50 50 124 50q73 0 123 -50t50 -123q0 -74 -50 -124
q-49 -49 -123 -49q-75 0 -124 49zM946 217q-23 -23 -23 -57t23 -58q24 -23 58 -23t57 23q24 24 24 58t-24 57q-23 24 -57 24t-58 -24z" />
    <glyph glyph-name="guilsinglleft" unicode="&#x2039;" horiz-adv-x="330" 
d="M224 70l-191 190l191 191l61 -62l-130 -129l130 -129z" />
    <glyph glyph-name="guilsinglright" unicode="&#x203a;" horiz-adv-x="330" 
d="M106 451l190 -191l-190 -190l-61 61l129 129l-129 129z" />
    <glyph glyph-name="fraction" unicode="&#x2044;" horiz-adv-x="580" 
d="M86 0h-86l493 700h87z" />
    <glyph glyph-name="Euro" unicode="&#x20ac;" horiz-adv-x="835" 
d="M113 395h-90v79h107q38 109 129 173q93 66 214 66q105 0 190.5 -51t131.5 -139l-109 -40q-33 57 -89 89.5t-124 32.5q-72 0 -129.5 -35t-88.5 -96h239v-79h-265q-6 -45 0 -90h265v-79h-239q31 -61 88.5 -96t129.5 -35q68 0 124 32.5t89 89.5l109 -40q-46 -88 -131.5 -139
t-190.5 -51q-120 0 -214 65q-91 66 -129 174h-107v79h90q-6 45 0 90z" />
    <glyph glyph-name="uni20B4" unicode="&#x20b4;" horiz-adv-x="640" 
d="M275 383h-237v79h379q42 28 42 62q0 33 -36.5 57t-89.5 24q-49 0 -85.5 -23t-45.5 -58l-112 33q20 68 86 111q68 45 159 45q101 0 169 -53q67 -52 67 -125q0 -39 -24 -73h56v-79h-144q-21 -14 -39 -23q-16 -8 -48 -23.5t-39 -19.5h270v-79h-397q-28 -25 -28 -54
q0 -38 42 -63q43 -26 102 -26q61 0 104.5 27t52.5 67l111 -35q-21 -72 -93 -120q-73 -47 -174 -47q-112 0 -185 55t-73 134q0 30 17 62h-44v79h119q35 26 118 66z" />
    <glyph glyph-name="uni2113" unicode="&#x2113;" horiz-adv-x="492" 
d="M119 202l-77 -34v109q38 16 77 37v251q0 85 45 141q45 57 114 57t115 -55t46 -136q0 -168 -216 -310v-115q0 -56 54 -56q53 0 93 57l4 6l63 -63q-16 -20 -32 -36q-64 -68 -139 -68q-63 0 -105 47t-42 118v50zM223 570v-188q112 90 112 185q0 39 -16 65.5t-41 26.5
q-24 0 -39.5 -25t-15.5 -64z" />
    <glyph glyph-name="uni2116" unicode="&#x2116;" horiz-adv-x="1137" 
d="M176 507v-507h-108v700h99l401 -507v507h108v-700h-99zM1031 425q-48 -48 -120 -48q-71 0 -121 48q-48 48 -48 120t48 120q50 48 121 48q72 0 120 -48t48 -120t-48 -120zM1070 218h-319v91h319v-91zM856 599q-22 -22 -22 -54t22 -54q23 -22 55 -22t53 22q22 22 22 54
t-22 54q-21 22 -53 22t-55 -22z" />
    <glyph glyph-name="uni2117" unicode="&#x2117;" horiz-adv-x="806" 
d="M150 97q-105 105 -105 253t105 253t253 105q149 0 252 -105q105 -105 105 -253t-105 -253q-103 -105 -252 -105q-148 0 -253 105zM403 37q129 0 221 92t92 221t-92 221t-221 92q-130 0 -222 -92q-91 -91 -91 -221t91 -221q92 -92 222 -92zM353 162h-69v376h168
q56 0 94 -36q38 -35 38 -87q0 -53 -38 -89q-38 -35 -94 -35h-99v-129zM452 474h-99v-119h99q26 0 43 17t17 43q0 25 -17 42t-43 17z" />
    <glyph glyph-name="trademark" unicode="&#x2122;" horiz-adv-x="769" 
d="M418 350h-60v350h60l130 -228l131 228h60v-350h-60v241l-111 -200h-40l-110 197v-238zM130 350v293h-120v57h301v-57h-120v-293h-61z" />
    <glyph glyph-name="estimated" unicode="&#x212e;" horiz-adv-x="804" 
d="M759 350h-554v-248q87 -69 197 -69q89 0 164 45.5t117 124.5h44q-43 -96 -132 -153t-193 -57q-146 0 -252 104q-105 105 -105 253t104 252q105 105 253 105t252 -105q105 -104 105 -252zM205 598v-208h394v208q-87 69 -197 69t-197 -69z" />
    <glyph glyph-name="uni2150" unicode="&#x2150;" horiz-adv-x="821" 
d="M118 315v306l-73 -36l-24 57l116 58h47v-385h-66zM666 700l-492 -700h-91l492 700h91zM589 0l142 324h-196v61h266v-64l-137 -321h-75z" />
    <glyph glyph-name="uni2151" unicode="&#x2151;" horiz-adv-x="820" 
d="M655 196q31 0 52 18.5t21 46.5q4 41 -45.5 58.5t-81.5 -12.5q-20 -20 -20.5 -46t21.5 -46.5t53 -18.5zM513 67l59 28q24 -35 73 -35q37 0 61.5 20t24.5 50v47q-24 -45 -83 -45q-57 0 -97 37t-40 93q0 55 41 91q40 37 102 37t102 -37q42 -36 42 -89v-133q0 -58 -44 -97
t-107 -39q-44 0 -80 19.5t-54 52.5zM118 315v306l-73 -36l-24 57l116 58h47v-385h-66zM666 700l-492 -700h-91l492 700h91z" />
    <glyph glyph-name="uni2152" unicode="&#x2152;" horiz-adv-x="1095" 
d="M922 325q-35 0 -58 -20.5t-23 -51.5v-120q0 -31 23 -52t58 -21q34 0 57.5 21t23.5 52v120q0 31 -23.5 51.5t-57.5 20.5zM627 0v306l-72 -36l-25 57l116 58h47v-385h-66zM773 134v118q0 59 42 98q43 40 107 40t105 -40q43 -39 43 -98v-118q0 -59 -43 -99q-41 -40 -105 -40
t-107 40q-42 41 -42 99zM118 315v306l-73 -36l-24 57l116 58h47v-385h-66zM666 700l-492 -700h-91l492 700h91z" />
    <glyph glyph-name="onethird" unicode="&#x2153;" horiz-adv-x="820" 
d="M118 315v306l-73 -36l-24 57l116 58h47v-385h-66zM666 700l-492 -700h-91l492 700h91zM649 325q-53 0 -72 -39l-59 21q16 37 52.5 60t82.5 23q57 0 95.5 -33t38.5 -82q0 -51 -52 -75q61 -27 61 -86q0 -51 -40.5 -85t-101.5 -34q-50 0 -87.5 23.5t-52.5 62.5l62 23
q15 -44 75 -44q33 0 54.5 16t21.5 40t-21 39.5t-53 15.5h-29v51h20q31 0 52 15t21 37t-19.5 36.5t-48.5 14.5z" />
    <glyph glyph-name="twothirds" unicode="&#x2154;" horiz-adv-x="901" 
d="M221 585q0 22 -19.5 38.5t-45.5 16.5q-55 0 -77 -58l-62 31q19 42 56 67t83 25q55 0 95 -35q39 -34 39 -83q0 -59 -82 -132l-80 -76h167v-64h-270v49l141 134q55 52 55 87zM255 0h-91l492 700h91zM730 325q-52 0 -72 -39l-59 21q16 37 52.5 60t82.5 23q57 0 95.5 -33
t38.5 -82q0 -51 -52 -75q62 -27 62 -86q0 -50 -41 -85q-40 -34 -102 -34q-50 0 -87.5 23.5t-52.5 62.5l62 23q7 -20 27.5 -32t47.5 -12q33 0 54.5 16t21.5 40t-21 39.5t-53 15.5h-29v51h20q31 0 52 15t21 37t-19 36.5t-49 14.5z" />
    <glyph glyph-name="uni2155" unicode="&#x2155;" horiz-adv-x="825" 
d="M118 315v306l-73 -36l-24 57l116 58h47v-385h-66zM666 700l-492 -700h-91l492 700h91zM802 125q0 -55 -42 -93q-40 -37 -103 -37q-51 0 -90 26.5t-54 69.5l67 19q23 -50 76 -50q32 0 54.5 18.5t22.5 46.5t-24.5 47.5t-60.5 19.5h-106l19 193h209v-61h-154l-7 -71h55
q58 0 98 -37t40 -91z" />
    <glyph glyph-name="uni2156" unicode="&#x2156;" horiz-adv-x="906" 
d="M221 585q0 22 -19.5 38.5t-45.5 16.5q-55 0 -77 -58l-62 31q19 42 56 67t83 25q55 0 95 -35q39 -34 39 -83q0 -59 -82 -132l-80 -76h167v-64h-270v49l141 134q55 52 55 87zM255 0h-91l492 700h91zM883 125q0 -55 -42 -93q-40 -37 -103 -37q-51 0 -90 26.5t-54 69.5l67 19
q23 -50 76 -50q33 0 55 18.5t22 46.5t-24.5 47.5t-60.5 19.5h-106l19 193h209v-61h-154l-7 -71h56q59 0 97 -37q40 -37 40 -91z" />
    <glyph glyph-name="uni2157" unicode="&#x2157;" horiz-adv-x="921" 
d="M155 640q-53 0 -72 -39l-59 21q16 37 52.5 60t82.5 23q57 0 95.5 -33t38.5 -82q0 -51 -52 -75q61 -27 61 -86q0 -51 -40.5 -84.5t-101.5 -33.5q-50 0 -87.5 23t-52.5 62l62 23q15 -44 75 -44q33 0 54.5 16t21.5 40t-21 39.5t-53 15.5h-29v51h20q31 0 52 15t21 37
t-19.5 36.5t-48.5 14.5zM270 0h-91l492 700h91zM899 125q0 -55 -42 -93q-41 -37 -104 -37q-50 0 -89 26.5t-55 69.5l67 19q23 -50 77 -50q32 0 54 18.5t22 46.5t-24.5 47.5t-59.5 19.5h-107l20 193h208v-61h-153l-8 -71h56q58 0 98 -37t40 -91z" />
    <glyph glyph-name="uni2158" unicode="&#x2158;" horiz-adv-x="941" 
d="M20 390v64l205 246h63v-246h51v-64h-51v-75h-67v75h-201zM291 0h-92l492 700h92zM630 91l67 19q23 -50 76 -50q32 0 54 18.5t22 46.5q0 29 -24 48t-60 19h-106l19 193h208v-61h-153l-7 -71h55q58 0 98 -37t40 -91q0 -55 -42 -93q-41 -37 -104 -37q-50 0 -89 26.5
t-54 69.5zM221 600l-121 -146h121v146z" />
    <glyph glyph-name="uni2159" unicode="&#x2159;" horiz-adv-x="822" 
d="M660 183q-49 3 -69 -37.5t15 -67.5q24 -18 53.5 -18.5t53 18t21.5 44.5q0 26 -21.5 43.5t-52.5 17.5zM796 316l-60 -29q-23 38 -72 38q-35 0 -58.5 -20t-23.5 -50v-47q28 39 84 39q58 0 98 -36t40 -90q0 -53 -42 -90q-40 -36 -102 -36q-61 0 -103 36q-42 37 -42 90v134
q0 59 42 96q44 39 106 39q44 0 79.5 -20t53.5 -54zM118 315v306l-73 -36l-24 57l116 58h47v-385h-66zM666 700l-492 -700h-91l492 700h91z" />
    <glyph glyph-name="uni215A" unicode="&#x215a;" horiz-adv-x="899" 
d="M736 183q-31 0 -52.5 -17.5t-21.5 -43.5t21.5 -44t52.5 -18q32 0 53 17.5t21 44.5q0 26 -21 43.5t-53 17.5zM872 316l-60 -29q-23 38 -72 38q-35 0 -58 -20t-23 -50v-47q29 39 84 39q57 0 97 -37q40 -36 40 -89t-42 -90q-40 -36 -102 -36q-61 0 -103 36q-41 38 -41 90
v134q0 59 42 96q44 39 106 39q44 0 79.5 -20t52.5 -54zM308 440q0 -54 -42 -92q-40 -37 -103 -37q-51 0 -90 26t-54 69l67 19q23 -50 76 -50q32 0 54.5 18.5t22.5 46.5t-24.5 47.5t-60.5 19.5h-106l19 193h208v-61h-153l-7 -71h55q58 0 98 -37t40 -91zM743 700l-492 -700
h-92l492 700h92z" />
    <glyph glyph-name="oneeighth" unicode="&#x215b;" horiz-adv-x="823" 
d="M581 115q0 -24 21 -39.5t54 -15.5q32 0 53.5 15.5t21.5 38.5t-21.5 38.5t-53.5 15.5q-33 0 -54 -15t-21 -38zM591 278q0 -21 18.5 -34.5t46.5 -13.5t46.5 13.5t18.5 34.5q0 20 -18.5 33.5t-46.5 13.5t-46.5 -13.5t-18.5 -33.5zM522 284q0 45 38 75.5t96 30.5
q57 0 95.5 -30.5t38.5 -76.5q0 -52 -48 -82q58 -34 58 -93q0 -48 -42 -81q-41 -32 -102 -32q-62 0 -103 33t-41 81q0 59 57 92q-47 32 -47 83zM118 315v306l-73 -36l-24 57l116 58h47v-385h-66zM666 700l-492 -700h-91l492 700h91z" />
    <glyph glyph-name="threeeighths" unicode="&#x215c;" horiz-adv-x="919" 
d="M608 109q0 58 58 92q-48 30 -48 83q0 45 38.5 75.5t95.5 30.5q58 0 96.5 -30.5t38.5 -76.5q0 -52 -48 -82q58 -34 58 -93q0 -48 -42 -81q-41 -32 -103 -32q-61 0 -103 33q-41 33 -41 81zM762 700l-492 -700h-91l492 700h91zM160 311q-50 0 -87.5 23t-52.5 62l62 23
q15 -44 75 -44q33 0 54.5 16t21.5 40t-21 39.5t-53 15.5h-29v51h20q31 0 52 15t21 37t-19.5 36.5t-48.5 14.5q-53 0 -72 -39l-59 21q16 37 52.5 60t82.5 23q57 0 95.5 -33t38.5 -82q0 -51 -52 -75q61 -27 61 -86q0 -51 -40.5 -84.5t-101.5 -33.5zM678 115q0 -24 21 -39.5
t53 -15.5t53.5 15.5t21.5 38.5t-21.5 38.5t-53.5 15.5t-53 -15t-21 -38zM688 278q0 -21 18.5 -34.5t45.5 -13.5q28 0 46.5 13.5t18.5 34.5q0 20 -18.5 33.5t-46.5 13.5q-27 0 -45.5 -13.5t-18.5 -33.5z" />
    <glyph glyph-name="fiveeighths" unicode="&#x215d;" horiz-adv-x="899" 
d="M658 115q0 -24 21 -39.5t53 -15.5t53.5 15.5t21.5 38.5t-21.5 38.5t-53.5 15.5t-53 -15t-21 -38zM668 278q0 -21 18.5 -34.5t45.5 -13.5q28 0 46.5 13.5t18.5 34.5q0 20 -18.5 33.5t-46.5 13.5q-27 0 -45.5 -13.5t-18.5 -33.5zM598 284q0 45 38.5 75.5t95.5 30.5
q58 0 96.5 -30.5t38.5 -76.5q0 -51 -48 -82q58 -34 58 -93q0 -48 -42 -81q-41 -32 -103 -32q-61 0 -103 33q-41 33 -41 81q0 61 58 92q-48 30 -48 83zM308 440q0 -54 -42 -92q-40 -37 -103 -37q-51 0 -90 26t-54 69l67 19q23 -50 76 -50q32 0 54.5 18.5t22.5 46.5
t-24.5 47.5t-60.5 19.5h-106l19 193h208v-61h-153l-7 -71h55q58 0 98 -37t40 -91zM743 700l-492 -700h-92l492 700h92z" />
    <glyph glyph-name="seveneighths" unicode="&#x215e;" horiz-adv-x="856" 
d="M614 115q0 -24 21 -39.5t54 -15.5q32 0 53.5 15.5t21.5 38.5t-21.5 38.5t-53.5 15.5q-33 0 -54 -15t-21 -38zM624 278q0 -21 18.5 -34.5t46.5 -13.5t46.5 13.5t18.5 34.5q0 20 -18.5 33.5t-46.5 13.5t-46.5 -13.5t-18.5 -33.5zM555 284q0 45 38 75.5t96 30.5
q57 0 95.5 -30.5t38.5 -76.5q0 -52 -48 -82q58 -34 58 -93q0 -48 -42 -81q-41 -32 -102 -32q-63 0 -103 33q-41 33 -41 81q0 59 57 92q-47 32 -47 83zM65 315l142 324h-196v61h266v-64l-137 -321h-75zM699 700l-492 -700h-91l492 700h91z" />
    <glyph glyph-name="uni215F" unicode="&#x215f;" horiz-adv-x="666" 
d="M118 315v306l-73 -36l-24 57l116 58h47v-385h-66zM666 700l-492 -700h-91l492 700h91z" />
    <glyph glyph-name="arrowleft" unicode="&#x2190;" horiz-adv-x="693" 
d="M318 95l-255 255l255 255l64 -63l-140 -144h388v-96h-388l140 -144z" />
    <glyph glyph-name="arrowup" unicode="&#x2191;" horiz-adv-x="693" 
d="M92 378l255 255l255 -255l-64 -63l-144 140v-388h-95v388l-144 -140z" />
    <glyph glyph-name="arrowright" unicode="&#x2192;" horiz-adv-x="693" 
d="M375 605l255 -255l-255 -255l-64 63l140 144h-388v96h388l-140 144z" />
    <glyph glyph-name="arrowdown" unicode="&#x2193;" horiz-adv-x="693" 
d="M602 322l-255 -255l-255 255l63 63l144 -139v387h95v-387l144 139z" />
    <glyph glyph-name="uni2196" unicode="&#x2196;" horiz-adv-x="693" 
d="M146 190v360h361v-89l-200 -3l274 -275l-68 -67l-274 274l-3 -200h-90z" />
    <glyph glyph-name="uni2197" unicode="&#x2197;" horiz-adv-x="693" 
d="M220 550h361v-360h-90l-3 200l-274 -274l-68 67l274 275l-200 3v89z" />
    <glyph glyph-name="uni2198" unicode="&#x2198;" horiz-adv-x="693" 
d="M581 477v-361h-361v90l200 3l-274 274l68 67l274 -274l3 201h90z" />
    <glyph glyph-name="uni2199" unicode="&#x2199;" horiz-adv-x="693" 
d="M507 116h-361v361h90l3 -201l274 274l68 -67l-274 -274l200 -3v-90z" />
    <glyph glyph-name="emptyset" unicode="&#x2205;" horiz-adv-x="816" 
d="M408 713q91 0 174 -44l31 44h98l-63 -91q124 -110 124 -272q0 -150 -107 -257q-106 -106 -257 -106q-91 0 -174 44l-31 -44h-98l64 90q-59 50 -91.5 121t-32.5 152q0 150 106 256q107 107 257 107zM219 149l313 447q-58 30 -124 30q-114 0 -195 -81t-81 -195
q0 -117 87 -201zM408 74q114 0 195 81t81 195q0 118 -87 201l-312 -447q59 -30 123 -30z" />
    <glyph glyph-name="product" unicode="&#x220f;" horiz-adv-x="656" 
d="M176 600v-775h-108v875h520v-875h-108v775h-304z" />
    <glyph glyph-name="summation" unicode="&#x2211;" horiz-adv-x="507" 
d="M477 -75v-100h-447v83l218 354l-218 355v83h447v-100h-320l208 -338l-208 -337h320z" />
    <glyph glyph-name="minus" unicode="&#x2212;" 
d="M63 302v96h474v-96h-474z" />
    <glyph glyph-name="integral" unicode="&#x222b;" horiz-adv-x="323" 
d="M10 -175v100h30q30 0 50 21t20 52v593q0 68 47 113q47 46 118 46h38v-100h-30q-29 0 -49 -21t-20 -52v-593q0 -68 -48 -113q-47 -46 -118 -46h-38z" />
    <glyph glyph-name="approxequal" unicode="&#x2248;" 
d="M382 371q-44 0 -96 33t-73 33q-23 0 -39 -17.5t-16 -42.5h-95q0 66 45 111q46 45 109 45q45 0 97 -34q53 -33 73 -33q23 0 38.5 17t15.5 43h96q-2 -66 -47 -110q-45 -45 -108 -45zM382 168q-44 0 -96 33t-73 33q-23 0 -39 -17.5t-16 -42.5h-95q0 66 45 110q46 45 109 45
q45 0 97 -33t73 -33q23 0 38.5 17t15.5 43h96q-2 -66 -47 -110q-45 -45 -108 -45z" />
    <glyph glyph-name="notequal" unicode="&#x2260;" 
d="M382 418l-63 -136h218v-96h-263l-56 -121h-96l56 121h-115v96h160l63 136h-223v96h268l56 121h96l-56 -121h110v-96h-155z" />
    <glyph glyph-name="lessequal" unicode="&#x2264;" 
d="M537 192l-474 195v86l474 197v-103l-327 -137l327 -135v-103zM63 41v96h474v-96h-474z" />
    <glyph glyph-name="greaterequal" unicode="&#x2265;" 
d="M537 473v-86l-474 -195v103l327 135l-327 137v103zM63 137h474v-96h-474v96z" />
    <glyph glyph-name="uni23F4" unicode="&#x23f4;" horiz-adv-x="386" 
d="M296 133l-246 217l246 217v-434z" />
    <glyph glyph-name="uni23F5" unicode="&#x23f5;" horiz-adv-x="386" 
d="M90 567l246 -217l-246 -217v434z" />
    <glyph glyph-name="uni23F6" unicode="&#x23f6;" horiz-adv-x="454" 
d="M10 227l217 246l217 -246h-434z" />
    <glyph glyph-name="uni23F7" unicode="&#x23f7;" horiz-adv-x="454" 
d="M444 473l-217 -246l-217 246h434z" />
    <glyph glyph-name="filledbox" unicode="&#x25a0;" horiz-adv-x="836" 
d="M768 0h-700v700h700v-700z" />
    <glyph glyph-name="H22073" unicode="&#x25a1;" horiz-adv-x="836" 
d="M768 0h-700v700h700v-700zM681 87v526h-526v-526h526z" />
    <glyph glyph-name="uni25A2" unicode="&#x25a2;" horiz-adv-x="836" 
d="M768 0h-700v700h700v-700zM681 87v526h-526v-526h526z" />
    <glyph glyph-name="triagup" unicode="&#x25b2;" horiz-adv-x="892" 
d="M30 0l416 720l416 -720h-832z" />
    <glyph glyph-name="uni25B3" unicode="&#x25b3;" horiz-adv-x="892" 
d="M446 720l416 -720h-832zM182 87h529l-265 459z" />
    <glyph glyph-name="triagdn" unicode="&#x25bc;" horiz-adv-x="892" 
d="M862 700l-416 -720l-416 720h832z" />
    <glyph glyph-name="uni25BD" unicode="&#x25bd;" horiz-adv-x="892" 
d="M30 700h832l-416 -720zM446 154l265 459h-529z" />
    <glyph glyph-name="uni25C6" unicode="&#x25c6;" horiz-adv-x="800" 
d="M400 -20l-370 370l370 370l370 -370z" />
    <glyph glyph-name="uni25C7" unicode="&#x25c7;" horiz-adv-x="800" 
d="M400 -20l-370 370l370 370l370 -370zM400 103l247 247l-247 247l-247 -247z" />
    <glyph glyph-name="lozenge" unicode="&#x25ca;" horiz-adv-x="525" 
d="M30 350l202 350h61l202 -350l-202 -350h-61zM263 123l131 227l-131 227l-132 -227z" />
    <glyph glyph-name="circle" unicode="&#x25cb;" horiz-adv-x="816" 
d="M45 350q0 150 106 256q107 107 257 107t257 -107t107 -256q0 -150 -107 -257q-106 -106 -257 -106t-257 106t-106 257zM213 545q-81 -81 -81 -195t81 -195t195 -81t195 81t81 195t-81 195t-195 81t-195 -81z" />
    <glyph glyph-name="H18533" unicode="&#x25cf;" horiz-adv-x="816" 
d="M45 350q0 150 106 256q107 107 257 107t257 -107t107 -256q0 -150 -107 -257q-106 -106 -257 -106t-257 106t-106 257z" />
    <glyph glyph-name="uni25D0" unicode="&#x25d0;" horiz-adv-x="816" 
d="M45 350q0 150 106 256q107 107 257 107t257 -107t107 -256q0 -150 -107 -257q-106 -106 -257 -106t-257 106t-106 257zM408 626v-552q114 0 195 81t81 195t-81 195t-195 81z" />
    <glyph glyph-name="uni25D1" unicode="&#x25d1;" horiz-adv-x="816" 
d="M45 350q0 150 106 256q107 107 257 107t257 -107t107 -256q0 -150 -107 -257q-106 -106 -257 -106t-257 106t-106 257zM408 74v552q-114 0 -195 -81t-81 -195t81 -195t195 -81z" />
    <glyph glyph-name="uni25D2" unicode="&#x25d2;" horiz-adv-x="816" 
d="M408 -13q-151 0 -257 106t-106 257q0 150 106 256q107 107 257 107t257 -107t107 -256q0 -150 -107 -257q-106 -106 -257 -106zM132 350h552q0 114 -81 195t-195 81t-195 -81t-81 -195z" />
    <glyph glyph-name="uni25D3" unicode="&#x25d3;" horiz-adv-x="816" 
d="M408 713q150 0 257 -107t107 -256q0 -150 -107 -257q-106 -106 -257 -106t-257 106t-106 257q0 150 106 256q107 107 257 107zM684 350h-552q0 -114 81 -195t195 -81t195 81t81 195z" />
    <glyph glyph-name="uni25D4" unicode="&#x25d4;" horiz-adv-x="816" 
d="M45 350q0 150 106 256q107 107 257 107t257 -107t107 -256q0 -150 -107 -257q-106 -106 -257 -106t-257 106t-106 257zM684 350h-276v276q-114 0 -195 -81t-81 -195t81 -195t195 -81t195 81t81 195z" />
    <glyph glyph-name="uni25D5" unicode="&#x25d5;" horiz-adv-x="816" 
d="M45 350q0 150 106 256q107 107 257 107t257 -107t107 -256q0 -150 -107 -257q-106 -106 -257 -106t-257 106t-106 257zM132 350h276v276q-114 0 -195 -81t-81 -195z" />
    <glyph glyph-name="uni25D6" unicode="&#x25d6;" horiz-adv-x="476" 
d="M45 350q0 150 106 256q107 107 257 107v-726q-151 0 -257 106t-106 257z" />
    <glyph glyph-name="uni25D7" unicode="&#x25d7;" horiz-adv-x="476" 
d="M431 350q0 -150 -107 -257q-106 -106 -256 -106v726q149 0 256 -107t107 -256z" />
    <glyph glyph-name="uni25EF" unicode="&#x25ef;" horiz-adv-x="816" 
d="M45 350q0 150 106 256q107 107 257 107t257 -107t107 -256q0 -150 -107 -257q-106 -106 -257 -106t-257 106t-106 257zM213 545q-81 -81 -81 -195t81 -195t195 -81t195 81t81 195t-81 195t-195 81t-195 -81z" />
    <glyph glyph-name="uni2639" unicode="&#x2639;" horiz-adv-x="790" 
d="M207 458q0 26 18 44t44 18q27 0 45 -18t18 -44q0 -27 -18 -45t-45 -18q-26 0 -44 18t-18 45zM460 458q0 26 18 44t44 18q27 0 45 -18t18 -44q0 -27 -18 -45t-45 -18q-26 0 -44 18t-18 45zM232 143h-40q0 79 58 131q59 53 145 53q85 0 144 -53t59 -131h-40q0 61 -47 102
t-116 41t-116 -41t-47 -102zM144 99q-104 104 -104 251t104 251t251 104t251 -104t104 -251t-104 -251t-251 -104t-251 104zM171 574q-93 -93 -93 -224t93 -224t224 -93t224 93t93 224t-93 224t-224 93t-224 -93z" />
    <glyph glyph-name="smileface" unicode="&#x263a;" horiz-adv-x="790" 
d="M207 458q0 26 18 44t44 18q27 0 45 -18t18 -44q0 -27 -18 -45t-45 -18q-26 0 -44 18t-18 45zM460 458q0 26 18 44t44 18q27 0 45 -18t18 -44q0 -27 -18 -45t-45 -18q-26 0 -44 18t-18 45zM192 297h40q0 -61 47 -102t116 -41t116 41t47 102h40q0 -79 -59 -132
q-58 -52 -144 -52q-87 0 -145 52t-58 132zM144 99q-104 104 -104 251t104 251t251 104t251 -104t104 -251t-104 -251t-251 -104t-251 104zM171 574q-93 -93 -93 -224t93 -224t224 -93t224 93t93 224t-93 224t-224 93t-224 -93z" />
    <glyph glyph-name="invsmileface" unicode="&#x263b;" horiz-adv-x="790" 
d="M207 458q0 -27 18 -45t44 -18q27 0 45 18t18 45q0 26 -18 44t-45 18q-26 0 -44 -18t-18 -44zM460 458q0 -27 18 -45t44 -18q27 0 45 18t18 45q0 26 -18 44t-45 18q-26 0 -44 -18t-18 -44zM232 297h-40q0 -80 58 -132t145 -52q86 0 144 52q59 53 59 132h-40
q0 -61 -47 -102t-116 -41t-116 41t-47 102zM144 99q-104 104 -104 251t104 251t251 104t251 -104t104 -251t-104 -251t-251 -104t-251 104z" />
    <glyph glyph-name="commaaccent" horiz-adv-x="231" 
d="M176 -129q0 -72 -89 -125l-27 28l12 11q9 7 20.5 22.5t11.5 24.5q-20 3 -34 19t-14 38q0 24 16 40t41 16q27 0 45 -20.5t18 -53.5z" />
    <glyph glyph-name="zero.fitted" 
d="M36 236v228q0 108 75 178q77 71 189 71t188 -71q76 -70 76 -178v-228q0 -108 -76 -178q-76 -71 -188 -71t-189 71q-75 70 -75 178zM144 466v-231q0 -62 44 -103q46 -41 112 -41q67 0 111 41q45 40 45 103v231q0 62 -45 102q-44 41 -111 41q-66 0 -112 -41
q-44 -41 -44 -102z" />
    <glyph glyph-name="one.fitted" 
d="M289 565l-150 -75l-46 96l228 114h76v-596h158v-104h-424v104h158v461z" />
    <glyph glyph-name="two.fitted" 
d="M422 498q0 46 -38 78q-37 33 -92 33q-50 0 -88 -29t-59 -80l-100 48q33 76 98.5 120.5t148.5 44.5q100 0 171 -62t71 -150q0 -55 -35.5 -111.5t-112.5 -130.5l-162 -155h318v-104h-486v81l261 251q105 102 105 166z" />
    <glyph glyph-name="three.fitted" 
d="M419 510q0 42 -38.5 70.5t-97.5 28.5q-48 0 -84.5 -19t-52.5 -52l-98 48q30 59 92 93t143 34q107 0 177 -58q71 -57 71 -141q0 -96 -87 -152q49 -27 77 -71.5t28 -95.5q0 -89 -75 -149q-74 -59 -185 -59q-89 0 -156 40.5t-94 107.5l104 37q14 -36 53.5 -58.5t92.5 -22.5
q63 0 105 31t42 79q0 46 -41.5 76.5t-102.5 30.5h-53v100h37q61 0 102 29t41 73z" />
    <glyph glyph-name="four.fitted" 
d="M389 0v139h-354v104l360 457h102v-457h92v-104h-92v-139h-108zM389 532l-226 -289h226v289z" />
    <glyph glyph-name="five.fitted" 
d="M293 -13q-88 0 -156.5 45t-98.5 122l108 30q21 -43 59.5 -68t88.5 -25q64 0 107 37q44 38 44 93q0 58 -47 96t-116 38h-191l35 345h373v-100h-283l-14 -145h84q117 0 193 -67q78 -68 78 -167q0 -100 -76 -167q-74 -67 -188 -67z" />
    <glyph glyph-name="six.fitted" 
d="M550 584l-101 -49q-21 34 -57 54t-80 20q-66 0 -113 -41q-45 -40 -45 -102v-67q61 49 152 49q111 0 184 -67q75 -66 75 -165q0 -97 -75 -163q-74 -66 -184 -66q-111 0 -186 66q-74 68 -74 165v246q0 108 76 178q77 71 192 71q77 0 139.5 -34.5t96.5 -94.5zM306 344
q-63 0 -105 -36t-42 -89q0 -55 42 -92q42 -36 105 -36q61 0 104 35q42 36 42 89q0 55 -42 92q-41 37 -104 37z" />
    <glyph glyph-name="seven.fitted" 
d="M168 0l253 600h-361v100h476v-105l-251 -595h-117z" />
    <glyph glyph-name="eight.fitted" 
d="M42 193q0 54 29 99t81 73q-94 57 -94 155q0 82 69 137q71 56 174 56q102 0 172 -56q70 -55 70 -138q0 -98 -94 -154q52 -28 81 -73t29 -99q0 -89 -74 -148q-73 -58 -184 -58t-185 59t-74 147zM154 203q0 -48 41.5 -80t105.5 -32q63 0 104.5 31.5t41.5 79.5q0 47 -42 79
q-41 32 -104 32q-62 0 -105 -32q-42 -31 -42 -78zM171 512q0 -43 37 -71t93 -28t92.5 28t36.5 71q0 41 -37 69t-92 28q-56 0 -93 -28t-37 -69z" />
    <glyph glyph-name="nine.fitted" 
d="M42 121l100 49q21 -37 59 -58t85 -21q70 0 116 40q47 41 47 102v59q-62 -53 -149 -53q-110 0 -184 68q-74 69 -74 170q0 100 74 168t184 68q109 0 183 -68t74 -167v-244q0 -106 -78 -177q-77 -70 -194 -70q-81 0 -145.5 36t-97.5 98zM300 343q61 0 102 38q42 39 42 95
q0 57 -41 95t-103 38q-61 0 -104 -38q-41 -38 -41 -93q0 -58 41 -97q43 -38 104 -38z" />
    <glyph glyph-name="zero.sup" horiz-adv-x="347" 
d="M25 499v118q0 59 42 98q43 40 107 40t105 -40q43 -39 43 -98v-118q0 -59 -43 -99q-42 -39 -105 -39q-64 0 -107 39q-42 40 -42 99zM174 690q-35 0 -58 -20.5t-23 -51.5v-120q0 -31 23 -52t58 -21q34 0 57.5 21t23.5 52v120q0 31 -23.5 51.5t-57.5 20.5z" />
    <glyph glyph-name="one.sup" horiz-adv-x="239" 
d="M118 672l-73 -37l-24 57l116 58h47v-385h-66v307z" />
    <glyph glyph-name="two.sup" horiz-adv-x="320" 
d="M221 635q0 22 -19.5 38.5t-45.5 16.5q-55 0 -77 -58l-62 31q19 42 56 67t83 25q55 0 95 -35q39 -34 39 -83q0 -59 -82 -132l-80 -76h167v-64h-270v49l141 134q55 52 55 87z" />
    <glyph glyph-name="three.sup" horiz-adv-x="326" 
d="M155 690q-53 0 -72 -39l-59 21q16 37 52.5 60t82.5 23q57 0 95.5 -33t38.5 -82q0 -51 -52 -75q61 -27 61 -86q0 -51 -40.5 -84.5t-101.5 -33.5q-50 0 -87.5 23t-52.5 62l62 23q15 -44 75 -44q33 0 54.5 16t21.5 40t-21 39.5t-53 15.5h-29v51h20q31 0 52 15t21 37
t-19.5 36.5t-48.5 14.5z" />
    <glyph glyph-name="four.sup" horiz-adv-x="356" 
d="M221 365v75h-201v64l205 246h63v-246h51v-64h-51v-75h-67zM221 650l-121 -146h121v146z" />
    <glyph glyph-name="five.sup" horiz-adv-x="331" 
d="M308 490q0 -54 -42 -92q-40 -37 -103 -37q-51 0 -90 26t-54 69l67 19q23 -50 76 -50q32 0 54.5 18.5t22.5 46.5t-24.5 47.5t-60.5 19.5h-106l19 193h208v-61h-153l-7 -71h55q58 0 98 -37t40 -91z" />
    <glyph glyph-name="six.sup" horiz-adv-x="333" 
d="M306 681l-60 -29q-23 38 -71 38q-35 0 -58.5 -20t-23.5 -50v-47q29 39 84 39q57 0 97 -36q41 -36 41 -90q0 -53 -42 -89q-41 -36 -102 -36q-62 0 -104 36q-41 36 -41 89v134q0 58 42 96q43 39 106 39q45 0 80 -20t52 -54zM171 548q-49 3 -69 -37.5t15 -67.5
q24 -18 53.5 -18.5t53 18t21.5 44.5q0 26 -21.5 43.5t-52.5 17.5z" />
    <glyph glyph-name="seven.sup" horiz-adv-x="297" 
d="M65 365l142 324h-196v61h266v-64l-137 -321h-75z" />
    <glyph glyph-name="eight.sup" horiz-adv-x="334" 
d="M23 474q0 61 58 92q-48 30 -48 83q0 45 38 75.5t96 30.5q57 0 95.5 -30.5t38.5 -76.5q0 -52 -48 -82q58 -34 58 -93q0 -48 -41 -80t-103 -32t-103 32q-41 33 -41 81zM92 480q0 -24 21 -39.5t54 -15.5q32 0 53.5 15.5t21.5 38.5t-21.5 38.5t-53.5 15.5q-33 0 -54 -15
t-21 -38zM102 643q0 -21 18.5 -34.5t46.5 -13.5t46.5 13.5t18.5 34.5q0 20 -18.5 33.5t-46.5 13.5t-46.5 -13.5t-18.5 -33.5z" />
    <glyph glyph-name="nine.sup" horiz-adv-x="331" 
d="M24 432l59 28q24 -35 73 -35q37 0 61.5 20t24.5 50v47q-26 -45 -83 -45t-97 37t-40 93q0 55 41 91.5t102 36.5q62 0 102 -37q41 -36 41 -89v-133q0 -58 -43 -97q-44 -38 -107 -38q-44 0 -80 19t-54 52zM166 561q31 0 52 18.5t21 46.5q4 41 -45.5 58.5t-81.5 -12.5
q-20 -20 -20.5 -46t21.5 -46.5t53 -18.5z" />
    <glyph glyph-name="zero.sub" horiz-adv-x="347" 
d="M25 34v118q0 59 42 98q43 40 107 40t105 -40q43 -39 43 -98v-118q0 -59 -43 -99q-41 -40 -105 -40t-107 40q-42 41 -42 99zM174 225q-35 0 -58 -20.5t-23 -51.5v-120q0 -31 23 -52t58 -21q34 0 57.5 21t23.5 52v120q0 31 -23.5 51.5t-57.5 20.5z" />
    <glyph glyph-name="one.sub" horiz-adv-x="239" 
d="M118 207l-73 -37l-24 57l116 58h47v-385h-66v307z" />
    <glyph glyph-name="two.sub" horiz-adv-x="320" 
d="M221 170q0 22 -19.5 38.5t-45.5 16.5q-55 0 -77 -58l-62 31q19 42 56 67t83 25q55 0 95 -35q39 -35 39 -83q0 -59 -82 -132l-80 -76h167v-64h-270v49l141 134q55 52 55 87z" />
    <glyph glyph-name="three.sub" horiz-adv-x="326" 
d="M155 225q-53 0 -72 -39l-59 21q16 37 52.5 60t82.5 23q57 0 95.5 -33t38.5 -82q0 -51 -52 -75q61 -27 61 -86q0 -51 -40.5 -85t-101.5 -34q-50 0 -87.5 23.5t-52.5 62.5l62 23q15 -44 75 -44q33 0 54.5 16t21.5 40t-21 39.5t-53 15.5h-29v51h20q31 0 52 15t21 37
t-19.5 36.5t-48.5 14.5z" />
    <glyph glyph-name="four.sub" horiz-adv-x="356" 
d="M221 -100v75h-201v64l205 246h63v-246h51v-64h-51v-75h-67zM221 185l-121 -146h121v146z" />
    <glyph glyph-name="five.sub" horiz-adv-x="331" 
d="M308 25q0 -55 -42 -92q-41 -38 -103 -38q-51 0 -90 26.5t-54 69.5l67 19q23 -50 76 -50q32 0 54.5 18.5t22.5 46.5t-24.5 47.5t-60.5 19.5h-106l19 193h208v-61h-153l-7 -71h55q58 0 98 -37t40 -91z" />
    <glyph glyph-name="six.sub" horiz-adv-x="333" 
d="M306 216l-60 -29q-23 38 -71 38q-35 0 -58.5 -20t-23.5 -50v-47q29 39 84 39q57 0 97 -36q41 -36 41 -90q0 -53 -42 -89q-40 -37 -102 -37t-103 37q-42 36 -42 89v134q0 59 42 96q43 39 106 39q45 0 80 -20t52 -54zM171 83q-49 3 -69 -37.5t15 -67.5q24 -18 53.5 -18.5
t53 18t21.5 44.5q0 26 -21.5 43.5t-52.5 17.5z" />
    <glyph glyph-name="seven.sub" horiz-adv-x="297" 
d="M65 -100l142 324h-196v61h266v-64l-137 -321h-75z" />
    <glyph glyph-name="eight.sub" horiz-adv-x="334" 
d="M167 -105q-62 0 -103 33q-41 32 -41 81q0 61 58 92q-48 30 -48 83q0 45 38 75.5t96 30.5q57 0 95.5 -30.5t38.5 -76.5q0 -52 -48 -82q58 -34 58 -93q0 -48 -42 -80q-41 -33 -102 -33zM92 15q0 -24 21 -39.5t54 -15.5q32 0 53.5 15.5t21.5 38.5t-21.5 38.5t-53.5 15.5
q-33 0 -54 -15t-21 -38zM102 178q0 -21 18.5 -34.5t46.5 -13.5t46.5 13.5t18.5 34.5q0 20 -18.5 33.5t-46.5 13.5t-46.5 -13.5t-18.5 -33.5z" />
    <glyph glyph-name="nine.sub" horiz-adv-x="331" 
d="M24 -33l59 28q24 -35 73 -35q37 0 61.5 20t24.5 50v47q-26 -45 -83 -45t-97 37t-40 93q0 55 41 91.5t102 36.5q62 0 102 -37q41 -36 41 -89v-133q0 -58 -43 -97t-107 -39q-44 0 -80 19.5t-54 52.5zM166 96q31 0 52 18.5t21 46.5q4 41 -45.5 58.5t-81.5 -12.5
q-20 -20 -20.5 -46t21.5 -46.5t53 -18.5z" />
    <glyph glyph-name="exclamdown.case" horiz-adv-x="248" 
d="M123 713q30 0 50 -19.5t20 -49.5t-20 -50t-50 -20q-29 0 -49 20t-20 50t20 49.5t49 19.5zM68 0l11 485h90l11 -485h-112z" />
    <glyph glyph-name="questiondown.case" horiz-adv-x="555" 
d="M146 199q0 -45 40.5 -76.5t100.5 -31.5q50 0 87.5 23t51.5 62l108 -31q-23 -72 -90 -115t-155 -43q-107 0 -180 61q-72 62 -72 152q0 44 18.5 82t49 62.5t54.5 38.5t49 23l19 7l5 72h91l11 -132q-27 -7 -66 -25q-32 -14 -57 -30q-26 -17 -45.5 -44.5t-19.5 -54.5z
M278 574q-29 0 -49 20t-20 50t20 49.5t49 19.5q30 0 50 -19.5t20 -49.5t-20 -50t-50 -20z" />
    <glyph glyph-name="dagger.case" horiz-adv-x="466" 
d="M23 411v83h167v206h87v-206h166v-83h-166v-411h-87v411h-167z" />
    <glyph glyph-name="daggerdbl.case" horiz-adv-x="466" 
d="M190 189h-167v83h167v156h-167v83h167v189h87v-189h166v-83h-166v-156h166v-83h-166v-189h-87v189z" />
    <glyph glyph-name="slash.case" horiz-adv-x="515" 
d="M96 -100h-96l419 899h96z" />
    <glyph glyph-name="backslash.case" horiz-adv-x="515" 
d="M96 799l419 -899h-96l-419 899h96z" />
    <glyph glyph-name="parenleft.case" horiz-adv-x="304" 
d="M180 784l15 16h96l-17 -20q-10 -14 -36 -57q-53 -90 -82 -218q-32 -154 -1 -310q32 -150 121 -276l15 -19h-96l-1 1q-80 86 -121 234q-28 100 -28 216q0 169 53 291q43 99 82 142z" />
    <glyph glyph-name="parenright.case" horiz-adv-x="304" 
d="M28 781l-15 19h97l16 -18q9 -9 36 -52q28 -44 46 -89q20 -47 36 -126q16 -76 16 -164q0 -158 -48 -279q-19 -50 -43 -89q-28 -45 -37 -56q-12 -17 -21 -26l-1 -1h-97l16 20q15 19 37 57q55 93 81 218q34 151 1 309q-29 148 -120 277z" />
    <glyph glyph-name="bracketleft.case" horiz-adv-x="298" 
d="M115 -101v1h-59v900h229v-87h-133v-727h133v-87h-170z" />
    <glyph glyph-name="bracketright.case" horiz-adv-x="298" 
d="M242 -100h-229v87h133v726h-133v87h229v-900z" />
    <glyph glyph-name="braceleft.case" horiz-adv-x="332" 
d="M247 800h71v-87h-62q-26 0 -43.5 -18t-17.5 -44v-178q0 -49 -25.5 -81t-68.5 -42q43 -10 68.5 -42t25.5 -80v-179q0 -26 17.5 -44t43.5 -18h62v-87h-71q-63 0 -106 43q-42 42 -42 106v179q0 25 -20.5 45t-44.5 27l-22 7v88q10 1 24 6q13 4 39 25q24 20 24 47l1 178
q-1 64 41 106q43 43 106 43z" />
    <glyph glyph-name="braceright.case" horiz-adv-x="331" 
d="M13 713v87h71q64 0 106 -43q42 -42 42 -106v-178q0 -25 20.5 -45t45.5 -27l22 -6v-88q-10 -2 -31 -11q-57 -22 -57 -68v-179q0 -64 -43 -106q-42 -43 -105 -43h-71v87h63q25 0 42.5 18t17.5 44v179q0 49 25.5 81t68.5 41q-43 10 -68.5 42t-25.5 81v178q0 26 -17.5 44
t-42.5 18h-63z" />
    <glyph glyph-name="guillemotleft.case" horiz-adv-x="543" 
d="M224 160l-191 190l191 191l61 -62l-130 -129l130 -129zM437 160l-191 190l191 191l61 -62l-130 -129l130 -129z" />
    <glyph glyph-name="guillemotright.case" horiz-adv-x="543" 
d="M319 541l190 -191l-190 -190l-61 61l129 129l-129 129zM106 541l190 -191l-190 -190l-61 61l129 129l-129 129z" />
    <glyph glyph-name="guilsinglleft.case" horiz-adv-x="330" 
d="M224 160l-191 190l191 191l61 -62l-130 -129l130 -129z" />
    <glyph glyph-name="guilsinglright.case" horiz-adv-x="330" 
d="M106 541l190 -191l-190 -190l-61 61l129 129l-129 129z" />
    <glyph glyph-name="hyphen.case" horiz-adv-x="400" 
d="M63 302v96h274v-96h-274z" />
    <glyph glyph-name="endash.case" 
d="M63 302v96h474v-96h-474z" />
    <glyph glyph-name="emdash.case" horiz-adv-x="1000" 
d="M63 302v96h874v-96h-874z" />
    <glyph glyph-name="bar.case" horiz-adv-x="200" 
d="M144 -100h-88v900h88v-900z" />
    <glyph glyph-name="brokenbar.case" horiz-adv-x="200" 
d="M144 800v-368h-88v368h88zM56 -100v369h88v-369h-88z" />
    <glyph glyph-name="zero.dnom" horiz-adv-x="347" 
d="M25 134v118q0 59 42 98q43 40 107 40t105 -40q43 -39 43 -98v-118q0 -59 -43 -99q-41 -40 -105 -40t-107 40q-42 41 -42 99zM174 325q-35 0 -58 -20.5t-23 -51.5v-120q0 -31 23 -52t58 -21q34 0 57.5 21t23.5 52v120q0 31 -23.5 51.5t-57.5 20.5z" />
    <glyph glyph-name="one.dnom" horiz-adv-x="239" 
d="M118 307l-73 -37l-24 57l116 58h47v-385h-66v307z" />
    <glyph glyph-name="two.dnom" horiz-adv-x="320" 
d="M221 270q0 22 -19.5 38.5t-45.5 16.5q-55 0 -77 -58l-62 31q19 42 56 67t83 25q55 0 95 -35q39 -34 39 -83q0 -59 -82 -132l-80 -76h167v-64h-270v49l141 134q55 52 55 87z" />
    <glyph glyph-name="three.dnom" horiz-adv-x="326" 
d="M155 325q-53 0 -72 -39l-59 21q16 37 52.5 60t82.5 23q57 0 95.5 -33t38.5 -82q0 -51 -52 -75q61 -27 61 -86q0 -51 -40.5 -85t-101.5 -34q-50 0 -87.5 23.5t-52.5 62.5l62 23q15 -44 75 -44q33 0 54.5 16t21.5 40t-21 39.5t-53 15.5h-29v51h20q31 0 52 15t21 37
t-19.5 36.5t-48.5 14.5z" />
    <glyph glyph-name="four.dnom" horiz-adv-x="356" 
d="M221 0v75h-201v64l205 246h63v-246h51v-64h-51v-75h-67zM221 285l-121 -146h121v146z" />
    <glyph glyph-name="five.dnom" horiz-adv-x="331" 
d="M308 125q0 -55 -42 -93q-40 -37 -103 -37q-51 0 -90 26.5t-54 69.5l67 19q23 -50 76 -50q32 0 54.5 18.5t22.5 46.5t-24.5 47.5t-60.5 19.5h-106l19 193h208v-61h-153l-7 -71h55q58 0 98 -37t40 -91z" />
    <glyph glyph-name="six.dnom" horiz-adv-x="333" 
d="M306 316l-60 -29q-23 38 -71 38q-35 0 -58.5 -20t-23.5 -50v-47q29 39 84 39q57 0 97 -36q41 -36 41 -90q0 -53 -42 -90q-41 -36 -102 -36t-103 36q-42 37 -42 90v134q0 59 42 96q43 39 106 39q45 0 80 -20t52 -54zM171 183q-49 3 -69 -37.5t15 -67.5q24 -18 53.5 -18.5
t53 18t21.5 44.5q0 26 -21.5 43.5t-52.5 17.5z" />
    <glyph glyph-name="seven.dnom" horiz-adv-x="297" 
d="M65 0l142 324h-196v61h266v-64l-137 -321h-75z" />
    <glyph glyph-name="eight.dnom" horiz-adv-x="334" 
d="M167 -5q-62 0 -103 33t-41 81q0 61 58 92q-48 30 -48 83q0 45 38 75.5t96 30.5q57 0 95.5 -30.5t38.5 -76.5q0 -52 -48 -82q58 -34 58 -93q0 -48 -42 -81q-41 -32 -102 -32zM92 115q0 -24 21 -39.5t54 -15.5q32 0 53.5 15.5t21.5 38.5t-21.5 38.5t-53.5 15.5
q-33 0 -54 -15t-21 -38zM102 278q0 -21 18.5 -34.5t46.5 -13.5t46.5 13.5t18.5 34.5q0 20 -18.5 33.5t-46.5 13.5t-46.5 -13.5t-18.5 -33.5z" />
    <glyph glyph-name="nine.dnom" horiz-adv-x="331" 
d="M24 67l59 28q24 -35 73 -35q37 0 61.5 20t24.5 50v47q-26 -45 -83 -45t-97 37t-40 93q0 55 41 91.5t102 36.5q62 0 102 -37q41 -36 41 -89v-133q0 -58 -43 -97t-107 -39q-44 0 -80 19.5t-54 52.5zM166 196q31 0 52 18.5t21 46.5q4 41 -45.5 58.5t-81.5 -12.5
q-20 -20 -20.5 -46t21.5 -46.5t53 -18.5z" />
    <glyph glyph-name="logo" horiz-adv-x="430" 
d="M20 518v102h23q71 0 121 -50t50 -121t-50 -121t-121 -50h-23v103q91 0 91 68q0 69 -91 69zM216 518v102h23q71 0 121 -50t50 -121t-50 -121t-121 -50h-23v103q92 0 92 68q0 69 -92 69zM53 216h-27v20h74v-20h-27v-116h-20v116zM139 160l-36 76h23l23 -50l24 50h23
l-36 -76v-60h-21v60zM228 100h-20v136h38q18 0 31 -12.5t13 -30.5t-13 -30.5t-31 -12.5h-18v-50zM246 216h-18v-46h18q10 0 16.5 6.5t6.5 16.5q0 9 -6.5 16t-16.5 7zM363 100h-60v136h60v-20h-39v-48h31v-20h-31v-28h39v-20z" />
    <glyph glyph-name="bullet.case" horiz-adv-x="359" 
d="M41 350q0 60 39.5 99.5t99.5 39.5q59 0 99 -40q40 -39 40 -99q0 -59 -40 -99t-99 -40q-60 0 -100 40q-39 41 -39 99z" />
    <glyph glyph-name="zero.num" horiz-adv-x="347" 
d="M25 449v118q0 59 42 98q43 40 107 40t105 -40q43 -39 43 -98v-118q0 -59 -43 -99q-42 -39 -105 -39q-64 0 -107 39q-42 40 -42 99zM174 640q-35 0 -58 -20.5t-23 -51.5v-120q0 -31 23 -52t58 -21q34 0 57.5 21t23.5 52v120q0 31 -23.5 51.5t-57.5 20.5z" />
    <glyph glyph-name="one.num" horiz-adv-x="239" 
d="M118 622l-73 -37l-24 57l116 58h47v-385h-66v307z" />
    <glyph glyph-name="two.num" horiz-adv-x="320" 
d="M221 585q0 22 -19.5 38.5t-45.5 16.5q-55 0 -77 -58l-62 31q19 42 56 67t83 25q55 0 95 -35q39 -34 39 -83q0 -59 -82 -132l-80 -76h167v-64h-270v49l141 134q55 52 55 87z" />
    <glyph glyph-name="three.num" horiz-adv-x="326" 
d="M155 640q-53 0 -72 -39l-59 21q16 37 52.5 60t82.5 23q57 0 95.5 -33t38.5 -82q0 -51 -52 -75q61 -27 61 -86q0 -51 -40.5 -84.5t-101.5 -33.5q-50 0 -87.5 23t-52.5 62l62 23q15 -44 75 -44q33 0 54.5 16t21.5 40t-21 39.5t-53 15.5h-29v51h20q31 0 52 15t21 37
t-19.5 36.5t-48.5 14.5z" />
    <glyph glyph-name="four.num" horiz-adv-x="356" 
d="M221 315v75h-201v64l205 246h63v-246h51v-64h-51v-75h-67zM221 600l-121 -146h121v146z" />
    <glyph glyph-name="five.num" horiz-adv-x="331" 
d="M308 440q0 -54 -42 -92q-40 -37 -103 -37q-51 0 -90 26t-54 69l67 19q23 -50 76 -50q32 0 54.5 18.5t22.5 46.5t-24.5 47.5t-60.5 19.5h-106l19 193h208v-61h-153l-7 -71h55q58 0 98 -37t40 -91z" />
    <glyph glyph-name="six.num" horiz-adv-x="333" 
d="M306 631l-60 -29q-23 38 -71 38q-35 0 -58.5 -20t-23.5 -50v-47q29 39 84 39q57 0 97 -36q41 -36 41 -90q0 -53 -42 -89q-41 -36 -102 -36q-62 0 -104 36q-41 36 -41 89v134q0 58 42 96q43 39 106 39q45 0 80 -20t52 -54zM171 498q-49 3 -69 -37.5t15 -67.5
q24 -18 53.5 -18.5t53 18t21.5 44.5q0 26 -21.5 43.5t-52.5 17.5z" />
    <glyph glyph-name="seven.num" horiz-adv-x="297" 
d="M65 315l142 324h-196v61h266v-64l-137 -321h-75z" />
    <glyph glyph-name="eight.num" horiz-adv-x="334" 
d="M23 424q0 61 58 92q-48 30 -48 83q0 45 38 75.5t96 30.5q57 0 95.5 -30.5t38.5 -76.5q0 -52 -48 -82q58 -34 58 -93q0 -48 -41 -80t-103 -32t-103 32q-41 33 -41 81zM92 430q0 -24 21 -39.5t54 -15.5q32 0 53.5 15.5t21.5 38.5t-21.5 38.5t-53.5 15.5q-33 0 -54 -15
t-21 -38zM102 593q0 -21 18.5 -34.5t46.5 -13.5t46.5 13.5t18.5 34.5q0 20 -18.5 33.5t-46.5 13.5t-46.5 -13.5t-18.5 -33.5z" />
    <glyph glyph-name="nine.num" horiz-adv-x="331" 
d="M24 382l59 28q24 -35 73 -35q37 0 61.5 20t24.5 50v47q-26 -45 -83 -45t-97 37t-40 93q0 55 41 91.5t102 36.5q62 0 102 -37q41 -36 41 -89v-133q0 -58 -43 -97q-44 -38 -107 -38q-44 0 -80 19t-54 52zM166 511q31 0 52 18.5t21 46.5q4 41 -45.5 58.5t-81.5 -12.5
q-20 -20 -20.5 -46t21.5 -46.5t53 -18.5z" />
    <glyph glyph-name="afii10021.1" horiz-adv-x="826" 
d="M804 0h-782v104h79q79 25 79 253v343h512v-596h112v-104zM242 104h337v492h-287v-234q0 -169 -50 -258z" />
    <glyph glyph-name="afii10040.1" horiz-adv-x="792" 
d="M68 700h112v-596h366v596h112v-596h113v-104h-703v700z" />
    <glyph glyph-name="afii10043.1" horiz-adv-x="1130" 
d="M68 0v700h112v-596h292v596h112v-596h300v596h112v-596h113v-104h-1041z" />
    <glyph glyph-name="germandbls.1" horiz-adv-x="583" 
d="M166 424v-424h-104v583q0 77 60 126q62 50 152 50h24v-104h-24q-46 0 -77 -21.5t-31 -53.5v-60h335v-79l-108 -154q72 -31 114 -99t42 -154q0 -116 -81 -194t-200 -78v104q76 0 126 49q51 48 51 120t-51 120t-126 48v79l100 142h-202z" />
    <glyph glyph-name="R.1" horiz-adv-x="667" 
d="M68 700h320q100 0 167 -60q68 -60 68 -149q0 -56 -28.5 -103t-77.5 -74q65 -50 82 -128l41 -186h-111l-34 157q-10 47 -49.5 79t-88.5 32h-177v-268h-112v700zM388 596h-208v-224h208q50 0 84 32t34 80t-34 80t-84 32z" />
    <glyph glyph-name="Racute.1" horiz-adv-x="677" 
d="M180 0h-112v700h320q100 0 167 -60q68 -60 68 -149q0 -56 -28.5 -103t-77.5 -74q65 -50 82 -128l41 -186h-111l-34 157q-10 47 -49.5 79t-88.5 32h-177v-268zM388 596h-208v-224h208q50 0 84 32t34 80t-34 80t-84 32zM458 856l-206 -93l-35 64l193 123z" />
    <glyph glyph-name="Rcaron.1" horiz-adv-x="677" 
d="M180 268v-268h-112v700h320q100 0 167 -60q68 -60 68 -149q0 -56 -28.5 -103t-77.5 -74q65 -50 82 -128l41 -186h-111l-34 157q-10 47 -49.5 79t-88.5 32h-177zM388 596h-208v-224h208q50 0 84 32t34 80t-34 80t-84 32zM291 763h-6l-168 124l44 59l127 -78l127 77l44 -58
z" />
    <glyph glyph-name="Rcommaaccent.1" horiz-adv-x="677" 
d="M180 0h-112v700h320q100 0 167 -60q68 -60 68 -149q0 -56 -28.5 -103t-77.5 -74q65 -50 82 -128l41 -186h-111l-34 157q-10 47 -49.5 79t-88.5 32h-177v-268zM388 596h-208v-224h208q50 0 84 32t34 80t-34 80t-84 32zM298 -111q0 24 16.5 40t41.5 16q27 0 45 -20.5
t18 -53.5q0 -70 -83 -121l-6 -4l-27 28l12 11q9 7 20.5 22.5t11.5 24.5q-21 3 -35 19.5t-14 37.5z" />
    <glyph glyph-name="u.1" horiz-adv-x="608" 
d="M61 233v287h104v-279q0 -65 40 -108q41 -42 100 -42t98 42q40 43 40 108v279h104v-287q0 -106 -70 -176q-69 -70 -173 -70t-174 70q-69 71 -69 176z" />
    <glyph glyph-name="uacute.1" horiz-adv-x="608" 
d="M61 233v287h104v-279q0 -65 40 -108q41 -42 100 -42t98 42q40 43 40 108v279h104v-287q0 -106 -70 -176q-69 -70 -173 -70t-174 70q-69 71 -69 176zM262 594l-36 65l194 122l48 -93z" />
    <glyph glyph-name="ubreve.1" horiz-adv-x="608" 
d="M61 233v287h104v-279q0 -65 40 -108q41 -42 100 -42t98 42q40 43 40 108v279h104v-287q0 -106 -70 -176q-69 -70 -173 -70t-174 70q-69 71 -69 176zM150 738h83q0 -34 21 -57t53 -23t52.5 22.5t20.5 57.5h83q0 -66 -45 -111q-46 -44 -112 -44t-112 44q-44 46 -44 111z
" />
    <glyph glyph-name="ucircumflex.1" horiz-adv-x="608" 
d="M61 233v287h104v-279q0 -65 40 -108q41 -42 100 -42t98 42q40 43 40 108v279h104v-287q0 -106 -70 -176q-69 -70 -173 -70t-174 70q-69 71 -69 176zM306 672l-127 -78l-44 59l168 124h6l168 -124l-44 -58z" />
    <glyph glyph-name="udieresis.1" horiz-adv-x="608" 
d="M61 233v287h104v-279q0 -65 40 -108q41 -42 100 -42t98 42q40 43 40 108v279h104v-287q0 -106 -70 -176q-69 -70 -173 -70t-174 70q-69 71 -69 176zM154 608q-19 19 -19 47t19 46q19 19 47 19t47 -19q19 -18 19 -46t-19 -47q-19 -18 -47 -18t-47 18zM411 720
q29 0 47.5 -18.5t18.5 -46.5t-18.5 -46.5t-47.5 -18.5q-28 0 -46.5 18.5t-18.5 46.5t18.5 46.5t46.5 18.5z" />
    <glyph glyph-name="ugrave.1" horiz-adv-x="608" 
d="M61 233v287h104v-279q0 -65 40 -108q41 -42 100 -42t98 42q40 43 40 108v279h104v-287q0 -106 -70 -176q-69 -70 -173 -70t-174 70q-69 71 -69 176zM347 594l-206 94l48 93l194 -122z" />
    <glyph glyph-name="uhungarumlaut.1" horiz-adv-x="608" 
d="M61 233v287h104v-279q0 -65 40 -108q41 -42 100 -42t98 42q40 43 40 108v279h104v-287q0 -106 -70 -176q-69 -70 -173 -70t-174 70q-69 71 -69 176zM210 581l-53 51l139 164l74 -75zM406 581l-53 51l139 164l74 -75z" />
    <glyph glyph-name="umacron.1" horiz-adv-x="608" 
d="M61 233v287h104v-279q0 -65 40 -108q41 -42 100 -42t98 42q40 43 40 108v279h104v-287q0 -106 -70 -176q-69 -70 -173 -70t-174 70q-69 71 -69 176zM457 619h-301v87h301v-87z" />
    <glyph glyph-name="uogonek.1" horiz-adv-x="608" 
d="M61 233v287h104v-279q0 -65 40 -108q41 -42 100 -42t98 42q40 43 40 108v279h104v-287q0 -94 -55 -159q-54 -66 -140 -83q-51 -48 -51 -89q0 -17 11 -27.5t27 -10.5q27 0 47 18l6 7l37 -44q-5 -7 -15 -14q-10 -10 -39 -23q-29 -15 -58 -15q-41 0 -69 25.5t-28 63.5
q0 52 52 107q-91 10 -152 79q-59 68 -59 165z" />
    <glyph glyph-name="uring.1" horiz-adv-x="608" 
d="M61 233v287h104v-279q0 -65 40 -108q41 -42 100 -42t98 42q40 43 40 108v279h104v-287q0 -106 -70 -176q-69 -70 -173 -70t-174 70q-69 71 -69 176zM194 694q0 47 33 80t79 33t79 -34q34 -33 34 -79t-33 -79t-80 -33q-46 0 -79 33t-33 79zM306 655q24 -2 34 18.5t0 41
t-34 18.5q-23 2 -32.5 -18.5t0 -41t32.5 -18.5z" />
    <glyph glyph-name="utilde.1" horiz-adv-x="608" 
d="M61 233v287h104v-279q0 -65 40 -108q41 -42 100 -42t98 42q40 43 40 108v279h104v-287q0 -106 -70 -176q-69 -70 -173 -70t-174 70q-69 71 -69 176zM228 609h-82q0 47 31 78q31 33 76 33q31 0 59 -21t40 -21q13 0 22.5 10.5t9.5 27.5h82q0 -47 -31 -79.5t-75 -32.5
q-30 0 -59 21t-40 21q-14 0 -23.5 -10.5t-9.5 -26.5z" />
    <glyph glyph-name="y.1" horiz-adv-x="539" 
d="M215 14l-203 506h107l148 -378l153 378h107l-305 -745h-104z" />
    <glyph glyph-name="yacute.1" horiz-adv-x="539" 
d="M215 14l-203 506h107l148 -378l153 378h107l-305 -745h-104zM431 688l-206 -94l-36 65l194 122z" />
    <glyph glyph-name="ycircumflex.1" horiz-adv-x="539" 
d="M118 -225l97 239l-203 506h107l148 -378l153 378h107l-305 -745h-104zM269 672l-127 -78l-44 59l168 124h6l168 -124l-44 -58z" />
    <glyph glyph-name="ydieresis.1" horiz-adv-x="539" 
d="M215 14l-203 506h107l148 -378l153 378h107l-305 -745h-104zM374 590q-27 0 -46 18.5t-19 46.5t19 46.5t46 18.5q29 0 48 -18.5t19 -46.5t-19 -46.5t-48 -18.5zM211 608q-19 -18 -47 -18t-47 18q-19 19 -19 47t19 46q19 19 47 19t47 -19q19 -18 19 -46t-19 -47z" />
    <glyph glyph-name="ygrave.1" horiz-adv-x="539" 
d="M215 14l-203 506h107l148 -378l153 378h107l-305 -745h-104zM310 594l-206 94l48 93l194 -122z" />
    <glyph glyph-name="afii10085.1" horiz-adv-x="539" 
d="M215 14l-203 506h107l148 -378l153 378h107l-305 -745h-104z" />
    <glyph glyph-name="afii10110.1" horiz-adv-x="539" 
d="M118 -225l97 239l-203 506h107l148 -378l153 378h107l-305 -745h-104zM98 738h87q0 -34 24.5 -57t60.5 -23t60 23t24 57h87q0 -71 -49 -117t-122 -46q-74 0 -123 46t-49 117z" />
    <glyph glyph-name="g.1" horiz-adv-x="634" 
d="M295 533q101 0 173 -69v56h104v-502q0 -109 -76 -182q-76 -74 -184 -74q-50 0 -101 18l39 95q27 -9 58 -9q67 0 114 44q46 43 46 108v38q-72 -69 -173 -69q-109 0 -183 78q-73 77 -73 195t73 195q74 78 183 78zM306 91q68 0 114 48q46 49 46 121q0 73 -46 120
q-46 49 -114 49q-67 0 -113 -49q-46 -47 -46 -120q0 -72 46 -121q47 -48 113 -48z" />
    <glyph glyph-name="gbreve.1" horiz-adv-x="634" 
d="M295 -13q-109 0 -183 78q-73 77 -73 195t73 195q74 78 183 78q101 0 173 -69v56h104v-502q0 -109 -76 -182q-76 -74 -184 -74q-50 0 -101 18l39 95q27 -9 58 -9q67 0 114 44q46 43 46 108v38q-72 -69 -173 -69zM306 429q-67 0 -113 -49q-46 -47 -46 -120q0 -72 46 -121
q47 -48 113 -48q68 0 114 48q46 49 46 121q0 73 -46 120q-46 49 -114 49zM152 738h83q0 -34 21 -57t53 -23q31 0 51.5 22.5t20.5 57.5h83q0 -66 -45 -111q-44 -44 -111 -44q-66 0 -112 44q-44 46 -44 111z" />
    <glyph glyph-name="gcircumflex.1" horiz-adv-x="634" 
d="M295 -13q-109 0 -183 78q-73 77 -73 195t73 195q74 78 183 78q101 0 173 -69v56h104v-502q0 -109 -76 -182q-76 -74 -184 -74q-50 0 -101 18l39 95q27 -9 58 -9q67 0 114 44q46 43 46 108v38q-72 -69 -173 -69zM306 429q-67 0 -113 -49q-46 -47 -46 -120q0 -72 46 -121
q47 -48 113 -48q68 0 114 48q46 49 46 121q0 73 -46 120q-46 49 -114 49zM308 672l-127 -78l-44 59l168 124h6l167 -124l-43 -58z" />
    <glyph glyph-name="gcommaaccent.1" horiz-adv-x="634" 
d="M295 533q101 0 173 -69v56h104v-502q0 -109 -76 -182q-76 -74 -184 -74q-50 0 -101 18l39 95q27 -9 58 -9q67 0 114 44q46 43 46 108v38q-72 -69 -173 -69q-109 0 -183 78q-73 77 -73 195t73 195q74 78 183 78zM306 429q-67 0 -113 -49q-46 -47 -46 -120q0 -72 46 -121
q47 -48 113 -48q68 0 114 48q46 49 46 121q0 73 -46 120q-46 49 -114 49zM246 655q0 22 9 43t21.5 35t26 25t22 16t10.5 6l27 -28q-2 -2 -6.5 -5.5t-6.5 -4.5q-31 -28 -31 -48q20 -3 34 -19t14 -38q0 -23 -16 -39.5t-41 -16.5q-27 0 -45 20.5t-18 53.5z" />
    <glyph glyph-name="gdotaccent.1" horiz-adv-x="634" 
d="M295 -13q-109 0 -183 78q-73 77 -73 195t73 195q74 78 183 78q101 0 173 -69v56h104v-502q0 -109 -76 -182q-76 -74 -184 -74q-50 0 -101 18l39 95q27 -9 58 -9q67 0 114 44q46 43 46 108v38q-72 -69 -173 -69zM306 429q-67 0 -113 -49q-46 -47 -46 -120q0 -72 46 -121
q47 -48 113 -48q68 0 114 48q46 49 46 121q0 73 -46 120q-46 49 -114 49zM239 659q0 30 20 49.5t49 19.5t49 -19.5t20 -49.5q0 -29 -20 -48.5t-49 -19.5t-49 19.5t-20 48.5z" />
    <glyph glyph-name="t.1" horiz-adv-x="362" 
d="M12 429v56l123 133h60v-98h138v-91h-138v-256q0 -31 20 -52t50 -21h68v-100h-76q-70 0 -118 45q-48 47 -48 114v270h-79z" />
    <glyph glyph-name="tbar.1" horiz-adv-x="362" 
d="M91 429h-79v56l123 133h60v-98h138v-91h-138v-106h95v-79h-95v-71q0 -31 20 -52t50 -21h68v-100h-76q-70 0 -118 45q-48 47 -48 114v85h-63v79h63v106z" />
    <glyph glyph-name="tcaron.1" horiz-adv-x="381" 
d="M12 429v56l123 133h60v-98h138v-91h-138v-256q0 -31 20 -52t50 -21h68v-100h-76q-70 0 -118 45q-48 47 -48 114v270h-79zM363 671q0 -75 -88 -124l-1 -1l-27 28l12 10q10 8 21 23.5t11 24.5q-21 4 -34.5 20t-13.5 38q0 23 16.5 39t40.5 16q28 0 45.5 -20.5t17.5 -53.5z
" />
    <glyph glyph-name="tcommaaccent.1" horiz-adv-x="362" 
d="M12 429v56l123 133h60v-98h138v-91h-138v-256q0 -31 20 -52t50 -21h68v-100h-76q-70 0 -118 45q-48 47 -48 114v270h-79zM272 -129q0 -43 -29 -75.5t-55 -45.5l-5 -4l-27 28l12 11q9 7 20.5 22.5t11.5 24.5q-20 3 -34 19t-14 38q0 24 16 40t41 16q27 0 45 -20.5t18 -53.5
z" />
    <glyph glyph-name="uni021B.1" horiz-adv-x="362" 
d="M12 429v56l123 133h60v-98h138v-91h-138v-256q0 -31 20 -52t50 -21h68v-100h-76q-70 0 -118 45q-48 47 -48 114v270h-79zM272 -129q0 -43 -29 -75.5t-55 -45.5l-5 -4l-27 28l12 11q9 7 20.5 22.5t11.5 24.5q-20 3 -34 19t-14 38q0 24 16 40t41 16q27 0 45 -20.5t18 -53.5
z" />
    </font>
</defs>
</svg>
