<?xml version="1.0" standalone="no"?>
<!DOCTYPE svg PUBLIC "-//W3C//DTD SVG 20010904//EN"
 "http://www.w3.org/TR/2001/REC-SVG-20010904/DTD/svg10.dtd">
<svg version="1.0" xmlns="http://www.w3.org/2000/svg"
 width="512.000000pt" height="512.000000pt" viewBox="0 0 512.000000 512.000000"
 preserveAspectRatio="xMidYMid meet">
<metadata>
Created by potrace 1.14, written by Peter Selinger 2001-2017
</metadata>
<g transform="translate(0.000000,512.000000) scale(0.100000,-0.100000)"
fill="#000000" stroke="none">
<path d="M2928 5106 c-15 -8 -49 -38 -75 -67 -27 -29 -58 -63 -70 -76 -12 -13
-19 -23 -16 -23 4 0 -3 -10 -14 -22 -30 -34 -75 -104 -117 -183 -41 -76 -113
-244 -120 -279 -3 -11 -11 -40 -20 -63 -8 -24 -14 -43 -12 -43 2 0 -2 -21 -10
-47 -8 -25 -12 -49 -9 -51 3 -3 1 -10 -4 -16 -8 -9 -23 -102 -24 -143 0 -6 -6
-9 -14 -6 -7 3 -11 9 -8 13 2 4 -4 18 -15 30 -11 13 -20 29 -20 37 0 7 -5 13
-11 13 -5 0 -7 5 -4 10 3 6 -1 13 -9 16 -9 3 -16 10 -16 15 0 8 -58 99 -70
109 -3 3 -21 25 -40 50 -89 116 -268 272 -405 351 -111 64 -294 137 -354 142
-12 1 -21 4 -21 7 0 3 -8 6 -17 7 -10 1 -31 4 -48 7 -28 6 -92 14 -140 19 -11
1 -23 7 -27 12 -5 6 -8 6 -8 -1 0 -7 -13 -10 -32 -7 -63 8 -98 8 -98 0 0 -4
-8 -3 -19 2 -10 6 -21 8 -24 4 -6 -5 -70 -12 -144 -16 -18 -1 -33 -4 -33 -8 0
-4 -11 -7 -25 -8 -46 -3 -55 -4 -55 -10 0 -4 -12 -8 -26 -9 -15 -1 -32 -6 -39
-12 -6 -5 -21 -11 -32 -13 -26 -4 -57 -28 -46 -36 4 -3 26 -28 48 -56 79 -100
254 -280 335 -345 23 -19 52 -44 64 -55 31 -30 173 -125 185 -125 6 0 11 -4
11 -8 0 -4 16 -14 35 -21 19 -7 35 -17 35 -22 0 -6 4 -8 8 -5 5 3 20 -1 35 -9
14 -7 28 -11 31 -7 3 3 6 0 6 -7 0 -7 7 -11 15 -8 8 4 17 2 20 -3 4 -6 19 -10
35 -10 30 0 50 -15 22 -16 -9 -1 -31 -4 -48 -7 -17 -4 -46 -9 -65 -12 -38 -5
-74 -13 -74 -15 0 -2 -37 -10 -63 -12 -12 -1 -22 -5 -22 -8 0 -3 -20 -11 -44
-18 -45 -12 -157 -60 -166 -71 -3 -3 -14 -8 -25 -9 -11 -2 -22 -7 -25 -11 -3
-3 -36 -27 -75 -51 -69 -44 -255 -223 -255 -244 0 -7 -12 -25 -27 -42 -16 -18
-29 -38 -31 -45 -2 -8 -8 -17 -14 -20 -5 -3 -10 -10 -11 -15 0 -5 -11 -33 -25
-62 -13 -29 -25 -58 -26 -65 -1 -7 -5 -17 -8 -23 -9 -14 -34 -91 -44 -134 -11
-48 -11 -50 -14 -52 -1 -2 -3 -12 -4 -23 -2 -11 -6 -47 -11 -80 -4 -33 -9 -71
-11 -85 -5 -33 -5 -376 0 -420 2 -19 7 -75 11 -124 4 -50 8 -97 10 -105 2 -9
6 -45 10 -81 4 -36 9 -74 12 -85 2 -11 6 -36 7 -56 2 -20 6 -45 9 -55 4 -11 9
-39 12 -64 4 -24 9 -49 12 -54 4 -5 7 -19 9 -30 1 -12 10 -52 19 -91 8 -38 18
-83 21 -100 3 -16 9 -32 12 -35 4 -3 9 -16 10 -30 2 -14 5 -29 5 -35 1 -5 5
-12 9 -15 4 -3 9 -20 13 -37 3 -18 9 -43 15 -57 5 -15 7 -26 4 -26 -4 0 -1 -6
5 -13 6 -8 8 -17 4 -20 -3 -4 0 -7 7 -7 7 0 11 -3 7 -6 -3 -4 0 -21 8 -39 7
-19 11 -36 7 -39 -3 -3 0 -6 6 -6 7 0 12 -6 12 -14 0 -13 46 -136 78 -206 8
-19 16 -37 16 -40 1 -8 133 -271 163 -325 15 -27 31 -52 36 -53 4 -2 7 -9 7
-17 0 -7 7 -18 15 -25 8 -7 13 -16 10 -20 -3 -5 -2 -10 3 -12 4 -1 29 -36 56
-76 27 -39 57 -80 66 -90 9 -10 25 -31 36 -46 32 -50 215 -246 229 -246 3 0
16 -10 28 -23 12 -13 54 -44 92 -69 150 -97 229 -120 395 -114 63 3 129 7 145
11 42 8 166 44 190 55 36 17 140 53 160 56 11 2 31 6 45 9 32 7 134 8 185 1
43 -6 80 -14 80 -16 0 -1 10 -3 23 -6 13 -2 47 -15 76 -28 53 -24 180 -63 238
-72 18 -3 87 -7 153 -9 100 -3 130 0 180 16 33 11 65 21 70 22 18 4 130 71
133 79 2 4 10 8 17 8 8 0 18 6 22 13 4 7 19 20 33 28 49 32 223 211 275 284
11 15 27 35 35 44 8 9 30 40 49 69 18 28 37 52 43 52 5 0 6 4 3 10 -3 5 -1 10
6 10 7 0 10 3 6 6 -3 4 5 21 18 39 14 17 25 37 25 43 0 6 4 12 8 14 11 4 182
324 182 340 0 3 10 27 22 54 12 27 21 52 20 57 -1 4 3 7 10 7 6 0 9 3 5 6 -3
3 5 30 18 59 12 29 26 67 30 84 4 20 11 29 18 24 7 -3 9 -3 5 2 -4 4 -1 23 7
41 8 19 12 34 9 34 -2 0 2 14 11 30 9 17 13 30 11 30 -3 0 -1 12 5 28 6 15 12
34 14 42 2 8 15 56 30 105 15 50 28 100 28 113 1 12 5 22 10 22 4 0 6 4 3 9
-3 4 -1 23 4 42 6 19 12 45 15 59 5 27 12 57 21 92 9 39 17 101 18 138 1 19 4
37 8 40 3 3 9 37 13 75 4 39 9 78 11 88 2 10 6 55 9 100 4 45 8 102 11 127 6
61 6 386 0 430 -3 19 -8 58 -12 85 -10 80 -41 205 -68 273 -13 34 -21 62 -18
62 4 0 3 4 -3 8 -13 9 -55 93 -55 109 0 6 -3 13 -7 15 -5 2 -21 23 -38 48 -68
101 -176 210 -276 277 -68 46 -135 85 -141 82 -2 0 -25 10 -53 24 -58 29 -215
80 -223 72 -3 -2 -10 0 -17 5 -6 5 -29 12 -49 15 -21 2 -46 6 -55 9 -9 3 -52
8 -96 11 -43 4 -83 9 -87 11 -4 3 -8 -1 -8 -8 0 -8 -3 -9 -8 -3 -7 11 -172 15
-172 5 0 -3 -17 -6 -37 -6 -21 0 -56 -4 -78 -8 -22 -5 -48 -8 -57 -8 -10 1
-18 -3 -18 -7 0 -4 -6 -8 -12 -9 -7 0 -24 -3 -38 -7 -14 -3 -29 -7 -35 -8 -5
-2 -16 -6 -22 -10 -7 -5 -13 -5 -13 -1 0 3 -6 1 -14 -5 -8 -7 -27 -14 -43 -17
-37 -8 -45 -10 -63 -17 -8 -4 -28 -8 -45 -11 -16 -2 -30 -5 -30 -6 0 -1 -19
-4 -42 -6 l-42 -4 2 40 c1 22 4 40 7 40 3 0 6 12 7 28 1 30 11 107 13 107 2 0
9 32 14 60 2 11 7 28 10 37 4 9 9 22 10 30 2 7 9 27 15 43 14 32 22 62 23 83
1 6 5 12 9 12 6 0 18 35 20 57 0 5 7 12 15 16 8 5 12 12 9 17 -3 5 -1 11 4 14
5 4 19 27 32 54 12 26 25 49 28 52 3 3 18 23 33 45 27 40 57 77 101 125 55 62
61 72 62 117 2 52 -22 104 -60 129 -34 22 -105 27 -137 10z m-514 -1113 c4
-10 1 -11 -12 -5 -9 5 -23 7 -29 5 -7 -3 -13 -1 -13 4 0 14 49 10 54 -4z"/>
</g>
</svg>
